<?xml version="1.0" standalone="no"?>
<!DOCTYPE svg PUBLIC "-//W3C//DTD SVG 1.1//EN" "http://www.w3.org/Graphics/SVG/1.1/DTD/svg11.dtd" >
<svg xmlns="http://www.w3.org/2000/svg">
<metadata>
This is a custom SVG webfont generated by Font Squirrel.
Copyright   : UPCCordia  UPC Unity Progress CoLtd 1986 All rights reserved
Foundry     : Boonlert Wuthikornkhanarak
Foundry URL : infoupccoth
</metadata>
<defs>
<font id="webfont28DFtgUh" horiz-adv-x="0" >
<font-face units-per-em="2048" ascent="1638" descent="-410" />
<missing-glyph horiz-adv-x="372" />
<glyph unicode="&#xe4f;&#x22;" horiz-adv-x="641" d="M565 375q-20 -106 -109.5 -181t-195.5 -75q-72 0 -122 34.5t-73 91t-9 130.5q14 72 60 128t108 90.5t134 34.5q74 0 124 -34.5t73.5 -90.5t9.5 -128zM532 375q12 61 -8 111t-64 80t-108 30q-56 0 -110 -25.5t-98 -77t-56 -118.5q-18 -94 35 -158.5t143 -64.5 q92 0 170 64.5t96 158.5zM418 375q-6 -29 -22.5 -52.5t-44 -40t-62.5 -16.5q-29 0 -51.5 14.5t-32 39t-2.5 55.5q8 43 45.5 76t81.5 33q31 0 52.5 -16t31.5 -39.5t4 -53.5zM542 868l-54 -178h-60l14 178l31 156h101zM366 868l-52 -178h-60l16 178l31 156h97z" />
<glyph unicode="&#xe24;&#xe32;" horiz-adv-x="1202" d="M538 -498h-77l213 1096q14 76 -43 119t-158 43q-116 0 -225 -66q76 -20 152 -78q-54 -20 -91 -45.5t-53 -51t-22 -58.5l-44 -219q22 16 54 16q39 0 66.5 -15t40.5 -46t5 -74q-8 -39 -30.5 -69t-57 -47t-76.5 -17q-33 0 -57.5 13t-37.5 43t-5 75l72 373q16 84 122 118 q-49 32 -159 62q58 68 163.5 112t197.5 44q98 0 161 -29q13 -7 19 -13q68 32 135 33q114 0 176.5 -71.5t40.5 -184.5l-209 -1071h-76l207 1057q12 62 -4 105.5t-52 68.5t-96 25q-41 0 -63 -10q9 -8 13 -17q26 -49 14 -121zM284 125q12 61 -48 61q-70 0 -82 -67 q-12 -61 51 -61q67 0 79 67z" />
<glyph unicode="&#xe26;&#xe32;" horiz-adv-x="1390" d="M635 -498h-76l213 1096q14 76 -44 119t-156 43q-121 0 -226 -66q80 -20 150 -78q-51 -22 -88.5 -48t-50.5 -49t-21 -58l-66 -336q-10 -54 -55 -94.5t-99 -40.5q-38 0 -67 18t-40 48t-5 67q10 55 52 92t98 37q35 0 63 -16l49 256q16 84 119 120q-47 32 -162 62 q58 68 163.5 112t201.5 44q94 0 160 -29q4 -5 10 -7q49 32 129 32q112 0 173.5 -72t41.5 -184l-209 -1072h-76l205 1057q12 62 -4 105.5t-52 68.5t-94 25q-33 0 -53 -6q11 -12 17 -25q26 -49 14 -121zM203 119q15 71 -55 71q-60 0 -72 -63q-14 -71 53 -71q62 0 74 63z" />
<glyph unicode="&#xfb01;" horiz-adv-x="545" d="M324 -4l124 639h-166l-122 -635h-82l122 635h-110l12 61h111l13 72q14 72 36 114q22 40 70 68q47 26 104 27q36 -1 98 -17l-26 -65q-46 6 -68 6q-35 0 -59.5 -10.5t-40.5 -36.5q-20 -24 -35 -98l-10 -60l166 2l-2 -4h81l-134 -698h-82z" />
<glyph unicode="&#xfb02;" horiz-adv-x="536" d="M305 4l174 893q-20 2 -37.5 3t-27.5 1q-34 0 -59 -10.5t-43 -36.5q-18 -24 -34 -98l-10 -60h123l-12 -61h-123l-123 -635h-82l123 635h-110l12 61h110l12 72q14 72 38 114q22 40 69 68q45 26 105 27q16 0 40 -3.5t48 -9.5h76l-187 -960h-82z" />
<glyph unicode=" "  horiz-adv-x="372" />
<glyph unicode="&#x09;" horiz-adv-x="372" />
<glyph unicode="&#xa0;" horiz-adv-x="372" />
<glyph unicode="!" horiz-adv-x="446" d="M334 746l-121 -508h-53l76 508l42 214h99zM198 0h-112l24 127h113z" />
<glyph unicode="&#x22;" horiz-adv-x="372" d="M400 805l-56 -179h-60l15 179l31 155h100zM223 805l-53 -179h-60l17 179l31 155h96z" />
<glyph unicode="#" horiz-adv-x="747" d="M680 280h-188l-111 -272h-59l112 272h-258l-112 -272h-60l112 272h-114l12 62h126l104 260h-178l10 62h190l113 274h61l-112 -274h254l114 274h64l-113 -274h107l-10 -62h-120l-104 -260h172zM561 602h-256l-107 -260h258z" />
<glyph unicode="$" horiz-adv-x="747" d="M307 -16l-23 -119h-48l22 119q-248 8 -240 276l82 10q4 -203 170 -219l80 412q-68 18 -107.5 34.5t-70 46.5t-42 75t0.5 102q14 76 56.5 130t108.5 87t154 39l13 57h49l-12 -57q200 -17 208 -229l-84 -10q-4 147 -138 167l-72 -373q162 -51 204 -113.5t23 -156.5 q-22 -118 -110 -191t-224 -87zM398 448l-78 -397q209 27 243 205q8 43 -2 77.5t-40.5 60.5t-122.5 54zM366 547l72 361q-197 -14 -229 -185q-6 -33 -1 -59.5t22.5 -49t51 -39t84.5 -28.5z" />
<glyph unicode="%" horiz-adv-x="1194" d="M1065 215q-49 -250 -248 -250q-92 0 -130.5 67.5t-16.5 178.5q14 80 51 138.5t86 89t109 30.5q51 0 84.5 -19.5t52 -55.5t20.5 -80.5t-8 -98.5zM534 723q-49 -250 -245 -250q-48 0 -79.5 16.5t-50.5 50.5t-24 78t7 101q22 114 86.5 186t158.5 72t131.5 -69t15.5 -185z M463 721q36 193 -86 193q-127 0 -164 -189q-37 -195 90 -195q123 0 160 191zM991 213q37 195 -86 195t-161 -191q-36 -195 88 -195t159 191zM1016 977l-758 -1012h-68l758 1012h68z" />
<glyph unicode="&#x26;" horiz-adv-x="895" d="M784 56l-72 -72q-64 62 -124 149q-140 -149 -293 -149q-90 0 -151.5 39t-88.5 100t-10 141q6 41 24.5 76t47.5 66.5t76 64.5t129 76q-37 68 -53.5 119t-8.5 94q16 92 92 154.5t168 62.5q66 0 109 -27.5t61 -73.5t6 -110q-26 -134 -252 -236l164 -254l54 78l50 90l80 -16 q-70 -129 -136 -217l59 -82q19 -26 69 -73zM542 196q-102 132 -186 290q-123 -62 -166.5 -109t-54.5 -99q-16 -86 33 -152t133 -66q123 0 241 136zM610 770q10 56 -18.5 93.5t-83.5 37.5q-56 0 -103 -37.5t-57 -93.5q-4 -16 -1 -38t13 -47t48 -95q184 86 202 180z" />
<glyph unicode="'" horiz-adv-x="299" d="M268 805l-53 -177h-57l14 177l31 155h96z" />
<glyph unicode="(" horiz-adv-x="446" d="M268 -215h-63q-167 315 -107 625q20 106 61 203t114 206t177 225h60q-264 -320 -326 -638q-64 -324 84 -621z" />
<glyph unicode=")" horiz-adv-x="446" d="M-6 -215h-60q264 322 326 641q62 322 -86 618h66q166 -314 104 -624q-32 -174 -120.5 -323.5t-229.5 -311.5z" />
<glyph unicode="*" horiz-adv-x="522" d="M538 798l-88 -24l-86 -18l44 -68l44 -66l-67 -44l-35 74l-30 75l-122 -149l-50 44l65 66l71 68l-81 18l-80 24l39 68l72 -32l73 -36l21 179h74l-46 -179l86 36l88 32z" />
<glyph unicode="+" horiz-adv-x="887" d="M792 442h-319l-61 -321h-62l62 321h-322l12 60h322l64 322h61l-63 -322h319z" />
<glyph unicode="," horiz-adv-x="372" d="M47 -178l-27 47q37 24 54.5 48.5t31.5 82.5h-53l25 127h114l-24 -127q-25 -116 -121 -178z" />
<glyph unicode="-" horiz-adv-x="446" d="M381 330h-351l17 86h351z" />
<glyph unicode="." horiz-adv-x="372" d="M164 0h-115l25 127h114z" />
<glyph unicode="/" horiz-adv-x="372" d="M484 977l-508 -1001h-62l508 1001h62z" />
<glyph unicode="0" horiz-adv-x="747" d="M682 471q-94 -487 -398 -487t-212 470q25 136 62.5 232t86.5 155.5t113 89t141 29.5q303 0 207 -489zM598 471q82 424 -137 424q-56 0 -102.5 -25.5t-84.5 -76.5t-65 -131t-49 -195q-20 -100 -25.5 -173t9 -127.5t53.5 -85t104 -30.5q215 0 297 420z" />
<glyph unicode="1" horiz-adv-x="747" d="M396 0h-82l155 803q-129 -102 -275 -154l15 72q227 111 317 239h56z" />
<glyph unicode="2" horiz-adv-x="747" d="M588 0h-623q14 47 39.5 92t100.5 113.5t207 156.5q94 64 144 101t89 76t59 76t29 77q12 60 -6.5 105t-60.5 70.5t-103 25.5q-182 0 -258 -209l-82 12q36 122 131.5 193t227.5 71q127 0 193.5 -75t43.5 -191q-12 -70 -55.5 -131t-110.5 -114t-215 -150 q-174 -116 -250 -221h514z" />
<glyph unicode="3" horiz-adv-x="747" d="M30 244l82 12q4 -205 179 -205q66 0 122 29.5t95 80.5t51 119q18 90 -29.5 144.5t-142.5 54.5q-32 0 -88 -10l23 71q74 0 118 14t78.5 37t55 56t28.5 76q14 76 -28 123t-122 47q-154 -1 -239 -189l-78 15q106 241 332 241q123 0 182 -65t39 -178q-26 -136 -182 -201 q180 -48 143 -234q-26 -135 -128.5 -216.5t-242.5 -81.5q-246 0 -248 260z" />
<glyph unicode="4" horiz-adv-x="747" d="M643 240h-131l-45 -240h-80l45 240h-446l14 74l590 646h64l-128 -646h132zM446 314l101 514l-467 -514h366z" />
<glyph unicode="5" horiz-adv-x="747" d="M28 238l84 10q2 -197 185 -197q58 0 113 27.5t101.5 87.5t62.5 141q20 104 -30 172t-146 68q-112 -1 -242 -107l-66 10l186 498h464l-15 -76h-401l-126 -327q121 73 226 73q125 0 192.5 -88t43.5 -214q-12 -68 -47 -128.5t-86.5 -105.5t-118 -71.5t-138.5 -26.5 q-228 0 -242 254z" />
<glyph unicode="6" horiz-adv-x="747" d="M717 738l-82 -9q-11 164 -149 164q-41 0 -78.5 -13.5t-70 -39t-58 -57t-43 -64.5t-40 -92t-46.5 -160q131 139 284 139q123 0 185.5 -84t38.5 -213q-18 -96 -72 -168.5t-128.5 -114.5t-164.5 -42q-80 0 -135.5 30.5t-85 92t-30 142.5t21.5 197q33 170 90 280t147 172 t203 62q211 0 213 -222zM565 299q20 104 -23.5 168.5t-135.5 64.5q-96 0 -172 -63t-94 -160q-20 -104 26.5 -181t140.5 -77t166 72t92 176z" />
<glyph unicode="7" horiz-adv-x="747" d="M770 895q-221 -209 -350 -425t-199 -470h-88q29 110 71 214t95 201t126 192t239 267h-504l12 74h608z" />
<glyph unicode="8" horiz-adv-x="747" d="M252 516q-122 62 -96 196q14 74 60 129.5t113 87t146 31.5q78 0 132.5 -32.5t78.5 -87t10 -128.5q-27 -135 -176 -196q166 -60 132 -240q-29 -144 -136.5 -218t-231.5 -74q-92 0 -152 33.5t-88 104t-11 154.5q16 86 67.5 147t151.5 93zM563 270q12 64 -6.5 110 t-62.5 71.5t-115 25.5q-70 0 -125.5 -25.5t-91.5 -71.5t-48 -110q-18 -100 31 -159.5t150 -59.5q102 0 176 59.5t92 159.5zM612 712q10 54 -5 95t-53 63.5t-95 22.5q-56 0 -101.5 -23.5t-77.5 -63.5t-42 -94q-14 -74 31 -119.5t122 -45.5q80 0 143.5 45.5t77.5 119.5z" />
<glyph unicode="9" horiz-adv-x="747" d="M41 205l82 10q9 -164 149 -164q78 0 148 51.5t109 129t81 245.5q-132 -139 -284 -139q-122 0 -185 84t-39 213q26 141 130 233t235 92q98 0 158.5 -47t81.5 -144t-11 -271q-33 -170 -90 -280t-147.5 -172t-202.5 -62q-211 0 -215 221zM620 635q10 51 3 97t-29 84 t-59 57.5t-85 19.5q-94 0 -167 -72.5t-91 -177.5q-20 -102 25 -166.5t137 -64.5q96 0 172 63.5t94 159.5z" />
<glyph unicode=":" horiz-adv-x="372" d="M272 568h-114l26 128h115zM164 0h-115l25 127h114z" />
<glyph unicode=";" horiz-adv-x="372" d="M47 -178l-27 47q37 24 54.5 48.5t31.5 82.5h-53l25 127h114l-24 -127q-25 -116 -121 -178zM276 568h-114l26 128h115z" />
<glyph unicode="&#x3c;" horiz-adv-x="887" d="M738 148l-646 296l10 54l762 298l-12 -67l-674 -258l574 -258z" />
<glyph unicode="=" horiz-adv-x="887" d="M828 604h-705l10 58h705zM764 280h-704l12 62h704z" />
<glyph unicode="&#x3e;" horiz-adv-x="887" d="M796 446l-763 -298l14 65l672 260l-571 256l12 67l647 -296z" />
<glyph unicode="?" horiz-adv-x="671" d="M330 238h-84l10 55q8 32 20.5 62t29 55.5t48 55.5t74.5 64q140 106 156 191q14 76 -29 128t-121 52q-148 -1 -231 -195l-89 15q110 256 342 256q80 0 134.5 -32.5t77 -89.5t8.5 -132q-22 -117 -182 -244q-51 -38 -85 -72.5t-51.5 -74.5t-27.5 -94zM305 0h-115l25 127h115 z" />
<glyph unicode="@" horiz-adv-x="1073" d="M1000 30q-106 -129 -249 -193.5t-309 -64.5q-102 0 -186 27t-145.5 77t-95 121t-42.5 157t11 184q33 172 133 303t237.5 202t307.5 71q148 0 243 -55.5t138 -168t16 -252.5q-18 -92 -56.5 -166t-96.5 -132t-134 -99t-135 -41q-79 0 -67 70q4 18 14 51 q-124 -121 -246 -121q-49 0 -87 19.5t-61.5 59.5t-30.5 88.5t5 108.5q12 62 40 120t70 113.5t91 92.5t105 57.5t108 20.5q60 0 105 -30t69 -95l42 109h82l-210 -527q-16 -34 -19 -51q-6 -26 27 -26q20 0 45 9t70 36.5t92 78t78 113.5t45 141q18 90 2.5 169t-59.5 137.5 t-119.5 87t-180.5 28.5q-223 0 -395 -147.5t-217 -376.5q-29 -156 14 -269.5t145 -177t260 -63.5q134 0 252 46t226 158h68zM698 436q14 80 -21 133t-109 53q-111 0 -203.5 -110t-118.5 -240q-16 -90 17 -150t109 -60q50 0 101 31.5t102 92t80 121.5t43 129z" />
<glyph unicode="A" horiz-adv-x="895" d="M813 0h-103l-67 305h-449l-178 -305h-98l578 960h94zM628 381l-106 483l-282 -483h388z" />
<glyph unicode="B" horiz-adv-x="895" d="M33 0l186 960h363q90 0 150 -28.5t87 -82.5q17 -35 18 -80q1 -24 -5 -52q-12 -62 -53 -115t-125 -96q90 -33 121 -93q21 -40 21 -89q0 -26 -6 -54q-16 -82 -61 -140t-121 -94t-172 -36h-403zM215 456l-73 -378h298q64 0 117 20.5t90 63.5q37 42 49 108q4 21 4 41 q0 57 -36 95q-49 50 -146 50h-303zM297 878l-65 -340h280q62 0 109 22t77 60q32 38 42 92q4 21 3 40q0 19 -4 35q-8 32 -32.5 52.5t-67.5 29.5t-109 9h-233z" />
<glyph unicode="C" horiz-adv-x="968" d="M884 301q-156 -317 -458 -317q-102 0 -175 31.5t-116 95t-57 161.5q-6 40 -6 83q0 60 12 124q43 220 189.5 359t346.5 139q138 0 221 -67.5t109 -213.5l-92 -24q-38 230 -246 229q-162 0 -280.5 -119.5t-153.5 -304.5q-14 -72 -14 -132q0 -111 49 -180q76 -105 223 -105 q240 0 371 264z" />
<glyph unicode="D" horiz-adv-x="968" d="M35 0l186 960h369q139 0 218 -65t99 -174q9 -49 9 -102q0 -63 -13 -133q-45 -230 -176 -358t-323 -128h-369zM295 880l-155 -800h226q82 0 145 13t125 63.5t106 133t67 202.5q13 67 13 122q0 266 -300 266h-227z" />
<glyph unicode="E" horiz-adv-x="819" d="M674 0h-635l187 960h614l-16 -82h-523l-67 -344h483l-15 -80h-483l-73 -374h542z" />
<glyph unicode="F" horiz-adv-x="747" d="M772 880h-477l-67 -348h407l-17 -80h-407l-86 -452h-90l186 960h567z" />
<glyph unicode="G" horiz-adv-x="1044" d="M899 123q-217 -139 -426 -139q-76 0 -138.5 16t-111.5 49t-85 82t-50 97t-16 109v8q0 57 14 124q30 160 110 272.5t198 174t268 61.5q152 0 238 -67q86 -68 98 -208l-93 -26q-30 225 -264 225q-174 0 -299 -114.5t-162 -309.5q-11 -55 -11 -106q0 -55 13 -104 q25 -93 99.5 -150t197.5 -57q174 0 338 104l45 236h-305l17 79h394z" />
<glyph unicode="H" horiz-adv-x="968" d="M768 0h-88l90 467h-557l-90 -467h-90l186 960h90l-81 -413h556l82 413h88z" />
<glyph unicode="I" horiz-adv-x="372" d="M152 0h-90l186 960h90z" />
<glyph unicode="J" horiz-adv-x="671" d="M2 264l84 10q-4 -32 -4 -59q0 -155 139 -155q170 0 213 214l134 686h90l-134 -686q-58 -290 -328 -290q-201 0 -200 203q0 35 6 77z" />
<glyph unicode="K" horiz-adv-x="895" d="M811 0h-121l-290 512l-206 -156l-67 -356h-90l186 960h91l-99 -501l641 501h123l-510 -392z" />
<glyph unicode="L" horiz-adv-x="747" d="M608 0h-573l186 960h91l-172 -882h482z" />
<glyph unicode="M" horiz-adv-x="1118" d="M918 0h-92l180 862l-494 -862h-76l-158 862l-151 -862h-90l186 960h127l148 -831l475 831h131z" />
<glyph unicode="N" horiz-adv-x="968" d="M768 0h-96l-398 819l-149 -819h-92l186 960h93l396 -827l156 827h90z" />
<glyph unicode="O" horiz-adv-x="1044" d="M981 479q-43 -223 -189 -359t-354 -136q-140 0 -225.5 60t-120.5 171q-19 59 -18 130q0 62 14 134q43 226 189.5 362t353.5 136q139 0 227 -61.5t121 -171.5q17 -57 17 -127q0 -64 -15 -138zM887 479q12 64 12 120q0 109 -47 186q-72 116 -236 116q-166 0 -282 -117 q-116 -116 -152 -305q-12 -63 -12 -118q0 -108 48 -185q72 -116 234 -116q106 0 194.5 51t152 146.5t88.5 221.5z" />
<glyph unicode="P" horiz-adv-x="819" d="M209 406l-78 -406h-92l187 960h333q146 0 213 -71q50 -53 50 -137q0 -31 -7 -66q-12 -60 -42.5 -111t-75.5 -90t-110 -59t-137 -20h-241zM301 876l-75 -390h214q242 0 279 196q5 27 5 50q0 144 -208 144h-215z" />
<glyph unicode="Q" horiz-adv-x="1044" d="M912 0l-42 -64q-80 30 -176 111q-116 -63 -256 -63q-104 0 -180 33.5t-122 101t-58 157.5q-4 32 -5 67q0 63 15 136q43 226 189.5 362t353.5 136q139 0 226 -59.5t121 -171.5q18 -59 17 -129q0 -64 -14 -138q-47 -243 -215 -383q70 -58 146 -96zM628 102q-58 52 -142 82 l32 68q92 -20 182 -104q144 114 187 331q12 64 12 120q0 58 -13 107q-26 95 -94 145q-70 50 -176 50q-164 0 -280 -117q-118 -118 -154 -305q-12 -63 -12 -118q0 -108 48 -185q72 -116 234 -116q86 0 176 42z" />
<glyph unicode="R" horiz-adv-x="895" d="M811 0h-117l-90 203q-55 126 -82.5 162.5t-70.5 56.5t-101 20h-139l-84 -442h-90l186 960h403q92 0 151 -30.5t82 -86.5q14 -33 14 -76q-1 -29 -7 -63q-44 -230 -328 -256q92 -54 144 -166zM297 880l-69 -360h254q254 0 288 184q4 21 4 40q0 16 -3 31q-7 32 -31.5 57.5 t-70 36.5t-114.5 11h-258z" />
<glyph unicode="S" horiz-adv-x="819" d="M35 289l92 8q-3 -24 -3 -46q0 -85 46 -132q58 -59 170 -59q82 0 144.5 24t102 72.5t50.5 103.5q3 15 3 29q0 121 -218 161q-164 31 -226 95q-45 46 -45 119q1 27 7 57q22 118 121.5 187t232.5 69q150 -1 220 -67q55 -52 55 -145q-1 -27 -5 -59l-90 -4q2 20 2 38 q0 161 -188 161q-98 0 -171 -46t-87 -126q-3 -15 -3 -29q-1 -113 195 -155q164 -35 236 -97q55 -48 54 -128q0 -25 -5 -54q-12 -63 -45 -114.5t-86.5 -89.5t-119.5 -58t-142 -20q-300 0 -300 255q0 24 3 50z" />
<glyph unicode="T" horiz-adv-x="747" d="M798 876h-294l-170 -876h-92l170 876h-293l16 84h680z" />
<glyph unicode="U" horiz-adv-x="968" d="M219 960h93l-122 -614q-9 -48 -9 -88q1 -198 231 -198q274 0 330 284l120 616h92l-118 -608q-72 -368 -436 -368q-311 0 -311 258q-1 50 11 110z" />
<glyph unicode="V" horiz-adv-x="819" d="M920 960l-545 -960h-95l-166 960h97l135 -862l482 862h92z" />
<glyph unicode="W" horiz-adv-x="1194" d="M1278 960l-442 -960h-92l-64 858l-402 -858h-90l-69 960h92l47 -831l385 831h111l61 -827l377 827h86z" />
<glyph unicode="X" horiz-adv-x="819" d="M735 0h-111l-204 428l-385 -428h-109l457 502l-219 458h108l176 -384l353 384h94l-407 -448z" />
<glyph unicode="Y" horiz-adv-x="819" d="M918 960l-468 -546l-80 -414h-92l80 414l-244 546h109l203 -460l389 460h103z" />
<glyph unicode="Z" horiz-adv-x="819" d="M698 0h-747l14 84l779 798h-568l16 78h678l-16 -78l-782 -804h640z" />
<glyph unicode="[" horiz-adv-x="446" d="M289 -200h-307l239 1230h307l-12 -70h-227l-213 -1091h227z" />
<glyph unicode="\" horiz-adv-x="372" d="M289 -24h-61l-122 1001h64z" />
<glyph unicode="]" horiz-adv-x="446" d="M221 -200h-307l12 69h228l212 1091h-226l12 70h309z" />
<glyph unicode="^" horiz-adv-x="887" d="M772 624l-51 -34l-191 301l-311 -301l-33 34l361 353z" />
<glyph unicode="_" horiz-adv-x="671" d="M565 -168h-686l13 68h686z" />
<glyph unicode="`" horiz-adv-x="446" d="M368 786h-67l-113 174h130z" />
<glyph unicode="a" horiz-adv-x="747" d="M598 0h-88q-8 32 -8 68q0 18 2 38q-138 -122 -310 -122q-62 0 -106 22t-66 66q-14 27 -14 62q0 21 4 44q8 43 29 78t54.5 61.5t84.5 44.5q52 20 176 36q141 20 203 40q12 59 15.5 91t-11 60.5t-50.5 43t-93 14.5q-182 1 -248 -153l-80 12q78 204 338 204q82 0 134 -18 t73 -52q20 -32 20 -80q-1 -2 -1 -5q-1 -51 -17 -139l-43 -197q-14 -78 -14 -119.5t16 -99.5zM538 330l9 45q-73 -27 -229 -53q-82 -14 -122 -29t-65 -43q-25 -30 -31 -66q-2 -13 -2 -25q0 -40 27 -67q35 -34 103 -34q38 0 78 10t80 30.5t70 49t50 73.5t32 109z" />
<glyph unicode="b" horiz-adv-x="819" d="M129 106l-21 -106h-82l187 960h82l-74 -378q129 128 285 128q148 0 209 -101q41 -68 41 -158q0 -45 -10 -97q-33 -168 -135.5 -269t-252.5 -101q-154 0 -229 122zM660 346q10 48 9 89q0 72 -29 125q-46 83 -154 83q-119 0 -203.5 -82t-110.5 -223q-9 -45 -9 -84 q0 -75 34 -126q51 -77 165 -77q56 0 104 21.5t88 63.5t67 94t39 116z" />
<glyph unicode="c" horiz-adv-x="747" d="M645 226q-64 -119 -149.5 -180.5t-209.5 -61.5q-94 0 -154 39t-86 123q-13 43 -13 95q0 50 12 107q14 76 42.5 137.5t61.5 99t71 64.5t87 44t125 17q228 0 256 -210l-88 -14q-14 158 -184 157q-53 0 -99.5 -20.5t-84.5 -59.5t-62 -90t-39 -117q-10 -52 -10 -95 q-1 -73 27 -126q44 -84 155 -84q158 1 262 187z" />
<glyph unicode="d" horiz-adv-x="819" d="M635 0h-82l21 106q-136 -122 -288 -122q-72 0 -123 25.5t-81.5 76.5t-39.5 119q-3 24 -3 50q0 47 10 99q31 156 131 256t250 100q162 0 236 -128l74 378h81zM622 350q8 42 8 79q0 80 -36 134q-53 80 -168 80q-108 0 -187 -84t-106 -213q-8 -42 -8 -80q0 -74 32 -130 q49 -85 157 -85q118 0 199 79t109 220z" />
<glyph unicode="e" horiz-adv-x="747" d="M666 338h-535q-9 -47 -9 -87q0 -75 30 -124q46 -76 155 -76q152 0 246 168l78 -12q-64 -119 -147.5 -171t-192.5 -52q-148 0 -212 98q-43 65 -43 161q0 48 11 105q31 168 134 265t253 97q245 0 245 -245q0 -57 -13 -127zM590 406q4 30 4 56q0 183 -174 183 q-92 0 -166 -62.5t-108 -176.5h444z" />
<glyph unicode="f" horiz-adv-x="372" d="M508 960l-26 -65q-46 6 -68 6q-34 0 -59 -10.5t-43 -35.5q-20 -25 -34 -99l-10 -60h146l-12 -61h-146l-123 -635h-82l123 635h-110l12 61h110l12 72q14 74 37 115t69 67.5t106 26.5q34 -1 98 -17z" />
<glyph unicode="g" horiz-adv-x="819" d="M-4 -78l78 -14q2 -123 168 -123q268 0 317 254l15 67q-74 -74 -142 -98t-143 -24q-70 0 -121.5 24.5t-83.5 74.5q-33 49 -41 115q-3 24 -3 50q0 46 9 98q22 108 79.5 194t133.5 128t168 42q80 0 138 -28t96 -104l24 118h80l-125 -640q-22 -117 -72.5 -192t-131.5 -110.5 t-195 -35.5q-250 0 -250 172q0 15 2 32zM618 340q9 49 10 91q0 76 -31 129q-48 83 -163 83q-59 0 -107.5 -21.5t-87.5 -60.5t-64 -92t-38 -121q-10 -47 -10 -88q0 -73 31 -127q48 -84 158 -84q68 0 127 29.5t107 95.5t68 166z" />
<glyph unicode="h" horiz-adv-x="747" d="M563 0h-81l83 432q8 42 8 75q0 56 -22 86q-35 48 -109 48q-39 0 -75.5 -14.5t-71.5 -41t-59.5 -61t-40 -76.5t-35.5 -147l-58 -301h-82l187 960h82l-72 -366q117 116 248 116q195 0 195 -175q0 -37 -8 -81z" />
<glyph unicode="i" horiz-adv-x="299" d="M268 838h-82l25 122h82zM106 0h-82l136 696h82z" />
<glyph unicode="j" horiz-adv-x="299" d="M-174 -268l30 72q27 -8 50 -9q24 0 44 10.5t33 32.5t27 96l150 762h82l-148 -752q-10 -59 -20 -94.5t-33 -66.5t-56.5 -48t-76.5 -17q-29 0 -82 14zM268 840h-82l25 120h82z" />
<glyph unicode="k" horiz-adv-x="671" d="M584 0h-107l-193 381l-120 -95l-56 -286h-84l187 960h84l-115 -588l402 324h114l-340 -260z" />
<glyph unicode="l" horiz-adv-x="299" d="M106 0h-82l187 960h82z" />
<glyph unicode="m" horiz-adv-x="1118" d="M930 0h-82l82 430q13 69 13 109q0 15 -2 25q-7 38 -38 57.5t-75 19.5q-64 0 -113 -35.5t-80 -97.5t-51 -166l-66 -342h-80l84 440q11 56 11 94q-1 10 -1 19q-4 41 -32.5 63.5t-77.5 22.5q-88 0 -155 -72.5t-89 -196.5l-72 -370h-82l136 696h82l-21 -100q111 114 235 114 q134 0 162 -114q116 114 242 114q169 0 169 -157q0 -36 -9 -80z" />
<glyph unicode="n" horiz-adv-x="747" d="M563 0h-81l83 432q8 42 8 75q0 56 -22 86q-35 48 -109 48q-39 0 -75.5 -14.5t-71.5 -41t-59.5 -61t-40 -76.5t-35.5 -147l-58 -301h-82l136 696h82l-21 -102q117 116 248 116q195 0 195 -175q0 -37 -8 -81z" />
<glyph unicode="o" horiz-adv-x="747" d="M664 346q-32 -172 -132 -267t-250 -95q-72 0 -123 25.5t-83 74.5q-33 48 -40 114q-2 22 -3 46q0 47 10 100q16 82 47 147.5t78 114t107.5 76.5t148.5 28q144 0 209 -92q43 -60 43 -157q0 -52 -12 -115zM580 346q10 53 10 98q0 34 -6 64q-14 68 -56 101.5t-112 33.5 q-108 0 -183 -78.5t-102 -214.5q-10 -50 -10 -93q-1 -71 27 -123q44 -83 151 -83q51 0 94 17.5t81 56.5t66 95t40 126z" />
<glyph unicode="p" horiz-adv-x="819" d="M129 106l-73 -372h-82l188 962h82l-23 -114q132 128 285 128q70 0 120 -21t83 -67t43 -115q4 -26 4 -55q0 -46 -10 -98q-33 -168 -135.5 -269t-252.5 -101q-154 0 -229 122zM660 346q10 48 9 89q1 37 -7 69q-16 68 -60 104q-44 35 -116 35q-60 0 -110 -19.5t-92 -59.5 t-71 -97t-41 -129q-9 -45 -9 -84q0 -75 34 -126q51 -77 165 -77q56 0 104 21.5t88 63.5t67 94t39 116z" />
<glyph unicode="q" horiz-adv-x="819" d="M582 -266h-82l74 372q-135 -122 -285 -122q-72 0 -122.5 24.5t-84 74.5t-41.5 119q-3 23 -3 47q0 49 11 105q31 156 131 256t250 100q162 0 236 -128l22 114h82zM622 350q8 42 8 79q0 80 -36 134q-53 80 -168 80q-108 0 -187 -84t-106 -213q-8 -42 -8 -80q0 -74 32 -130 q49 -85 157 -85q118 0 199 79t109 220z" />
<glyph unicode="r" horiz-adv-x="446" d="M512 670l-47 -72q-56 26 -86 26q-24 0 -47 -7t-44.5 -24t-37.5 -40t-28.5 -49.5t-28 -80t-23.5 -95.5l-64 -328h-82l136 696h72l-29 -141q85 155 195 155q56 0 114 -40z" />
<glyph unicode="s" horiz-adv-x="671" d="M2 188l88 15q2 -80 48 -116t126 -36q54 0 100 17.5t73.5 47.5t35.5 70q2 11 2 21q0 24 -14 43q-20 27 -61 41q-40 15 -111 31q-204 44 -204 165q0 14 3 29q18 90 99 142t185 52q211 0 224 -182l-84 -12q-8 74 -40 101.5t-110 27.5q-49 0 -90.5 -15.5t-66.5 -39.5 q-25 -26 -31 -58q-6 -35 6 -58.5t59 -42.5t121 -35q144 -35 179 -85q26 -36 25 -81q0 -16 -3 -34q-12 -66 -54 -112.5t-108.5 -73t-150.5 -26.5q-54 0 -96 10t-73.5 31.5t-52 58t-24.5 104.5z" />
<glyph unicode="t" horiz-adv-x="372" d="M280 0q-58 -10 -90 -10q-47 0 -78.5 15t-41.5 47q-4 12 -4 32q0 32 10 84l92 467h-98l12 61h98l35 178l90 52l-43 -230h131l-12 -61h-131l-90 -457q-7 -44 -8 -67v-5q1 -24 16.5 -36t46.5 -12q21 0 65 8v-66z" />
<glyph unicode="u" horiz-adv-x="747" d="M557 0h-84l19 102q-112 -118 -246 -118q-195 0 -195 176q1 38 9 82l90 454h82l-84 -432q-9 -45 -9 -80q0 -54 21 -82q34 -46 108 -46q49 0 95.5 20t87.5 62t59 98.5t39 156.5l59 303h84z" />
<glyph unicode="v" horiz-adv-x="671" d="M704 696l-413 -696h-76l-143 696h88l112 -596l346 596h86z" />
<glyph unicode="w" horiz-adv-x="968" d="M1012 696l-369 -696h-84l-49 572l-268 -572h-84l-98 696h86l69 -594l283 594h76l48 -594l306 594h84z" />
<glyph unicode="x" horiz-adv-x="671" d="M578 0h-103l-163 303l-282 -303h-102l348 362l-192 334h102l150 -268l256 268h100l-320 -326z" />
<glyph unicode="y" horiz-adv-x="671" d="M712 696l-409 -696l-82 -137q-84 -145 -188 -145q-27 0 -76 12l6 82q47 -10 72 -10q38 0 59.5 15t49.5 60l71 123l-139 696h90l110 -602l357 602h79z" />
<glyph unicode="z" horiz-adv-x="671" d="M559 0h-612l12 72l586 554h-451l14 70h564l-12 -55l-594 -569h506z" />
<glyph unicode="{" horiz-adv-x="446" d="M258 -215q-60 0 -97.5 19.5t-53 62.5t4.5 145l28 138q16 88 11 135t-28 66t-67 19l16 89q64 0 106 51t64 166l26 137q18 102 49 147.5t79 64.5t108 19l-14 -73q-45 -2 -73 -15.5t-45.5 -44.5t-41.5 -157q-40 -206 -90 -261t-105 -79q27 -14 47.5 -35t30.5 -48.5t12.5 -64 t-20.5 -152.5l-11 -58q-16 -78 -15 -124t17 -58t76 -16z" />
<glyph unicode="|" horiz-adv-x="299" d="M45 -266h-67l239 1226h67z" />
<glyph unicode="}" horiz-adv-x="446" d="M370 372q-124 0 -167 -216l-15 -80q-16 -78 -28 -121t-39 -85t-67 -63.5t-93 -21.5q-11 0 -23 2l15 73q37 0 67.5 13t49 41t44.5 162q18 100 39 160.5t42.5 90t50 52.5t63.5 37q-36 18 -58.5 48t-29 67t-2 74.5t18.5 111.5l12 57q20 104 18 134t-27.5 45t-70.5 18l14 73 q62 0 100 -19t53 -60t-5 -148l-27 -137q-18 -92 -11 -141t32.5 -64.5t60.5 -15.5z" />
<glyph unicode="~" horiz-adv-x="887" d="M796 463q-88 -54 -125.5 -65t-70.5 -11q-18 0 -42 5.5t-46 14.5t-76 35q-98 52 -147 52q-80 0 -203 -88l14 73q120 76 199 76q41 0 69 -9.5t91 -41.5q99 -54 153 -54q74 0 201 90z" />
<glyph horiz-adv-x="1024" />
<glyph unicode="&#xa1;" horiz-adv-x="463" d="M316 582h-107l21 104h106zM154 -274h-119l41 202l133 510h47l-62 -510z" />
<glyph unicode="&#xa2;" horiz-adv-x="772" d="M641 219q-43 -106 -133 -171.5t-196 -65.5q-32 0 -80 14l-134 -270l-38 14l128 266q-164 84 -114 334q37 190 142.5 277t227.5 87q22 0 80 -8l128 260l38 -12l-127 -260q117 -49 121 -178l-90 -12q-2 68 -62 126l-270 -562q40 -10 60 -11q74 0 137 48.5t98 132.5z M496 637l-56 4q-90 0 -168 -70.5t-108 -224.5q-20 -108 -5 -167.5t64 -102.5z" />
<glyph unicode="&#xa3;" horiz-adv-x="772" d="M633 18q-89 -34 -149 -34q-48 0 -136 28l-86 27q-34 4 -66 4q-104 0 -206 -53l-20 84q172 96 204 272q10 50 6 102h-129l13 66h110q-14 132 -2 196q26 138 129 203.5t213 65.5t174 -59.5t64 -167.5l-90 -12q2 78 -43 125t-119 47q-84 0 -149 -53.5t-79 -129.5t0 -215h212 l-13 -66h-203q12 -50 8 -78q-26 -129 -212 -288q116 28 155 28q52 0 117 -16q114 -28 158 -28q54 0 126 30z" />
<glyph unicode="&#xa4;" horiz-adv-x="772" d="M656 223l-68 -55l-74 92q-90 -55 -174 -55q-82 0 -152 55l-110 -92l-43 55l111 91q-39 82 -23 161q14 82 86 164l-76 88l65 57l74 -92q86 54 172 54t154 -54l110 92l46 -57l-113 -88q39 -80 23 -164q-16 -81 -86 -161zM586 475q14 80 -31 136.5t-125 56.5 q-82 0 -149 -56.5t-81 -136.5q-16 -80 29 -136.5t125 -56.5q70 0 142 51.5t90 141.5z" />
<glyph unicode="&#xa5;" horiz-adv-x="772" d="M844 960l-369 -483h244l-13 -65h-280l-26 -132h280l-12 -59h-281l-41 -221h-86l41 221h-283l12 59h284l26 132h-282l12 65h244l-183 483h99l122 -340l20 -59l21 -82q27 46 49 77.5l50 69.5l248 334h104z" />
<glyph unicode="&#xa6;" horiz-adv-x="360" d="M228 475h-72l96 504h72zM78 -293h-72l98 504h72z" />
<glyph unicode="&#xa7;" horiz-adv-x="772" d="M475 98q90 -80 70 -184q-18 -100 -105.5 -153.5t-185.5 -53.5q-238 0 -236 213l92 14q8 -158 156 -157q62 0 120 34.5t70 100.5q6 32 -12 68t-51 64t-151 112q-110 78 -147 135t-25 129q31 152 192 200q-72 80 -55 160q16 88 93 143.5t175 55.5q229 0 225 -205l-96 -8 q0 146 -131 146q-55 0 -111.5 -33t-68.5 -93q-6 -33 10.5 -67.5t44.5 -58t140 -103.5q88 -60 122.5 -91.5t51 -74.5t6.5 -92q-18 -93 -94 -141q-20 -18 -99 -60zM301 586q-133 -64 -149 -152q-12 -57 21.5 -99.5t117.5 -100.5q76 -51 135 -99q140 61 156 141q16 86 -154 210 q-94 68 -127 100z" />
<glyph unicode="&#xa8;" horiz-adv-x="463" d="M490 862h-94l20 104h94zM236 862h-94l20 104h94z" />
<glyph unicode="&#xa9;" horiz-adv-x="1024" d="M1020 484q-24 -129 -114.5 -249.5t-220.5 -183.5t-257 -63t-231.5 64t-148.5 183t-20 249q27 131 119.5 250.5t223.5 182t249 62.5q127 0 235.5 -67.5t148.5 -185t16 -242.5zM968 484q37 184 -68.5 314t-287.5 130q-186 0 -341 -130t-191 -314q-35 -178 66.5 -311.5 t291.5 -133.5q186 0 341 129.5t189 315.5zM729 364q-84 -158 -258 -157q-110 0 -166.5 71.5t-32.5 203.5q24 129 110 200.5t202 71.5q158 0 184 -132l-51 -12q-31 100 -143 100q-86 0 -154 -60t-88 -171q-23 -110 18 -168.5t125 -58.5q138 0 205 127z" />
<glyph unicode="&#xaa;" horiz-adv-x="514" d="M477 518h-61q-8 29 2 80q-119 -92 -203 -92q-60 0 -98.5 33t-26.5 100q20 106 176 127l102 14q34 6 82 18q14 74 -3 104t-93 30q-104 0 -143 -80l-55 14q54 112 206 113q94 0 134 -31.5t24 -115.5l-38 -206q-14 -64 -5 -108zM444 756q-68 -18 -147.5 -29.5t-106 -34 t-32.5 -53.5q-6 -35 16 -59.5t72 -24.5q55 0 100 28.5t63.5 59.5t34.5 113z" />
<glyph unicode="&#xab;" horiz-adv-x="772" d="M570 49h-66l-142 293l256 293h66l-228 -293zM420 635l-224 -293l107 -293h-61l-148 293l262 293h64z" />
<glyph unicode="&#xac;" horiz-adv-x="811" d="M690 289h-80l58 297h-543l17 80h622z" />
<glyph unicode="&#xad;" horiz-adv-x="463" d="M377 299h-340l16 88h340z" />
<glyph unicode="&#xae;" horiz-adv-x="1024" d="M1020 484q-24 -129 -114.5 -249.5t-220.5 -183.5t-257 -63t-231.5 64t-148.5 183t-20 249q27 131 119.5 250.5t223.5 182t249 62.5q127 0 235.5 -67.5t148.5 -185t16 -242.5zM968 484q37 184 -68.5 314t-287.5 130q-186 0 -341 -130t-191 -314q-35 -178 66.5 -311.5 t291.5 -133.5q186 0 341 129.5t189 315.5zM682 215h-70l-28 80q-28 82 -57 118.5t-93 36.5h-68l-44 -235h-56l100 518h172q146 0 175 -43t18 -90q-10 -53 -60.5 -95t-134.5 -44l21 -19q37 -24 90 -143zM414 692l-39 -198h125q150 0 170 100q8 39 -16 68.5t-124 29.5h-116z " />
<glyph unicode="&#xaf;" horiz-adv-x="768" d="M895 1063h-776l10 53h776z" />
<glyph unicode="&#xb0;" horiz-adv-x="555" d="M520 807q-14 -70 -74 -121t-130 -51t-111 51.5t-27 120.5q14 70 74 121t129 51q70 0 111.5 -51t27.5 -121zM482 807q10 53 -21 92t-84 39q-56 0 -102.5 -38t-57.5 -91q-4 -28 0 -52t19.5 -43.5t38.5 -28.5t49 -9q56 0 102 38.5t56 92.5z" />
<glyph unicode="&#xb1;" horiz-adv-x="762" d="M467 606h277l-21 -104h-277l-53 -272h-104l53 272h-276l20 104h276l54 272h104zM-14 90l16 86h656l-17 -86h-655z" />
<glyph unicode="&#xb2;" horiz-adv-x="463" d="M438 498h-387q33 72 197 176q104 66 137 94t41 68q8 41 -14.5 66.5t-75.5 25.5q-88 0 -131 -76l-68 6q60 115 209 115q96 0 131 -36t25 -85q-8 -47 -47 -89t-166 -122q-65 -41 -129 -94h286z" />
<glyph unicode="&#xb3;" horiz-adv-x="463" d="M76 598l70 6q14 -74 100 -74q51 0 93 30t52 79q10 53 -21.5 71.5t-101.5 20.5l12 37q43 0 82.5 22.5t47.5 63.5q14 78 -84 78q-78 0 -119 -68l-61 10q64 98 188 99q170 0 148 -111q-14 -80 -122 -110q118 -28 101 -128q-14 -68 -76.5 -103t-140.5 -35q-154 0 -168 112z " />
<glyph unicode="&#xb4;" horiz-adv-x="463" d="M471 966l-153 -155h-66l104 155h115z" />
<glyph unicode="&#xb5;" horiz-adv-x="801" d="M592 0h-76l24 127q-88 -108 -137 -125.5t-87 -17.5q-39 0 -77.5 13t-88.5 107l-74 -380h-86l188 962h86l-57 -288q-35 -182 -23 -233t49 -78t91 -27q60 0 111 30.5t83 82t64 223.5l57 290h86z" />
<glyph unicode="&#xb6;" horiz-adv-x="747" d="M821 878h-96l-225 -1154h-82l225 1154h-184l-225 -1154h-78l139 708q-125 0 -186 71t-39 189q22 109 105 188.5t251 79.5h412z" />
<glyph unicode="&#xb7;" horiz-adv-x="385" d="M246 420h-104l20 104h104z" />
<glyph unicode="&#xb8;" horiz-adv-x="463" d="M-47 -280l14 46l47 -2q128 0 142 68q2 16 -6 35q-22 27 -84 27l42 88h56l-35 -72q58 0 84.5 -25t20.5 -59q-8 -36 -56 -74t-148 -38q-44 0 -77 6z" />
<glyph unicode="&#xb9;" horiz-adv-x="463" d="M320 498h-64l76 395q-98 -70 -168 -90l8 49q102 39 192 121h48z" />
<glyph unicode="&#xba;" horiz-adv-x="508" d="M520 740q-22 -111 -93 -174.5t-159 -63.5q-80 0 -132 55t-30 181q26 129 100 185t154 56q90 0 135 -63.5t25 -175.5zM452 744q18 98 -15 138t-87 40q-139 0 -174 -182q-18 -90 11 -136.5t91 -46.5q136 1 174 187z" />
<glyph unicode="&#xbb;" horiz-adv-x="772" d="M639 342l-260 -293h-63l224 293l-110 293h64zM372 342l-258 -293h-63l227 293l-112 293h64z" />
<glyph unicode="&#xbc;" horiz-adv-x="1159" d="M1054 84h-71l-19 -104h-63l19 104h-260l12 60l328 310h57l-66 -331h72zM1098 979l-920 -1018h-64l920 1018h64zM320 498h-64l76 395q-98 -70 -168 -90l8 49q102 39 192 121h48zM928 123l47 239l-258 -239h211z" />
<glyph unicode="&#xbd;" horiz-adv-x="1159" d="M1084 979l-920 -1018h-68l920 1018h68zM1032 -20h-387q39 76 197 176q106 68 139 95t41 67q16 90 -94 90q-53 0 -80.5 -19t-49.5 -55l-65 6q58 114 207 114q98 0 132 -35.5t24 -84.5q-10 -54 -54 -97t-160 -114q-68 -45 -130 -97h288zM320 498h-64l76 395 q-98 -70 -168 -90l8 49q102 39 192 121h48z" />
<glyph unicode="&#xbe;" horiz-adv-x="1159" d="M1054 84h-71l-19 -104h-63l19 104h-260l12 60l326 310h59l-66 -331h72zM1098 979l-920 -1018h-64l918 1018h66zM76 598l70 6q14 -74 100 -74q51 0 93 30t52 79q10 53 -21.5 71.5t-101.5 20.5l12 37q43 0 82.5 22.5t47.5 63.5q14 78 -84 78q-78 0 -119 -68l-61 10 q64 98 188 99q170 0 148 -111q-14 -80 -122 -110q118 -28 101 -128q-14 -68 -76.5 -103t-140.5 -35q-154 0 -168 112zM928 123l47 239l-258 -239h211z" />
<glyph unicode="&#xbf;" horiz-adv-x="850" d="M639 -37q-95 -254 -353 -254q-143 0 -207.5 75.5t-43.5 178.5q12 62 50.5 113t140.5 129q86 64 116 105.5t47 131.5h84q-2 -14 0 -18q-18 -92 -58 -144t-149 -134q-76 -58 -103.5 -94t-35.5 -80q-16 -82 35 -140t137 -58q78 0 144.5 50t107.5 150zM510 582h-104l20 104 h104z" />
<glyph unicode="&#xc0;" horiz-adv-x="895" d="M739 0h-103l-67 305h-449l-178 -305h-98l578 960h94zM554 381l-106 483l-282 -483h388zM516 1026h-67l-113 174h130z" />
<glyph unicode="&#xc1;" horiz-adv-x="895" d="M739 0h-103l-67 305h-449l-178 -305h-98l578 960h94zM554 381l-106 483l-282 -483h388zM641 1183l-153 -155h-66l104 155h115z" />
<glyph unicode="&#xc2;" horiz-adv-x="895" d="M739 0h-103l-67 305h-449l-178 -305h-98l578 960h94zM554 381l-106 483l-282 -483h388zM646 1028h-95l-61 111l-109 -111h-96l151 155h115z" />
<glyph unicode="&#xc3;" horiz-adv-x="895" d="M739 0h-103l-67 305h-449l-178 -305h-98l578 960h94zM554 381l-106 483l-282 -483h388zM700 1150q-10 -54 -50 -87t-88 -33q-35 0 -97 34q-43 28 -69 29q-60 1 -80 -65h-58q14 57 54 88.5t90 31.5q37 0 100 -34q40 -22 68 -23q52 -1 76 59h54z" />
<glyph unicode="&#xc4;" horiz-adv-x="895" d="M739 0h-103l-67 305h-449l-178 -305h-98l578 960h94zM554 381l-106 483l-282 -483h388zM648 1062h-94l20 104h94zM394 1062h-94l20 104h94z" />
<glyph unicode="&#xc5;" horiz-adv-x="895" d="M739 0h-103l-67 305h-449l-178 -305h-98l578 960h94zM554 381l-106 483l-282 -483h388zM383 1117q8 49 48 76.5t79 27.5t66.5 -26.5t17.5 -77.5q-10 -52 -49 -79.5t-76 -27.5q-39 0 -67.5 27.5t-18.5 79.5zM416 1114q-4 -26 9 -49.5t48 -23.5q29 0 54.5 21.5t29.5 51.5 q6 27 -8.5 50.5t-46.5 23.5q-35 0 -57.5 -23.5t-28.5 -50.5z" />
<glyph unicode="&#xc6;" horiz-adv-x="1390" d="M1214 0h-616l56 286h-412l-193 -286h-102l647 960h790l-16 -82h-502l-65 -340h465l-16 -84h-466l-74 -370h519zM670 370l98 508h-125l-346 -508h373z" />
<glyph unicode="&#xc7;" horiz-adv-x="968" d="M810 301q-156 -317 -458 -317q-102 0 -175 31.5t-116 95t-57 161.5q-6 40 -6 83q0 60 12 124q43 220 189.5 359t346.5 139q138 0 221 -67.5t109 -213.5l-92 -24q-38 230 -246 229q-162 0 -280.5 -119.5t-153.5 -304.5q-14 -72 -14 -132q0 -111 49 -180q76 -105 223 -105 q240 0 371 264zM147 -262l14 46l47 -2q128 0 142 68q2 16 -6 35q-22 27 -84 27l42 88h56l-35 -72q58 0 84.5 -25t20.5 -59q-8 -36 -56 -74t-148 -38q-44 0 -77 6z" />
<glyph unicode="&#xc8;" horiz-adv-x="819" d="M600 0h-635l187 960h614l-16 -82h-523l-67 -344h483l-15 -80h-483l-73 -374h542zM526 1026h-67l-113 174h130z" />
<glyph unicode="&#xc9;" horiz-adv-x="819" d="M600 0h-635l187 960h614l-16 -82h-523l-67 -344h483l-15 -80h-483l-73 -374h542zM635 1206l-153 -155h-66l104 155h115z" />
<glyph unicode="&#xca;" horiz-adv-x="819" d="M600 0h-635l187 960h614l-16 -82h-523l-67 -344h483l-15 -80h-483l-73 -374h542zM644 1051h-95l-61 111l-109 -111h-96l151 155h115z" />
<glyph unicode="&#xcb;" horiz-adv-x="819" d="M600 0h-635l187 960h614l-16 -82h-523l-67 -344h483l-15 -80h-483l-73 -374h542zM644 1042h-94l20 104h94zM390 1042h-94l20 104h94z" />
<glyph unicode="&#xcc;" horiz-adv-x="372" d="M78 0h-90l186 960h90zM294 1026h-67l-113 174h130z" />
<glyph unicode="&#xcd;" horiz-adv-x="372" d="M78 0h-90l186 960h90zM407 1206l-153 -155h-66l104 155h115z" />
<glyph unicode="&#xce;" horiz-adv-x="372" d="M78 0h-90l186 960h90zM422 1051h-95l-61 111l-109 -111h-96l151 155h115z" />
<glyph unicode="&#xcf;" horiz-adv-x="372" d="M78 0h-90l186 960h90zM422 1062h-94l20 104h94zM168 1062h-94l20 104h94z" />
<glyph unicode="&#xd0;" horiz-adv-x="1003" d="M43 0l86 452h-111l12 56h112l88 452h325q158 0 235.5 -36.5t123.5 -144t12 -293.5q-94 -486 -541 -486h-342zM309 878l-71 -370h274l-12 -56h-274l-72 -368h229q215 0 310 113t131 291q34 182 -17 286t-271 104h-227z" />
<glyph unicode="&#xd1;" horiz-adv-x="968" d="M694 0h-96l-398 819l-149 -819h-92l186 960h93l396 -827l156 827h90zM759 1150q-10 -54 -50 -87t-88 -33q-35 0 -97 34q-43 28 -69 29q-60 1 -80 -65h-58q14 57 54 88.5t90 31.5q37 0 100 -34q40 -22 68 -23q52 -1 76 59h54z" />
<glyph unicode="&#xd2;" horiz-adv-x="1044" d="M907 479q-43 -223 -189 -359t-354 -136q-140 0 -225.5 60t-120.5 171q-19 59 -18 130q0 62 14 134q43 226 189.5 362t353.5 136q139 0 227 -61.5t121 -171.5q17 -57 17 -127q0 -64 -15 -138zM813 479q12 64 12 120q0 109 -47 186q-72 116 -236 116q-166 0 -282 -117 q-116 -116 -152 -305q-12 -63 -12 -118q0 -108 48 -185q72 -116 234 -116q106 0 194.5 51t152 146.5t88.5 221.5zM594 1036h-67l-113 174h130z" />
<glyph unicode="&#xd3;" horiz-adv-x="1044" d="M907 479q-43 -223 -189 -359t-354 -136q-140 0 -225.5 60t-120.5 171q-19 59 -18 130q0 62 14 134q43 226 189.5 362t353.5 136q139 0 227 -61.5t121 -171.5q17 -57 17 -127q0 -64 -15 -138zM813 479q12 64 12 120q0 109 -47 186q-72 116 -236 116q-166 0 -282 -117 q-116 -116 -152 -305q-12 -63 -12 -118q0 -108 48 -185q72 -116 234 -116q106 0 194.5 51t152 146.5t88.5 221.5zM731 1216l-153 -155h-66l104 155h115z" />
<glyph unicode="&#xd4;" horiz-adv-x="1044" d="M907 479q-43 -223 -189 -359t-354 -136q-140 0 -225.5 60t-120.5 171q-19 59 -18 130q0 62 14 134q43 226 189.5 362t353.5 136q139 0 227 -61.5t121 -171.5q17 -57 17 -127q0 -64 -15 -138zM813 479q12 64 12 120q0 109 -47 186q-72 116 -236 116q-166 0 -282 -117 q-116 -116 -152 -305q-12 -63 -12 -118q0 -108 48 -185q72 -116 234 -116q106 0 194.5 51t152 146.5t88.5 221.5zM746 1061h-95l-61 111l-109 -111h-96l151 155h115z" />
<glyph unicode="&#xd5;" horiz-adv-x="1044" d="M907 479q-43 -223 -189 -359t-354 -136q-140 0 -225.5 60t-120.5 171q-19 59 -18 130q0 62 14 134q43 226 189.5 362t353.5 136q139 0 227 -61.5t121 -171.5q17 -57 17 -127q0 -64 -15 -138zM813 479q12 64 12 120q0 109 -47 186q-72 116 -236 116q-166 0 -282 -117 q-116 -116 -152 -305q-12 -63 -12 -118q0 -108 48 -185q72 -116 234 -116q106 0 194.5 51t152 146.5t88.5 221.5zM796 1169q-10 -54 -50 -87t-88 -33q-35 0 -97 34q-43 28 -69 29q-60 1 -80 -65h-58q14 57 54 88.5t90 31.5q37 0 100 -34q40 -22 68 -23q52 -1 76 59h54z" />
<glyph unicode="&#xd6;" horiz-adv-x="1044" d="M907 479q-43 -223 -189 -359t-354 -136q-140 0 -225.5 60t-120.5 171q-19 59 -18 130q0 62 14 134q43 226 189.5 362t353.5 136q139 0 227 -61.5t121 -171.5q17 -57 17 -127q0 -64 -15 -138zM813 479q12 64 12 120q0 109 -47 186q-72 116 -236 116q-166 0 -282 -117 q-116 -116 -152 -305q-12 -63 -12 -118q0 -108 48 -185q72 -116 234 -116q106 0 194.5 51t152 146.5t88.5 221.5zM748 1081h-94l20 104h94zM494 1081h-94l20 104h94z" />
<glyph unicode="&#xd7;" horiz-adv-x="811" d="M645 262l-69 -57l-172 213l-256 -215l-48 57l256 213l-172 213l70 60l174 -214l252 214l47 -60l-252 -211z" />
<glyph unicode="&#xd8;" horiz-adv-x="1081" d="M1108 956l-142 -130q48 -98 56 -171t-12 -176q-43 -221 -193.5 -358t-357.5 -137q-164 0 -289 110l-140 -127l-30 33l140 131q-50 112 -58 184t10 162q43 226 193.5 364t363.5 138q158 -1 289 -115l137 127zM864 798q-111 100 -229 101q-170 0 -287.5 -113.5 t-155.5 -306.5q-30 -155 19 -281zM891 756l-647 -596q88 -98 225 -98q180 0 291.5 121.5t147.5 291.5q28 150 -17 281z" />
<glyph unicode="&#xd9;" horiz-adv-x="968" d="M145 960h93l-122 -614q-9 -48 -9 -88q1 -198 231 -198q274 0 330 284l120 616h92l-118 -608q-72 -368 -436 -368q-311 0 -311 258q-1 50 11 110zM550 1026h-67l-113 174h130z" />
<glyph unicode="&#xda;" horiz-adv-x="968" d="M145 960h93l-122 -614q-9 -48 -9 -88q1 -198 231 -198q274 0 330 284l120 616h92l-118 -608q-72 -368 -436 -368q-311 0 -311 258q-1 50 11 110zM663 1206l-153 -155h-66l104 155h115z" />
<glyph unicode="&#xdb;" horiz-adv-x="968" d="M145 960h93l-122 -614q-9 -48 -9 -88q1 -198 231 -198q274 0 330 284l120 616h92l-118 -608q-72 -368 -436 -368q-311 0 -311 258q-1 50 11 110zM695 1051h-95l-61 111l-109 -111h-96l151 155h115z" />
<glyph unicode="&#xdc;" horiz-adv-x="968" d="M145 960h93l-122 -614q-9 -48 -9 -88q1 -198 231 -198q274 0 330 284l120 616h92l-118 -608q-72 -368 -436 -368q-311 0 -311 258q-1 50 11 110zM693 1062h-94l20 104h94zM439 1062h-94l20 104h94z" />
<glyph unicode="&#xdd;" horiz-adv-x="819" d="M844 960l-468 -546l-80 -414h-92l80 414l-244 546h109l203 -460l389 460h103zM615 1206l-153 -155h-66l104 155h115z" />
<glyph unicode="&#xde;" horiz-adv-x="927" d="M178 203l-38 -203h-97l187 960h96l-40 -200h263q127 0 198.5 -25t101 -94t13.5 -153q-56 -284 -412 -285h-272zM270 676l-76 -390h275q252 0 289 198q12 57 -5.5 105t-57 67.5t-153.5 19.5h-272z" />
<glyph unicode="&#xdf;" horiz-adv-x="850" d="M276 121l80 35q40 -106 126 -107q51 0 104.5 35.5t65.5 99.5q8 41 -6 67.5t-74 72.5q-96 76 -113 112.5t-9 69.5q8 45 76 131q78 99 88 151q10 53 -28 88.5t-100 35.5q-182 0 -232 -256l-127 -656h-88l127 662q62 318 334 317q88 0 153 -45t49 -133q-12 -62 -84 -156 q-68 -87 -76 -121q-10 -54 84 -122q76 -60 103 -102t15 -106q-18 -92 -96 -151t-177 -59q-150 0 -195 137z" />
<glyph unicode="&#xe0;" horiz-adv-x="747" d="M524 0h-88q-8 32 -8 68q0 18 2 38q-138 -122 -310 -122q-62 0 -106 22t-66 66q-14 27 -14 62q0 21 4 44q8 43 29 78t54.5 61.5t84.5 44.5q52 20 176 36q141 20 203 40q12 59 15.5 91t-11 60.5t-50.5 43t-93 14.5q-182 1 -248 -153l-80 12q78 204 338 204q82 0 134 -18 t73 -52q20 -32 20 -80q-1 -2 -1 -5q-1 -51 -17 -139l-43 -197q-14 -78 -14 -119.5t16 -99.5zM464 330l9 45q-73 -27 -229 -53q-82 -14 -122 -29t-65 -43q-25 -30 -31 -66q-2 -13 -2 -25q0 -40 27 -67q35 -34 103 -34q38 0 78 10t80 30.5t70 49t50 73.5t32 109zM415 786h-67 l-113 174h130z" />
<glyph unicode="&#xe1;" horiz-adv-x="747" d="M524 0h-88q-8 32 -8 68q0 18 2 38q-138 -122 -310 -122q-62 0 -106 22t-66 66q-14 27 -14 62q0 21 4 44q8 43 29 78t54.5 61.5t84.5 44.5q52 20 176 36q141 20 203 40q12 59 15.5 91t-11 60.5t-50.5 43t-93 14.5q-182 1 -248 -153l-80 12q78 204 338 204q82 0 134 -18 t73 -52q20 -32 20 -80q-1 -2 -1 -5q-1 -51 -17 -139l-43 -197q-14 -78 -14 -119.5t16 -99.5zM464 330l9 45q-73 -27 -229 -53q-82 -14 -122 -29t-65 -43q-25 -30 -31 -66q-2 -13 -2 -25q0 -40 27 -67q35 -34 103 -34q38 0 78 10t80 30.5t70 49t50 73.5t32 109zM535 966 l-153 -155h-66l104 155h115z" />
<glyph unicode="&#xe2;" horiz-adv-x="747" d="M524 0h-88q-8 32 -8 68q0 18 2 38q-138 -122 -310 -122q-62 0 -106 22t-66 66q-14 27 -14 62q0 21 4 44q8 43 29 78t54.5 61.5t84.5 44.5q52 20 176 36q141 20 203 40q12 59 15.5 91t-11 60.5t-50.5 43t-93 14.5q-182 1 -248 -153l-80 12q78 204 338 204q82 0 134 -18 t73 -52q20 -32 20 -80q-1 -2 -1 -5q-1 -51 -17 -139l-43 -197q-14 -78 -14 -119.5t16 -99.5zM464 330l9 45q-73 -27 -229 -53q-82 -14 -122 -29t-65 -43q-25 -30 -31 -66q-2 -13 -2 -25q0 -40 27 -67q35 -34 103 -34q38 0 78 10t80 30.5t70 49t50 73.5t32 109zM533 811h-95 l-61 111l-109 -111h-96l151 155h115z" />
<glyph unicode="&#xe3;" horiz-adv-x="747" d="M524 0h-88q-8 32 -8 68q0 18 2 38q-138 -122 -310 -122q-62 0 -106 22t-66 66q-14 27 -14 62q0 21 4 44q8 43 29 78t54.5 61.5t84.5 44.5q52 20 176 36q141 20 203 40q12 59 15.5 91t-11 60.5t-50.5 43t-93 14.5q-182 1 -248 -153l-80 12q78 204 338 204q82 0 134 -18 t73 -52q20 -32 20 -80q-1 -2 -1 -5q-1 -51 -17 -139l-43 -197q-14 -78 -14 -119.5t16 -99.5zM464 330l9 45q-73 -27 -229 -53q-82 -14 -122 -29t-65 -43q-25 -30 -31 -66q-2 -13 -2 -25q0 -40 27 -67q35 -34 103 -34q38 0 78 10t80 30.5t70 49t50 73.5t32 109zM589 950 q-10 -54 -50 -87t-88 -33q-35 0 -97 34q-43 28 -69 29q-60 1 -80 -65h-58q14 57 54 88.5t90 31.5q37 0 100 -34q40 -22 68 -23q52 -1 76 59h54z" />
<glyph unicode="&#xe4;" horiz-adv-x="747" d="M524 0h-88q-8 32 -8 68q0 18 2 38q-138 -122 -310 -122q-62 0 -106 22t-66 66q-14 27 -14 62q0 21 4 44q8 43 29 78t54.5 61.5t84.5 44.5q52 20 176 36q141 20 203 40q12 59 15.5 91t-11 60.5t-50.5 43t-93 14.5q-182 1 -248 -153l-80 12q78 204 338 204q82 0 134 -18 t73 -52q20 -32 20 -80q-1 -2 -1 -5q-1 -51 -17 -139l-43 -197q-14 -78 -14 -119.5t16 -99.5zM464 330l9 45q-73 -27 -229 -53q-82 -14 -122 -29t-65 -43q-25 -30 -31 -66q-2 -13 -2 -25q0 -40 27 -67q35 -34 103 -34q38 0 78 10t80 30.5t70 49t50 73.5t32 109zM531 845h-94 l20 104h94zM277 845h-94l20 104h94z" />
<glyph unicode="&#xe5;" horiz-adv-x="747" d="M524 0h-88q-8 32 -8 68q0 18 2 38q-138 -122 -310 -122q-62 0 -106 22t-66 66q-14 27 -14 62q0 21 4 44q8 43 29 78t54.5 61.5t84.5 44.5q52 20 176 36q141 20 203 40q12 59 15.5 91t-11 60.5t-50.5 43t-93 14.5q-182 1 -248 -153l-80 12q78 204 338 204q82 0 134 -18 t73 -52q20 -32 20 -80q-1 -2 -1 -5q-1 -51 -17 -139l-43 -197q-14 -78 -14 -119.5t16 -99.5zM464 330l9 45q-73 -27 -229 -53q-82 -14 -122 -29t-65 -43q-25 -30 -31 -66q-2 -13 -2 -25q0 -40 27 -67q35 -34 103 -34q38 0 78 10t80 30.5t70 49t50 73.5t32 109zM270 887 q8 49 48 76.5t79 27.5t66.5 -26.5t17.5 -77.5q-10 -52 -49 -79.5t-76 -27.5q-39 0 -67.5 27.5t-18.5 79.5zM303 884q-4 -26 9 -49.5t48 -23.5q29 0 54.5 21.5t29.5 51.5q6 27 -8.5 50.5t-46.5 23.5q-35 0 -57.5 -23.5t-28.5 -50.5z" />
<glyph unicode="&#xe6;" horiz-adv-x="1237" d="M1149 354l-6 -24h-521q-16 -86 -12 -142.5t54 -97.5t126 -41q152 -1 228 151l88 -12q-110 -204 -334 -204q-160 0 -236 145q-170 -145 -329 -145q-90 0 -150.5 46t-42.5 142q16 86 91 139t253 76q114 14 195 37q6 32 10 41q16 92 -15.5 132t-129.5 40q-180 1 -232 -137 l-84 10q86 192 330 192q115 0 159.5 -27.5t68.5 -78.5q110 106 252 106q139 0 205 -100t32 -248zM545 370q-74 -30 -250 -58q-163 -25 -185 -136q-12 -64 28 -97.5t104 -33.5q80 0 151.5 40t97 91t54.5 194zM1065 396q32 242 -166 241q-110 0 -178.5 -72.5t-87.5 -168.5h432 z" />
<glyph unicode="&#xe7;" horiz-adv-x="747" d="M571 226q-64 -119 -149.5 -180.5t-209.5 -61.5q-94 0 -154 39t-86 123q-13 43 -13 95q0 50 12 107q14 76 42.5 137.5t61.5 99t71 64.5t87 44t125 17q228 0 256 -210l-88 -14q-14 158 -184 157q-53 0 -99.5 -20.5t-84.5 -59.5t-62 -90t-39 -117q-10 -52 -10 -95 q-1 -73 27 -126q44 -84 155 -84q158 1 262 187zM15 -252l14 46l47 -2q128 0 142 68q2 16 -6 35q-22 27 -84 27l42 88h56l-35 -72q58 0 84.5 -25t20.5 -59q-8 -36 -56 -74t-148 -38q-44 0 -77 6z" />
<glyph unicode="&#xe8;" horiz-adv-x="747" d="M592 338h-535q-9 -47 -9 -87q0 -75 30 -124q46 -76 155 -76q152 0 246 168l78 -12q-64 -119 -147.5 -171t-192.5 -52q-148 0 -212 98q-43 65 -43 161q0 48 11 105q31 168 134 265t253 97q245 0 245 -245q0 -57 -13 -127zM516 406q4 30 4 56q0 183 -174 183 q-92 0 -166 -62.5t-108 -176.5h444zM407 786h-67l-113 174h130z" />
<glyph unicode="&#xe9;" horiz-adv-x="747" d="M592 338h-535q-9 -47 -9 -87q0 -75 30 -124q46 -76 155 -76q152 0 246 168l78 -12q-64 -119 -147.5 -171t-192.5 -52q-148 0 -212 98q-43 65 -43 161q0 48 11 105q31 168 134 265t253 97q245 0 245 -245q0 -57 -13 -127zM516 406q4 30 4 56q0 183 -174 183 q-92 0 -166 -62.5t-108 -176.5h444zM539 966l-153 -155h-66l104 155h115z" />
<glyph unicode="&#xea;" horiz-adv-x="747" d="M592 338h-535q-9 -47 -9 -87q0 -75 30 -124q46 -76 155 -76q152 0 246 168l78 -12q-64 -119 -147.5 -171t-192.5 -52q-148 0 -212 98q-43 65 -43 161q0 48 11 105q31 168 134 265t253 97q245 0 245 -245q0 -57 -13 -127zM516 406q4 30 4 56q0 183 -174 183 q-92 0 -166 -62.5t-108 -176.5h444zM554 811h-95l-61 111l-109 -111h-96l151 155h115z" />
<glyph unicode="&#xeb;" horiz-adv-x="747" d="M592 338h-535q-9 -47 -9 -87q0 -75 30 -124q46 -76 155 -76q152 0 246 168l78 -12q-64 -119 -147.5 -171t-192.5 -52q-148 0 -212 98q-43 65 -43 161q0 48 11 105q31 168 134 265t253 97q245 0 245 -245q0 -57 -13 -127zM516 406q4 30 4 56q0 183 -174 183 q-92 0 -166 -62.5t-108 -176.5h444zM537 824h-94l20 104h94zM283 824h-94l20 104h94z" />
<glyph unicode="&#xec;" horiz-adv-x="385" d="M84 0h-88l133 686h88zM259 786h-67l-113 174h130z" />
<glyph unicode="&#xed;" horiz-adv-x="385" d="M84 0h-88l133 686h88zM376 966l-153 -155h-66l104 155h115z" />
<glyph unicode="&#xee;" horiz-adv-x="385" d="M84 0h-88l133 686h88zM377 811h-95l-61 111l-109 -111h-96l151 155h115z" />
<glyph unicode="&#xef;" horiz-adv-x="385" d="M84 0h-88l133 686h88zM372 824h-94l20 104h94zM118 824h-94l20 104h94z" />
<glyph unicode="&#xf0;" horiz-adv-x="772" d="M578 624q-34 128 -90 206l-202 -84l-6 36l185 78q-55 62 -99 100h88q34 -30 74 -71l152 65l12 -36l-135 -60q176 -260 127 -520q-32 -160 -136 -257t-251 -97q-150 0 -214.5 94t-33.5 256q31 160 126 256t233 96q66 0 170 -62zM590 342q22 112 -17 198t-155 86 q-115 0 -184.5 -85t-93.5 -209q-25 -129 17.5 -206t151.5 -77q104 0 180 82t101 211z" />
<glyph unicode="&#xf1;" horiz-adv-x="747" d="M489 0h-81l83 432q8 42 8 75q0 56 -22 86q-35 48 -109 48q-39 0 -75.5 -14.5t-71.5 -41t-59.5 -61t-40 -76.5t-35.5 -147l-58 -301h-82l136 696h82l-21 -102q117 116 248 116q195 0 195 -175q0 -37 -8 -81zM600 950q-10 -54 -50 -87t-88 -33q-35 0 -97 34q-43 28 -69 29 q-60 1 -80 -65h-58q14 57 54 88.5t90 31.5q37 0 100 -34q40 -22 68 -23q52 -1 76 59h54z" />
<glyph unicode="&#xf2;" horiz-adv-x="747" d="M590 346q-32 -172 -132 -267t-250 -95q-72 0 -123 25.5t-83 74.5q-33 48 -40 114q-2 22 -3 46q0 47 10 100q16 82 47 147.5t78 114t107.5 76.5t148.5 28q144 0 209 -92q43 -60 43 -157q0 -52 -12 -115zM506 346q10 53 10 98q0 34 -6 64q-14 68 -56 101.5t-112 33.5 q-108 0 -183 -78.5t-102 -214.5q-10 -50 -10 -93q-1 -71 27 -123q44 -83 151 -83q51 0 94 17.5t81 56.5t66 95t40 126zM396 786h-67l-113 174h130z" />
<glyph unicode="&#xf3;" horiz-adv-x="747" d="M590 346q-32 -172 -132 -267t-250 -95q-72 0 -123 25.5t-83 74.5q-33 48 -40 114q-2 22 -3 46q0 47 10 100q16 82 47 147.5t78 114t107.5 76.5t148.5 28q144 0 209 -92q43 -60 43 -157q0 -52 -12 -115zM506 346q10 53 10 98q0 34 -6 64q-14 68 -56 101.5t-112 33.5 q-108 0 -183 -78.5t-102 -214.5q-10 -50 -10 -93q-1 -71 27 -123q44 -83 151 -83q51 0 94 17.5t81 56.5t66 95t40 126zM524 966l-153 -155h-66l104 155h115z" />
<glyph unicode="&#xf4;" horiz-adv-x="747" d="M590 346q-32 -172 -132 -267t-250 -95q-72 0 -123 25.5t-83 74.5q-33 48 -40 114q-2 22 -3 46q0 47 10 100q16 82 47 147.5t78 114t107.5 76.5t148.5 28q144 0 209 -92q43 -60 43 -157q0 -52 -12 -115zM506 346q10 53 10 98q0 34 -6 64q-14 68 -56 101.5t-112 33.5 q-108 0 -183 -78.5t-102 -214.5q-10 -50 -10 -93q-1 -71 27 -123q44 -83 151 -83q51 0 94 17.5t81 56.5t66 95t40 126zM531 811h-95l-61 111l-109 -111h-96l151 155h115z" />
<glyph unicode="&#xf5;" horiz-adv-x="747" d="M590 346q-32 -172 -132 -267t-250 -95q-72 0 -123 25.5t-83 74.5q-33 48 -40 114q-2 22 -3 46q0 47 10 100q16 82 47 147.5t78 114t107.5 76.5t148.5 28q144 0 209 -92q43 -60 43 -157q0 -52 -12 -115zM506 346q10 53 10 98q0 34 -6 64q-14 68 -56 101.5t-112 33.5 q-108 0 -183 -78.5t-102 -214.5q-10 -50 -10 -93q-1 -71 27 -123q44 -83 151 -83q51 0 94 17.5t81 56.5t66 95t40 126zM585 950q-10 -54 -50 -87t-88 -33q-35 0 -97 34q-43 28 -69 29q-60 1 -80 -65h-58q14 57 54 88.5t90 31.5q37 0 100 -34q40 -22 68 -23q52 -1 76 59h54z " />
<glyph unicode="&#xf6;" horiz-adv-x="747" d="M590 346q-32 -172 -132 -267t-250 -95q-72 0 -123 25.5t-83 74.5q-33 48 -40 114q-2 22 -3 46q0 47 10 100q16 82 47 147.5t78 114t107.5 76.5t148.5 28q144 0 209 -92q43 -60 43 -157q0 -52 -12 -115zM506 346q10 53 10 98q0 34 -6 64q-14 68 -56 101.5t-112 33.5 q-108 0 -183 -78.5t-102 -214.5q-10 -50 -10 -93q-1 -71 27 -123q44 -83 151 -83q51 0 94 17.5t81 56.5t66 95t40 126zM529 835h-94l20 104h94zM275 835h-94l20 104h94z" />
<glyph unicode="&#xf7;" horiz-adv-x="764" d="M473 626h-107l21 105h107zM694 434h-622l14 80h622zM393 215h-107l21 107h107z" />
<glyph unicode="&#xf8;" horiz-adv-x="850" d="M160 43l-90 -90l-29 29l86 92q-70 94 -37 260q35 172 136.5 270t252.5 98q94 0 195 -63l82 86l32 -29l-88 -90q64 -108 33 -264q-32 -170 -133.5 -264t-257.5 -94q-104 0 -182 59zM612 576q-70 62 -143 61q-112 0 -186.5 -84t-98.5 -211q-20 -108 10 -198zM637 538 l-416 -430q56 -60 129 -59q121 0 193.5 86t97.5 209q18 96 -4 194z" />
<glyph unicode="&#xf9;" horiz-adv-x="747" d="M483 0h-84l19 102q-112 -118 -246 -118q-195 0 -195 176q1 38 9 82l90 454h82l-84 -432q-9 -45 -9 -80q0 -54 21 -82q34 -46 108 -46q49 0 95.5 20t87.5 62t59 98.5t39 156.5l59 303h84zM396 786h-67l-113 174h130z" />
<glyph unicode="&#xfa;" horiz-adv-x="747" d="M483 0h-84l19 102q-112 -118 -246 -118q-195 0 -195 176q1 38 9 82l90 454h82l-84 -432q-9 -45 -9 -80q0 -54 21 -82q34 -46 108 -46q49 0 95.5 20t87.5 62t59 98.5t39 156.5l59 303h84zM499 966l-153 -155h-66l104 155h115z" />
<glyph unicode="&#xfb;" horiz-adv-x="747" d="M483 0h-84l19 102q-112 -118 -246 -118q-195 0 -195 176q1 38 9 82l90 454h82l-84 -432q-9 -45 -9 -80q0 -54 21 -82q34 -46 108 -46q49 0 95.5 20t87.5 62t59 98.5t39 156.5l59 303h84zM533 811h-95l-61 111l-109 -111h-96l151 155h115z" />
<glyph unicode="&#xfc;" horiz-adv-x="747" d="M483 0h-84l19 102q-112 -118 -246 -118q-195 0 -195 176q1 38 9 82l90 454h82l-84 -432q-9 -45 -9 -80q0 -54 21 -82q34 -46 108 -46q49 0 95.5 20t87.5 62t59 98.5t39 156.5l59 303h84zM510 835h-94l20 104h94zM256 835h-94l20 104h94z" />
<glyph unicode="&#xfd;" horiz-adv-x="671" d="M638 696l-409 -696l-82 -137q-84 -145 -188 -145q-27 0 -76 12l6 82q47 -10 72 -10q38 0 59.5 15t49.5 60l71 123l-139 696h90l110 -602l357 602h79zM499 966l-153 -155h-66l104 155h115z" />
<glyph unicode="&#xfe;" horiz-adv-x="772" d="M133 100l-73 -376h-88l241 1236h88l-73 -374q90 116 237 116q146 0 196.5 -105t24.5 -249q-28 -141 -122 -252.5t-246 -111.5q-138 0 -185 116zM594 350q22 115 -12 203t-142 88q-102 0 -176 -89t-96 -212q-24 -129 15 -210t139 -81q102 0 174 83t98 218z" />
<glyph unicode="&#xff;" horiz-adv-x="671" d="M638 696l-409 -696l-82 -137q-84 -145 -188 -145q-27 0 -76 12l6 82q47 -10 72 -10q38 0 59.5 15t49.5 60l71 123l-139 696h90l110 -602l357 602h79zM500 835h-94l20 104h94zM246 835h-94l20 104h94z" />
<glyph unicode="&#x131;" horiz-adv-x="385" d="M158 0h-88l133 686h88z" />
<glyph unicode="&#x152;" horiz-adv-x="1390" d="M1247 0h-551l31 164q-115 -180 -323 -180q-194 0 -262 141t-28 357q45 234 169.5 365.5t312.5 131.5q100 0 168 -53.5t84 -141.5l34 176h531l-17 -82h-442l-65 -338h407l-16 -84h-408l-74 -372h464zM782 490q34 182 -15 298.5t-185 116.5q-143 0 -235.5 -118.5 t-131.5 -315.5q-35 -186 15 -300.5t188 -114.5q139 0 232 119t132 315z" />
<glyph unicode="&#x153;" horiz-adv-x="1313" d="M1224 328h-532q-24 -124 22 -201.5t154 -77.5q148 -1 228 149l86 -12q-102 -202 -328 -202q-186 0 -246 147q-136 -147 -299 -147q-170 0 -225.5 103t-27.5 249q22 112 74 195t132 127t186 44q182 0 240 -151q125 151 293 151q164 0 219 -108t24 -266zM604 346 q27 129 -18.5 210t-153.5 81q-112 0 -187 -87t-97 -206q-24 -131 20 -213t150 -82q114 0 189 89.5t97 207.5zM1145 393q24 244 -168 244q-98 0 -173.5 -69.5t-95.5 -174.5h437z" />
<glyph unicode="&#x160;" horiz-adv-x="819" d="M-39 289l92 8q-3 -24 -3 -46q0 -85 46 -132q58 -59 170 -59q82 0 144.5 24t102 72.5t50.5 103.5q3 15 3 29q0 121 -218 161q-164 31 -226 95q-45 46 -45 119q1 27 7 57q22 118 121.5 187t232.5 69q150 -1 220 -67q55 -52 55 -145q-1 -27 -5 -59l-90 -4q2 20 2 38 q0 161 -188 161q-98 0 -171 -46t-87 -126q-3 -15 -3 -29q-1 -113 195 -155q164 -35 236 -97q55 -48 54 -128q0 -25 -5 -54q-12 -63 -45 -114.5t-86.5 -89.5t-119.5 -58t-142 -20q-300 0 -300 255q0 24 3 50zM657 1212l-156 -155h-114l-90 155h96l64 -114l106 114h94z" />
<glyph unicode="&#x161;" horiz-adv-x="671" d="M-72 188l88 15q2 -80 48 -116t126 -36q54 0 100 17.5t73.5 47.5t35.5 70q2 11 2 21q0 24 -14 43q-20 27 -61 41q-40 15 -111 31q-204 44 -204 165q0 14 3 29q18 90 99 142t185 52q211 0 224 -182l-84 -12q-8 74 -40 101.5t-110 27.5q-49 0 -90.5 -15.5t-66.5 -39.5 q-25 -26 -31 -58q-6 -35 6 -58.5t59 -42.5t121 -35q144 -35 179 -85q26 -36 25 -81q0 -16 -3 -34q-12 -66 -54 -112.5t-108.5 -73t-150.5 -26.5q-54 0 -96 10t-73.5 31.5t-52 58t-24.5 104.5zM520 966l-156 -155h-114l-90 155h96l64 -114l106 114h94z" />
<glyph unicode="&#x178;" horiz-adv-x="819" d="M844 960l-468 -546l-80 -414h-92l80 414l-244 546h109l203 -460l389 460h103zM602 1062h-94l20 104h94zM348 1062h-94l20 104h94z" />
<glyph unicode="&#x17d;" horiz-adv-x="819" d="M624 0h-747l14 84l779 798h-568l16 78h678l-16 -78l-782 -804h640zM690 1212l-156 -155h-114l-90 155h96l64 -114l106 114h94z" />
<glyph unicode="&#x17e;" horiz-adv-x="671" d="M485 0h-612l12 72l586 554h-451l14 70h564l-12 -55l-594 -569h506zM538 966l-156 -155h-114l-90 155h96l64 -114l106 114h94z" />
<glyph unicode="&#x192;" horiz-adv-x="772" d="M819 958l-29 -71q-58 12 -90 12q-45 0 -72.5 -22.5t-57.5 -100.5l-34 -90h140l-22 -60h-140l-280 -755q-35 -94 -78.5 -129t-112.5 -35q-56 1 -127 15l28 71q64 -12 89 -12q85 1 127 119l264 726h-135l20 60h137l42 104q26 78 45.5 109t61 55.5t101.5 24.5q68 -1 123 -21 z" />
<glyph unicode="&#x2c6;" horiz-adv-x="463" d="M486 811h-95l-61 111l-109 -111h-96l151 155h115z" />
<glyph unicode="&#x2c7;" horiz-adv-x="463" d="M526 966l-156 -155h-114l-90 155h96l64 -114l106 114h94z" />
<glyph unicode="&#x2da;" horiz-adv-x="463" d="M217 887q8 49 48 76.5t79 27.5t66.5 -26.5t17.5 -77.5q-10 -52 -49 -79.5t-76 -27.5q-39 0 -67.5 27.5t-18.5 79.5zM250 884q-4 -26 9 -49.5t48 -23.5q29 0 54.5 21.5t29.5 51.5q6 27 -8.5 50.5t-46.5 23.5q-35 0 -57.5 -23.5t-28.5 -50.5z" />
<glyph unicode="&#x2dc;" horiz-adv-x="463" d="M542 950q-10 -54 -50 -87t-88 -33q-35 0 -97 34q-43 28 -69 29q-60 1 -80 -65h-58q14 57 54 88.5t90 31.5q37 0 100 -34q40 -22 68 -23q52 -1 76 59h54z" />
<glyph unicode="&#x3a9;" horiz-adv-x="829" d="M772 116l-22 -116h-375l45 242q22 0 53 6t60.5 18t59 33t56.5 51.5t46.5 70.5t29.5 91q4 20 6 50t-4 62t-21.5 62.5t-44 55t-70 39.5t-103.5 15t-111 -15t-86 -39.5t-65 -55t-45 -62.5t-28 -62t-16 -50q-10 -51 -5 -91t19.5 -70.5t36 -51.5t48 -33t52.5 -18t48 -6 l-45 -242h-375l22 116h258l7 36q-18 4 -40.5 14t-45.5 27.5t-44.5 45t-36 65.5t-17.5 90t9 118q14 74 45 132t71 101t87 72t95.5 47t95.5 26.5t86 8.5t83 -8.5t85 -26.5t75.5 -47t58.5 -72t31 -101t-7 -132q-14 -70 -39 -123t-54 -93t-60.5 -65.5t-62 -43t-56.5 -25.5 t-40 -10l-6 -36h256z" />
<glyph unicode="&#xe01;" horiz-adv-x="819" d="M618 0h-76l116 598q14 76 -45 119t-157 43q-118 0 -224 -66q76 -20 149 -78q-54 -20 -90.5 -47t-50.5 -50t-23 -58l-88 -461h-76l95 494q16 84 120 118q-48 32 -160 62q58 68 163.5 112t199.5 44q96 0 160.5 -29t90.5 -78t13 -121z" />
<glyph unicode="&#xe02;" horiz-adv-x="770" d="M570 0h-420l14 76h102l74 387q6 28 53 98q47 71 53 97q16 90 -80 102q-88 0 -136 -29q43 0 72.5 -15.5t38.5 -45t1 -70.5q-6 -32 -26.5 -61t-55 -49.5t-80.5 -20.5q-43 0 -66.5 17.5t-33.5 50.5t-4 69q10 56 39 100t91 84t162 40q84 0 128 -46t30 -124q-6 -35 -57 -111 q-51 -77 -55 -99l-72 -374h166l144 743h75zM274 608q12 64 -53 64q-63 0 -75 -64q-12 -66 50 -66q66 0 78 66z" />
<glyph unicode="&#xe03;" horiz-adv-x="819" d="M616 0h-422l15 76h103l90 462q10 56 86 116q32 26 34 34q2 12 -12 31t-24 19q-20 0 -109 -68q-71 84 -105 84q-29 0 -67.5 -36t-50.5 -69q36 29 90 29t81 -38t15 -93q-10 -56 -54 -91.5t-106 -35.5q-70 0 -93 49t-9 123q18 102 94 170t119 68q21 0 33 -11l67 -61l91 59 q18 13 30 13q14 0 57 -60t39 -78q-2 -8 -108 -112q-18 -18 -25 -52l-88 -452h168l143 743h76zM276 553q12 63 -53 63q-63 0 -75 -63q-12 -65 50 -65q66 0 78 65z" />
<glyph unicode="&#xe04;" horiz-adv-x="854" d="M654 0h-76l102 532q12 66 -7 116t-64 81t-111 31q-64 0 -122 -28t-109 -90t-69 -150l-63 -324l70 135l102 209q66 131 172 131q56 0 86.5 -40t20.5 -95q-12 -60 -58 -98t-106 -38q-76 0 -88 50l-18 -33l-204 -389h-77l94 494q28 144 134.5 240t242.5 96q84 0 146.5 -33 t92 -100t13.5 -159zM512 504q14 68 -56 68q-61 0 -73 -62q-15 -68 55 -68q62 0 74 62z" />
<glyph unicode="&#xe05;" horiz-adv-x="854" d="M658 0h-76l114 592q28 154 -57 154q-33 0 -53 -15l-98 -65l-74 65q-18 17 -60 17q-96 0 -124 -156l-82 -422l65 129l96 176q72 133 164 133q137 0 109 -135q-6 -39 -29 -67.5t-54.5 -45t-70.5 -16.5q-56 0 -92 56l-27 -54l-193 -346h-77l123 635q8 47 38 90t71 68.5 t87 25.5q72 -1 101 -27q16 -12 43 -44q30 22 68 44q39 26 106 27q41 0 67.5 -20.5t37.5 -59.5t1 -87zM514 477q12 63 -51 63q-66 0 -78 -63q-13 -65 53 -65q64 0 76 65z" />
<glyph unicode="&#xe06;" horiz-adv-x="997" d="M792 0h-73q2 14 -17.5 51t-50.5 80t-67.5 71t-80 46t-65.5 20l-36 -186q-8 -41 -44 -66.5t-82 -25.5q-47 0 -81.5 21.5t-54 63t-9.5 97.5q16 86 84.5 130t163.5 44l39 192q8 52 86 116q34 28 36 34q2 12 -12 31t-24 19q-22 0 -113 -68q-70 84 -102 84q-29 0 -69 -37 t-50 -68q33 29 92 29q33 0 55.5 -13t35.5 -43t3 -75q-10 -56 -56 -91.5t-106 -35.5q-135 0 -100 176q18 98 95 166t116 68q24 0 37 -11l64 -61l92 59q18 13 28 13q16 0 59 -61t39 -77q-2 -14 -48 -57l-64 -59q-16 -16 -22 -48l-38 -186q86 -16 167 -75t131 -157l4 74 l122 635h74zM334 112l30 158q-139 0 -159 -102q-6 -41 16.5 -73.5t64.5 -32.5q38 0 48 50zM293 553q13 63 -53 63q-64 0 -76 -63q-12 -65 51 -65q66 0 78 65z" />
<glyph unicode="&#xe07;" horiz-adv-x="641" d="M440 0h-76l-350 440l68 56l268 -344q4 -6 16 -29l15 -25l6 -16l4 55l72 379q6 24 11 36.5t28 39.5q-40 -35 -94 -35q-32 0 -56 15.5t-38.5 45t-6.5 70.5t32.5 72.5t58.5 50.5t73 19q49 0 82 -39t23 -87zM502 690q12 64 -52 64q-62 0 -73 -62q-12 -64 51 -64q62 0 74 62z " />
<glyph unicode="&#xe08;" horiz-adv-x="782" d="M582 0h-72l-54 344l-10 58q-37 -46 -106 -46q-39 0 -64.5 16.5t-35.5 46t-2 69.5q6 30 25 59t52 47t72 18q104 0 119 -104l34 -268l7 -74l71 370q10 54 -7 100t-68 83t-129 37q-106 0 -178 -72t-96 -196l-13 -64h-76l15 74q18 100 70 174t124 115t160 41q139 0 214.5 -79 t51.5 -209zM432 486q10 62 -51 61q-62 1 -72 -61q-13 -64 49 -64t74 64z" />
<glyph unicode="&#xe09;" horiz-adv-x="829" d="M282 0h-75l69 358q-90 20 -67 128q6 36 30.5 66t57.5 48t69 18q56 0 88 -38t21 -92q-21 -98 -123 -130l-55 -274q170 112 220.5 142t76.5 30l51 266q20 100 -39.5 166t-163.5 66q-64 0 -121 -29t-107 -92t-68 -151l-13 -62h-77l12 62q20 100 79.5 179t138 124t173.5 45 q68 0 121 -22t91.5 -65t50 -98t-0.5 -121l-53 -274q84 -22 63 -125q-10 -56 -53.5 -93.5t-97.5 -37.5q-34 0 -62 13t-41.5 37t-7.5 52q4 22 8 31zM666 127q12 67 -56 67q-64 0 -76 -63q-12 -67 56 -67q64 0 76 63zM406 488q12 64 -52 63q-64 1 -76 -63t52 -64t76 64z" />
<glyph unicode="&#xe0a;" horiz-adv-x="782" d="M774 834l-158 -132l84 -69l-122 -633h-404l14 76h94l86 448q8 38 16.5 56t38 46t77.5 62q-80 66 -168 66q-98 0 -142 -46q22 8 38 9q30 0 54.5 -13.5t36 -45.5t3.5 -72q-10 -55 -59 -93.5t-105 -38.5q-61 0 -87.5 38t-12.5 114q18 92 102 155t188 63q115 0 211 -80 l170 140zM516 76l100 522l-63 54q-39 -31 -63.5 -53.5t-31 -34t-12.5 -44.5l-86 -444h156zM254 594q12 64 -54 64q-64 0 -75 -64q-12 -66 51 -66q66 0 78 66z" />
<glyph unicode="&#xe0b;" horiz-adv-x="782" d="M778 834l-158 -132l80 -86l-118 -616h-410l14 76h100l91 462q7 52 73 105l66 55q-41 48 -51 48q-13 0 -113 -76q-70 84 -104 84q-29 0 -59.5 -32t-40.5 -66q43 22 69 22q56 0 83.5 -38t15.5 -93q-8 -52 -53.5 -89.5t-94.5 -37.5q-134 0 -98 184q14 78 74 152t124 74 q22 0 33 -11l65 -65l90 63q18 13 32 13q12 0 86 -80l159 134zM520 76l98 510l-63 66l-41 -34q-31 -26 -44.5 -47t-17.5 -43l-88 -452h156zM254 553q12 63 -54 63q-64 0 -75 -63q-12 -65 51 -65q66 0 78 65z" />
<glyph unicode="&#xe0c;" horiz-adv-x="1222" d="M1022 0h-76q0 28 -50 103t-118 117t-106 44l-37 -182q-17 -92 -107 -92q-41 0 -69.5 22.5t-42.5 64.5t-4 93q14 74 68 121t130 51l50 256q14 76 -44.5 119t-156.5 43q-121 0 -225 -66q82 -24 149 -78q-152 -62 -170 -155l-43 -227q26 22 64 22q41 0 67.5 -17.5t37.5 -46 t3 -69.5q-8 -39 -32 -68t-58.5 -47t-73.5 -18q-57 0 -86.5 37t-19.5 96l70 354q16 81 128 135q-48 34 -160 62q58 68 163.5 112t199.5 44q100 0 164.5 -31t88.5 -80t12 -117l-54 -266q78 -10 161 -72t121 -156l138 711h76zM570 112l30 158q-98 -2 -116 -100q-8 -39 7 -73.5 t47 -34.5q22 0 32 50zM270 125q12 61 -49 61q-63 0 -75 -67q-12 -61 48 -61q64 0 76 67z" />
<glyph unicode="&#xe0d;" horiz-adv-x="1245" d="M1044 0h-502l116 598q14 76 -45 119t-157 43q-118 0 -224 -66q76 -20 149 -78q-84 -35 -124 -68.5t-50 -86.5l-45 -231q34 26 70 26q58 0 88 -38t18 -95q-8 -39 -31 -69t-57.5 -47t-73.5 -17t-65.5 17t-37.5 47t-3 69l70 354q18 97 128 135q-48 32 -160 62 q58 68 163.5 112t199.5 44q96 0 160.5 -29t90.5 -78t13 -121l-102 -526h350l143 743h76zM1010 -84q-53 -121 -155.5 -191.5t-223.5 -70.5q-56 0 -93.5 20.5t-54 55t-6.5 82.5q10 56 57.5 91t102.5 35t85 -40t20 -92q-10 -58 -68 -90q68 4 151 73t109 145zM676 -196 q12 68 -56 67q-66 1 -78 -65q-12 -68 56 -68q66 0 78 66zM268 125q12 61 -49 61q-70 0 -82 -67q-13 -61 49 -61q70 0 82 67z" />
<glyph unicode="&#xe0e;" horiz-adv-x="901" d="M643 -295l-239 -201l-154 119q-24 17 -29 55l-6 -30q-10 -55 -58.5 -98.5t-105.5 -43.5q-43 0 -72.5 20t-43 51.5t-5.5 74.5q12 57 60 98t106 41q62 -1 88 -31q-4 10 -6 19q-4 11 -2 21l22 106h70l-34 -170l180 -134l158 134l168 862q14 76 -45 119t-157 43 q-120 0 -224 -66q80 -20 149 -78q-52 -22 -88.5 -48t-49.5 -49t-22 -58l-65 -336q-10 -54 -55.5 -94.5t-98.5 -40.5q-39 0 -67.5 18t-39.5 48t-5 67q10 55 52 92t97 37q33 0 63 -16l50 256q16 84 118 120q-48 32 -162 62q58 68 163.5 112t201.5 44q94 0 158.5 -29t90.5 -78 t13 -121zM148 -350q14 74 -62 74q-26 0 -50 -22t-28 -48q-14 -74 56 -74q18 0 34 8t31 25t19 37zM170 119q14 71 -56 71q-59 0 -71 -63q-15 -71 53 -71q62 0 74 63z" />
<glyph unicode="&#xe0f;" horiz-adv-x="901" d="M633 -344l-179 -152l-73 92l-109 -92q-20 26 -61 84q-4 14 -6 33q-18 -49 -59.5 -82t-83.5 -33q-47 0 -80 20t-46.5 51.5t-5.5 74.5q12 57 60 98t106 41q54 -1 88 -33q-6 12 -8 25v17l22 106h70l-38 -201l63 -103l107 89l71 -89l90 80l179 916q14 76 -45 119t-157 43 q-120 0 -224 -66q80 -20 149 -78q-52 -22 -88.5 -48t-49.5 -49t-22 -58l-65 -336q-10 -54 -55.5 -94.5t-98.5 -40.5q-39 0 -67.5 18t-39.5 48t-5 67q10 55 52 92t97 37q33 0 63 -16l50 256q16 84 118 120q-48 32 -162 62q58 68 163.5 112t201.5 44q94 0 158.5 -29t90.5 -78 t13 -121zM148 -350q14 74 -62 74q-18 0 -34.5 -9.5t-28 -25t-15.5 -35.5q-14 -74 62 -74q66 0 78 70zM170 119q14 71 -56 71q-59 0 -71 -63q-15 -71 53 -71q62 0 74 63z" />
<glyph unicode="&#xe10;" horiz-adv-x="782" d="M790 858q-37 -116 -53 -137t-49 -21q-18 0 -118 25q-92 25 -130 25q-160 0 -229 -117q62 31 168 31q127 0 219 -33t80 -95l-186 -536h-72l-41 258v35q2 6 10 41q-47 -70 -127 -70q-30 0 -56 15.5t-39 48t-5 76.5q10 56 55 94t103 38q96 0 108 -96l35 -258l-2 -88h6 l33 136l100 294q6 32 -85 51t-185 19q-104 0 -205 -18l6 20q26 92 113.5 158.5t214.5 66.5q78 -1 176 -27q41 -12 55 -12q6 2 31 86zM500 -379l-170 -143l-74 90l-104 -90l-52 74q-12 18 -14 50q-37 -122 -162 -122q-57 0 -84.5 40t-15.5 105q6 35 27.5 64t55 49t77.5 20 q54 0 80 -28l-7 24t-1 18l28 146h72l-48 -240l62 -104l104 88l72 -88l88 76l6 30q8 18 16 34q-36 -32 -88 -32q-126 0 -98 130q10 58 56 94t104 36q60 0 88 -36t16 -100zM22 -383q14 69 -55 69q-61 0 -73 -63q-14 -69 48 -69q68 0 80 63zM469 -188q11 62 -55 61 q-66 1 -78 -67q-12 -62 55 -62q64 0 78 68zM356 400q12 64 -51 63q-24 0 -46.5 -18.5t-28.5 -44.5q-12 -64 50 -64q64 0 76 64z" />
<glyph unicode="&#xe11;" horiz-adv-x="1032" d="M830 0h-76l118 616q24 128 -78 128h-12l-418 -744h-69l105 538q10 56 86 116q32 26 34 34q2 10 -11 30t-25 20q-20 0 -109 -68q-71 84 -105 84q-29 0 -67.5 -36t-50.5 -69q36 29 90 29t81 -38t15 -93q-6 -39 -30 -68t-56.5 -44t-73.5 -15q-70 0 -93 49t-9 123 q20 104 96 171t117 67q21 0 33 -11l67 -61l90 59q18 13 31 13q8 0 29.5 -24t46 -62t20.5 -52q-2 -8 -108 -112q-18 -18 -25 -52l-61 -315l88 164l246 442h50q190 -1 152 -207zM274 553q12 63 -53 63q-63 0 -75 -63q-12 -65 50 -65q66 0 78 65z" />
<glyph unicode="&#xe12;" horiz-adv-x="1257" d="M1057 0h-76q-2 33 -51.5 103.5t-117.5 114.5t-104 48l-36 -184q-16 -92 -109 -92q-70 0 -101.5 50t-15.5 132q8 49 35 86t70 59.5t96 24.5l49 250q28 154 -57 154q-33 0 -53 -15l-98 -65l-74 65q-18 17 -60 17q-96 0 -124 -156l-97 -494l211 205q12 12 34 27.5t32 19.5 q-34 0 -60 15.5t-41.5 44t-9.5 63.5q8 37 29.5 67t54.5 48t76 18q40 0 67 -17t38.5 -45t5.5 -67q-10 -51 -66 -105l-388 -372h-77l123 635q8 47 38 90t71 68.5t87 25.5q72 -1 101 -27q16 -12 43 -44q30 22 68 44q39 26 106 27q41 0 67.5 -20.5t37.5 -59.5t1 -87l-61 -316 q62 0 152.5 -64.5t130.5 -152.5l134 700h76zM602 112l31 158q-94 -2 -113 -98q-22 -110 54 -110q18 0 28 50zM502 477q12 70 -58 70q-64 1 -76 -63q-14 -74 56 -74q64 0 78 67z" />
<glyph unicode="&#xe13;" horiz-adv-x="1245" d="M880 190q-18 -12 -40 -30l-107 -68q-77 -49 -121 -92h-70l116 598q14 76 -45 119t-157 43q-118 0 -224 -66q76 -20 149 -78q-54 -20 -90.5 -45.5t-53 -51t-22.5 -58.5l-43 -227q26 20 62 20q39 0 63.5 -17.5t36.5 -46t4 -67.5t-31 -69t-57.5 -47t-73.5 -17 q-57 0 -83.5 37t-16.5 96l72 371q16 84 120 118q-48 32 -160 62q58 68 163.5 112t199.5 44q96 0 160.5 -29t90.5 -78t13 -121l-98 -504q92 80 202.5 138.5t176.5 58.5l102 524h76l-102 -535q86 -38 65 -140q-8 -47 -34.5 -82.5t-63.5 -53.5t-84 -18q-150 0 -121 152 q2 8 26 48zM1092 142q16 88 -72 88q-86 0 -102 -84q-16 -88 71 -88t103 84zM268 125q12 63 -51 63t-75 -67q-12 -63 48 -63q66 0 78 67z" />
<glyph unicode="&#xe14;" horiz-adv-x="854" d="M654 0h-76l102 532q12 66 -9.5 116t-67 80t-113.5 30t-125.5 -35t-100.5 -95t-57 -134l-74 -380l223 224q12 12 48 39l14 8q-126 0 -102 123q6 37 30 67.5t58 49t71 18.5q39 0 66 -17.5t39 -46t4 -65.5q-10 -52 -66 -108l-412 -406h-71l94 494q28 142 134.5 239t242.5 97 q90 0 151.5 -38t89 -104t11.5 -150zM512 504q14 68 -56 68q-61 0 -73 -62q-15 -68 55 -68q62 0 74 62z" />
<glyph unicode="&#xe15;" horiz-adv-x="854" d="M654 0h-76l114 592q29 154 -57 154q-33 0 -53 -15l-98 -65l-74 65q-20 17 -60 17q-96 0 -124 -156l-97 -494l211 205q6 6 32 29q12 8 34 18q-56 0 -88 37t-23 86q12 60 56.5 96.5t102.5 36.5t90 -36t21 -93q-9 -51 -65 -105l-388 -372h-77l123 635q14 74 71 129t125 55 q72 -1 100 -27q14 -12 44 -44q31 22 67 44q39 26 107 27q37 0 62.5 -16.5t40.5 -55.5t3 -95zM498 477q12 70 -58 70q-64 1 -76 -63q-14 -74 56 -74q64 0 78 67z" />
<glyph unicode="&#xe16;" horiz-adv-x="819" d="M618 0h-76l116 598q14 76 -45 119t-157 43q-118 0 -224 -66q76 -20 149 -78q-54 -20 -90.5 -45.5t-54 -52t-23.5 -59.5l-45 -231q20 22 68 22q37 0 62.5 -17.5t36.5 -45t3 -64.5q-8 -39 -31 -69t-57.5 -47t-73.5 -17q-57 0 -83.5 37t-16.5 94l72 373q16 84 120 118 q-48 32 -160 62q58 68 163.5 112t199.5 44q96 0 160.5 -29t90.5 -78t13 -121zM270 121q12 61 -55 61q-63 0 -75 -66q-12 -60 48 -60q70 0 82 65z" />
<glyph unicode="&#xe17;" horiz-adv-x="878" d="M678 0h-76l119 616q24 128 -78 128h-12l-414 -744h-69l108 559q0 3 4 11l2 14q-28 -22 -64 -23q-34 0 -61 14.5t-41 45.5t-6 73q8 34 29 64t56.5 51t78.5 21q60 0 88 -38t16 -98l-94 -494l35 82l49 97l244 440h53q189 -1 151 -207zM295 698q13 62 -51 62q-68 0 -82 -68 q-12 -61 49 -61q70 -1 84 67z" />
<glyph unicode="&#xe18;" horiz-adv-x="735" d="M723 692l-67 -40q-50 106 -195 106q-84 0 -164 -50t-125 -128q8 4 22.5 8t28.5 4h248q154 0 125 -142l-86 -450h-475l14 76h97l86 446h-152l6 18q35 121 154.5 205.5t245.5 84.5q176 0 237 -138zM448 76l70 366q10 43 -7 61.5t-46 18.5h-158l-86 -446h227z" />
<glyph unicode="&#xe19;" horiz-adv-x="878" d="M530 205q-20 0 -95 -42t-128 -84t-86 -79h-75l110 576q-20 -14 -56 -15q-36 0 -62 14.5t-41 45.5t-7 73q8 34 29 64t56.5 51t78.5 21q39 0 64.5 -17t35.5 -48t2 -71l-112 -586q92 76 174 118t149 57.5t93 15.5l100 520h76l-103 -535q85 -38 65 -140q-28 -154 -182 -154 q-45 0 -74.5 19t-41.5 53t-4 80q6 36 34 63zM733 142q17 88 -71 88q-86 0 -103 -84q-16 -88 72 -88q86 0 102 84zM295 698q12 62 -49 62q-70 0 -84 -68q-12 -61 49 -61q70 -1 84 67z" />
<glyph unicode="&#xe1a;" horiz-adv-x="913" d="M712 0h-654l14 76h94l98 504q-24 -16 -68 -17q-55 0 -84.5 37.5t-19.5 93.5q8 34 29 64t57.5 51t79.5 21q39 0 64.5 -17t35.5 -48t2 -71l-118 -618h410l142 743h76zM297 698q12 62 -49 62q-70 0 -84 -68q-12 -61 49 -61q70 -1 84 67z" />
<glyph unicode="&#xe1b;" horiz-adv-x="913" d="M712 0h-654l14 76h94l98 504q-24 -16 -68 -17q-55 0 -84.5 37.5t-19.5 93.5q8 34 29 64t57.5 51t79.5 21q39 0 64.5 -17t35.5 -48t2 -71l-118 -618h410l228 1182h76zM297 698q12 62 -49 62q-70 0 -84 -68q-12 -61 49 -61q70 -1 84 67z" />
<glyph unicode="&#xe1c;" horiz-adv-x="829" d="M628 0h-69l-172 272l-275 -272h-71l133 694q8 38 32 69t55.5 49t70.5 18q57 0 89.5 -39t20.5 -97q-6 -39 -29.5 -68.5t-55 -47t-68.5 -17.5q-39 1 -59 23l-90 -463l230 229h66l142 -223l132 692h76zM370 692q14 68 -54 68q-62 0 -74 -62q-14 -68 51 -67q65 0 77 61z" />
<glyph unicode="&#xe1d;" horiz-adv-x="829" d="M628 0h-69l-172 272l-275 -272h-71l133 694q8 38 32 69t55.5 49t70.5 18q57 0 89.5 -39t20.5 -97q-6 -39 -29.5 -68.5t-55 -47t-68.5 -17.5q-39 1 -59 23l-90 -463l230 229h66l142 -223l218 1131h76zM370 692q14 68 -54 68q-62 0 -74 -62q-14 -68 51 -67q65 0 77 61z" />
<glyph unicode="&#xe1e;" horiz-adv-x="948" d="M748 0h-76l-80 628l-4 107l-43 -107l-324 -628h-75l112 580q-26 -18 -66 -19q-53 0 -82.5 39.5t-19.5 93.5q8 34 29 64t56.5 51t78.5 21q60 0 86 -38t14 -98l-92 -475l68 135l240 465h71l67 -501l4 -105l118 606h75zM295 698q12 62 -49 62q-70 0 -84 -68q-12 -61 49 -61 q70 -1 84 67z" />
<glyph unicode="&#xe1f;" horiz-adv-x="948" d="M748 0h-76l-80 628l-4 107l-43 -107l-324 -628h-75l112 580q-26 -18 -66 -19q-53 0 -82.5 39.5t-19.5 93.5q8 34 29 64t56.5 51t78.5 21q60 0 86 -38t14 -98l-92 -475l68 135l240 465h71l67 -501l4 -105l204 1045h75zM295 698q12 62 -49 62q-70 0 -84 -68q-12 -61 49 -61 q70 -1 84 67z" />
<glyph unicode="&#xe20;" horiz-adv-x="901" d="M700 0h-76l116 598q14 76 -45 119t-157 43q-120 0 -224 -66q80 -20 149 -78q-52 -22 -88.5 -48t-49.5 -49t-22 -58l-65 -336q-10 -54 -55.5 -94.5t-98.5 -40.5q-39 0 -67.5 18t-39.5 48t-5 67q10 55 52 92t97 37q33 0 63 -16l50 256q16 84 118 120q-48 32 -162 62 q58 68 163.5 112t201.5 44q94 0 158.5 -29t90.5 -78t13 -121zM170 119q14 71 -56 71q-59 0 -71 -63q-15 -71 53 -71q62 0 74 63z" />
<glyph unicode="&#xe21;" horiz-adv-x="889" d="M688 0h-76q0 10 -25.5 44t-67.5 73t-107.5 77t-116.5 42l-31 -154q-16 -92 -106 -92q-45 0 -78 22.5t-48.5 59t-7.5 82.5q14 76 72 119t140 43l50 262q-12 -16 -58 -17q-62 0 -92 38.5t-20 94.5q12 57 59 96.5t105 39.5t88 -38t17 -98l-73 -385q68 0 172 -63.5 t147 -143.5l139 717h76zM198 112l25 128q-107 0 -123 -86q-6 -32 14.5 -62t53.5 -30q20 0 30 50zM322 698q12 62 -52 62q-68 0 -82 -68q-12 -61 52 -61q68 -1 82 67z" />
<glyph unicode="&#xe22;" horiz-adv-x="819" d="M616 0h-546l53 278q20 106 82 130q-133 45 -101 196q8 39 26 75t52.5 71.5t77 57.5t92.5 22q68 0 100 -38t19 -98q-6 -39 -29.5 -68.5t-55.5 -47t-68 -17.5q-123 0 -101 115q0 6 6 24q-32 -26 -45 -92q-12 -66 23 -112t96 -46h119l-14 -71h-107q-79 0 -95 -90l-40 -213 h395l143 743h76zM400 692q14 68 -54 68q-64 0 -76 -62q-14 -68 54 -67q64 0 76 61z" />
<glyph unicode="&#xe23;" horiz-adv-x="616" d="M608 557h-72l4 17q10 53 -6 94.5t-50 66.5t-86 25q-166 0 -220 -160q44 12 62 12h223l-99 -500q-8 -49 -53 -85.5t-96 -36.5q-139 0 -113 139q6 37 30 67t55.5 47t68.5 17q36 0 58 -18l58 298h-274l8 42q20 104 109 176t195 72q74 0 124 -32t72 -86t8 -124zM297 127 q10 61 -51 61q-64 0 -76 -63q-10 -61 51 -61q64 0 76 63z" />
<glyph unicode="&#xe24;" horiz-adv-x="819" d="M520 -498h-76l214 1096q14 76 -45 119t-157 43q-118 0 -224 -66q76 -20 149 -78q-54 -20 -90.5 -45.5t-53 -51t-22.5 -58.5l-43 -219q22 16 56 16q36 0 64 -15t41 -46t5 -74q-8 -39 -31 -69t-57.5 -47t-73.5 -17q-34 0 -59 13t-37 43t-4 75l72 373q16 84 120 118 q-48 32 -160 62q58 68 163.5 112t199.5 44q96 0 160.5 -29t90.5 -78t13 -121zM268 125q12 61 -49 61q-70 0 -82 -67q-13 -61 51 -61q68 0 80 67z" />
<glyph unicode="&#xe25;" horiz-adv-x="829" d="M628 0h-75q16 94 -36 290t-99 252q-43 -34 -125 -130t-127 -182q40 26 72 26q58 0 90 -38t20 -95q-10 -58 -57 -95.5t-105 -37.5q-62 0 -92 44t-18 108t38 121t66.5 115t116 137t143.5 130q57 -51 106.5 -194t57.5 -295l4 2l16 221l32 153q18 94 -37.5 160t-151.5 66 q-72 0 -133.5 -35t-106.5 -94t-61 -135l-10 -56h-76l10 56q20 100 76.5 175t138 118t179.5 43q64 0 112.5 -21t85.5 -64t49.5 -94t1.5 -113zM276 125q12 61 -53 61t-77 -67q-12 -61 50 -61q68 0 80 67z" />
<glyph unicode="&#xe26;" horiz-adv-x="901" d="M602 -498h-76l214 1096q14 76 -45 119t-157 43q-120 0 -224 -66q80 -20 149 -78q-52 -22 -88.5 -48t-49.5 -49t-22 -58l-65 -336q-10 -54 -55.5 -94.5t-98.5 -40.5q-39 0 -67.5 18t-39.5 48t-5 67q10 55 52 92t97 37q33 0 63 -16l50 256q16 84 118 120q-48 32 -162 62 q58 68 163.5 112t201.5 44q94 0 158.5 -29t90.5 -78t13 -121zM170 119q14 71 -56 71q-59 0 -71 -63q-15 -71 53 -71q62 0 74 63z" />
<glyph unicode="&#xe27;" horiz-adv-x="710" d="M479 242l66 332q10 53 -6.5 91.5t-53.5 63.5t-89 25q-86 0 -155 -58.5t-85 -144.5l-23 -119h-75l22 125q22 114 119 193.5t211 79.5q106 0 169 -72t43 -176l-92 -470q-6 -34 -28.5 -61t-54 -44t-66.5 -17q-139 0 -111 139q6 37 30 67t54.5 47t67.5 17q39 0 57 -18z M463 129q11 59 -49 59q-64 0 -76 -65q-10 -59 49 -59q64 0 76 65z" />
<glyph unicode="&#xe28;" horiz-adv-x="854" d="M708 738q39 -29 49.5 -85.5t0.5 -114.5l-104 -538h-76l102 532q20 106 -24 148q-10 -6 -44 -41q-4 -6 -47 -41q31 -35 21 -86q-12 -60 -59.5 -96.5t-106.5 -36.5q-64 0 -84 43l-20 -33l-204 -389h-77l94 494q12 64 39.5 118t76 105t115 82t146.5 31q102 0 160 -46 q39 41 102 146l62 -33q0 -4 -38 -53q-58 -78 -84 -106zM610 725q-28 33 -120 33q-68 0 -126.5 -36t-104 -97t-59.5 -137l-60 -314l60 129l107 209q68 131 172 131q18 0 39 -8q40 34 92 90zM514 506q12 68 -55 68q-62 0 -74 -64q-15 -68 53 -68q62 0 76 64z" />
<glyph unicode="&#xe29;" horiz-adv-x="973" d="M1012 586q-130 -122 -218 -164l-82 -422h-654l14 76h94l96 502q-22 -16 -62 -17q-59 0 -88.5 38.5t-19.5 94.5q8 34 29 64t57.5 51t79.5 21q39 0 64.5 -17t35.5 -48t2 -71l-118 -618h410l60 315q-64 -27 -153 -27q-76 0 -119.5 42t-31.5 110q12 54 55 90.5t94 36.5 q39 0 62.5 -16.5t35 -44t3.5 -66.5q-10 -55 -76 -94q31 0 43 2t44.5 12t57.5 33l67 350h76l-61 -317q28 12 86.5 61t72.5 70zM297 698q12 62 -47 62q-72 0 -86 -68q-12 -61 47 -61q72 -1 86 67zM594 514q12 62 -47 62q-60 0 -70 -58q-13 -62 49 -62q58 0 68 58z" />
<glyph unicode="&#xe2a;" horiz-adv-x="829" d="M628 0h-75q16 94 -36 288t-97 248q-108 -96 -176 -183t-88 -140q38 39 84 39q39 0 65.5 -17.5t38.5 -45t4 -66.5q-10 -58 -57 -95.5t-105 -37.5q-41 0 -69.5 20t-38.5 55t-2 81q18 92 82 195t238 263l149 140q2 14 -78 14q-72 0 -133.5 -35t-106.5 -94t-61 -135l-10 -56 h-76l10 56q20 100 76.5 175t138 118t179.5 43q72 0 116 -23q16 0 88 125l64 -31q-52 -84 -96 -133q60 -43 75 -103.5t2 -126.5zM602 217l62 311q14 76 -11 125t-51 57l-127 -122q35 -29 73 -141.5t38 -147.5zM280 125q12 63 -48 63q-72 0 -84 -69q-12 -66 52 -66q68 0 80 72 z" />
<glyph unicode="&#xe2b;" horiz-adv-x="878" d="M754 576l30 -21l-106 -555h-76l100 522l-485 -522h-67l110 578q-20 -16 -62 -17q-59 0 -88.5 38.5t-19.5 94.5q8 34 29 64t56.5 51t78.5 21q126 0 100 -140l-108 -561l24 29l388 410q-92 50 -76 132q10 55 55 92.5t101 37.5q57 0 87.5 -36t20.5 -94q-12 -60 -92 -124z M295 698q12 62 -49 62q-70 0 -84 -68q-12 -61 49 -61q70 -1 84 67zM774 700q12 60 -49 60q-16 0 -31.5 -8t-25.5 -22t-14 -30q-8 -46 52 -84q60 44 68 84z" />
<glyph unicode="&#xe2c;" horiz-adv-x="948" d="M1054 1008l-132 -111l-174 -897h-76l-88 712l-39 -84l-324 -628h-69l112 580q-28 -18 -68 -19q-37 0 -62.5 16.5t-37.5 47.5t-6 69q8 34 29 63t56.5 50t78.5 21q126 0 100 -134l-94 -485l70 145l240 465h71l78 -596l113 586q2 5 6 17q6 12 18 24q-32 -24 -78 -24 q-38 0 -66 17t-39 48t-3 69q10 58 55 97t103 39q30 0 56 -12.5t40 -37t12 -57.5q0 -5 -2 -21q4 4 12 23q0 4 10 23l56 47zM289 698q13 62 -49 62q-68 0 -82 -70q-12 -62 47 -62q70 0 84 70zM868 960q10 62 -49 62q-67 0 -79 -66q-12 -62 48 -61q66 -1 80 65z" />
<glyph unicode="&#xe2d;" horiz-adv-x="807" d="M606 0h-485l92 482q12 57 56.5 95.5t100.5 38.5q39 0 67 -18t40.5 -48t4.5 -68q-10 -56 -54 -95t-100 -39q-36 0 -62 18l-55 -290h334l88 456q18 96 -38.5 161t-152.5 65q-64 0 -123 -29t-110 -90t-67 -145l-11 -56h-75l10 56q20 100 77 175t138 118t178 43 q126 0 199.5 -84t51.5 -208zM410 479q12 66 -56 66q-60 1 -72 -61q-12 -66 56 -66q60 0 72 61z" />
<glyph unicode="&#xe2e;" horiz-adv-x="782" d="M670 719q20 -29 24 -70t-8 -111l-104 -538h-541l69 362q12 60 55 98t103 38q57 0 89 -39t22 -97q-12 -58 -53.5 -95t-95.5 -37q-35 0 -66 18l-33 -172h389l98 510q10 54 -12 86q-43 -36 -106.5 -68t-147.5 -32t-146 29.5t-50 86.5q12 62 94 102t170 40q136 0 204 -66 l36 28l90 84l42 -48q0 -2 -20 -21l-64 -55zM563 715q-49 45 -151 45q-55 0 -114.5 -20.5t-65.5 -51.5q-4 -14 14 -24t52 -16.5t64 -6.5q66 0 115.5 22.5t85.5 51.5zM305 360q12 66 -55 66q-60 0 -72 -62q-12 -66 56 -65q60 -1 71 61z" />
<glyph unicode="&#xe2f;" horiz-adv-x="735" d="M534 0h-75l106 555l57 151l-6 2q-35 -80 -122.5 -148t-186.5 -68q-66 0 -111.5 23t-73.5 73.5t-18 99.5q10 58 55.5 100t102.5 42q39 0 65.5 -17t37.5 -45t3 -68q-6 -35 -27 -62.5t-52 -44.5t-66 -17q35 -18 70 -19q215 0 323 262h76zM303 696q12 64 -51 64 q-64 0 -76 -64t52 -63q64 -1 75 63z" />
<glyph unicode="&#xe30;" horiz-adv-x="735" d="M752 776q-80 -116 -195 -185t-229 -69q-66 0 -115 25t-69.5 59.5t-10.5 81.5q6 37 29.5 65.5t58.5 47t74 18.5q58 0 85.5 -36.5t17.5 -92.5q-16 -88 -99 -108q82 0 156.5 32.5t132.5 83t106 121.5zM652 254q-80 -117 -195 -185.5t-229 -68.5q-66 0 -115 23.5t-70 59.5 t-13 83q6 32 28 61t58 49.5t78 20.5q37 0 62.5 -16.5t36 -45t2.5 -67.5q-17 -88 -99 -108q110 0 217 62t181 175zM232 160q12 68 -58 68q-62 0 -74 -62q-12 -68 56 -68q64 0 76 62zM332 682q14 68 -56 68q-62 0 -73 -62q-14 -68 53 -68q64 0 76 62z" />
<glyph unicode="&#xe31;" d="M295 1208q-108 -111 -237.5 -182.5t-229.5 -71.5q-88 0 -131 39t-29 105q6 33 26 61.5t53.5 48t72.5 19.5q34 0 59 -16.5t35 -43.5t4 -59q-10 -64 -51 -86q34 0 149 54t232 182zM-148 1098q12 62 -48 61q-58 0 -70 -57q-12 -62 49 -62q57 0 69 58z" />
<glyph unicode="&#xe32;" horiz-adv-x="710" d="M510 0h-76l108 559q10 62 -5 105.5t-52 68.5t-94 25q-76 0 -144.5 -54t-82.5 -130l-2 -9h-74l4 15q18 102 113 176t201 74q114 0 175 -72t39 -184z" />
<glyph unicode="&#xe33;" horiz-adv-x="710" d="M510 0h-76l108 559q10 62 -5 105.5t-52 68.5t-94 25q-76 0 -144.5 -54t-82.5 -130l-2 -9h-74l4 15q18 102 113 176t201 74q114 0 175 -72t39 -184zM156 1174q-8 -39 -32 -73t-65 -57.5t-87 -23.5q-43 0 -73 20.5t-43.5 55t-5.5 78.5q8 43 36 77.5t65 55t79 20.5 q46 0 76.5 -20.5t44 -55t5.5 -77.5zM86 1174q4 24 -3 42.5t-24 30t-41 11.5q-20 0 -40.5 -9.5t-38 -29t-21.5 -45.5q-2 -20 3 -39t23 -32t42 -13q22 0 42.5 10t37 30t20.5 44z" />
<glyph unicode="&#xe34;" d="M-16 952q-112 45 -217 64.5t-223 19.5q-114 0 -200 -10q6 31 34 74t62 73.5t76 51t90 31t105 10.5q78 0 133.5 -26t90.5 -65t50 -88t-1 -135zM-62 1016q-12 84 -84 131t-180 47q-150 0 -250 -117q20 8 73 18.5t128 10.5q132 0 207.5 -30t105.5 -60z" />
<glyph unicode="&#xe35;" d="M-16 952q-112 45 -217 64.5t-223 19.5q-114 0 -200 -10q8 41 56.5 104.5t126 99.5t191.5 36q51 0 100 -16.5t86.5 -48t58.5 -75.5q-10 34 -2 84l37 191h72zM-62 1016q-12 84 -84 131t-180 47q-150 0 -250 -117q20 8 73 18.5t128 10.5q132 0 207.5 -30t105.5 -60z" />
<glyph unicode="&#xe36;" d="M-16 952q-112 45 -217 64.5t-223 19.5q-114 0 -200 -10q6 31 34 72.5t62 72.5t77 52.5t93 32t108 10.5q62 0 88 -16q-6 14 0 42q6 34 25 59t48 39.5t61 14.5q52 0 78.5 -31.5t16.5 -83.5q-18 -90 -113 -108q31 -16 55.5 -73t6.5 -157zM-62 1016q-12 84 -84 131t-180 47 q-150 0 -250 -117q20 8 73 18.5t128 10.5q132 0 207.5 -30t105.5 -60zM-28 1284q12 60 -46 60q-54 0 -63 -56q-12 -59 45 -59q54 0 64 55z" />
<glyph unicode="&#xe37;" d="M-16 952q-112 45 -217 64.5t-223 19.5q-114 0 -200 -10q8 41 53.5 100.5t126 99.5t169.5 40q79 0 125 -19l28 154h72l-34 -187q8 0 38 -36q31 -30 37 -52q-2 62 2 84l37 191h72zM-62 1016q-12 84 -84 131t-180 47q-150 0 -250 -117q20 8 73 18.5t128 10.5 q132 0 207.5 -30t105.5 -60z" />
<glyph unicode="&#xe38;" d="M-284 -446h-72l20 102q4 26 29 55q6 7 10 13q-41 -32 -88 -33q-33 0 -55.5 15.5t-33 41.5t-3.5 62q8 35 29.5 61.5t52.5 42.5t67 16q30 0 54 -13t35 -41t3 -66zM-297 -192q12 58 -45 57q-58 1 -70 -57q-10 -58 48 -58t67 58z" />
<glyph unicode="&#xe39;" d="M-284 -446h-302l14 69h52l6 31q4 28 30 57q6 7 9 11q-39 -34 -88 -34q-33 0 -55.5 16t-33 42t-4.5 62q8 35 30 61.5t53 42.5t67 16q52 0 77 -32t15 -88l-34 -185h106l60 303h71zM-475 -192q12 58 -45 57q-58 1 -70 -57q-10 -60 48 -60t67 60z" />
<glyph unicode="&#xe3a;" d="M-196 -168q-4 -14 -11.5 -26.5t-19 -22t-25.5 -14.5t-26 -5q-14 0 -27 5t-20 14.5t-10 22t1 26.5q2 14 9 27.5t18.5 23t26 14.5t28.5 5q12 0 24.5 -5t20 -15.5t10.5 -23t1 -26.5z" />
<glyph unicode="&#xe3f;" horiz-adv-x="895" d="M391 0l-27 -135h-67l27 135h-291l186 960h291l24 132h68l-24 -132h4q90 0 150 -28.5t87 -83t13 -131.5q-12 -62 -53 -115t-125 -96q90 -33 121 -93.5t15 -142.5t-61 -140t-121 -94t-172 -36h-45zM479 456l-73 -378h34q64 0 117 20.5t90 63t49 108.5q16 86 -33 136 t-145 50h-39zM338 78l74 378h-197l-73 -378h196zM428 538l66 340h-197l-65 -340h196zM561 878l-65 -340h16q62 0 109 22t78 60t41 92q14 74 -24 118t-155 48z" />
<glyph unicode="&#xe40;" horiz-adv-x="413" d="M217 819h76l-113 -581q37 18 70 18q32 0 57 -14t38 -45t5 -74q-10 -58 -57 -95.5t-105 -37.5t-87 38t-19 95zM278 123q12 63 -48 63q-68 0 -80 -65q-12 -63 50 -63q66 0 78 65z" />
<glyph unicode="&#xe41;" horiz-adv-x="850" d="M217 819h76l-113 -581q37 18 70 18q32 0 57 -14t38 -45t5 -74q-10 -58 -57 -95.5t-105 -37.5t-87 38t-19 95zM574 819h75l-113 -581q35 18 70 18q37 0 60.5 -17.5t35.5 -47t4 -68.5q-10 -58 -57 -95.5t-104 -37.5q-58 0 -87.5 38t-19.5 95zM278 123q12 63 -48 63 q-68 0 -80 -65q-12 -63 50 -63q66 0 78 65zM635 123q13 63 -51 63q-66 0 -78 -65q-12 -63 51 -63q66 0 78 65z" />
<glyph unicode="&#xe42;" horiz-adv-x="508" d="M520 1044q16 86 -22 142q-36 57 -117 57q-64 0 -119 -45q-54 -45 -72 -90l193 -131l-143 -737q29 18 65 18q58 0 82 -37q29 -36 17 -98q-4 -26 -18 -51t-35 -43.5t-48 -28.5t-59 -10q-120 0 -96 135l159 817l-205 138q94 234 296 233q55 0 96.5 -17.5t68.5 -50.5t36 -78 t-1 -100l-4 -23h-74zM338 119q12 67 -52 67q-66 0 -77 -63q-12 -67 49 -67q68 0 80 63z" />
<glyph unicode="&#xe43;" horiz-adv-x="594" d="M211 1194q16 12 51 12q22 0 41 -7t30 -21t15 -34t0 -42q-10 -50 -49 -84q-37 -35 -84 -35q-123 -1 -96 137q8 45 30.5 84t54.5 66.5t71 43t79 15.5q190 0 142 -252l-166 -847q36 26 74 26q116 0 90 -133q-24 -133 -162 -133q-118 0 -94 129l184 948q38 191 -96 191 q-72 0 -115 -64zM430 119q12 67 -53 67q-62 0 -74 -70q-14 -66 47 -65q66 0 80 68zM284 1094q12 56 -38 55q-54 1 -64 -51q-10 -54 41 -54q53 0 61 50z" />
<glyph unicode="&#xe44;" horiz-adv-x="569" d="M424 1256q-4 -2 -9 -12t-17 -24l-34 -36l-186 -207h-74q2 12 7 31.5t12 50.5q10 41 17 75l14 60q16 84 12 207h66q8 -102 -11 -197l-14 -61q-9 -35 -25 -80l64 71l180 208h76l-216 -1100q31 16 62 16q122 0 96 -135q-24 -133 -162 -133q-116 0 -92 129l208 1067 q4 24 16 51zM379 121q14 69 -47 69q-66 0 -80 -69q-12 -68 47 -68q68 0 80 68z" />
<glyph unicode="&#xe45;" horiz-adv-x="755" d="M412 -498h-76l206 1057q10 62 -5 105.5t-52 68.5t-94 25q-76 0 -144.5 -54t-82.5 -130l-2 -9h-74l4 15q18 102 113 176t201 74q112 0 174 -72t40 -184z" />
<glyph unicode="&#xe46;" horiz-adv-x="770" d="M469 -498h-76l242 1242h-19q-78 0 -104 -99l-8 -25h-66l4 25q12 107 -118 107q-28 0 -46 -6q98 -8 78 -118q-10 -53 -52 -87.5t-95 -34.5q-39 0 -67 17t-40 48t-4 74q10 56 43 93.5t84 59t115 21.5q66 -1 108 -23t44 -63q6 31 45 58.5t112 27.5h76zM293 635q13 65 -53 65 q-62 0 -74 -61q-12 -65 55 -65q60 0 72 61z" />
<glyph unicode="&#xe47;" d="M102 1282q-88 -80 -192 -80q-33 0 -78 6q-82 10 -104 10q-47 0 -79 -25t-40 -73q-9 -54 33 -94q22 40 69 96q60 -110 115 -118q-22 26 -16 55q6 28 22 48.5t39 33t49 12.5q29 0 47.5 -13.5t27.5 -35.5t3 -54q-20 -106 -158 -106q-41 0 -80.5 28t-54.5 54q-6 0 -55 -82 q-132 56 -106 176q30 162 218 162q22 0 94 -6q35 -4 62 -4q45 0 80.5 14t69.5 45zM-53 1054q8 46 -35 46q-41 0 -49 -43q-7 -45 37 -45q40 0 47 42z" />
<glyph unicode="&#xe48;" d="M88 1483h-78l56 287h78z" />
<glyph unicode="&#xe49;" d="M254 1728q-78 -146 -196 -208t-246 -62q-39 0 -72 6l6 44q100 44 164 126q-20 -20 -56 -20q-47 0 -69.5 32t-14.5 78q8 45 45 75t83 30q50 0 75 -37t15 -92q-24 -128 -152 -190q106 0 202 65t158 180zM-72 1720q10 52 -38 52q-54 0 -64 -52q-10 -54 43 -53q49 -1 59 53z " />
<glyph unicode="&#xe4a;" d="M262 1780q-20 -112 -60 -177t-106 -95t-162 -30l6 38q86 40 103 126q14 70 -49 70q-48 0 -68 -45h-22q-12 47 -76 47q-20 0 -38 -8t-35 -28.5t-23 -47.5q-6 -34 0 -41q20 59 82 59q37 0 59.5 -24t16.5 -62q-8 -36 -38 -61t-67 -25q-35 0 -60.5 20t-37 54.5t-3.5 75.5 q10 60 51.5 105t96.5 45q60 0 92 -48q39 48 86 48q33 0 56.5 -14.5t33.5 -42t4 -64.5q-14 -66 -69 -121q59 16 98 66t63 180h66zM-164 1558q10 44 -32 44q-34 0 -42 -36q-8 -42 35 -42q33 0 39 34z" />
<glyph unicode="&#xe4b;" d="M252 1626h-142l-28 -143h-72l29 143h-139l14 72h139l27 141h72l-27 -141h141z" />
<glyph unicode="&#xe4c;" d="M330 1594q-86 -64 -266 -64q-43 0 -64 -10q90 -12 72 -103q-6 -32 -26 -58t-47 -40.5t-61 -14.5q-28 0 -50.5 12.5t-34 40t-5.5 65.5q16 78 84 121.5t168 45.5q125 1 209 59zM12 1411q12 59 -47 59q-47 0 -57 -48q-10 -60 43 -60t61 49z" />
<glyph unicode="&#xe4d;" d="M22 1145q-8 -39 -32 -73t-62 -58q-40 -23 -86 -23q-33 0 -58.5 12.5t-41.5 33t-23 48t-1 60.5q6 30 24 59t42 49.5t55 32.5t63 12q31 0 55.5 -12t41.5 -32.5t23 -49.5t0 -59zM-47 1145q4 18 1 33.5t-12.5 26.5t-22.5 17.5t-31 6.5t-35 -6.5t-30 -17.5t-22.5 -26 t-13.5 -34q-2 -16 0 -32.5t11.5 -28t23.5 -17.5t32 -6q14 0 31 6t29 16.5t23.5 27t15.5 34.5z" />
<glyph unicode="&#xe4e;" d="M226 1407l-54 -31q-30 6 -47 6q-56 2 -108 -21t-58 -57q-4 -28 32.5 -46.5t82.5 -18.5l-31 -47q-86 0 -147.5 -30t-71.5 -82q-10 -48 72 -48q60 0 102 25l30 -29q-66 -47 -161 -47q-136 1 -117 101q12 60 80 100q66 41 131 45q-28 5 -47 27q-22 24 -16 52q10 54 75.5 86 t157.5 32q64 0 95 -17z" />
<glyph unicode="&#xe4f;" horiz-adv-x="641" d="M565 375q-20 -106 -109.5 -181t-195.5 -75q-72 0 -122 34.5t-73 91t-9 130.5q14 72 60 128t108 90.5t134 34.5q74 0 124 -34.5t73.5 -90.5t9.5 -128zM532 375q12 61 -8 111t-64 80t-108 30q-56 0 -110 -25.5t-98 -77t-56 -118.5q-18 -94 35 -158.5t143 -64.5 q92 0 170 64.5t96 158.5zM418 375q-6 -29 -22.5 -52.5t-44 -40t-62.5 -16.5q-29 0 -51.5 14.5t-32 39t-2.5 55.5q8 43 45.5 76t81.5 33q31 0 52.5 -16t31.5 -39.5t4 -53.5z" />
<glyph unicode="&#xe50;" horiz-adv-x="948" d="M792 272q-24 -133 -141 -213.5t-266 -80.5q-104 0 -174.5 39t-101.5 103t-15 152q27 133 143.5 217.5t264.5 84.5q104 0 175 -40t102 -106t13 -156zM719 272q20 104 -46.5 166t-184.5 62q-78 0 -147 -29t-113 -79t-58 -120q-12 -68 12.5 -117t80 -78.5t137.5 -29.5 q120 0 210.5 61.5t108.5 163.5z" />
<glyph unicode="&#xe51;" horiz-adv-x="948" d="M479 -110l-29 52q96 41 167 124.5t87 175.5q16 76 -10 132t-79 90t-131 34q-72 0 -133.5 -32t-104 -83t-54.5 -119q-18 -94 21 -151t127 -57l10 2q-106 18 -86 124q10 53 55 93.5t103 40.5q62 0 92 -41t18 -105q-16 -78 -80.5 -124t-152.5 -46q-108 0 -154.5 79 t-21.5 195q16 90 75.5 156t136.5 103t159 37q146 0 227.5 -91.5t54.5 -232.5q-22 -117 -101 -212t-196 -144zM465 182q13 68 -55 68t-80 -68q-14 -68 53 -68q68 0 82 68z" />
<glyph unicode="&#xe52;" horiz-adv-x="997" d="M819 0h-759l120 631q16 80 2 107.5t-42 35.5l65 56q26 -18 36.5 -31t16.5 -32t7 -45t-5 -56l-116 -596h616l61 313q20 103 -61 103q-76 0 -140 -103q-38 105 -126 105q-108 0 -148 -120q42 50 104 50q58 0 90 -37t21 -95q-12 -57 -58.5 -94.5t-102.5 -37.5q-47 0 -76 22 t-40.5 68.5t0.5 105.5q12 62 47 109t79 72.5t96 25.5q94 0 131 -84q51 84 145 84q64 0 96 -45t17 -121zM488 286q12 68 -54 68q-64 0 -76 -63q-12 -68 54 -68q64 -1 76 63z" />
<glyph unicode="&#xe53;" horiz-adv-x="997" d="M796 0h-71l69 366q22 118 -69 118q-22 0 -40.5 -9.5t-38.5 -31t-38 -57.5t-26 -79l-60 -307h-72l56 284q16 88 -18 145t-111 57q-82 0 -148.5 -73t-84.5 -167q-12 -58 -4 -102q28 49 38 61q40 43 106 43q37 0 64 -17.5t38.5 -47t4.5 -67.5q-12 -55 -54.5 -90.5 t-100.5 -35.5q-94 0 -138.5 78t-21.5 186q24 127 112 215t203 88q150 0 174 -131q65 131 183 131q156 0 120 -178zM320 116q12 66 -54 66q-64 0 -76 -63q-12 -66 54 -66q64 -1 76 63z" />
<glyph unicode="&#xe54;" horiz-adv-x="997" d="M1036 626q-22 -34 -53 -61t-70 -45t-75.5 -28t-68 -14.5t-79.5 -4.5l-225 6q-56 0 -97.5 -10t-87.5 -34.5t-75 -62.5t-37 -88q-22 -110 43 -165t219 -55q-125 53 -98 196q8 43 32.5 75.5t60 51.5t75.5 19q136 0 108 -136q-24 -120 -154 -120q-32 0 -50 16 q24 -43 83 -69.5t129 -26.5h162l-12 -70h-400q-104 0 -170.5 33t-93 94t-8.5 151q10 56 37 100t68 78t88 55t91 30.5t101 9.5l225 -6q47 0 80 5t72 18.5t71.5 39.5t57.5 62zM545 270q15 68 -53 68t-82 -68q-12 -68 55 -67q68 -1 80 67z" />
<glyph unicode="&#xe55;" horiz-adv-x="997" d="M1034 626q-104 -156 -385 -155q-70 1 -184 15q-72 0 -134.5 -27t-110.5 -80t-60 -125q-36 -190 268 -190q-124 53 -98 196q8 43 33.5 75.5t61 51.5t73.5 19q60 0 90 -38t20 -94q-26 -124 -156 -124q-32 0 -50 16q24 -43 83 -69.5t129 -26.5h162l-12 -70h-400 q-152 0 -225 72t-47 202q16 84 101 162t198 96q-79 44 -61 138q12 62 64 104.5t114 42.5q68 0 102.5 -40.5t22.5 -106.5q-15 -78 -93 -125q58 -7 116 -7q242 0 327 132zM563 670q15 78 -69 78q-30 0 -60 -24t-36 -56q-14 -70 58 -111q92 41 107 113zM542 270q14 68 -52 68 q-68 0 -82 -68q-12 -68 55 -67q67 -1 79 67z" />
<glyph unicode="&#xe56;" horiz-adv-x="948" d="M272 58q18 -10 29 -11q62 0 125.5 17.5t135 54.5t116.5 87t55 108q16 80 -51.5 122.5t-179.5 42.5q-174 0 -338 -88l45 240q14 72 4 101.5t-45 41.5l66 56q49 -31 56 -72.5t-1 -91.5l-35 -172q133 58 262 57q336 1 289 -235q-27 -140 -172 -233t-301 -93q-102 0 -171 45 t-53 125q10 58 58 96.5t106 38.5q32 0 58 -14.5t38 -45.5t2 -79q-4 -24 -18 -45t-36 -36t-44 -17zM307 160q12 68 -55 68q-60 0 -72 -60q-12 -68 56 -68q60 0 71 60z" />
<glyph unicode="&#xe57;" horiz-adv-x="997" d="M1014 774q-18 0 -54 -34q-26 -31 -42 -109l-90 -465q-16 -86 -71 -126t-116 -40h-111l70 366q22 110 -45 111q-73 -1 -113 -111h-46q10 112 -91 113q-53 0 -101 -55.5t-60 -118.5q-16 -90 4 -174q10 52 50 84.5t97 32.5q37 0 63.5 -17.5t38 -47t5.5 -67.5 q-24 -126 -164 -126q-106 0 -148 94t-16 225q12 70 53 126.5t93 89t112 32.5q100 -1 106 -103q54 102 140 103q58 0 87 -40.5t17 -102.5l-68 -344h40q24 0 46.5 12t36 32.5t19.5 51.5l98 500q6 31 15 56.5t24 44.5t29 32t49 31zM328 116q12 66 -54 66q-64 0 -76 -63 q-12 -66 54 -66q64 -1 76 63z" />
<glyph unicode="&#xe58;" horiz-adv-x="997" d="M1036 626q-27 -41 -62.5 -70.5t-78.5 -47.5t-90 -26.5t-115 -8.5l-225 6q-72 0 -117 -15.5t-80.5 -37.5t-63.5 -58t-38 -92q-18 -92 4 -143q76 127 146 127q37 0 77 -32l149 -136q8 35 21 67.5t49 61.5t86 29q55 0 88 -37t23 -92q-8 -39 -31.5 -70t-62.5 -52t-89 -21 q-20 0 -40.5 6t-43 18t-34.5 23l-98 83q-82 72 -111 72q-47 0 -141 -190q-96 120 -64 286q10 56 37 101t68 79t87 55t91 30.5t102 9.5l225 -6q70 0 120 12.5t91 40.5t70 72zM742 119q12 65 -54 65q-68 0 -80 -68q-14 -66 52 -65q68 0 82 68z" />
<glyph unicode="&#xe59;" horiz-adv-x="997" d="M838 377q-14 109 -84 109q-82 0 -109 -130q-10 -56 2 -100l33 -129q6 -35 16 -52t31 -30l11 -6l-46 -57q-12 0 -40 23t-40 75l-53 221q-43 185 -184 185q-86 0 -156.5 -62t-89.5 -152q-26 -142 74 -200q-17 27 -9 65q10 56 56 94.5t102 38.5q38 0 64 -17t38.5 -48 t4.5 -70q-12 -66 -71.5 -105.5t-131.5 -39.5q-70 0 -117 37t-70 103t-7 146q22 123 114 202t209 79q176 0 215 -166q14 76 58 122t108 46q78 1 110 -73l8 -19q29 14 44.5 36.5t25.5 66.5l21 114q10 47 5.5 62.5t-28.5 31.5l58 52q34 -20 42 -46q8 -29 -4 -92l-22 -122 q-10 -52 -36 -91t-69.5 -67.5t-82.5 -34.5zM387 133q12 65 -53 65q-64 0 -76 -65t51 -65q66 0 78 65z" />
<glyph unicode="&#xe5a;" horiz-adv-x="837" d="M520 0h-76l107 555l57 151l-6 2q-41 -94 -129 -155t-180 -61q-68 0 -118 28.5t-72.5 70.5t-12.5 97q10 58 56 100t102 42q34 0 61 -14.5t40 -44t5 -71.5q-10 -56 -51 -91t-94 -35q55 -16 65 -17q70 0 130.5 30.5t112 90.5t85.5 141h76zM686 0h-72l158 815h72zM289 696 q13 64 -51 64t-76 -64t51 -63q64 -1 76 63z" />
<glyph unicode="&#xe5b;" horiz-adv-x="1622" d="M1589 418l-45 -111q-24 -55 -62 -93t-77 -56t-82 -18q-88 0 -127 81l-39 82l-80 -88q-49 -53 -71 -53q-18 0 -54 78l-28 65q-122 -139 -146 -139q-18 0 -53 53q-9 13 -31 49q-158 -260 -374 -260q-112 0 -182 43t-96 125t-3 201q22 112 79.5 195.5t142.5 130.5t185 47 q104 0 203 -66l-23 -90q-84 72 -194 72q-114 0 -196 -84t-109 -220q-16 -80 0.5 -140t64.5 -95t132 -35q43 0 84.5 12t77.5 38t67 59t155 213q20 -47 93 -152l73 76q30 40 78 78q14 0 35 -54l39 -106l94 102q50 54 62 54q6 0 76 -134q35 -66 67 -65q95 0 137 92 q20 37 54 113h73z" />
<glyph unicode="&#x2000;" horiz-adv-x="919" />
<glyph unicode="&#x2001;" horiz-adv-x="1839" />
<glyph unicode="&#x2002;" horiz-adv-x="919" />
<glyph unicode="&#x2003;" horiz-adv-x="1839" />
<glyph unicode="&#x2004;" horiz-adv-x="613" />
<glyph unicode="&#x2005;" horiz-adv-x="459" />
<glyph unicode="&#x2006;" horiz-adv-x="306" />
<glyph unicode="&#x2007;" horiz-adv-x="306" />
<glyph unicode="&#x2008;" horiz-adv-x="229" />
<glyph unicode="&#x2009;" horiz-adv-x="367" />
<glyph unicode="&#x200a;" horiz-adv-x="102" />
<glyph unicode="&#x200b;" />
<glyph unicode="&#x2010;" horiz-adv-x="446" d="M381 330h-351l17 86h351z" />
<glyph unicode="&#x2011;" horiz-adv-x="446" d="M381 330h-351l17 86h351z" />
<glyph unicode="&#x2012;" horiz-adv-x="446" d="M381 330h-351l17 86h351z" />
<glyph unicode="&#x2013;" horiz-adv-x="671" d="M656 305h-689l13 59h688z" />
<glyph unicode="&#x2014;" horiz-adv-x="1341" d="M1325 305h-1358l13 59h1358z" />
<glyph unicode="&#x2018;" horiz-adv-x="299" d="M301 912q-68 -40 -84 -130h53l-24 -128h-113l25 128q22 120 120 178z" />
<glyph unicode="&#x2019;" horiz-adv-x="299" d="M164 654l-24 48q68 40 83 130h-53l26 128h113l-27 -128q-22 -120 -118 -178z" />
<glyph unicode="&#x201a;" horiz-adv-x="309" d="M-8 -178l-8 18q76 38 100 160h-66l21 108h98l-18 -96q-29 -142 -127 -190z" />
<glyph unicode="&#x201c;" horiz-adv-x="522" d="M526 912q-68 -40 -84 -130h54l-25 -128h-113l25 128q22 120 121 178zM299 912q-70 -40 -86 -130h55l-24 -128h-113l25 128q22 120 118 178z" />
<glyph unicode="&#x201d;" horiz-adv-x="522" d="M164 654l-24 48q68 40 83 130h-55l26 128h115l-27 -128q-22 -120 -118 -178zM391 654l-25 48q68 40 84 130h-52l26 128h112l-26 -128q-23 -122 -119 -178z" />
<glyph unicode="&#x201e;" horiz-adv-x="463" d="M-33 -178l-8 18q75 36 99 160h-64l20 108h96l-18 -96q-18 -88 -47.5 -128t-77.5 -62zM178 -178l-10 18q76 38 100 160h-63l21 108h96l-19 -96q-29 -144 -125 -190z" />
<glyph unicode="&#x2020;" horiz-adv-x="772" d="M729 588h-273l-159 -824h-88l159 824h-270l14 74h271l55 276h88l-55 -276h273z" />
<glyph unicode="&#x2021;" horiz-adv-x="772" d="M620 16h-272l-49 -252h-88l49 252h-272l14 76h272l103 526h-273l15 74h272l49 254h88l-49 -254h273l-14 -74h-273l-103 -526h273z" />
<glyph unicode="&#x2022;" horiz-adv-x="671" d="M508 469q-8 -47 -37 -83t-71 -58.5t-88 -22.5q-48 0 -78.5 22.5t-46 58.5t-7.5 83q12 68 70.5 116t126.5 48q47 0 79 -22.5t46 -58.5t6 -83z" />
<glyph unicode="&#x2026;" horiz-adv-x="1341" d="M1094 0h-115l25 127h114zM645 0h-113l25 127h113zM198 0h-112l24 127h113z" />
<glyph unicode="&#x202f;" horiz-adv-x="367" />
<glyph unicode="&#x2030;" horiz-adv-x="1390" d="M1306 213q-48 -250 -224 -250q-180 0 -132 248q46 241 224 241t132 -239zM850 213q-50 -250 -228 -250t-128 248q45 241 221 241q180 0 135 -239zM456 731q-48 -252 -224 -252q-178 0 -130 250q48 242 224 242q178 0 130 -240zM389 725q39 195 -71 195q-112 0 -152 -197 q-36 -193 78 -193q110 0 145 195zM780 207q38 195 -72 195q-112 0 -151 -195q-37 -193 78 -193q108 0 145 193zM1237 207q39 195 -69 195q-113 0 -152 -195q-36 -193 78 -193q106 0 143 193zM796 979l-591 -1016h-53l592 1016h52z" />
<glyph unicode="&#x2039;" horiz-adv-x="463" d="M272 49h-61l-143 293l258 293h61l-225 -293z" />
<glyph unicode="&#x203a;" horiz-adv-x="463" d="M356 346l-252 -297h-61l227 293l-112 293h61z" />
<glyph unicode="&#x2044;" horiz-adv-x="653" d="M14 0h-100l770 1067h100z" />
<glyph unicode="&#x205f;" horiz-adv-x="459" />
<glyph unicode="&#x20ac;" horiz-adv-x="841" d="M729 22q-43 -18 -74 -29t-59 -18.5t-58 -9.5t-71 -2q-78 0 -143.5 22.5t-111.5 66.5t-74 109t-30 148h-94l64 117h38q2 6 2.5 15t2.5 22q2 4 2 11.5t6 23.5h-78l61 112h54q30 72 81 136.5t115 111.5q72 50 146 75t154 25q41 0 76.5 -4t63.5 -12t51 -18t46 -23l-27 -139 h-40q-18 18 -38 31.5t-42.5 24t-48 16.5t-58.5 6q-47 0 -95 -13.5t-93 -41t-84 -70.5t-68 -105h293l-58 -112h-280l-6 -33q-4 -12 -5 -20.5t-1 -18.5h250l-64 -117h-184q8 -59 28 -99t52 -64q39 -29 84.5 -44.5t83.5 -17.5q45 2 74.5 5t47.5 13q20 8 45 23t50 35h41z" />
<glyph unicode="&#x2122;" horiz-adv-x="1390" d="M1196 442h-51l90 455h-33l-229 -455h-57l-56 455h-34l-91 -455h-51l102 518h107l59 -481l242 481h104zM682 914h-180l-92 -472h-60l92 472h-178l10 46h418z" />
<glyph unicode="&#x2202;" horiz-adv-x="723" d="M670 838q10 -26 15 -57t6 -61t0 -57.5t-4 -51t-6 -40t-5 -24.5q-2 -14 -8 -38.5t-15.5 -54.5t-21.5 -64l-26 -67q-13 -34 -30 -67.5t-35 -61.5l-38 -56q-18 -26 -38 -47t-46 -41t-56 -36q-43 -22 -84.5 -29t-76.5 -3t-64 16t-49 28q-47 39 -66.5 90.5t-9.5 119.5 q4 39 16.5 74.5t29 67.5t35.5 59t40 47q54 53 108.5 79.5t114.5 24.5q26 -2 47 -7t39.5 -13.5t33.5 -19.5l36 -28q6 22 14 48t14 54v4q4 25 6.5 52.5t1.5 55.5t-3.5 50.5t-6.5 34.5q0 14 -7 30.5t-19 32t-30 26t-42 12.5q-25 2 -41 2t-29.5 -2t-26.5 -7t-31 -14l-58 -25 l-64 107l31 17q27 10 59 19t65.5 14t67 5t64.5 -8q72 -18 118.5 -65t74.5 -125zM377 188q28 47 51.5 101.5t46.5 126.5l-4 4q-4 12 -11.5 23t-18.5 19.5t-26 15t-36 4.5q-29 0 -57 -16t-54 -44q-39 -41 -61.5 -88.5t-34.5 -105.5q-2 -10 -5 -30t-2 -40.5t6 -40t19 -31.5 q16 -14 35 -14t43 10q28 12 55 37.5t54 68.5z" />
<glyph unicode="&#x2206;" horiz-adv-x="874" d="M770 0h-846l514 946h180zM110 114h512l-28 182l-28 178l-27 178l-29 180h-4z" />
<glyph unicode="&#x220f;" horiz-adv-x="919" d="M-16 -133l212 1099h728l-216 -1103h-132l190 977h-463l-189 -973h-130z" />
<glyph unicode="&#x2211;" horiz-adv-x="803" d="M-41 -112l25 128l438 400l-141 187l-139 189l24 128h670l-27 -134h-463l127 -168l125 -168l-10 -59l-412 -373h508l-24 -130h-701z" />
<glyph unicode="&#x221a;" horiz-adv-x="907" d="M6 240h220l56 -268l285 526l281 524h141l-682 -1248h-129l-82 363h-108z" />
<glyph unicode="&#x221e;" horiz-adv-x="1046" d="M53 291q8 38 23.5 69t35 55.5t43 41t49.5 28t50 16.5t47 5q31 0 58.5 -7t55 -22.5t52.5 -41t49 -63.5q45 37 82 64t70.5 44.5t65.5 25.5t67 8q34 0 68 -13t57.5 -41t33.5 -70t-2 -99q-8 -48 -29 -84.5t-55 -63.5t-77 -41t-95 -14q-35 0 -64.5 10t-54 28t-46 37t-37.5 37 q-4 4 -7 8.5t-7 6.5l-10 -9q-5 -6 -11 -10l-13 -10q-18 -16 -41.5 -33.5t-49 -32t-59.5 -23.5t-74 -9q-45 0 -80.5 19.5t-58.5 48t-32.5 64.5t-3.5 71zM254 196q20 0 41 7.5t40 21l41 30.5l46 38l-18 27q-11 16 -27.5 32t-36.5 28.5t-47 12.5q-31 0 -53.5 -11.5t-37 -25.5 t-21.5 -31.5t-11 -29.5q-2 -20 3 -38.5t18.5 -32t30 -21t32.5 -7.5zM768 393q-10 0 -24.5 -4t-30 -11.5t-31.5 -16.5t-30 -19q-34 -22 -74 -51q22 -25 38.5 -40t31 -25.5t30.5 -16.5l34 -13h-4q20 -4 40 0t38 21q20 16 32 34.5t16 39.5q4 18 0 35.5t-12.5 33t-23 24.5 t-30.5 9z" />
<glyph unicode="&#x222b;" horiz-adv-x="549" d="M322 584q6 10 10 22l8 25l32.5 76.5t39 78.5t47.5 70.5t57.5 58t70 39.5t85.5 14q16 0 29.5 -2t27 -6t26.5 -11l27 -15l-61 -104q-20 14 -39.5 22t-34.5 8h-12q-9 0 -15 -2q-22 -6 -40.5 -25.5t-36 -47t-31.5 -59.5l-28 -64l-20 -50q-10 -22 -16 -38v2l-95 -249l-95 -247 q-28 -72 -60 -136.5t-73 -112.5t-92 -75.5t-117 -27.5q-20 0 -45 6t-49 14l62 119q12 -10 22 -16.5t16 -9.5t14 -4t17 -1q30 0 61 35t63.5 97t68.5 151l75 193z" />
<glyph unicode="&#x2248;" horiz-adv-x="782" d="M56 196q6 35 19 72t36.5 66.5t56 49.5t78.5 20q12 0 22 -2t19.5 -5.5t16 -6.5t10.5 -5l153 -105q10 -8 22.5 -11t24.5 -3t22.5 3t20.5 9t17.5 17.5t11.5 24t6 24.5t2 22h82q-2 -20 -8 -42.5t-15.5 -45t-24 -42t-32.5 -35t-41 -24.5t-49 -11q-27 -2 -55.5 4t-59.5 28 l-125 91q-18 18 -38.5 19t-38 -12.5t-30.5 -38.5t-17 -61h-86zM102 436q6 35 19.5 72t37 66.5t56.5 49t78 19.5q24 0 41.5 -7.5t25.5 -11.5l154 -104q10 -8 22.5 -11t25 -3t22.5 3t20 9q8 6 15 17.5t12.5 24t7.5 24.5t2 22h82q-2 -20 -8.5 -43t-15.5 -45t-23 -42t-33 -35 t-41 -24t-49 -11q-26 -2 -55.5 4t-59.5 28l-124 90q-20 18 -40 19.5t-37.5 -12t-31 -39t-17.5 -60.5h-86z" />
<glyph unicode="&#x2260;" horiz-adv-x="792" d="M526 490h209l-20 -105h-265l-86 -121h328l-20 -104h-383l-68 -94h-100l67 94h-174l21 104h229l86 121h-292l20 105h348l76 102h100z" />
<glyph unicode="&#x2264;" horiz-adv-x="786" d="M-18 0l16 86h664l-17 -86h-663zM217 456l473 -208l-22 -119l-608 279l20 100l714 276l-22 -116z" />
<glyph unicode="&#x2265;" horiz-adv-x="786" d="M-18 0l16 86h664l-17 -86h-663zM112 668l23 116l609 -276l-21 -100l-715 -279l22 119l556 208z" />
<glyph unicode="&#x25ca;" horiz-adv-x="930" d="M866 402l-498 -464l-317 464l498 464zM710 402l-50 71l-50 70l-48 69l-50 72l-76 -71l-76 -68l-76 -71l-77 -72q24 -37 49.5 -71l49.5 -69l47 -70l51 -71z" />
<glyph unicode="&#x25cc;" horiz-adv-x="1020" d="M964 628q-8 -44 -52 -44t-36 44t54 44q42 0 34 -44zM905 326q-8 -44 -53 -44q-43 0 -35 44q9 44 53 44t35 -44zM174 477q-8 -43 -51 -43q-45 0 -37 43t54 43q42 0 34 -43zM647 874q-10 -44 -55 -44q-41 0 -31 44q7 44 49 44q44 0 37 -44zM492 82q-8 -45 -54 -45 q-40 0 -32 45q8 43 48 43q46 0 38 -43zM232 628q-8 -44 -50 -44q-46 0 -36 44q8 44 50 44q44 0 36 -44zM234 194q-8 -42 -52 -42q-42 0 -34 42q8 46 50 46q44 0 36 -46zM172 326q-8 -44 -51 -44t-35 44q10 44 54 44q42 0 32 -44zM966 477q-8 -43 -48 -43q-46 0 -38 43t54 43 q40 0 32 -43zM488 842q-6 -40 -50 -41q-42 1 -36 41q10 46 52 45q44 1 34 -45zM792 194q-8 -42 -48 -42q-44 0 -36 42q8 46 52 46q40 0 32 -46zM342 756q-6 -38 -49 -39q-43 1 -37 39q10 46 53 45q43 1 33 -45zM901 756q-6 -38 -47 -39q-45 1 -39 39q9 46 55 45q40 1 31 -45 zM788 842q-6 -40 -44 -41q-46 1 -40 41q10 46 56 45q38 1 28 -45zM346 112q-8 -42 -51 -42t-35 38q8 46 52 46q42 0 34 -42zM647 108q-8 -38 -47 -38q-43 0 -35 38q7 46 51 46q38 0 31 -46z" />
<glyph unicode="&#xe000;" horiz-adv-x="695" d="M0 695h695v-695h-695v695z" />
<glyph unicode="&#xf700;" horiz-adv-x="782" d="M790 858q-37 -116 -53 -137t-49 -21q-18 0 -118 25q-92 25 -130 25q-160 0 -229 -117q62 31 168 31q127 0 219 -33t80 -95l-186 -536h-72l-41 258v35q2 6 10 41q-47 -70 -127 -70q-30 0 -56 15.5t-39 48t-5 76.5q10 56 55 94t103 38q96 0 108 -96l35 -258l-2 -88h6 l33 136l100 294q6 32 -85 51t-185 19q-104 0 -205 -18l6 20q26 92 113.5 158.5t214.5 66.5q78 -1 176 -27q41 -12 55 -12q6 2 31 86zM356 400q12 64 -51 63q-24 0 -46.5 -18.5t-28.5 -44.5q-12 -64 50 -64q24 0 48 18.5t28 45.5z" />
<glyph unicode="&#xf701;" d="M-166 952q-114 45 -219 64.5t-223 19.5q-112 0 -199 -10q6 31 33.5 74t61.5 73.5t76 51t91 31t105 10.5q78 0 133 -26t91 -65t51 -88t-1 -135zM-211 1016q-12 84 -84.5 131t-181.5 47q-150 0 -250 -117q20 8 72.5 18.5t128.5 10.5q131 0 207 -30t108 -60z" />
<glyph unicode="&#xf702;" d="M-166 952q-114 45 -219 64.5t-223 19.5q-112 0 -199 -10q8 41 56.5 104.5t126 99.5t190.5 36q80 0 150 -38t98 -104q-10 36 -2 86l36 191h70zM-211 1016q-12 84 -84.5 131t-181.5 47q-150 0 -250 -117q20 8 72.5 18.5t128.5 10.5q131 0 207 -30t108 -60z" />
<glyph unicode="&#xf703;" d="M-166 952q-114 45 -219 64.5t-223 19.5q-112 0 -199 -10q6 31 33.5 72.5t61.5 72.5t77 52.5t93 32t108 10.5q62 0 88 -16q-6 14 0 42q6 34 25.5 59t48 39.5t63.5 14.5q52 0 78.5 -31.5t16.5 -83.5q-18 -90 -114 -108q29 -14 55.5 -71t6.5 -159zM-211 1016 q-12 84 -84.5 131t-181.5 47q-150 0 -250 -117q20 8 72.5 18.5t128.5 10.5q131 0 207 -30t108 -60zM-178 1284q12 60 -45 60q-56 0 -66 -56q-13 -59 45 -59q56 0 66 55z" />
<glyph unicode="&#xf704;" d="M-166 952q-114 45 -219 64.5t-223 19.5q-112 0 -199 -10q8 41 53.5 100.5t126 99.5t168.5 40q78 0 125 -19l29 154h71l-34 -187q8 0 40 -36q32 -30 38 -52q-2 62 2 84l36 191h70zM-211 1016q-12 84 -84.5 131t-181.5 47q-150 0 -250 -117q20 8 72.5 18.5t128.5 10.5 q131 0 207 -30t108 -60z" />
<glyph unicode="&#xf705;" d="M-168 948h-76l58 287h76z" />
<glyph unicode="&#xf706;" d="M30 1233q-84 -160 -209 -230.5t-271 -70.5q-54 0 -90 8l4 47q108 45 182 139q-22 -20 -64 -20q-30 0 -51 12t-34 41t-5 68q10 49 50 83t92 34q58 0 85 -41t15 -103q-27 -141 -170 -211q118 0 229 72.5t172 198.5zM-330 1220q12 60 -47 60q-57 0 -67 -58q-12 -58 46 -58 t68 56z" />
<glyph unicode="&#xf707;" d="M-86 1288q-37 -182 -121.5 -258t-244.5 -76l8 42q98 48 114 140q16 76 -55 76q-49 0 -78 -48h-29q-10 50 -78 50q-92 0 -110 -92q-6 -37 0 -47q24 65 90 65q102 0 84 -94q-6 -24 -20 -44.5t-40 -35t-56 -14.5q-33 0 -59.5 17.5t-43.5 57.5t-8 89q31 168 157 168 q72 0 111 -51q39 51 105 51q121 0 98 -125q-18 -90 -80 -143q60 12 106 67t74 205h76zM-561 1044q8 48 -37 48q-41 0 -49 -42q-7 -46 37 -46q42 0 49 40z" />
<glyph unicode="&#xf708;" d="M-98 1092h-144l-28 -144h-72l28 144h-140l14 72h141l27 140h72l-28 -140h144z" />
<glyph unicode="&#xf709;" d="M142 1250q-4 -18 -100 -44t-198 -26q-50 0 -72 -12q100 -14 82 -114q-8 -36 -29 -65t-51 -44t-67 -15q-34 0 -61 14t-39.5 44t-4.5 71q36 178 284 184q143 3 233 67zM-213 1052q12 62 -53 62q-54 0 -64 -57q-12 -61 54 -61q54 0 63 56z" />
<glyph unicode="&#xf70a;" d="M-16 948h-76l55 287h78z" />
<glyph unicode="&#xf70b;" d="M182 1233q-84 -160 -211 -230.5t-270 -70.5q-54 0 -90 8l4 47q108 45 182 139q-22 -20 -63 -20q-35 0 -56.5 15t-30.5 43t-3 63q10 49 50 83t91 34q39 0 64.5 -19t35 -51.5t1.5 -73.5q-26 -141 -170 -211q118 0 227 72.5t173 198.5zM-178 1220q12 60 -48 60 q-57 0 -67 -58q-12 -58 47 -58q58 0 68 56z" />
<glyph unicode="&#xf70c;" d="M178 1288q-24 -118 -68 -192t-118 -108t-178 -34l8 42q96 48 112 140q16 76 -53 76q-49 0 -77 -48h-30q-10 50 -77 50q-93 0 -111 -92q-6 -37 0 -47q24 65 90 65q102 0 84 -94q-8 -41 -42 -67.5t-74 -26.5q-32 0 -59 17.5t-43.5 57.5t-8.5 89q33 168 158 168 q73 0 111 -51q39 51 104 51q118 0 96 -125q-18 -90 -80 -143q48 10 83.5 43t57 86t39.5 143h76zM-295 1044q8 48 -37 48q-40 0 -49 -42q-8 -46 37 -46q41 0 49 40z" />
<glyph unicode="&#xf70d;" d="M148 1092h-142l-28 -144h-70l26 144h-139l15 72h139l27 140h71l-27 -140h142z" />
<glyph unicode="&#xf70e;" d="M291 1250q-4 -18 -99.5 -44t-199.5 -26q-50 0 -72 -12q100 -14 82 -114q-8 -36 -29.5 -64t-50 -44t-66.5 -16q-39 0 -64.5 16t-36.5 45t-3 68q35 178 281 184q145 3 235 67zM-66 1052q12 62 -50 62q-54 0 -64 -57q-12 -61 53 -61q51 0 61 56z" />
<glyph unicode="&#xf70f;" horiz-adv-x="1245" d="M1044 0h-502l116 598q14 76 -45 119t-157 43q-118 0 -224 -66q76 -20 149 -78q-84 -35 -124 -68.5t-50 -86.5l-45 -231q34 26 70 26q58 0 88 -38t18 -95q-8 -39 -31 -69t-57.5 -47t-73.5 -17t-65.5 17t-37.5 47t-3 69l70 354q18 97 128 135q-48 32 -160 62 q58 68 163.5 112t199.5 44q96 0 160.5 -29t90.5 -78t13 -121l-102 -526h350l143 743h76zM268 125q12 61 -49 61q-70 0 -82 -67q-13 -61 49 -61q70 0 82 67z" />
<glyph unicode="&#xf710;" d="M146 1208q-244 -254 -472 -254q-56 0 -95.5 20t-55 52t-7.5 72q6 33 26 62.5t53 48t71 18.5q50 0 80 -35t22 -84q-12 -56 -54 -86q18 0 48.5 10t82 34t112.5 70t141 122zM-301 1098q12 62 -47 61q-58 0 -70 -57q-12 -62 48 -62q58 0 69 58z" />
<glyph unicode="&#xf711;" d="M-180 1136q-6 -39 -31 -72.5t-63 -57.5q-40 -22 -88 -23q-33 0 -58.5 11.5t-42 32.5t-24 49t-1.5 60q6 31 25 59.5t43 49.5t54 33t63 12q30 0 57 -12t43.5 -33t22.5 -49.5t0 -59.5zM-250 1136q4 16 0 32t-13 27t-23 18t-32 7t-34 -7t-30 -18t-23 -27t-13 -32 q-2 -18 1 -33t12 -26.5t23 -18t32 -6.5q14 0 31.5 6.5t31 17t23.5 25.5t14 35z" />
<glyph unicode="&#xf712;" d="M-43 1282q-87 -80 -193 -80q-34 0 -80 6q-82 10 -104 10q-47 0 -77.5 -25t-38.5 -73q-10 -54 30 -94q24 40 72 96q56 -110 112 -118q-20 26 -14 55q8 41 40 67.5t70 26.5q29 0 48.5 -13.5t27.5 -35.5t2 -54q-20 -106 -157 -106q-41 0 -81 28t-56 54q-6 0 -56 -82 q-129 56 -104 176q30 162 217 162q24 0 96 -6q35 -4 61 -4q45 0 81.5 14t66.5 45zM-198 1054q8 46 -38 46q-40 0 -48 -43q-8 -45 36 -45q42 0 50 42z" />
<glyph unicode="&#xf713;" d="M-66 1483h-74l56 287h74z" />
<glyph unicode="&#xf714;" d="M102 1728q-78 -146 -194.5 -208t-247.5 -62q-40 0 -72 6l6 44q100 44 164 126q-20 -20 -55 -20q-28 0 -48.5 12t-31 38t-4.5 60q6 30 24.5 53t45.5 37.5t57 14.5q31 0 53.5 -13.5t34.5 -43t4 -72.5q-24 -128 -154 -190q108 0 204 65t157 180zM-221 1720q10 52 -41 52 q-54 0 -64 -52q-10 -54 44 -53q52 -1 61 53z" />
<glyph unicode="&#xf715;" d="M110 1780q-20 -108 -58 -174t-104.5 -97t-162.5 -31l6 38q87 40 103 126q14 70 -50 70q-48 0 -67 -45h-25q-12 47 -76 47q-20 0 -37.5 -8t-35 -28.5t-23.5 -47.5q-6 -34 0 -41q20 59 84 59q24 0 43 -12t27 -31t4 -43q-8 -36 -38 -61t-66 -25q-35 0 -60.5 20t-37 54.5 t-3.5 75.5q10 60 50.5 105t96.5 45q60 0 94 -48q38 48 86 48q52 0 77.5 -34t15.5 -87q-13 -66 -67 -121q57 16 95.5 66t63.5 180h65zM-316 1558q10 44 -32 44q-33 0 -41 -36q-7 -42 35 -42q32 0 38 34z" />
<glyph unicode="&#xf716;" d="M102 1626h-143l-29 -143h-70l30 143h-142l14 72h142l24 141h72l-26 -141h142z" />
<glyph unicode="&#xf717;" d="M178 1594q-86 -64 -264 -64q-44 0 -64 -10q88 -12 70 -103q-4 -32 -23.5 -58t-47 -40.5t-60.5 -14.5q-35 0 -57.5 16t-31.5 41t-3 61q16 82 86.5 123.5t165.5 43.5q125 1 209 59zM-137 1411q13 59 -47 59q-50 0 -60 -48q-10 -60 46 -60q54 0 61 49z" />
<glyph unicode="&#xf718;" d="M-410 -721l23 115q5 26 29 55l5 5q3 4 5 8q-41 -34 -88 -34q-25 0 -43.5 8.5t-30.5 25t-17 38.5t1 48q8 50 53 86q43 34 94 34q52 0 78 -34q27 -32 17 -86l-54 -269h-72zM-348 -454q12 56 -45 56q-58 0 -70 -56q-11 -58 47 -58t68 58z" />
<glyph unicode="&#xf719;" d="M-643 -746l12 70h51l12 56q4 26 32 55q4 6 8 10q-38 -31 -88 -31q-49 0 -76 35q-26 33 -16 82q10 54 52 88q45 35 97 35q51 0 77 -33q25 -34 15 -90l-41 -207h106l64 328h72l-76 -398h-301zM-528 -469q10 57 -48 57t-67 -57q-10 -57 47 -57q58 0 68 57z" />
<glyph unicode="&#xf71a;" d="M-246 -418q-4 -14 -11 -26t-18 -21.5t-26 -16t-27 -6.5q-14 0 -26 6.5t-19.5 16t-10.5 21.5t1 26q2 14 10.5 26.5t18.5 22t24 15.5t29 6q12 0 24.5 -6t20.5 -15.5t10 -22t0 -26.5z" />
<glyph unicode="&#xf71b;" horiz-adv-x="901" d="M676 -125l-238 -201l-156 119q-22 17 -28 55l-6 -30q-10 -55 -58 -98.5t-106 -43.5q-43 0 -72.5 20t-42 51.5t-4.5 74.5q10 57 58.5 98t105.5 41q64 -1 88 -31q-4 10 -6 19q-2 11 0 21l21 106h69l-33 -170l178 -134l160 134l134 692q14 76 -45 119t-157 43 q-120 0 -224 -66q80 -20 149 -78q-52 -22 -88.5 -48t-49.5 -49t-22 -58l-55 -283q-10 -53 -55 -94t-99 -41q-38 0 -67 18.5t-40 48.5t-5 66q10 56 52 92.5t97 36.5q35 0 63 -16l40 203q16 84 118 120q-48 32 -162 62q58 68 163.5 112t201.5 44q94 0 158.5 -29t90.5 -78 t13 -121zM180 -180q14 74 -61 74q-27 0 -50.5 -22t-27.5 -48q-15 -74 55 -74q18 0 35 8t31 25t18 37zM180 172q14 72 -55 72q-60 0 -72 -64q-15 -72 53 -72q62 0 74 64z" />
<glyph unicode="&#xf71c;" horiz-adv-x="901" d="M674 -133l-178 -151l-74 92l-108 -92l-62 84q-4 14 -6 32q-18 -49 -59 -81.5t-85 -32.5q-47 0 -79.5 19t-45.5 51t-5 75q12 57 60 98t105 41t89 -32q-6 12 -9 24v16l23 106h69l-39 -200l64 -102l106 88l72 -88l90 80l138 704q14 76 -45 119t-157 43q-120 0 -224 -66 q80 -20 149 -78q-52 -22 -88.5 -48t-49.5 -49t-22 -58l-45 -233q-10 -54 -56 -95t-100 -41q-39 0 -66.5 18.5t-39.5 48t-4 67.5q10 55 52 91.5t98 36.5q34 0 63 -16l29 154q16 84 118 120q-48 32 -162 62q58 68 163.5 112t201.5 44q94 0 158.5 -29t90.5 -78t13 -121z M188 -140q14 74 -61 74q-18 0 -34.5 -9t-28 -24t-15.5 -36q-15 -74 61 -74q66 -1 78 69zM188 221q14 72 -55 72q-59 1 -71 -63q-14 -72 52 -72q62 0 74 63z" />
<glyph unicode="&#xf71d;" horiz-adv-x="948" d="M1034 905l-133 -111l-153 -794h-76l-102 641l-40 -84l-309 -557h-69l112 580q-28 -18 -68 -19q-37 0 -62.5 16.5t-37.5 47.5t-6 69q8 34 29 63t56.5 50t78.5 21q126 0 100 -134l-94 -485l70 145l225 394h71l93 -525l94 483q0 4 4 17q7 13 19 25q-32 -24 -78 -25 q-39 0 -66.5 17.5t-39 48t-3.5 69.5q10 58 56.5 97t103.5 39q30 0 55 -13t40.5 -37t13.5 -57q-2 -5 -2 -21q2 4 10 23q0 5 10 23l55 46zM289 698q13 62 -49 62q-68 0 -82 -70q-12 -62 47 -62q70 0 84 70zM848 858q12 62 -47 62q-68 0 -80 -66q-12 -62 49 -62q66 0 78 66z " />
<glyph />
<glyph horiz-adv-x="764" d="M696 450h-270l-54 -274h-79l53 274h-272l16 78h272l54 273h80l-54 -273h270zM610 0h-622l14 80h622z" />
<glyph horiz-adv-x="747" d="M639 37q-76 -35 -118.5 -44t-124.5 -9q-156 0 -252.5 92t-98.5 264h-86l43 78h47q2 8 4.5 22l6.5 37l4 21q2 18 8 34h-76l43 76h59q57 158 195.5 258t294.5 100q90 0 132 -11t89 -39l-21 -111h-10q-40 36 -84 56.5t-116 22.5q-108 -2 -215 -67t-173 -209h304l-42 -76 h-290q-6 -20 -8 -32l-4 -21q-4 -20 -5 -34.5t-1 -26.5h245l-43 -78h-204q10 -144 93 -207t185 -67q94 4 137 22t92 58h11z" />
<glyph d="M-82 0h-614l200 1024h612z" />
<glyph horiz-adv-x="450" d="M-78 -144l16 82q6 35 14.5 46.5t47.5 11.5h289q40 0 44.5 -11t-1.5 -47l-16 -82q-12 -60 -40 -59q-12 -1 -14 49q0 20 -9 42t-44 26t-74 4q-51 0 -83 -5t-47 -15t-38 -58q-21 -44 -35 -43q-20 -1 -10 59z" />
<glyph d="M-414 -414q38 0 61 -27.5t15 -66.5q-6 -39 -40 -66.5t-72 -27.5q-39 0 -60.5 27.5t-15.5 66.5q8 39 40.5 66.5t71.5 27.5z" />
<glyph horiz-adv-x="710" d="M434 0l108 559q8 45 1 82t-26 62.5t-52 40t-74 14.5q-76 0 -145 -54q-68 -56 -82 -130l-2 -9h-74l4 15q18 102 113 176t201 74q114 0 174 -72q64 -72 40 -184l-110 -574h-76zM-172 1149q-8 -39 -33 -73t-63 -58q-40 -22 -88 -22q-30 0 -57 12t-43.5 32.5t-24 48t1.5 60.5 q4 30 22.5 59t43 49.5t55 32.5t61.5 12q33 0 59.5 -12t43 -32.5t21.5 -49.5t1 -59zM-242 1149q2 18 -1 32.5t-12 25.5t-22.5 18.5t-31.5 7.5q-14 0 -30.5 -6.5t-31 -16.5t-26 -25t-13.5 -36q-4 -14 -1 -29.5t12.5 -27.5t24 -19.5t32.5 -7.5q16 0 32.5 6t30 16.5t23.5 27 t14 34.5z" />
<glyph d="M-35 1372q-32 6 -47 6q-50 2 -106 -22q-51 -24 -58 -56q-6 -28 31 -46q39 -18 84 -19l-33 -47q-86 0 -148 -31q-61 -28 -71 -82q-11 -47 71 -47q62 0 103 24l33 -28q-68 -47 -166 -47q-134 0 -114 100q10 59 77 101q65 40 135 44q-29 4 -49 28q-25 24 -19 52q10 54 78 84 q66 34 156 34q64 0 96 -17z" />
<glyph horiz-adv-x="1024" d="M47 0l185 950h768l-185 -950h-768zM198 129h512l136 695h-512z" />
</font>
</defs>
</svg>
