<?xml version="1.0" standalone="no"?>
<!DOCTYPE svg PUBLIC "-//W3C//DTD SVG 1.1//EN" "http://www.w3.org/Graphics/SVG/1.1/DTD/svg11.dtd" >
<svg xmlns="http://www.w3.org/2000/svg">
<metadata>
This is a custom SVG webfont generated by Font Squirrel.
Copyright   : UPCCordia  UPC Unity Progress CoLtd 1986 All rights reserved
Foundry     : Boonlert Wuthikornkhanarak
Foundry URL : infoupccoth
</metadata>
<defs>
<font id="webfontrhesUISG" horiz-adv-x="747" >
<font-face units-per-em="2048" ascent="1638" descent="-410" />
<missing-glyph horiz-adv-x="459" />
<glyph unicode="&#xe4f;&#x22;" horiz-adv-x="1030" d="M994 412q-24 -116 -100 -209q-76 -91 -178 -147t-219 -56q-116 0 -195 56q-80 57 -116 147q-36 93 -12 209q36 170 184 290q145 122 314 122q52 0 98 -13t85 -36t70.5 -59t52.5 -83q43 -96 16 -221zM936 412q32 148 -48 252q-82 104 -228 104q-148 0 -274 -104 q-125 -104 -156 -252t49 -252q83 -102 230 -102q101 0 191 46q88 50 152 130t84 178zM818 412q-20 -96 -105 -166q-83 -68 -179 -68t-150 68q-56 70 -36 166q24 110 114 172q86 64 172 63q50 0 89 -18.5t63 -50t33 -74t-1 -92.5zM555 1094l33 156h136l-34 -156l-70 -184h-71 zM772 1094l34 156h135l-33 -156l-72 -184h-70z" />
<glyph unicode="&#xe24;&#xe32;" horiz-adv-x="1231" d="M340 584q-54 52 -158 72q36 45 150 108q116 62 258 62q184 0 254 -80q8 6 15 12t17 12q26 14 43.5 25.5t36 17.5t39.5 9.5t50 3.5q78 0 123.5 -19t66.5 -54.5t21 -89t-16 -123.5l-178 -839h-135l177 833q10 45 14 79t-2 57.5t-27 36t-65 12.5q-18 0 -29.5 -1t-18.5 -6 l-16 -12l-23 -16q-22 -14 -33.5 -34t-21.5 -42q0 -12 -2 -26t-5 -29l-181 -848h-135l182 856q32 154 -166 154q-103 1 -167 -43q68 -24 112 -82q-64 -20 -114 -74q-50 -52 -62 -110l-24 -111q80 -1 114 -17q36 -16 48 -50q12 -36 2 -82q-12 -58 -60 -105q-48 -49 -132 -49 q-72 0 -114 41q-40 40 -20 133l53 252q25 119 129 166zM314 92q56 0 68 58q12 56 -44 55q-56 1 -68 -55q-12 -58 44 -58z" />
<glyph unicode="&#xe26;&#xe32;" horiz-adv-x="1325" d="M974 586q-1 -16 -5 -33l-181 -848h-134l182 856q32 154 -167 154q-103 1 -167 -43q69 -24 112 -82q-129 -38 -160 -184l-53 -248q-20 -92 -79 -134q-60 -40 -130 -40q-74 0 -107 42q-33 45 -19 111q12 61 58 105q48 44 170 44l28 132q28 132 113 166q-53 50 -159 72 q44 55 159 112q113 58 249 58q182 0 252 -78q18 18 42 32q26 14 44 25.5t35 18t38.5 9.5t52.5 3q76 0 122 -19t67 -55.5t20 -90t-15 -120.5l-180 -842h-135l173 817q6 28 13 55t10 51t2 43t-8 32.5t-24 20.5t-46 7q-20 0 -33.5 -3t-23.5 -8t-20 -12l-24 -18 q-57 -38 -72 -108zM214 84q56 0 68 58q12 54 -44 54q-55 0 -67 -54q-12 -58 43 -58z" />
<glyph unicode="&#xfb01;" horiz-adv-x="545" d="M474 604h-138l-128 -604h-116l128 604h-104l20 92h104l15 74q13 62 35 104q22 43 73 74q53 29 129 29q50 -1 108 -13l-40 -102q-18 4 -35 5t-33 1q-56 0 -82 -22q-27 -22 -40 -86l-14 -64h138v2h116l-148 -696h-116z" />
<glyph unicode="&#xfb02;" horiz-adv-x="565" d="M476 604h-140l-128 -604h-116l128 604h-104l20 92h104l15 74q13 62 35 104q22 43 73 74q53 29 129 29h24q14 0 29 -2t30 -3.5t27 -3.5h70l-206 -968h-118zM356 696h140l36 172h-11h-11q-12 0 -28 -1t-30 -4t-25 -7t-17 -10q-27 -22 -40 -86z" />
<glyph unicode=" "  horiz-adv-x="459" />
<glyph unicode="&#x09;" horiz-adv-x="459" />
<glyph unicode="&#xa0;" horiz-adv-x="459" />
<glyph unicode="!" horiz-adv-x="372" d="M176 238l72 510l46 212h147l-45 -212l-144 -510h-76zM96 0l28 135h136l-29 -135h-135z" />
<glyph unicode="&#x22;" horiz-adv-x="477" d="M200 620l7 183l33 157h136l-34 -157l-70 -183h-72zM418 620l6 183l34 157h134l-33 -157l-69 -183h-72z" />
<glyph unicode="#" d="M38 -16l118 278h-111l21 98h129l99 238h-178l22 98h198l117 281h96l-115 -281h205l117 281h100l-116 -281h112l-21 -98h-133l-100 -238h182l-20 -98h-201l-117 -278h-98l114 278h-204l-117 -278h-99zM293 360h207l100 238h-207z" />
<glyph unicode="$" d="M280 -137l24 117q-262 35 -226 286l124 23q-16 -188 124 -209l80 374q-254 60 -210 271q22 106 104 181.5t220 87.5l12 54h69l-11 -54q218 -20 205 -238l-125 -18q8 133 -102 155l-72 -340q268 -57 220 -281q-30 -140 -131 -213t-211 -77l-25 -119h-69zM499 895 q-62 -10 -114.5 -50t-67.5 -112q-25 -119 113 -165zM396 80q73 8 126.5 60t69.5 126q13 62 -8.5 102t-111.5 70z" />
<glyph unicode="%" horiz-adv-x="1194" d="M208 729q22 100 87 174t168 74q104 0 140.5 -73.5t14.5 -180.5q-24 -114 -95 -184t-168 -70q-102 0 -136.5 75t-10.5 185zM448 895q-102 0 -140 -176q-36 -168 66 -168t140 176q36 168 -66 168zM250 -35l742 1012h96l-740 -1012h-98zM721 226q24 112 93.5 179.5 t161.5 67.5q106 0 142 -74.5t13 -181.5q-21 -98 -88 -175t-175 -77q-102 0 -136.5 75t-10.5 186zM963 391q-102 0 -140 -178q-35 -168 65 -168q104 0 142 178q36 168 -67 168z" />
<glyph unicode="&#x26;" horiz-adv-x="895" d="M636 112q-144 -128 -302 -128q-140 0 -205 85t-41 195q38 178 290 287q-82 125 -64 211q20 92 103 153.5t181 61.5q96 0 148 -58.5t34 -146.5q-30 -138 -232 -234l126 -218q43 58 75 132l115 -26q-58 -127 -128 -207q46 -87 118 -147l-100 -94q-62 44 -118 134zM503 614 q138 72 155 154q9 43 -10.5 77.5t-73.5 34.5q-49 0 -87.5 -30.5t-48.5 -75.5t26 -98zM582 207l-160 268q-182 -99 -205 -203q-16 -74 25.5 -129t113.5 -55q126 0 226 119z" />
<glyph unicode="'" horiz-adv-x="256" d="M194 620l10 181l34 159h134l-34 -159l-70 -181h-74z" />
<glyph unicode="(" horiz-adv-x="446" d="M240 -215q-172 293 -100 629q68 320 368 630h84q-176 -217 -240 -360.5t-91 -269.5q-67 -315 63 -629h-84z" />
<glyph unicode=")" horiz-adv-x="446" d="M97 -215h-86q263 315 330 629q67 316 -62 630h86q165 -312 97 -630q-71 -334 -365 -629z" />
<glyph unicode="*" horiz-adv-x="522" d="M184 784l48 92q96 -37 138 -63q14 119 24 164h94q-16 -66 -49 -162q75 33 167 61l10 -92q-90 -28 -171 -36q34 -36 86 -126l-89 -54q-28 52 -60 140q-68 -92 -116 -140l-65 54q95 94 135 126q-80 16 -152 36z" />
<glyph unicode="+" horiz-adv-x="784" d="M344 156l56 262h-263l23 110h263l56 262h113l-56 -262h260l-24 -110h-260l-56 -262h-112z" />
<glyph unicode="," horiz-adv-x="372" d="M94 0l28 135h136l-29 -135q-30 -142 -151 -190l-22 50q78 31 106 140h-68z" />
<glyph unicode="-" horiz-adv-x="446" d="M92 352l26 119h362l-25 -119h-363z" />
<glyph unicode="." horiz-adv-x="372" d="M98 0l28 135h134l-29 -135h-133z" />
<glyph unicode="/" horiz-adv-x="372" d="M-28 -16l489 993h94l-490 -993h-93z" />
<glyph unicode="0" d="M131 473q103 491 417 491t210 -491q-104 -489 -418 -489q-312 0 -209 489zM252 473q-84 -393 108 -393t276 393t-110 393q-92 0 -160.5 -90t-113.5 -303z" />
<glyph unicode="1" d="M474 0h-116l160 752q-116 -90 -268 -142l24 113q228 97 330 241h76z" />
<glyph unicode="2" d="M672 112l-23 -112h-635q32 154 320 354q200 139 265 213.5t77 132.5q18 82 -29 124t-117 42q-96 0 -154 -57t-76 -135l-118 12q86 278 373 278q131 0 199 -74t43 -192q-15 -72 -74 -151.5t-295 -247.5l-119 -86q-59 -43 -107 -101h470z" />
<glyph unicode="3" d="M86 254l120 16q-2 -190 148 -190q84 0 153 58t87 142q18 82 -23.5 135.5t-123.5 53.5q-35 -1 -87 -15l34 103q68 0 113 13.5t84.5 51.5t51.5 95q14 68 -20.5 109.5t-102.5 41.5q-148 0 -211 -174l-115 21q48 118 138 183.5t204 65.5q135 0 192.5 -76.5t37.5 -172.5 q-28 -134 -174 -195q171 -42 129 -238q-30 -143 -148.5 -220.5t-238.5 -77.5q-125 0 -194.5 73.5t-53.5 196.5z" />
<glyph unicode="4" d="M409 0l49 230h-418l23 108l571 622h96l-132 -622h130l-22 -108h-132l-48 -230h-117zM480 338l92 432l-392 -432h300z" />
<glyph unicode="5" d="M84 252l126 10q-12 -182 146 -182q98 0 166 72t88 164q20 98 -23 157t-137 59q-116 0 -193 -92l-109 14l198 494h478l-25 -114h-383l-106 -258q99 62 193 61q132 0 196.5 -87.5t36.5 -223.5q-20 -94 -77.5 -173t-140 -124t-182.5 -45q-131 0 -198.5 72.5t-53.5 195.5z " />
<glyph unicode="6" d="M796 725l-118 -8q2 151 -132 151q-96 0 -176.5 -95t-121.5 -277q110 126 260 126q137 0 189.5 -96t27.5 -214q-33 -154 -139.5 -241t-229.5 -87q-334 0 -235 464q111 516 455 516q112 0 171 -63.5t49 -175.5zM228 312q-23 -108 22 -170t125 -62q88 0 148.5 68.5 t78.5 156.5q20 94 -17 153.5t-123 59.5q-82 0 -148.5 -58t-85.5 -148z" />
<glyph unicode="7" d="M216 834l24 114h622l-20 -92q-188 -162 -337 -397.5t-211 -458.5h-120q52 226 201 455t311 379h-470z" />
<glyph unicode="8" d="M323 520q-134 54 -104 197q24 110 116.5 178.5t212.5 68.5q106 0 179 -64t46 -188q-29 -139 -181 -192q170 -58 129 -246q-28 -129 -133.5 -209.5t-245.5 -80.5q-94 0 -158 38t-89 103t-5 153q42 194 233 242zM341 721q-15 -70 20 -113t105 -43q60 0 116 38t71 112 q16 74 -24.5 113.5t-98.5 39.5q-68 0 -122 -42.5t-67 -104.5zM210 276q-20 -94 28 -145t126 -51q74 0 145 48t91 144q18 86 -26.5 141.5t-130.5 55.5q-72 0 -142.5 -48.5t-90.5 -144.5z" />
<glyph unicode="9" d="M95 221l116 13q-6 -154 127 -154q100 0 180 88t122 284q-107 -126 -256 -126q-140 0 -192 96t-26 219q30 144 133 233.5t239 89.5q330 0 231 -464q-56 -264 -175 -390t-279 -126q-114 0 -171.5 62.5t-48.5 174.5zM667 645q20 96 -16.5 158.5t-118.5 62.5 q-86 0 -156 -67.5t-90 -161.5q-19 -90 22.5 -148.5t125.5 -58.5q86 0 149.5 59.5t83.5 155.5z" />
<glyph unicode=":" horiz-adv-x="372" d="M215 561l29 135h135l-29 -135h-135zM96 0l28 135h136l-29 -135h-135z" />
<glyph unicode=";" horiz-adv-x="372" d="M213 561l29 135h135l-29 -135h-135zM94 0l28 135h136l-29 -135q-30 -142 -151 -190l-22 50q78 31 106 140h-68z" />
<glyph unicode="&#x3c;" horiz-adv-x="784" d="M138 420l23 110l692 268l-25 -116l-548 -207l460 -209l-26 -118z" />
<glyph unicode="=" horiz-adv-x="784" d="M804 565h-636l24 111h635zM741 272h-635l24 111h634z" />
<glyph unicode="&#x3e;" horiz-adv-x="784" d="M772 420l-692 -272l25 118l548 209l-460 207l25 116l578 -268z" />
<glyph unicode="?" d="M334 236q19 90 41.5 137t74.5 96q76 56 198 168q26 31 34 69q15 72 -28.5 123t-119.5 51q-162 0 -234 -194l-117 14q92 276 370 277q117 0 199 -66.5t54 -195.5q-24 -117 -197 -246q-84 -62 -112 -100.5t-50 -132.5h-113zM276 0l28 135h136l-29 -135h-135z" />
<glyph unicode="@" horiz-adv-x="1362" d="M758 106q-118 -108 -224 -108q-108 0 -155 88t-21 207q34 162 166 289.5t264 127.5q125 0 172 -120l44 100h117l-187 -438q-38 -90 -40 -102q-8 -44 36 -44q57 0 174.5 95.5t153.5 267.5q41 192 -75.5 302.5t-302.5 110.5q-244 0 -430 -161t-238 -403q-54 -258 78 -381 t378 -123q324 0 504 198h118q-84 -123 -252 -208.5t-388 -85.5q-315 0 -455.5 159.5t-82.5 429.5q39 182 159.5 345t278.5 245t356 82q264 0 379 -153.5t71 -358.5q-39 -184 -193.5 -326.5t-300.5 -142.5q-56 0 -84 22t-20 86zM480 284q-16 -78 9 -134t89 -56q52 0 114.5 40 t118.5 115t78 177q17 82 -14 134t-99 52q-96 0 -183 -104.5t-113 -223.5z" />
<glyph unicode="A" horiz-adv-x="895" d="M-27 0l573 960h137l189 -960h-146l-48 291h-404l-166 -291h-135zM334 396h325l-44 266q-19 121 -25 198q-38 -96 -90 -184z" />
<glyph unicode="B" horiz-adv-x="895" d="M74 0l204 960h360q162 0 224 -71q46 -53 46 -123q0 -25 -6 -51q-30 -138 -176 -203q138 -43 139 -171q1 -29 -7 -63q-59 -278 -418 -278h-366zM318 557h207q110 0 171.5 29.5t78.5 113.5q4 21 4 41q0 36 -16 64q-25 43 -190 43h-193zM224 112h240q114 0 179 40t83 126 q5 22 5 43q0 49 -29 79q-40 44 -184 44h-224z" />
<glyph unicode="C" horiz-adv-x="968" d="M835 338l120 -33q-150 -321 -466 -321q-234 0 -311 146q-49 93 -49 211q0 69 17 147q52 244 210 366.5t346 122.5q299 -1 320 -281l-132 -28q-20 200 -212 200q-172 0 -269 -108t-132 -272q-18 -82 -18 -147q0 -99 42 -156q67 -93 201 -93q226 0 333 246z" />
<glyph unicode="D" horiz-adv-x="968" d="M80 0l204 960h329q148 0 232.5 -36.5t125.5 -149.5q22 -59 22 -136q0 -68 -18 -152q-46 -220 -178 -353q-131 -133 -371 -133h-346zM230 112h204q119 0 194 34t131.5 121t84.5 221q16 76 16 136q0 44 -8 80q-21 84 -82.5 114t-182.5 30h-201z" />
<glyph unicode="E" horiz-adv-x="895" d="M82 0l204 960h694l-24 -112h-568l-62 -295h530l-24 -113h-530l-70 -328h590l-24 -112h-716z" />
<glyph unicode="F" horiz-adv-x="819" d="M86 0l204 960h647l-24 -112h-521l-63 -299h451l-24 -113h-451l-93 -436h-126z" />
<glyph unicode="G" horiz-adv-x="1044" d="M608 377l24 113h408l-76 -357q-220 -149 -432 -149q-220 0 -326 134q-73 93 -73 228q0 60 14 129q45 211 196 356.5t393 145.5q322 0 332 -285l-121 -30q-19 206 -235 206q-168 0 -280 -102q-114 -102 -152 -282q-15 -70 -14 -127q0 -107 53 -167q81 -92 231 -92 q168 0 302 100l38 179h-282z" />
<glyph unicode="H" horiz-adv-x="968" d="M82 0l204 960h128l-84 -395h498l84 395h127l-204 -960h-127l96 452h-498l-96 -452h-128z" />
<glyph unicode="I" horiz-adv-x="372" d="M100 0l204 960h127l-204 -960h-127z" />
<glyph unicode="J" horiz-adv-x="671" d="M70 272l118 17q-6 -38 -7 -68q-1 -125 107 -125q80 0 121 45t65 158l141 661h127l-140 -655q-68 -321 -336 -321q-131 0 -181 72q-30 43 -30 111q1 46 15 105z" />
<glyph unicode="K" horiz-adv-x="895" d="M74 0l204 960h126l-101 -476l579 476h172l-487 -388l301 -572h-168l-239 486l-190 -152l-71 -334h-126z" />
<glyph unicode="L" d="M74 0l204 960h126l-180 -848h473l-23 -112h-600z" />
<glyph unicode="M" horiz-adv-x="1118" d="M76 0l204 960h190l82 -680l15 -143l85 156l373 667h170l-204 -960h-123l171 805l-449 -805h-116l-104 817l-174 -817h-120z" />
<glyph unicode="N" horiz-adv-x="968" d="M78 0l204 960h130l344 -753l160 753h121l-204 -960h-129l-346 756l-160 -756h-120z" />
<glyph unicode="O" horiz-adv-x="1044" d="M140 469q33 156 114.5 269.5t196.5 176t256 62.5q201 0 301 -136q67 -92 67 -224q1 -64 -15 -138q-52 -246 -215 -370.5t-349 -124.5q-205 0 -303 139q-67 96 -67 224q0 58 14 122zM270 467q-12 -58 -12 -109q0 -94 43 -162q66 -104 218 -104q164 0 269.5 113t139.5 274 q15 69 15 126q0 102 -47 165q-73 98 -210 98q-174 0 -277 -114.5t-139 -286.5z" />
<glyph unicode="P" horiz-adv-x="895" d="M80 0l204 960h362q116 0 188 -20q70 -20 106 -90q22 -44 23 -99q0 -33 -8 -69q-62 -291 -420 -291h-245l-84 -391h-126zM314 504h247q226 0 263 176q6 26 6 49q0 29 -10 51q-17 39 -56.5 53.5t-131.5 14.5h-246z" />
<glyph unicode="Q" horiz-adv-x="1044" d="M828 102q76 -60 146 -88l-58 -88q-94 36 -180 117q-122 -59 -251 -59q-213 0 -305 141q-61 95 -61 221q0 62 15 133q52 244 213 371t353 127q201 0 302 -134q68 -91 68 -224q0 -63 -16 -137q-51 -240 -226 -380zM582 266q104 -30 162 -92q135 102 179 308q14 68 14 123 q0 101 -47 165q-72 98 -212 98q-156 0 -265 -103t-148 -286q-12 -59 -12 -112q0 -87 33 -159q54 -116 226 -116q68 0 135 27q-51 36 -115 53z" />
<glyph unicode="R" horiz-adv-x="968" d="M82 0l204 960h426q100 0 165 -17t103 -84q25 -44 24 -99q0 -30 -6 -62q-48 -226 -328 -262q90 -40 145 -174l113 -262h-160l-85 200q-48 111 -79 154.5t-62.5 57.5t-95.5 14h-147l-91 -426h-126zM322 536h273q237 0 271 162q5 22 5 41q0 115 -178 115h-303z" />
<glyph unicode="S" horiz-adv-x="895" d="M102 309l120 11q-1 -14 -1 -28q0 -93 58 -140q65 -54 181 -54q118 0 188 48t84 114q4 17 4 31q0 47 -36 75q-48 36 -222 78q-174 43 -224 111q-36 49 -37 110q-1 23 5 47q28 129 142 197t252 68q178 0 250 -82q56 -64 56 -153q0 -25 -4 -52l-124 -10q2 16 1 31 q0 153 -196 153q-222 0 -252 -143q-3 -14 -3 -27q0 -40 30 -64q40 -32 170 -62q128 -31 195 -58.5t102 -89.5q23 -40 23 -91q0 -29 -6 -59q-28 -136 -149 -211t-269 -75q-202 0 -284 92q-61 69 -61 164q0 33 7 69z" />
<glyph unicode="T" horiz-adv-x="819" d="M323 0l180 848h-317l24 112h762l-24 -112h-318l-180 -848h-127z" />
<glyph unicode="U" horiz-adv-x="968" d="M912 960h127l-118 -554q-26 -119 -69.5 -211.5t-145.5 -151.5t-250 -59q-203 0 -269 99q-39 58 -39 158q0 71 20 165l118 554h126l-118 -554q-20 -93 -19 -159q0 -67 49 -108q48 -41 146 -41q138 0 212 64t112 244z" />
<glyph unicode="V" horiz-adv-x="895" d="M354 0l-169 960h137l102 -698q12 -88 18 -156q35 70 84 156l408 698h130l-581 -960h-129z" />
<glyph unicode="W" horiz-adv-x="1265" d="M246 0l-50 960h130l12 -628l2 -88q0 -59 -2 -109l80 177l320 648h154l34 -485q8 -107 7 -203q0 -71 -4 -137q27 68 92 209l283 616h126l-468 -960h-120l-48 731l-7 113l-53 -113l-358 -731h-130z" />
<glyph unicode="X" horiz-adv-x="895" d="M-19 0l477 500l-230 460h152l122 -245q38 -78 52 -119l99 108l249 256h137l-435 -452l258 -508h-158l-169 342q-12 24 -27 66q-48 -58 -62 -72l-314 -336h-151z" />
<glyph unicode="Y" horiz-adv-x="895" d="M350 0l86 408l-253 552h153l130 -288q33 -78 63 -164q60 78 141 170l246 282h148l-500 -552l-87 -408h-127z" />
<glyph unicode="Z" horiz-adv-x="819" d="M2 0l24 119l748 729h-537l24 112h688l-24 -112l-755 -736h615l-23 -112h-760z" />
<glyph unicode="[" horiz-adv-x="372" d="M24 -200l261 1226h261l-21 -96h-143l-220 -1032h144l-22 -98h-260z" />
<glyph unicode="\" horiz-adv-x="372" d="M250 -16l-68 993h94l68 -993h-94z" />
<glyph unicode="]" horiz-adv-x="372" d="M216 -200h-259l21 98h143l219 1032h-143l21 96h260z" />
<glyph unicode="^" horiz-adv-x="628" d="M226 452h-120l342 525h97l120 -525h-119l-78 392z" />
<glyph unicode="_" d="M-102 -266l18 84h782l-18 -84h-782z" />
<glyph unicode="`" horiz-adv-x="446" d="M446 782h-96l-110 182h155z" />
<glyph unicode="a" d="M536 86q-140 -102 -278 -102q-98 0 -158 49q-43 36 -43 100q0 23 6 51q14 70 60.5 116t104.5 68t154 34q148 16 220 40q12 56 11 85q-1 6 -1 12q-3 29 -35.5 52t-106.5 23q-72 0 -121 -26q-49 -24 -87 -106l-112 16q88 212 359 212q112 0 165 -30.5t61 -80.5q2 -14 2 -31 q1 -46 -15 -120l-63 -304q-7 -32 -7 -63q0 -42 13 -81h-125q-7 24 -7 52q1 16 3 34zM581 348q-71 -26 -201 -43q-116 -16 -150 -49q-34 -34 -42 -70q-3 -16 -3 -29q-1 -81 121 -81q217 0 266 229z" />
<glyph unicode="b" d="M172 0h-109l204 960h117l-73 -342q97 92 213 92q134 0 192 -97q37 -62 37 -147q0 -50 -12 -108q-34 -162 -137.5 -268t-241.5 -106q-122 0 -172 102zM246 352q-14 -68 -14 -114q0 -24 4 -42q11 -54 47.5 -84t89.5 -30q92 0 157.5 77t89.5 189q11 50 11 94q0 52 -15 94 q-28 78 -126 78q-88 0 -154 -75t-90 -187z" />
<glyph unicode="c" horiz-adv-x="671" d="M572 256l113 -16q-44 -118 -136.5 -187t-208.5 -69q-150 0 -212 96q-39 61 -40 151q0 53 14 115q40 188 149 276t243 88q232 0 232 -211v-7l-118 -19q-4 141 -128 141q-202 0 -258 -266q-13 -60 -12 -107q0 -159 148 -159q152 0 214 174z" />
<glyph unicode="d" d="M516 0l18 88q-90 -104 -217 -104q-141 0 -199 104q-36 66 -36 153q0 49 12 105q38 182 142.5 273t229.5 91q122 0 172 -94l74 344h116l-204 -960h-108zM216 346q-11 -50 -10 -92q0 -56 19 -98q33 -74 123 -74q92 0 155 73t86 183q12 56 12 102q0 57 -18 99 q-33 75 -127 75q-182 0 -240 -268z" />
<glyph unicode="e" d="M587 223l118 -14q-108 -225 -353 -225q-94 0 -159 37t-94 116q-15 42 -15 96q0 49 12 109q22 106 76 189t138 131t191 48q110 0 171.5 -54t73.5 -133q4 -25 4 -55q0 -64 -18 -150h-520q-4 -29 -4 -54q0 -70 31 -118q42 -64 134 -64q133 0 214 141zM240 414h388q3 25 3 46 q1 67 -31 104q-42 50 -120 50q-82 0 -149 -55t-91 -145z" />
<glyph unicode="f" horiz-adv-x="372" d="M92 0l128 604h-104l20 92h104l15 74q13 62 35 105t74 72.5t128 29.5q50 -1 108 -13l-40 -102q-36 6 -68 6q-56 0 -82 -22t-40 -86l-14 -64h136l-20 -92h-136l-128 -604h-116z" />
<glyph unicode="g" d="M30 -58l112 -16q-1 -7 -1 -13q1 -97 137 -97q76 0 129 30.5t76 79t47 164.5q-96 -90 -211 -90q-137 0 -198 99q-40 65 -40 153q-1 46 11 100q36 170 141.5 264t236.5 94q125 0 182 -98l18 84h110l-128 -602q-24 -116 -60 -192t-123 -130t-213 -54q-137 0 -194 61 q-40 43 -40 105q0 27 8 58zM216 360q-13 -60 -13 -105q0 -157 147 -157q94 0 158 70t90 188q10 45 9 84q0 58 -21 102q-36 72 -128 72t-156 -74t-86 -180z" />
<glyph unicode="h" d="M63 0l204 960h119l-73 -344q103 94 227 94q113 0 165 -55q32 -34 32 -105q0 -46 -13 -110l-94 -440h-118l93 440q7 34 7 61q0 109 -116 109q-184 0 -234 -229l-80 -381h-119z" />
<glyph unicode="i" horiz-adv-x="299" d="M238 826l29 134h119l-29 -134h-119zM63 0l148 696h119l-148 -696h-119z" />
<glyph unicode="j" horiz-adv-x="299" d="M238 824l29 136h117l-29 -136h-117zM-144 -270l44 100q34 -8 54 -8q40 0 62 28q22 29 40 115l155 731h117l-156 -735q-26 -120 -74 -181.5t-152 -61.5q-48 0 -90 12z" />
<glyph unicode="k" horiz-adv-x="671" d="M63 0l204 960h119l-116 -546l338 282h154l-322 -258l200 -438h-145l-153 356l-102 -80l-58 -276h-119z" />
<glyph unicode="l" horiz-adv-x="299" d="M61 0l204 960h119l-204 -960h-119z" />
<glyph unicode="m" horiz-adv-x="1118" d="M63 0l148 696h107l-22 -98q96 112 236 112q154 0 170 -120q108 120 241 120q174 0 174 -153q0 -36 -9 -80l-101 -477h-119l94 438q8 39 8 70q0 102 -95 102q-170 0 -214 -206l-85 -404h-119l96 452q7 34 7 61q0 97 -96 97q-82 0 -139 -54t-87 -196l-76 -360h-119z" />
<glyph unicode="n" d="M63 0l148 696h107l-22 -98q100 112 246 112q94 0 139.5 -35.5t52.5 -90.5q2 -13 1 -29q0 -50 -16 -127l-91 -428h-116l90 424q8 40 8 71q0 115 -114 115q-184 0 -234 -229l-80 -381h-119z" />
<glyph unicode="o" d="M94 348q42 194 159 278t243 84q150 0 218 -96q45 -64 45 -156q1 -46 -11 -100q-41 -192 -155 -283q-113 -91 -251 -91q-170 0 -226 106q-35 67 -34 153q0 49 12 105zM214 348q-11 -50 -10 -91q0 -60 22 -103q38 -72 136 -72q102 0 170 77t93 193q9 43 9 81q0 55 -19 103 q-32 78 -139 78q-102 0 -170 -75.5t-92 -190.5z" />
<glyph unicode="p" d="M6 -266l205 962h109l-20 -90q98 104 224 104q148 0 198 -103q32 -63 32 -144q0 -51 -12 -111q-38 -182 -150.5 -275t-231.5 -93q-112 0 -163 88l-72 -338h-119zM242 344q-11 -52 -11 -94q0 -55 19 -96q33 -72 123 -72q94 0 158.5 77t90.5 195q11 50 10 93q0 56 -18 98 q-33 73 -121 73q-92 0 -159.5 -81t-91.5 -193z" />
<glyph unicode="q" d="M450 -266l73 340q-83 -90 -202 -90q-147 0 -201 112q-34 72 -34 157q0 49 11 101q38 178 142 267t227 89q130 0 182 -108l20 94h104l-205 -962h-117zM217 350q-10 -49 -10 -90q-1 -58 19 -102q34 -76 126 -76q88 0 152 74t88 184q11 51 11 94q0 59 -20 105 q-35 79 -125 79q-92 0 -154 -75.5t-87 -192.5z" />
<glyph unicode="r" horiz-adv-x="446" d="M61 0l148 696h107l-24 -106q94 120 178 120q60 0 113 -36l-65 -111q-38 27 -80 27q-133 0 -181 -226l-77 -364h-119z" />
<glyph unicode="s" horiz-adv-x="671" d="M60 207l120 19q-1 -8 -1 -17q0 -127 151 -127q160 0 183 110q2 10 2 19q0 25 -18 40q-23 20 -117 44q-101 26 -148.5 45.5t-73.5 63.5q-18 29 -18 67q0 19 5 41q18 86 98.5 142t200.5 56q236 0 235 -176q-1 -9 -1 -18l-120 -16q1 7 1 13q0 101 -128 101q-152 0 -171 -90 q-7 -35 15.5 -53.5t126.5 -48.5q116 -33 156 -50q40 -18 66 -62q17 -29 17 -66q0 -19 -4 -39q-22 -100 -112.5 -160.5t-215.5 -60.5q-250 0 -250 212q1 5 1 11z" />
<glyph unicode="t" horiz-adv-x="372" d="M344 106l-6 -104q-50 -10 -90 -10q-56 0 -89 16t-44 50q-3 10 -3 28q0 40 17 119l85 399h-88l20 92h88l36 172l132 70l-52 -242h119l-20 -92h-119l-86 -408q-7 -33 -7 -54q1 -12 3 -20q6 -22 51 -22q19 0 53 6z" />
<glyph unicode="u" d="M520 0l22 102q-108 -118 -248 -118q-92 0 -138 38t-52 92q-2 14 -2 30q0 48 15 120l92 432h119l-82 -387q-18 -81 -21 -123v-8q0 -37 26 -63q28 -29 88 -29q88 0 148.5 51t88.5 187l80 372h116l-148 -696h-104z" />
<glyph unicode="v" horiz-adv-x="671" d="M256 0l-116 696h124l61 -418q11 -70 15 -138q24 50 71 130l247 426h120l-412 -696h-110z" />
<glyph unicode="w" horiz-adv-x="968" d="M192 0l-65 696h123l34 -550l263 550h123l22 -536l275 536h115l-366 -696h-122l-24 534l-255 -534h-123z" />
<glyph unicode="x" horiz-adv-x="671" d="M-15 0l331 362l-164 334h147l71 -164q20 -42 34 -78l69 78l152 164h141l-310 -328l180 -368h-145l-122 274l-243 -274h-141z" />
<glyph unicode="y" horiz-adv-x="671" d="M2 -268l9 110q36 -10 65 -10q58 0 89 27t91 135l3 4l-115 698h128l58 -403q12 -84 16 -162q36 80 84 160l234 405h118l-414 -708q-93 -158 -152.5 -214t-141.5 -56q-34 0 -72 14z" />
<glyph unicode="z" horiz-adv-x="671" d="M2 0l20 96l550 508q-76 -4 -134 -4h-282l20 96h568l-18 -78l-558 -522q81 6 148 6h322l-22 -102h-614z" />
<glyph unicode="{" horiz-adv-x="448" d="M116 469q78 0 117 51.5t71 200.5q32 154 61 210t80 84.5t137 28.5h35l-23 -104h-18q-76 0 -101.5 -29t-41.5 -104q-30 -142 -48 -202t-60.5 -110.5t-110.5 -80.5q56 -24 80 -84t-8 -211q-24 -111 -29 -151t12 -60t83 -20h19l-22 -103h-35q-100 0 -129.5 30.5t-38 70.5 t27.5 212q32 148 18 204t-100 58z" />
<glyph unicode="|" horiz-adv-x="348" d="M38 -282l268 1259h102l-268 -1259h-102z" />
<glyph unicode="}" horiz-adv-x="448" d="M484 469l-23 -109q-62 0 -106.5 -37t-82.5 -215q-33 -156 -61.5 -212t-81.5 -83.5t-133 -27.5h-36l22 103h20q74 0 100 28t42 106q30 144 47.5 203t62 112t110.5 77q-74 39 -88 102.5t14 191.5q28 131 30 162t-12 50.5t-82 19.5h-21l23 104h36q78 0 118 -23t47 -76 t-21 -189q-34 -162 -23 -224.5t99 -62.5z" />
<glyph unicode="~" horiz-adv-x="784" d="M110 364l28 136q86 78 199 78q72 0 193 -58q67 -30 106 -30q88 0 189 90l-29 -140q-96 -74 -196 -74q-70 0 -178 54q-70 34 -123 34q-77 0 -189 -90z" />
<glyph horiz-adv-x="1024" />
<glyph unicode="&#xa1;" horiz-adv-x="446" d="M387 561h-137l28 135h138zM261 -51l-45 -213h-146l46 213l140 507h76z" />
<glyph unicode="&#xa2;" d="M334 84q20 -6 40 -6q60 0 120 41q62 40 94 137l116 -14q-48 -120 -143 -191q-96 -69 -205 -69q-38 0 -66 10l-133 -260l-69 20l132 262q-154 86 -102 330q38 182 148 274q108 94 239 94q14 0 30.5 -2l34.5 -4l127 254l67 -20l-128 -254q110 -48 108 -194l-118 -19 q-4 75 -40 113zM491 618q-86 0 -153 -67q-70 -66 -98 -201q-36 -172 32 -234l252 500z" />
<glyph unicode="&#xa3;" d="M554 530l-20 -98h-187q7 -26 1 -57q-26 -125 -170 -250q58 15 97 15q53 0 119 -17q114 -27 146 -27q48 0 134 37l14 -109q-103 -40 -166 -40q-47 0 -133 28q-96 30 -145 31q-102 1 -210 -61l-21 112q169 88 205 258q9 40 6 80h-129l21 98h100q-10 110 4 172 q26 125 126 199q98 76 230 76q102 1 174 -59q72 -58 64 -189l-120 -19q6 80 -34 126q-40 44 -107 44q-63 0 -125 -42q-63 -43 -79 -117q-15 -73 -1 -191h206z" />
<glyph unicode="&#xa4;" horiz-adv-x="772" d="M716 223l-66 -55l-73 92q-91 -55 -175 -55q-82 0 -151 55l-111 -92l-44 55l114 91q-38 82 -22 161q18 82 90 164l-75 88l67 57l73 -92q87 54 173 54t153 -54l111 92l44 -57l-114 -88q36 -80 19 -164q-17 -81 -87 -161zM651 475q17 80 -27 136.5t-124 56.5 q-82 0 -149.5 -56.5t-84.5 -136.5q-16 -80 28 -136.5t124 -56.5q70 0 142 51.5t91 141.5z" />
<glyph unicode="&#xa5;" d="M334 213h-273l19 90h272l20 95h-272l21 98h223l-167 464h131l118 -338q6 -20 14.5 -44.5t13.5 -55.5q24 36 78 106l249 332h139l-363 -464h223l-20 -98h-271l-20 -95h271l-20 -90h-270l-45 -213h-117z" />
<glyph unicode="&#xa6;" horiz-adv-x="348" d="M298 459h-102l110 518h102zM140 -282h-102l110 518h102z" />
<glyph unicode="&#xa7;" d="M182 -28q-4 -154 133 -154q67 0 113 32q44 34 54 80q6 30 -16 70q-20 40 -184 154l-67 51l-45 37q-32 34 -48 82q-14 49 -4 98q12 54 58 108q48 55 128 76q-66 82 -49 164q18 84 97 146q76 62 185 61q243 1 225 -227l-122 -12q6 142 -112 142q-60 0 -104 -32 q-44 -33 -53 -72q-7 -42 23 -80q14 -18 53 -50t103 -76q118 -84 154 -138q36 -53 19 -129q-28 -131 -187 -187q88 -80 66 -184q-20 -92 -106 -153t-200 -61q-252 0 -237 237zM486 160q106 50 122 122q8 36 -16 78q-24 39 -126 111l-62 47l-52 43q-110 -51 -126 -127 q-8 -42 15 -78q19 -35 113 -100q40 -24 73 -48.5t59 -47.5z" />
<glyph unicode="&#xa8;" horiz-adv-x="446" d="M221 966h123l-28 -134h-124zM464 966h124l-29 -134h-123z" />
<glyph unicode="&#xa9;" horiz-adv-x="989" d="M680 977q122 1 228 -63t146 -183q42 -119 14 -249q-44 -205 -220 -351q-176 -143 -378 -143q-127 0 -232 65q-108 67 -146 183q-40 120 -13 246q32 152 138 272q106 122 233 172q124 52 230 51zM662 895q-174 0 -320 -121q-145 -120 -181 -292q-37 -168 59 -290 q94 -122 267 -122q101 0 215 53q112 53 186 155q78 104 98 204q36 172 -58 292q-96 121 -266 121zM790 379q-36 -82 -111 -131q-75 -50 -165 -50q-116 0 -172 76q-56 74 -28 208q28 131 116 204q88 74 210 74q174 0 188 -154l-82 -20q-20 100 -126 100q-72 0 -134 -51 q-60 -52 -82 -156q-21 -99 13 -151q36 -52 110 -52q56 0 107 31q52 33 82 95z" />
<glyph unicode="&#xaa;" horiz-adv-x="497" d="M452 559q-92 -69 -182 -69q-62 0 -104 34q-42 36 -26 109q14 64 56 92q46 33 134 47l98 14q13 2 29 5t38 10q11 53 -7 75q-16 22 -74 23q-96 0 -128 -82l-86 25q58 136 230 135q116 0 148 -45q30 -45 15 -115l-42 -197q-19 -88 1 -118h-96q-10 27 -4 57zM476 723 l-53 -10.5t-77 -12.5q-98 -16 -108 -67q-6 -24 11 -45q17 -20 59 -20q48 0 88 24q38 24 53 49q15 26 27 82z" />
<glyph unicode="&#xab;" d="M378 47h-96l-146 299l273 299h96l-233 -299zM634 47h-98l-144 299l271 299h98l-237 -299z" />
<glyph unicode="&#xac;" horiz-adv-x="784" d="M632 278l61 287h-522l23 111h633l-85 -398h-110z" />
<glyph unicode="&#xad;" horiz-adv-x="463" d="M440 299h-340l18 88h340z" />
<glyph unicode="&#xae;" horiz-adv-x="989" d="M680 977q122 1 228 -63t146 -183q42 -119 14 -249q-44 -205 -220 -351q-176 -143 -378 -143q-127 0 -232 65q-108 67 -146 183q-40 120 -13 246q32 152 138 272q106 122 233 172q124 52 230 51zM662 895q-174 0 -320 -121q-145 -120 -181 -292q-37 -168 59 -290 q94 -122 267 -122q101 0 215 53q112 53 186 155q78 104 98 204q36 172 -58 292q-96 121 -266 121zM413 742h183q122 0 166 -38q46 -35 30 -106q-12 -58 -63 -102q-52 -44 -121 -50q44 -14 95 -132l43 -105h-104l-30 84q-30 89 -55 115q-23 26 -75 26h-48l-48 -225h-86z M552 510q129 0 146 80q9 41 -17.5 60.5t-100.5 19.5h-96l-34 -160h102z" />
<glyph unicode="&#xaf;" horiz-adv-x="741" d="M190 1110h782l-17 -84h-783z" />
<glyph unicode="&#xb0;" horiz-adv-x="536" d="M228 796q16 74 80 128t138 53q66 0 116 -47q48 -50 30 -134q-10 -47 -40 -86.5t-78 -68.5q-49 -29 -105 -29q-64 0 -110 50q-49 48 -31 134zM300 796q-10 -47 14 -79q26 -33 72 -33q54 0 88 37q38 33 47 75q5 22 0 42t-17.5 35.5t-30 23.5t-40.5 8q-39 -1 -81 -29 q-40 -28 -52 -80z" />
<glyph unicode="&#xb1;" horiz-adv-x="860" d="M80 178h725l-37 -178h-726zM471 725h176l-33 -153h274l-37 -179h-275l-33 -155h-176l33 155h-274l38 179h274z" />
<glyph unicode="&#xb2;" horiz-adv-x="446" d="M93 479q22 82 209 201q98 62 128 86q32 26 40 58q14 72 -76 71q-80 0 -116 -76l-96 13q63 142 231 141q97 0 135 -39q38 -38 27 -94t-53 -98q-23 -20 -64.5 -50l-100.5 -70q-63 -39 -91 -63h254l-18 -80h-409z" />
<glyph unicode="&#xb3;" horiz-adv-x="446" d="M222 618q8 -74 86 -73q49 1 81 27q34 26 42 61q15 71 -89 71l-24 -2h-8h-6l30 72q104 0 118 68q3 12 0.5 22t-11.5 18.5t-22 12.5t-34 4q-68 1 -106 -65l-91 14q39 68 88 96q46 29 124 29q180 0 155 -123q-16 -76 -113 -104q110 -26 88 -126q-14 -62 -76 -106 q-60 -45 -156 -45q-174 -1 -172 139z" />
<glyph unicode="&#xb4;" horiz-adv-x="446" d="M414 966h153l-183 -184h-98z" />
<glyph unicode="&#xb5;" horiz-adv-x="772" d="M642 0h-106l18 84q-80 -100 -196 -100q-102 0 -148 86l-71 -336h-117l206 962h116l-63 -294q-35 -164 -27 -208q8 -45 38 -73q28 -31 85 -31q51 0 95 26q48 28 76 74t62 210l64 296h116z" />
<glyph unicode="&#xb6;" horiz-adv-x="721" d="M328 418q-32 0 -63 7t-56.5 21.5t-45 37t-33.5 50.5q-28 62 -10 150q28 129 126 203q96 73 244 73h414l-24 -112h-94l-237 -1114h-111l237 1114h-145l-237 -1114h-111z" />
<glyph unicode="&#xb7;" horiz-adv-x="372" d="M210 540h136l-29 -134h-135z" />
<glyph unicode="&#xb8;" horiz-adv-x="317" d="M186 0l-74 -84q15 4 26.5 6t23.5 2q22 0 42 -7t34.5 -20t21 -34t0.5 -45q-14 -66 -67.5 -101t-141.5 -35q-24 0 -45.5 3t-38.5 7.5l-32 8.5t-21 10l40 66q8 -4 18 -8.5t23 -7.5t27 -5t28 -2t28 4t25 10t19 16t10 20q5 22 -9.5 35t-44.5 13q-16 0 -26 -2t-24 -6l-24 29 l104 127h78z" />
<glyph unicode="&#xb9;" horiz-adv-x="446" d="M371 844q-75 -54 -163 -76l17 82q101 30 198 123h70l-105 -494h-94z" />
<glyph unicode="&#xba;" horiz-adv-x="489" d="M426 977q94 1 140 -65q48 -66 23 -181q-21 -100 -91 -174q-68 -71 -174 -71q-98 0 -144 65q-46 66 -22 176q24 119 98 185q76 66 170 65zM408 891q-116 0 -151 -160q-17 -85 7 -123q26 -36 76 -36q119 0 153 161q17 80 -9 119q-24 39 -76 39z" />
<glyph unicode="&#xbb;" d="M458 645h98l146 -299l-273 -299h-97l234 299zM204 645h98l142 -299l-269 -299h-99l236 299z" />
<glyph unicode="&#xbc;" horiz-adv-x="1118" d="M1070 977h102l-936 -1014h-103zM371 844q-75 -54 -163 -76l17 82q101 30 198 123h70l-105 -494h-94zM930 82h-252l17 80l333 309h77l-68 -319h70l-15 -70h-70l-22 -102h-92zM982 324l-188 -172h151z" />
<glyph unicode="&#xbd;" horiz-adv-x="1118" d="M1053 977h105l-939 -1014h-103zM371 844q-75 -54 -163 -76l17 82q101 30 198 123h70l-105 -494h-94zM656 -20q30 86 210 198q99 62 130 88q30 28 36 56q16 72 -74 71q-78 1 -114 -73l-98 10q67 142 230 141q98 0 137 -39q39 -36 27 -92q-12 -54 -50 -94 q-38 -41 -170 -123q-62 -39 -88 -63h251l-17 -80h-410z" />
<glyph unicode="&#xbe;" horiz-adv-x="1118" d="M1070 977h102l-936 -1014h-103zM222 618q8 -74 86 -73q49 1 81 27q34 26 42 61q15 71 -87 71l-40 -2l30 72q104 0 118 68q3 12 0.5 22t-11.5 18.5t-22 12.5t-34 4q-68 1 -106 -65l-91 14q39 68 88 96q46 29 124 29q180 0 155 -123q-16 -76 -113 -104q110 -26 88 -126 q-14 -62 -76 -106q-60 -45 -156 -45q-174 -1 -172 139zM928 82h-250l17 80l331 309h79l-68 -319h70l-15 -70h-70l-22 -102h-94zM980 324l-186 -172h149z" />
<glyph unicode="&#xbf;" horiz-adv-x="819" d="M573 561h-133l29 135h133zM544 459q-3 -12 -4.5 -20.5t-1.5 -12.5q-20 -92 -62 -148q-42 -52 -149 -132q-77 -58 -99 -88q-22 -31 -30 -68q-15 -72 27 -123q44 -51 120 -51q164 0 234 194l118 -14q-47 -136 -143 -207q-98 -69 -228 -69q-140 0 -208 75q-64 79 -42 187 q14 64 52 116q40 52 142 128q88 68 115 104q26 37 46 129h113z" />
<glyph unicode="&#xc0;" horiz-adv-x="895" d="M-51 0l573 960h137l189 -960h-146l-48 291h-404l-166 -291h-135zM310 396h325l-44 266q-19 121 -25 198q-38 -96 -90 -184zM656 1050h-96l-110 182h155z" />
<glyph unicode="&#xc1;" horiz-adv-x="895" d="M-51 0l573 960h137l189 -960h-146l-48 291h-404l-166 -291h-135zM310 396h325l-44 266q-19 121 -25 198q-38 -96 -90 -184zM663 1234h153l-183 -184h-98z" />
<glyph unicode="&#xc2;" horiz-adv-x="895" d="M-51 0l573 960h137l189 -960h-146l-48 291h-404l-166 -291h-135zM310 396h325l-44 266q-19 121 -25 198q-38 -96 -90 -184zM535 1050h-134l180 184h126l107 -184h-131l-50 113z" />
<glyph unicode="&#xc3;" horiz-adv-x="895" d="M-51 0l573 960h137l189 -960h-146l-48 291h-404l-166 -291h-135zM310 396h325l-44 266q-19 121 -25 198q-38 -96 -90 -184zM374 1038q14 70 62 110q46 40 104 40q41 0 103 -34q35 -20 57 -21q44 -1 62 57h84q-16 -74 -62 -112q-46 -36 -98 -37q-41 1 -100 37 q-40 22 -61 22q-51 0 -63 -62h-88z" />
<glyph unicode="&#xc4;" horiz-adv-x="895" d="M-51 0l573 960h137l189 -960h-146l-48 291h-404l-166 -291h-135zM310 396h325l-44 266q-19 121 -25 198q-38 -96 -90 -184zM447 1183h123l-28 -134h-124zM690 1183h124l-29 -134h-123z" />
<glyph unicode="&#xc5;" horiz-adv-x="895" d="M-51 0l573 960h137l189 -960h-146l-48 291h-404l-166 -291h-135zM310 396h325l-44 266q-19 121 -25 198q-38 -96 -90 -184zM507 1270q-4 -18 -1.5 -34t12.5 -27t24.5 -17t30.5 -6t33 6t30 17t23 27t13 34q4 16 1 31t-12 27q-8 12 -22 18q-16 6 -32 6t-32.5 -6.5t-31 -18 t-23.5 -26.5t-13 -31zM431 1270q7 32 24.5 62t43.5 52t58 35q34 13 68 13q33 0 59.5 -13t44.5 -35t24 -52t-1 -62q-8 -35 -26.5 -64.5t-45.5 -52.5t-59 -35t-66 -12t-61 12t-44 35t-22 52.5t3 64.5z" />
<glyph unicode="&#xc6;" horiz-adv-x="1341" d="M642 960h788l-24 -112h-483l-63 -295h449l-25 -115h-448l-70 -326h502l-23 -112h-629l58 276h-372l-190 -276h-137zM698 389l98 459h-96l-319 -459h317z" />
<glyph unicode="&#xc7;" horiz-adv-x="968" d="M835 338l120 -33q-150 -321 -466 -321q-234 0 -311 146t-32 358q52 244 210 366.5t346 122.5q299 -1 320 -281l-132 -28q-20 200 -212 200q-172 0 -269 -108t-132 -272q-44 -209 24.5 -302.5t200.5 -93.5q226 0 333 246zM428 14h86l-35 -70q54 -6 77 -32q24 -28 16 -64 q-10 -48 -66 -86q-54 -38 -152 -38q-48 0 -92 8l25 78l61 -4q104 0 114 48q10 46 -92 46z" />
<glyph unicode="&#xc8;" horiz-adv-x="895" d="M58 0l204 960h694l-24 -112h-568l-62 -295h530l-24 -113h-530l-70 -328h590l-24 -112h-716zM708 1052h-96l-110 182h155z" />
<glyph unicode="&#xc9;" horiz-adv-x="895" d="M58 0l204 960h694l-24 -112h-568l-62 -295h530l-24 -113h-530l-70 -328h590l-24 -112h-716zM676 1236h153l-183 -184h-98z" />
<glyph unicode="&#xca;" horiz-adv-x="895" d="M58 0l204 960h694l-24 -112h-568l-62 -295h530l-24 -113h-530l-70 -328h590l-24 -112h-716zM554 1052h-134l180 184h126l107 -184h-131l-50 113z" />
<glyph unicode="&#xcb;" horiz-adv-x="895" d="M58 0l204 960h694l-24 -112h-568l-62 -295h530l-24 -113h-530l-70 -328h590l-24 -112h-716zM471 1183h123l-28 -134h-124zM714 1183h124l-29 -134h-123z" />
<glyph unicode="&#xcc;" horiz-adv-x="372" d="M76 0l204 960h127l-204 -960h-127zM451 1052h-96l-110 182h155z" />
<glyph unicode="&#xcd;" horiz-adv-x="372" d="M76 0l204 960h127l-204 -960h-127zM419 1236h153l-183 -184h-98z" />
<glyph unicode="&#xce;" horiz-adv-x="372" d="M76 0l204 960h127l-204 -960h-127zM297 1052h-134l180 184h126l107 -184h-131l-50 113z" />
<glyph unicode="&#xcf;" horiz-adv-x="372" d="M76 0l204 960h127l-204 -960h-127zM217 1183h123l-28 -134h-124zM460 1183h124l-29 -134h-123z" />
<glyph unicode="&#xd0;" horiz-adv-x="968" d="M172 436h-106l18 88h106l94 436h329q154 0 234 -36t124 -148q42 -110 4 -290q-44 -208 -172 -346q-129 -140 -377 -140h-346zM434 112q106 0 184 30q76 28 136 116q62 88 92 230q28 128 4 212q-22 84 -80 115q-58 33 -183 33h-201l-68 -324h264l-19 -88h-264l-69 -324 h204z" />
<glyph unicode="&#xd1;" horiz-adv-x="968" d="M54 0l204 960h130l344 -753l160 753h121l-204 -960h-129l-346 756l-160 -756h-120zM448 1058q14 70 62 110q46 40 104 40q41 0 103 -34q35 -20 57 -21q44 -1 62 57h84q-16 -74 -62 -112q-46 -36 -98 -37q-41 1 -100 37q-40 22 -61 22q-51 0 -63 -62h-88z" />
<glyph unicode="&#xd2;" horiz-adv-x="1044" d="M116 469q33 156 114.5 269.5t196.5 176t256 62.5q201 0 301 -136q67 -92 67 -224q1 -64 -15 -138q-52 -246 -215 -370.5t-349 -124.5q-205 0 -303 139q-67 96 -67 224q0 58 14 122zM246 467q-12 -58 -12 -109q0 -94 43 -162q66 -104 218 -104q164 0 269.5 113t139.5 274 q15 69 15 126q0 102 -47 165q-73 98 -210 98q-174 0 -277 -114.5t-139 -286.5zM758 1052h-96l-110 182h155z" />
<glyph unicode="&#xd3;" horiz-adv-x="1044" d="M116 469q33 156 114.5 269.5t196.5 176t256 62.5q201 0 301 -136q67 -92 67 -224q1 -64 -15 -138q-52 -246 -215 -370.5t-349 -124.5q-205 0 -303 139q-67 96 -67 224q0 58 14 122zM246 467q-12 -58 -12 -109q0 -94 43 -162q66 -104 218 -104q164 0 269.5 113t139.5 274 q15 69 15 126q0 102 -47 165q-73 98 -210 98q-174 0 -277 -114.5t-139 -286.5zM755 1236h153l-183 -184h-98z" />
<glyph unicode="&#xd4;" horiz-adv-x="1044" d="M116 469q33 156 114.5 269.5t196.5 176t256 62.5q201 0 301 -136q67 -92 67 -224q1 -64 -15 -138q-52 -246 -215 -370.5t-349 -124.5q-205 0 -303 139q-67 96 -67 224q0 58 14 122zM246 467q-12 -58 -12 -109q0 -94 43 -162q66 -104 218 -104q164 0 269.5 113t139.5 274 q15 69 15 126q0 102 -47 165q-73 98 -210 98q-174 0 -277 -114.5t-139 -286.5zM626 1062h-134l180 184h126l107 -184h-131l-50 113z" />
<glyph unicode="&#xd5;" horiz-adv-x="1044" d="M116 469q33 156 114.5 269.5t196.5 176t256 62.5q201 0 301 -136q67 -92 67 -224q1 -64 -15 -138q-52 -246 -215 -370.5t-349 -124.5q-205 0 -303 139q-67 96 -67 224q0 58 14 122zM246 467q-12 -58 -12 -109q0 -94 43 -162q66 -104 218 -104q164 0 269.5 113t139.5 274 q15 69 15 126q0 102 -47 165q-73 98 -210 98q-174 0 -277 -114.5t-139 -286.5zM479 1068q14 70 62 110q46 40 104 40q41 0 103 -34q35 -20 57 -21q44 -1 62 57h84q-16 -74 -62 -112q-46 -36 -98 -37q-41 1 -100 37q-40 22 -61 22q-51 0 -63 -62h-88z" />
<glyph unicode="&#xd6;" horiz-adv-x="1044" d="M116 469q33 156 114.5 269.5t196.5 176t256 62.5q201 0 301 -136q67 -92 67 -224q1 -64 -15 -138q-52 -246 -215 -370.5t-349 -124.5q-205 0 -303 139q-67 96 -67 224q0 58 14 122zM246 467q-12 -58 -12 -109q0 -94 43 -162q66 -104 218 -104q164 0 269.5 113t139.5 274 q15 69 15 126q0 102 -47 165q-73 98 -210 98q-174 0 -277 -114.5t-139 -286.5zM541 1185h123l-28 -134h-124zM784 1185h124l-29 -134h-123z" />
<glyph unicode="&#xd7;" horiz-adv-x="784" d="M387 473l-161 207l97 80l161 -205l250 205l62 -80l-250 -205l164 -207l-97 -80l-163 208l-250 -208l-62 80z" />
<glyph unicode="&#xd8;" horiz-adv-x="1044" d="M1116 996l52 -56l-142 -129q72 -146 32 -332q-48 -227 -206 -360q-160 -135 -356 -135q-168 0 -274 102l-136 -125l-54 55l144 130q-21 45 -33.5 83.5t-17.5 73.5q-9 72 13 174q48 223 204 361q154 140 365 139q164 -1 272 -105zM881 784q-80 84 -197 84q-136 0 -254 -94 q-118 -92 -161 -295q-30 -139 8 -241zM318 172q78 -80 196 -80q144 0 260 100q114 102 152 283q30 142 -4 242z" />
<glyph unicode="&#xd9;" horiz-adv-x="968" d="M888 960h127l-118 -554q-26 -119 -69.5 -211.5t-145.5 -151.5t-250 -59q-203 0 -269 99q-39 58 -39 158q0 71 20 165l118 554h126l-118 -554q-20 -93 -19 -159q0 -67 49 -108q48 -41 146 -41q138 0 212 64t112 244zM708 1052h-96l-110 182h155z" />
<glyph unicode="&#xda;" horiz-adv-x="968" d="M888 960h127l-118 -554q-26 -119 -69.5 -211.5t-145.5 -151.5t-250 -59q-203 0 -269 99q-39 58 -39 158q0 71 20 165l118 554h126l-118 -554q-20 -93 -19 -159q0 -67 49 -108q48 -41 146 -41q138 0 212 64t112 244zM676 1236h153l-183 -184h-98z" />
<glyph unicode="&#xdb;" horiz-adv-x="968" d="M888 960h127l-118 -554q-26 -119 -69.5 -211.5t-145.5 -151.5t-250 -59q-203 0 -269 99q-39 58 -39 158q0 71 20 165l118 554h126l-118 -554q-20 -93 -19 -159q0 -67 49 -108q48 -41 146 -41q138 0 212 64t112 244zM574 1052h-134l180 184h126l107 -184h-131l-50 113z " />
<glyph unicode="&#xdc;" horiz-adv-x="968" d="M888 960h127l-118 -554q-26 -119 -69.5 -211.5t-145.5 -151.5t-250 -59q-203 0 -269 99q-39 58 -39 158q0 71 20 165l118 554h126l-118 -554q-20 -93 -19 -159q0 -67 49 -108q48 -41 146 -41q138 0 212 64t112 244zM493 1185h123l-28 -134h-124zM736 1185h124l-29 -134 h-123z" />
<glyph unicode="&#xdd;" horiz-adv-x="895" d="M326 0l86 408l-253 552h153l130 -288q33 -78 63 -164q60 78 141 170l246 282h148l-500 -552l-87 -408h-127zM676 1236h153l-183 -184h-98z" />
<glyph unicode="&#xde;" horiz-adv-x="895" d="M284 960h126l-41 -194h235q124 0 192 -22q70 -20 104 -90q36 -68 16 -166q-24 -116 -119 -204q-93 -90 -304 -90h-245l-42 -194h-126zM520 309q228 1 264 175q14 64 -10 104q-24 43 -61 53q-37 11 -125 11h-244l-72 -343h248z" />
<glyph unicode="&#xdf;" horiz-adv-x="819" d="M214 656q22 98 56 161q32 66 112 113q78 47 182 47q110 1 164 -55t37 -134q-14 -68 -86 -155q-62 -82 -69 -111q-6 -24 6 -45q6 -10 23 -25.5t41 -33.5q95 -74 110 -119q16 -45 6 -94q-17 -80 -93 -152q-75 -69 -193 -69q-84 0 -136 42q-52 46 -68 116l110 46 q34 -106 112 -106q50 0 92 32q44 34 54 80q8 37 -4 58q-12 22 -65 64q-99 80 -113 116q-16 39 -8 72q10 47 79 135q79 96 87 137q9 41 -22 72q-28 32 -89 32q-71 0 -125 -44q-54 -43 -84 -187l-138 -649h-116z" />
<glyph unicode="&#xe0;" d="M512 86q-140 -102 -278 -102q-98 0 -158 49q-43 36 -43 100q0 23 6 51q14 70 60.5 116t104.5 68t154 34q148 16 220 40q12 56 11 85q-1 6 -1 12q-3 29 -35.5 52t-106.5 23q-72 0 -121 -26q-49 -24 -87 -106l-112 16q88 212 359 212q112 0 165 -30.5t61 -80.5q2 -14 2 -31 q1 -46 -15 -120l-63 -304q-7 -32 -7 -63q0 -42 13 -81h-125q-7 24 -7 52q1 16 3 34zM557 348q-71 -26 -201 -43q-116 -16 -150 -49q-34 -34 -42 -70q-3 -16 -3 -29q-1 -81 121 -81q217 0 266 229zM550 782h-96l-110 182h155z" />
<glyph unicode="&#xe1;" d="M512 86q-140 -102 -278 -102q-98 0 -158 49q-43 36 -43 100q0 23 6 51q14 70 60.5 116t104.5 68t154 34q148 16 220 40q12 56 11 85q-1 6 -1 12q-3 29 -35.5 52t-106.5 23q-72 0 -121 -26q-49 -24 -87 -106l-112 16q88 212 359 212q112 0 165 -30.5t61 -80.5q2 -14 2 -31 q1 -46 -15 -120l-63 -304q-7 -32 -7 -63q0 -42 13 -81h-125q-7 24 -7 52q1 16 3 34zM557 348q-71 -26 -201 -43q-116 -16 -150 -49q-34 -34 -42 -70q-3 -16 -3 -29q-1 -81 121 -81q217 0 266 229zM548 966h153l-183 -184h-98z" />
<glyph unicode="&#xe2;" d="M512 86q-140 -102 -278 -102q-98 0 -158 49q-43 36 -43 100q0 23 6 51q14 70 60.5 116t104.5 68t154 34q148 16 220 40q12 56 11 85q-1 6 -1 12q-3 29 -35.5 52t-106.5 23q-72 0 -121 -26q-49 -24 -87 -106l-112 16q88 212 359 212q112 0 165 -30.5t61 -80.5q2 -14 2 -31 q1 -46 -15 -120l-63 -304q-7 -32 -7 -63q0 -42 13 -81h-125q-7 24 -7 52q1 16 3 34zM557 348q-71 -26 -201 -43q-116 -16 -150 -49q-34 -34 -42 -70q-3 -16 -3 -29q-1 -81 121 -81q217 0 266 229zM416 782h-134l180 184h126l107 -184h-131l-50 113z" />
<glyph unicode="&#xe3;" d="M512 86q-140 -102 -278 -102q-98 0 -158 49q-43 36 -43 100q0 23 6 51q14 70 60.5 116t104.5 68t154 34q148 16 220 40q12 56 11 85q-1 6 -1 12q-3 29 -35.5 52t-106.5 23q-72 0 -121 -26q-49 -24 -87 -106l-112 16q88 212 359 212q112 0 165 -30.5t61 -80.5q2 -14 2 -31 q1 -46 -15 -120l-63 -304q-7 -32 -7 -63q0 -42 13 -81h-125q-7 24 -7 52q1 16 3 34zM557 348q-71 -26 -201 -43q-116 -16 -150 -49q-34 -34 -42 -70q-3 -16 -3 -29q-1 -81 121 -81q217 0 266 229zM268 798q14 70 62 110q46 40 104 40q41 0 103 -34q35 -20 57 -21 q44 -1 62 57h84q-16 -74 -62 -112q-46 -36 -98 -37q-41 1 -100 37q-40 22 -61 22q-51 0 -63 -62h-88z" />
<glyph unicode="&#xe4;" d="M512 86q-140 -102 -278 -102q-98 0 -158 49q-43 36 -43 100q0 23 6 51q14 70 60.5 116t104.5 68t154 34q148 16 220 40q12 56 11 85q-1 6 -1 12q-3 29 -35.5 52t-106.5 23q-72 0 -121 -26q-49 -24 -87 -106l-112 16q88 212 359 212q112 0 165 -30.5t61 -80.5q2 -14 2 -31 q1 -46 -15 -120l-63 -304q-7 -32 -7 -63q0 -42 13 -81h-125q-7 24 -7 52q1 16 3 34zM557 348q-71 -26 -201 -43q-116 -16 -150 -49q-34 -34 -42 -70q-3 -16 -3 -29q-1 -81 121 -81q217 0 266 229zM345 966h123l-28 -134h-124zM588 966h124l-29 -134h-123z" />
<glyph unicode="&#xe5;" d="M512 86q-140 -102 -278 -102q-98 0 -158 49q-43 36 -43 100q0 23 6 51q14 70 60.5 116t104.5 68t154 34q148 16 220 40q12 56 11 85q-1 6 -1 12q-3 29 -35.5 52t-106.5 23q-72 0 -121 -26q-49 -24 -87 -106l-112 16q88 212 359 212q112 0 165 -30.5t61 -80.5q2 -14 2 -31 q1 -46 -15 -120l-63 -304q-7 -32 -7 -63q0 -42 13 -81h-125q-7 24 -7 52q1 16 3 34zM557 348q-71 -26 -201 -43q-116 -16 -150 -49q-34 -34 -42 -70q-3 -16 -3 -29q-1 -81 121 -81q217 0 266 229zM384 1002q-4 -18 -1.5 -34t12.5 -27t24.5 -17t30.5 -6t33 6t30 17t23 27 t13 34q4 16 1 31t-12 27q-8 12 -22 18q-16 6 -32 6t-32.5 -6.5t-31 -18t-23.5 -26.5t-13 -31zM308 1002q7 32 24.5 62t43.5 52t58 35q34 13 68 13q33 0 59.5 -13t44.5 -35t24 -52t-1 -62q-8 -35 -26.5 -64.5t-45.5 -52.5t-59 -35t-66 -12t-61 12t-44 35t-22 52.5t3 64.5z " />
<glyph unicode="&#xe6;" horiz-adv-x="1194" d="M1156 213q-56 -110 -148 -170q-96 -59 -208 -59q-162 0 -230 130q-158 -130 -316 -130q-123 0 -167 63q-45 63 -29 135q16 74 85 138q67 62 271 86q54 8 97 16t75 16l6 27q18 83 -10 115q-26 34 -112 34q-70 0 -124 -22t-92 -113l-111 15q87 218 347 218q180 0 222 -94 q106 94 244 94q156 0 210 -108q52 -108 24 -246l-10 -40h-503q-17 -88 -7 -134q13 -46 55 -74q45 -28 101 -28q142 0 212 148zM1081 416q26 198 -146 198q-91 0 -157 -59q-64 -59 -80 -139h383zM568 348q-116 -34 -239 -51q-125 -19 -145 -111q-10 -48 19 -78q27 -30 93 -30 q78 0 142 38t84 80q22 44 46 152z" />
<glyph unicode="&#xe7;" horiz-adv-x="671" d="M572 256l113 -16q-44 -118 -136.5 -187t-208.5 -69q-150 0 -212 96t-26 266q40 188 149 276t243 88q236 0 232 -218l-118 -19q-4 141 -128 141q-202 0 -258 -266t136 -266q152 0 214 174zM298 14h86l-36 -70q54 -6 77 -32q23 -28 15 -64q-10 -48 -65 -86 q-53 -38 -151 -38q-48 0 -94 8l26 78l60 -4q104 0 115 48q9 46 -93 46z" />
<glyph unicode="&#xe8;" d="M563 223l118 -14q-108 -225 -353 -225q-94 0 -159 37t-94 116q-15 42 -15 96q0 49 12 109q22 106 76 189t138 131t191 48q110 0 171.5 -54t73.5 -133q4 -25 4 -55q0 -64 -18 -150h-520q-4 -29 -4 -54q0 -70 31 -118q42 -64 134 -64q133 0 214 141zM216 414h388q3 25 3 46 q1 67 -31 104q-42 50 -120 50q-82 0 -149 -55t-91 -145zM544 782h-96l-110 182h155z" />
<glyph unicode="&#xe9;" d="M563 223l118 -14q-108 -225 -353 -225q-94 0 -159 37t-94 116q-15 42 -15 96q0 49 12 109q22 106 76 189t138 131t191 48q110 0 171.5 -54t73.5 -133q4 -25 4 -55q0 -64 -18 -150h-520q-4 -29 -4 -54q0 -70 31 -118q42 -64 134 -64q133 0 214 141zM216 414h388q3 25 3 46 q1 67 -31 104q-42 50 -120 50q-82 0 -149 -55t-91 -145zM542 966h153l-183 -184h-98z" />
<glyph unicode="&#xea;" d="M563 223l118 -14q-108 -225 -353 -225q-94 0 -159 37t-94 116q-15 42 -15 96q0 49 12 109q22 106 76 189t138 131t191 48q110 0 171.5 -54t73.5 -133q4 -25 4 -55q0 -64 -18 -150h-520q-4 -29 -4 -54q0 -70 31 -118q42 -64 134 -64q133 0 214 141zM216 414h388q3 25 3 46 q1 67 -31 104q-42 50 -120 50q-82 0 -149 -55t-91 -145zM416 782h-134l180 184h126l107 -184h-131l-50 113z" />
<glyph unicode="&#xeb;" d="M563 223l118 -14q-108 -225 -353 -225q-94 0 -159 37t-94 116q-15 42 -15 96q0 49 12 109q22 106 76 189t138 131t191 48q110 0 171.5 -54t73.5 -133q4 -25 4 -55q0 -64 -18 -150h-520q-4 -29 -4 -54q0 -70 31 -118q42 -64 134 -64q133 0 214 141zM216 414h388q3 25 3 46 q1 67 -31 104q-42 50 -120 50q-82 0 -149 -55t-91 -145zM339 966h123l-28 -134h-124zM582 966h124l-29 -134h-123z" />
<glyph unicode="&#xec;" horiz-adv-x="372" d="M228 696h119l-148 -696h-119zM396 782h-96l-110 182h155z" />
<glyph unicode="&#xed;" horiz-adv-x="372" d="M228 696h119l-148 -696h-119zM364 966h153l-183 -184h-98z" />
<glyph unicode="&#xee;" horiz-adv-x="372" d="M228 696h119l-148 -696h-119zM242 782h-134l180 184h126l107 -184h-131l-50 113z" />
<glyph unicode="&#xef;" horiz-adv-x="372" d="M228 696h119l-148 -696h-119zM171 966h123l-28 -134h-124zM414 966h124l-29 -134h-123z" />
<glyph unicode="&#xf0;" d="M523 960q21 -18 37 -34l31 -31l153 65l17 -65l-125 -55q158 -242 104 -498q-36 -168 -146 -262q-110 -96 -252 -96q-88 0 -149 34.5t-95 110.5q-34 74 -4 211q36 172 142 264q104 92 231 92q70 0 131 -38q-24 86 -65 138l-195 -81l-18 65l174 74q-48 54 -112 106h141z M618 346q30 140 -22 199q-52 61 -128 61q-82 0 -153 -66q-72 -66 -101 -204q-27 -126 17 -192q43 -64 129 -64q84 0 158 68q72 70 100 198z" />
<glyph unicode="&#xf1;" d="M39 0l148 696h107l-22 -98q100 112 246 112q94 0 139.5 -35.5t52.5 -90.5q2 -13 1 -29q0 -50 -16 -127l-91 -428h-116l90 424q8 40 8 71q0 115 -114 115q-184 0 -234 -229l-80 -381h-119zM272 798q14 70 62 110q46 40 104 40q41 0 103 -34q35 -20 57 -21q44 -1 62 57h84 q-16 -74 -62 -112q-46 -36 -98 -37q-41 1 -100 37q-40 22 -61 22q-51 0 -63 -62h-88z" />
<glyph unicode="&#xf2;" d="M70 348q42 194 159 278t243 84q150 0 218 -96q45 -64 45 -156q1 -46 -11 -100q-41 -192 -155 -283q-113 -91 -251 -91q-170 0 -226 106q-35 67 -34 153q0 49 12 105zM190 348q-11 -50 -10 -91q0 -60 22 -103q38 -72 136 -72q102 0 170 77t93 193q9 43 9 81q0 55 -19 103 q-32 78 -139 78q-102 0 -170 -75.5t-92 -190.5zM522 782h-96l-110 182h155z" />
<glyph unicode="&#xf3;" d="M70 348q42 194 159 278t243 84q150 0 218 -96q45 -64 45 -156q1 -46 -11 -100q-41 -192 -155 -283q-113 -91 -251 -91q-170 0 -226 106q-35 67 -34 153q0 49 12 105zM190 348q-11 -50 -10 -91q0 -60 22 -103q38 -72 136 -72q102 0 170 77t93 193q9 43 9 81q0 55 -19 103 q-32 78 -139 78q-102 0 -170 -75.5t-92 -190.5zM555 966h153l-183 -184h-98z" />
<glyph unicode="&#xf4;" d="M70 348q42 194 159 278t243 84q150 0 218 -96q45 -64 45 -156q1 -46 -11 -100q-41 -192 -155 -283q-113 -91 -251 -91q-170 0 -226 106q-35 67 -34 153q0 49 12 105zM190 348q-11 -50 -10 -91q0 -60 22 -103q38 -72 136 -72q102 0 170 77t93 193q9 43 9 81q0 55 -19 103 q-32 78 -139 78q-102 0 -170 -75.5t-92 -190.5zM416 782h-134l180 184h126l107 -184h-131l-50 113z" />
<glyph unicode="&#xf5;" d="M70 348q42 194 159 278t243 84q150 0 218 -96q45 -64 45 -156q1 -46 -11 -100q-41 -192 -155 -283q-113 -91 -251 -91q-170 0 -226 106q-35 67 -34 153q0 49 12 105zM190 348q-11 -50 -10 -91q0 -60 22 -103q38 -72 136 -72q102 0 170 77t93 193q9 43 9 81q0 55 -19 103 q-32 78 -139 78q-102 0 -170 -75.5t-92 -190.5zM268 798q14 70 62 110q46 40 104 40q41 0 103 -34q35 -20 57 -21q44 -1 62 57h84q-16 -74 -62 -112q-46 -36 -98 -37q-41 1 -100 37q-40 22 -61 22q-51 0 -63 -62h-88z" />
<glyph unicode="&#xf6;" d="M70 348q42 194 159 278t243 84q150 0 218 -96q45 -64 45 -156q1 -46 -11 -100q-41 -192 -155 -283q-113 -91 -251 -91q-170 0 -226 106q-35 67 -34 153q0 49 12 105zM190 348q-11 -50 -10 -91q0 -60 22 -103q38 -72 136 -72q102 0 170 77t93 193q9 43 9 81q0 55 -19 103 q-32 78 -139 78q-102 0 -170 -75.5t-92 -190.5zM345 966h123l-28 -134h-124zM588 966h124l-29 -134h-123z" />
<glyph unicode="&#xf7;" horiz-adv-x="737" d="M433 740h133l-29 -136h-133zM115 420l23 108h633l-23 -108h-633zM348 342h134l-29 -133h-133z" />
<glyph unicode="&#xf8;" horiz-adv-x="819" d="M802 740l53 -48l-89 -90q56 -94 22 -256q-24 -112 -78 -192t-141 -126q-87 -44 -185 -44q-108 0 -172 53l-88 -88l-52 47l91 90q-63 92 -29 252q42 202 162 288q118 86 240 86q96 0 184 -56zM634 568q-52 46 -115 46q-85 0 -159 -67q-74 -66 -102 -199q-20 -98 -1 -166z M296 123q40 -41 106 -41q80 0 158 60q76 59 107 206q19 90 3 158z" />
<glyph unicode="&#xf9;" d="M496 0l22 102q-108 -118 -248 -118q-92 0 -138 38t-52 92q-2 14 -2 30q0 48 15 120l92 432h119l-82 -387q-18 -81 -21 -123v-8q0 -37 26 -63q28 -29 88 -29q88 0 148.5 51t88.5 187l80 372h116l-148 -696h-104zM542 782h-96l-110 182h155z" />
<glyph unicode="&#xfa;" d="M496 0l22 102q-108 -118 -248 -118q-92 0 -138 38t-52 92q-2 14 -2 30q0 48 15 120l92 432h119l-82 -387q-18 -81 -21 -123v-8q0 -37 26 -63q28 -29 88 -29q88 0 148.5 51t88.5 187l80 372h116l-148 -696h-104zM528 966h153l-183 -184h-98z" />
<glyph unicode="&#xfb;" d="M496 0l22 102q-108 -118 -248 -118q-92 0 -138 38t-52 92q-2 14 -2 30q0 48 15 120l92 432h119l-82 -387q-18 -81 -21 -123v-8q0 -37 26 -63q28 -29 88 -29q88 0 148.5 51t88.5 187l80 372h116l-148 -696h-104zM406 782h-134l180 184h126l107 -184h-131l-50 113z" />
<glyph unicode="&#xfc;" d="M496 0l22 102q-108 -118 -248 -118q-92 0 -138 38t-52 92q-2 14 -2 30q0 48 15 120l92 432h119l-82 -387q-18 -81 -21 -123v-8q0 -37 26 -63q28 -29 88 -29q88 0 148.5 51t88.5 187l80 372h116l-148 -696h-104zM335 966h123l-28 -134h-124zM578 966h124l-29 -134h-123z " />
<glyph unicode="&#xfd;" horiz-adv-x="671" d="M-22 -268l9 110q36 -10 65 -10q58 0 89 27t91 135l3 4l-115 698h128l58 -403q12 -84 16 -162q36 80 84 160l234 405h118l-414 -708q-93 -158 -152.5 -214t-141.5 -56q-34 0 -72 14zM510 966h153l-183 -184h-98z" />
<glyph unicode="&#xfe;" d="M267 960h119l-72 -338q98 90 210 90q138 0 196 -100q56 -100 22 -260q-35 -166 -143 -266q-106 -102 -239 -102q-47 0 -84 16q-38 16 -79 72l-72 -338h-119zM242 344q-28 -132 14 -198q42 -64 117 -64q70 0 144 60q73 64 105 212q32 145 -16 205q-45 59 -113 59 q-69 0 -143 -63q-78 -63 -108 -211z" />
<glyph unicode="&#xff;" horiz-adv-x="671" d="M-22 -268l9 110q36 -10 65 -10q58 0 89 27t91 135l3 4l-115 698h128l58 -403q12 -84 16 -162q36 80 84 160l234 405h118l-414 -708q-93 -158 -152.5 -214t-141.5 -56q-34 0 -72 14zM317 966h123l-28 -134h-124zM560 966h124l-29 -134h-123z" />
<glyph unicode="&#x131;" horiz-adv-x="372" d="M252 696h119l-148 -696h-119z" />
<glyph unicode="&#x152;" horiz-adv-x="1341" d="M1274 0h-564l30 140q-122 -156 -298 -156q-186 0 -257 137q-70 135 -22 361q45 216 167 354q124 142 324 141q174 1 232 -145l28 128h545l-24 -112h-426l-63 -293h392l-24 -115h-392l-70 -328h445zM632 874q-100 0 -198 -90q-97 -90 -144 -313q-43 -202 15 -295 q56 -90 159 -90q94 0 192 84q100 86 150 318q42 200 -14 292q-54 94 -160 94z" />
<glyph unicode="&#x153;" horiz-adv-x="1267" d="M640 114q-126 -130 -288 -130q-90 0 -154 37t-94 114q-30 80 -4 205q38 182 150 276q110 96 259 96q172 0 230 -132q120 132 284 132q144 0 211 -98q66 -98 24 -296h-514q-20 -94 18 -166q38 -70 140 -70q134 0 210 146l116 -17q-110 -227 -350 -227q-182 0 -238 130z M222 348q-28 -134 18 -200t131 -66q83 0 157 68q76 70 104 200q28 134 -18 199t-130 65t-158 -67q-76 -68 -104 -199zM1154 414q18 86 -22 143q-42 57 -124 57q-90 0 -156 -61q-65 -61 -81 -139h383z" />
<glyph unicode="&#x160;" horiz-adv-x="895" d="M78 309l120 11q-1 -14 -1 -28q0 -93 58 -140q65 -54 181 -54q118 0 188 48t84 114q4 17 4 31q0 47 -36 75q-48 36 -222 78q-174 43 -224 111q-36 49 -37 110q-1 23 5 47q28 129 142 197t252 68q178 0 250 -82q56 -64 56 -153q0 -25 -4 -52l-124 -10q2 16 1 31 q0 153 -196 153q-222 0 -252 -143q-3 -14 -3 -27q0 -40 30 -64q40 -32 170 -62q128 -31 195 -58.5t102 -89.5q23 -40 23 -91q0 -29 -6 -59q-28 -136 -149 -211t-269 -75q-202 0 -284 92q-61 69 -61 164q0 33 7 69zM730 1236h133l-184 -184h-127l-103 184h136l50 -112z" />
<glyph unicode="&#x161;" horiz-adv-x="671" d="M36 207l120 19q-1 -8 -1 -17q0 -127 151 -127q160 0 183 110q2 10 2 19q0 25 -18 40q-23 20 -117 44q-101 26 -148.5 45.5t-73.5 63.5q-18 29 -18 67q0 19 5 41q18 86 98.5 142t200.5 56q236 0 235 -176q-1 -9 -1 -18l-120 -16q1 7 1 13q0 101 -128 101q-152 0 -171 -90 q-7 -35 15.5 -53.5t126.5 -48.5q116 -33 156 -50q40 -18 66 -62q17 -29 17 -66q0 -19 -4 -39q-22 -100 -112.5 -160.5t-215.5 -60.5q-250 0 -250 212q1 5 1 11zM542 966h133l-184 -184h-127l-103 184h136l50 -112z" />
<glyph unicode="&#x178;" horiz-adv-x="895" d="M326 0l86 408l-253 552h153l130 -288q33 -78 63 -164q60 78 141 170l246 282h148l-500 -552l-87 -408h-127zM461 1183h123l-28 -134h-124zM704 1183h124l-29 -134h-123z" />
<glyph unicode="&#x17d;" horiz-adv-x="819" d="M-22 0l24 119l748 729h-537l24 112h688l-24 -112l-755 -736h615l-23 -112h-760zM713 1212h133l-184 -184h-127l-103 184h136l50 -112z" />
<glyph unicode="&#x17e;" horiz-adv-x="671" d="M-22 0l20 96l550 508q-76 -4 -134 -4h-282l20 96h568l-18 -78l-558 -522q81 6 148 6h322l-22 -102h-614zM556 966h133l-184 -184h-127l-103 184h136l50 -112z" />
<glyph unicode="&#x192;" d="M-7 -164l57 -10q24 -4 40 -4q38 0 60 20q20 18 45 78l261 684h-132l36 92h132l34 86q14 36 27 63l23 46q24 33 68 59q44 28 108 29q54 -1 136 -27l-44 -98q-62 14 -96 14q-35 0 -60 -18q-22 -16 -49 -86l-27 -68h134l-37 -92h-135l-276 -714q-38 -98 -86 -136 q-48 -36 -122 -36q-64 0 -140 18z" />
<glyph unicode="&#x2c6;" horiz-adv-x="446" d="M292 782h-134l180 184h126l107 -184h-131l-50 113z" />
<glyph unicode="&#x2c7;" horiz-adv-x="446" d="M487 966h133l-184 -184h-127l-103 184h136l50 -112z" />
<glyph unicode="&#x2d8;" horiz-adv-x="317" d="M254 1067q-2 -20 4 -37.5t17.5 -30t29 -18.5t37.5 -6t40 6t37 18.5t30 29.5t19 38h92q-4 -18 -13 -40.5t-22.5 -44.5t-33.5 -43t-45 -38t-56.5 -26t-71.5 -9q-38 0 -66 9t-46 26t-27.5 38t-14 43t-3.5 44t5 41h88z" />
<glyph unicode="&#x2d9;" horiz-adv-x="317" d="M436 1044l-36 -170h-160l37 170h159z" />
<glyph unicode="&#x2da;" horiz-adv-x="317" d="M264 1002q-4 -18 -1.5 -34t12.5 -27t24.5 -17t30.5 -6t33 6t30 17t23 27t13 34q4 16 1 31t-12 27q-8 12 -22 18q-16 6 -32 6t-32.5 -6.5t-31 -18t-23.5 -26.5t-13 -31zM188 1002q7 32 24.5 62t43.5 52t58 35q34 13 68 13q33 0 59.5 -13t44.5 -35t24 -52t-1 -62 q-8 -35 -26.5 -64.5t-45.5 -52.5t-59 -35t-66 -12t-61 12t-44 35t-22 52.5t3 64.5z" />
<glyph unicode="&#x2db;" horiz-adv-x="317" d="M242 -284q-16 -8 -36 -14l-44 -10q-23 -5 -43.5 -7.5t-38.5 -2.5q-39 0 -63.5 11.5t-37 29t-14 39.5t4.5 46q13 64 67.5 114t148.5 78h96q-54 -28 -87.5 -53t-53 -44t-29.5 -37t-14 -34q-5 -24 7.5 -41t38.5 -17q24 0 44 6.5t44 16.5z" />
<glyph unicode="&#x2dc;" horiz-adv-x="446" d="M148 798q14 70 62 110q46 40 104 40q41 0 103 -34q35 -20 57 -21q44 -1 62 57h84q-16 -74 -62 -112q-46 -36 -98 -37q-41 1 -100 37q-40 22 -61 22q-51 0 -63 -62h-88z" />
<glyph unicode="&#x2dd;" horiz-adv-x="317" d="M464 1067h198l-184 -205h-136zM226 1067h198l-184 -205h-131z" />
<glyph unicode="&#x3a9;" horiz-adv-x="1102" d="M448 0h-424l50 234h24q0 -26 5 -44t14 -27t25 -12t40 -3h213l5 20q-54 16 -93 37t-66 45q-26 24 -44 59t-26.5 75t-8.5 84t8 87q24 108 100 207q40 49 90 87t108.5 64.5t124.5 39.5t138 13q74 0 132.5 -12t106.5 -38q98 -56 133 -154q18 -50 21.5 -100t-8.5 -107 q-16 -82 -72 -170q-28 -43 -59.5 -76t-70 -58t-84.5 -46t-104 -37l-5 -20h211q27 0 43.5 3t29 12t23 27l24.5 44h25l-49 -234h-424l66 203q44 16 81.5 38.5t66.5 53.5q95 102 129 262q20 90 12.5 158.5t-36.5 113.5t-80 68t-118 23q-146 0 -232 -82q-111 -98 -149 -279 q-22 -104 -11 -181t53 -122q12 -16 33 -28.5t49 -24.5z" />
<glyph unicode="&#x3c0;" horiz-adv-x="725" d="M808 641l-22 -103h-164l-60 -210q-8 -28 -14 -52t-10 -44q-10 -49 -10 -79.5t6 -42.5q20 -20 52 -20q68 0 97 84h25q-62 -188 -194 -188q-30 0 -54 8t-37.5 26.5t-18 46t3.5 64.5l19 75.5t39 131.5l62 200h-148q-36 -130 -64 -220l-50 -152q-46 -118 -79 -152 q-16 -14 -33.5 -21t-40.5 -7q-14 0 -27.5 4t-22 12t-12 19.5t-1.5 27.5q6 29 56 80q34 37 63 75t53 80q22 39 46 102.5t48 151.5h-49q-28 0 -50 -6t-41 -19t-37.5 -31t-34.5 -42h-28q20 36 39 67t41 56t41 40t38 23q18 8 48.5 11.5t75.5 3.5h449z" />
<glyph unicode="&#xe00;" horiz-adv-x="205" />
<glyph unicode="&#xe01;" horiz-adv-x="776" d="M758 0h-136l119 561q32 154 -166 154q-103 1 -167 -43q73 -30 112 -82q-64 -20 -114 -73t-62 -111l-86 -406h-136l89 418q25 118 129 166q-54 52 -158 72q172 170 408 170q342 0 285 -273z" />
<glyph unicode="&#xe02;" horiz-adv-x="887" d="M258 0l24 116h74l58 273q10 45 74 137q42 64 48 92q24 110 -87 111q-45 0 -75 -8q30 0 57 -33.5t14 -93.5q-16 -74 -72.5 -113t-112.5 -39q-162 0 -126 170q24 110 118 166t201 56q114 0 173.5 -58t39.5 -154q-7 -32 -57 -114q-52 -84 -61 -123l-57 -269h135l150 703h135 l-174 -819h-479zM277 534q57 0 69 58q12 57 -45 57t-69 -57q-12 -58 45 -58z" />
<glyph unicode="&#xe03;" horiz-adv-x="903" d="M547 696l-95 -57l-80 63q-27 0 -50.5 -16t-27.5 -32q72 0 99 -36t15 -92q-12 -60 -58 -96.5t-107 -36.5q-60 0 -95.5 43t-17.5 127q20 92 94 170.5t182 90.5l70 -66l106 66q142 -54 111 -200q-7 -36 -25 -63q-62 -88 -78 -115.5t-24 -60.5l-56 -269h134l150 703h136 l-174 -819h-480l24 116h74l58 273q10 45 74 133q20 29 47 80q14 53 -6 94zM282 576q-50 0 -60 -50q-11 -52 38 -51q49 -1 60 51q11 50 -38 50z" />
<glyph unicode="&#xe04;" horiz-adv-x="923" d="M425 336l-181 -336h-144l116 545q28 133 138 206t261 73q341 0 281 -279l-116 -545h-136l115 540q37 174 -169 175q-92 0 -158 -47.5t-82 -127.5l-36 -165l-26 -86l110 197q66 116 182 116q64 0 94 -40t19 -93q-16 -76 -66.5 -118t-118.5 -42q-58 0 -83 27zM558 516 q-62 0 -75 -62q-14 -64 48 -63q62 -1 75 63q14 62 -48 62z" />
<glyph unicode="&#xe05;" horiz-adv-x="936" d="M298 316l-27 -88l129 220q68 116 184 117q58 0 92 -36.5t22 -96.5q-16 -78 -69 -119t-117 -41q-52 0 -82 27l-178 -299h-156l122 574q20 94 93 169t169 85l131 -70l160 70q98 -4 139.5 -70t15.5 -184l-122 -574h-134l124 586q22 104 -56 120l-154 -71l-119 71 q-88 -16 -110 -120zM562 479q-62 0 -74 -61q-14 -64 48 -64t74 64q14 61 -48 61z" />
<glyph unicode="&#xe06;" horiz-adv-x="1034" d="M568 352q55 -2 138.5 -66t97.5 -128l142 661h135l-174 -819h-154q-28 96 -98 164t-113 68l-21 -99q-31 -145 -181 -145q-88 0 -121 49t-15 133q38 182 228 182l30 136q10 51 84 118q24 18 48 46q3 12 -8.5 28t-29.5 20l-94 -57l-81 63q-22 0 -47.5 -14t-30.5 -34 q72 0 98.5 -36t15.5 -92q-14 -68 -62.5 -100t-102.5 -32q-51 0 -92.5 39t-21.5 131t95 170t181 90l70 -66l107 66q40 -6 99 -59.5t52 -86.5q-6 -28 -69 -86q-65 -62 -77 -112zM290 580q-49 0 -59 -50q-11 -52 38 -51q49 -1 60 51q10 50 -39 50zM328 180q-10 -47 -6.5 -64.5 t26.5 -17.5q30 0 43 60l17 80q-64 0 -80 -58z" />
<glyph unicode="&#xe07;" horiz-adv-x="682" d="M405 0l-327 426l104 78l268 -350l78 368q-94 0 -138.5 31t-26.5 117q12 56 60.5 105t132.5 49q64 0 109.5 -38t24.5 -137l-138 -649h-147zM534 723q-56 1 -68 -55q-12 -58 44 -58t68 58q12 56 -44 55z" />
<glyph unicode="&#xe08;" horiz-adv-x="858" d="M119 430l22 102q30 142 152.5 217t270.5 75q172 0 235.5 -81t38.5 -198l-116 -545h-143l-49 318q-44 -26 -96 -27q-68 0 -101 37.5t-19 101.5q33 154 178 154q121 0 135 -117l25 -203l15 111l35 165q17 80 -29.5 127.5t-140.5 47.5q-222 -1 -262 -187l-22 -98h-129z M447 372q62 0 75 64q14 62 -48 62q-60 0 -74 -62q-14 -64 47 -64z" />
<glyph unicode="&#xe09;" horiz-adv-x="962" d="M610 140q-134 -88 -176 -140h-146l44 203q8 36 34 63q-41 0 -82.5 32t-25.5 110q14 68 69 107.5t118 39.5q66 0 100.5 -40.5t20.5 -102.5q-10 -44 -49 -96q-37 -50 -45 -86l-20 -95q138 115 280 174l38 179q22 106 -34.5 165t-175.5 59q-70 0 -123 -15t-89 -45t-69 -85 t-45 -106h-120q96 363 472 363q154 0 256.5 -76t70.5 -226l-45 -213l-22 -25q92 -36 70 -142q-14 -68 -60 -112t-124 -44q-58 0 -99 36t-23 118zM422 467q-57 1 -69 -57q-13 -60 44 -60q61 0 73 60q12 58 -48 57zM774 196q-58 0 -70 -59t46 -59q59 0 71 59t-47 59z" />
<glyph unicode="&#xe0a;" horiz-adv-x="889" d="M374 721q36 0 59 -39t12 -88q-16 -76 -75.5 -114t-115.5 -38q-158 0 -123 168q22 104 116.5 164t211.5 60q134 0 221 -60l22 -14l205 178l74 -78l-190 -160l77 -80l-131 -620h-479l24 116h74l72 338q16 78 54 114l122 106q-54 55 -157 55q-35 0 -73 -8zM275 534 q57 0 69 58q12 57 -45 57t-69 -57q-12 -58 45 -58zM562 448l-71 -332h135l100 474l-30 26l-74 -67q-48 -43 -60 -101z" />
<glyph unicode="&#xe0b;" horiz-adv-x="893" d="M575 704l-105 -63l-100 76q-24 0 -49 -15.5t-29 -33.5q72 0 99.5 -36t15.5 -92q-12 -59 -58.5 -95.5t-106.5 -36.5q-59 0 -95.5 44t-18.5 126q20 94 96 171t180 85l87 -74l123 76l104 -76l206 178l73 -78l-189 -160l76 -80l-131 -620h-479l24 116h74l72 338q17 80 55 114 l121 106zM578 448l-70 -332h134l101 474l-31 26l-74 -67q-18 -16 -52 -72q-4 -9 -8 -29zM280 590q-50 0 -60 -50t39 -50q50 0 60 50q11 50 -39 50z" />
<glyph unicode="&#xe0c;" horiz-adv-x="1282" d="M678 282l59 279q32 154 -166 154q-102 1 -167 -43q70 -24 112 -82q-63 -20 -113.5 -74t-62.5 -110l-24 -111q121 0 149.5 -44.5t14.5 -104.5q-12 -58 -61 -106t-131 -48q-72 0 -113 41t-21 133l53 252q25 118 129 166q-52 50 -158 72q169 170 408 170q342 0 284 -273 l-49 -231q146 -18 218 -134l134 631h135l-174 -819h-135q4 45 -39.5 111.5t-90.5 86.5q2 -24 -5 -61q-14 -64 -64 -106.5t-120 -42.5q-64 0 -103 35t-23 112q10 50 42 91.5t82 55.5zM310 92q55 0 67 58q12 56 -43 55q-56 1 -68 -55q-12 -58 44 -58zM697 84q56 0 68 58 q12 54 -44 54t-67 -54q-13 -58 43 -58z" />
<glyph unicode="&#xe0d;" horiz-adv-x="1282" d="M618 0l119 561q32 154 -166 154q-102 1 -167 -43q70 -24 112 -82q-57 -18 -109.5 -68t-66.5 -116l-24 -111q121 0 149.5 -44.5t14.5 -104.5q-12 -58 -61 -106t-131 -48q-72 0 -113 41t-21 133l53 252q25 118 129 166q-52 50 -158 72q44 53 157.5 111.5t250.5 58.5 q342 0 284 -273l-92 -437h246l149 703h135l-174 -819h-516zM310 92q55 0 67 58q12 56 -43 55q-56 1 -68 -55q-12 -58 44 -58zM987 -84h125q-25 -116 -141.5 -198t-252.5 -82q-82 0 -132.5 35.5t-33.5 115.5q14 64 62 100.5t110 36.5q68 0 95 -40t17 -89q-6 -26 -19 -43 q53 0 103.5 43t66.5 121zM706 -156q-56 0 -68 -55t44 -55q55 0 67 55t-43 55z" />
<glyph unicode="&#xe0e;" horiz-adv-x="993" d="M677 -184l159 745q32 154 -167 154q-103 1 -167 -43q69 -24 112 -82q-129 -38 -160 -184l-53 -248q-20 -92 -79.5 -133t-129.5 -41q-74 0 -107 44t-19 109q12 60 59 104.5t169 44.5l28 132q28 132 113 166q-53 50 -159 72q34 47 152 108.5t256 61.5q342 0 285 -273 l-167 -783l-228 -204l-228 139q-54 -143 -204 -143q-82 0 -117 48t-19 120q16 78 72 121t130 43q51 0 82 -19l18 55h129l-3 -12q-8 -34 -34 -96l172 -106zM214 84q56 0 68 58q12 54 -44 54q-55 0 -67 -54q-12 -58 43 -58zM184 -211q-60 1 -72 -61q-13 -60 46 -60q60 0 72 60 q14 62 -46 61z" />
<glyph unicode="&#xe0f;" horiz-adv-x="1001" d="M694 -188l160 749q32 154 -166 154q-102 1 -167 -43q65 -22 111 -82q-130 -40 -160 -184l-52 -248q-20 -92 -79 -133t-131 -41t-106 44t-20 109q12 60 59.5 104.5t168.5 44.5l28 132q28 132 114 166q-55 52 -160 72q172 170 409 170q343 0 285 -273l-167 -783l-229 -206 l-98 127l-143 -127l-77 118q-16 -47 -69 -80.5t-113 -33.5q-64 0 -108 42t-27 122t74 123t133 43q49 0 78 -19l18 55h129l-3 -14q-8 -43 -28 -86l-10 -22l50 -64l126 100l86 -112zM232 84q56 0 68 58q12 54 -44 54q-54 0 -66 -54q-12 -58 42 -58zM136 -207q-60 1 -73 -61 q-12 -60 47 -60q60 0 72 60q14 62 -46 61z" />
<glyph unicode="&#xe10;" horiz-adv-x="817" d="M387 176q-27 -22 -81 -22q-148 0 -114 155q13 62 65.5 101.5t112.5 39.5q129 0 131 -134l3 -200h44l82 248q11 51 9.5 75t-23.5 45.5t-85 37.5t-159 16q-110 0 -205 -20q34 162 109.5 232.5t211.5 70.5q22 0 96 -6q76 -6 99 -6q54 0 69.5 10.5t25.5 56.5h132 q-19 -90 -56.5 -132t-149.5 -42q-6 0 -118 6l-36 2q-84 4 -88 5q-108 0 -124 -78q55 8 112 8q174 0 263 -57.5t65 -169.5q-5 -26 -16 -58l-126 -360h-246zM348 360q-58 0 -70 -59t45 -59q60 0 72 59q13 59 -47 59zM167 -522l-90 98q-18 -41 -70.5 -75.5t-102.5 -34.5 q-58 0 -92 41t-18 116q16 78 72 117t111 39q37 -1 63 -13q22 62 24 74l14 68h129q-20 -92 -46 -158l-15 -36q26 -32 53 -84l74 58l83 -75q14 -13 38 -13q30 0 36 28l10 44q-154 0 -126 130q10 45 52 89.5t114 44.5q64 0 96 -45t14 -129l-25 -116q-34 -158 -183 -158 q-39 0 -62 16l-65 50zM462 -146q-51 0 -62 -50q-11 -52 40 -52q52 0 62 52q12 50 -40 50zM-118 -381q-12 -57 43 -57q63 0 77 66q12 58 -42 58q-64 0 -78 -67z" />
<glyph unicode="&#xe11;" horiz-adv-x="1114" d="M578 662q2 12 -8 25t-22 13l-97 -59l-81 63q-58 0 -78 -48q72 0 99 -36t15 -92q-12 -60 -58 -96t-106 -36q-62 0 -97 44t-17 125q20 96 97 173.5t179 87.5l70 -66l106 66q33 0 86.5 -43t65.5 -101q-2 -6 -50 -60q-58 -62 -73.5 -83t-23.5 -57l-29 -136l-21 -72l363 545 h86q74 0 108 -52t16 -136l-134 -631h-134l136 643q12 59 -26 59l-467 -702h-135l102 486q4 22 19 53t109 123zM280 578q-50 0 -60 -50q-12 -52 38 -51q48 -1 60 51q10 50 -38 50z" />
<glyph unicode="&#xe12;" horiz-adv-x="1284" d="M748 706l-153 -71l-120 71q-33 -2 -66 -34t-44 -86l-93 -440l202 159q-96 24 -75 129q15 70 69 111t116 41q57 0 96.5 -37t23.5 -113q-15 -70 -92 -135l-358 -301h-148l122 574q20 94 93 169t169 85l132 -70l160 70q102 -4 140 -72t14 -182l-60 -281q56 0 109 -33.5 t75 -71.5l134 631h134l-174 -819h-140q0 43 -40 102.5t-82 69.5q6 -14 -2 -51q-10 -45 -58 -93t-126 -48q-59 0 -100 40t-25 115q13 62 54 106.5t107 51.5l62 293q22 104 -56 120zM565 502q-63 0 -75 -62q-14 -64 48 -63q62 -1 76 63q14 62 -49 62zM724 78q56 0 68 57 q12 55 -44 55q-54 0 -66 -55q-12 -57 42 -57z" />
<glyph unicode="&#xe13;" horiz-adv-x="1278" d="M1296 819l-98 -463l-60 -36q59 -4 84.5 -53t11.5 -113q-16 -72 -74 -119t-129 -47q-64 0 -109.5 36t-33.5 109q-16 -6 -72 -63.5t-65 -69.5h-135l119 561q32 154 -166 154q-102 1 -167 -43q66 -20 112 -82q-72 -22 -119 -79t-57 -105l-24 -111q121 0 149.5 -44.5 t14.5 -104.5q-12 -58 -61 -106t-131 -48q-72 0 -113 41t-21 133l53 252q25 118 129 166q-52 50 -158 72q44 55 158.5 112.5t249.5 57.5q342 0 284 -273l-78 -367q144 118 276 186l94 447h136zM1076 221q-64 1 -77 -63q-14 -66 50 -66q65 0 79 66q14 64 -52 63zM308 92 q55 0 67 58q12 56 -43 55q-56 1 -68 -55q-12 -58 44 -58z" />
<glyph unicode="&#xe14;" horiz-adv-x="938" d="M471 340q-96 22 -72 133q14 66 65.5 107.5t119.5 41.5q64 0 100 -37.5t20 -109.5q-14 -66 -92 -137l-366 -338h-148l116 545q28 131 143 205t268 74q180 0 251.5 -77t45.5 -202l-116 -545h-134l114 540q38 174 -182 175q-90 0 -164 -43.5t-92 -131.5l-82 -382zM564 538 q-62 0 -74 -61q-14 -63 48 -63t74 63q14 61 -48 61z" />
<glyph unicode="&#xe15;" horiz-adv-x="938" d="M740 706l-154 -71l-119 71q-88 -16 -110 -120l-93 -440l202 159q-98 22 -76 129q14 66 66 109t120 43q60 0 98 -37t22 -113q-14 -70 -92 -135l-358 -301h-148l122 574q20 94 94 169t168 85l131 -70l160 70q98 -4 139.5 -70t15.5 -184l-122 -574h-134l124 586 q22 104 -56 120zM556 502q-62 0 -74 -62q-14 -64 48 -63q62 -1 75 63q13 62 -49 62z" />
<glyph unicode="&#xe16;" horiz-adv-x="899" d="M340 584q-54 52 -158 72q27 39 143.5 104.5t264.5 65.5q342 0 285 -273l-117 -553h-136l119 561q32 154 -166 154q-103 1 -167 -43q68 -24 112 -82q-64 -20 -114 -73t-62 -111l-24 -111q80 0 115 -15.5t47 -52.5t2 -81q-12 -56 -60 -105t-132 -49q-72 0 -113 41t-21 133 l53 252q25 119 129 166zM314 92q56 0 68 58q12 56 -44 55q-56 1 -68 -55q-12 -58 44 -58z" />
<glyph unicode="&#xe17;" horiz-adv-x="989" d="M796 702l-432 -702h-135l111 520q-66 0 -104 11t-55 49t-7 90q12 56 61.5 105t131.5 49q66 0 110.5 -38t24.5 -137l-50 -235l-40 -128l327 533h102q189 0 149 -188l-134 -631h-136l137 643q13 59 -61 59zM346 723q-56 1 -68 -55q-12 -58 44 -58t67 58q13 56 -43 55z" />
<glyph unicode="&#xe18;" horiz-adv-x="856" d="M288 465h-112l10 47q19 90 79.5 162t145.5 111t191 39q262 0 318 -156l-122 -62q-50 106 -207 106q-187 0 -237 -130h294q178 0 138 -189l-84 -393h-578l25 116h65zM424 465l-74 -349h242l58 273q8 41 0 58.5t-54 17.5h-172z" />
<glyph unicode="&#xe19;" horiz-adv-x="989" d="M780 418l86 401h135l-100 -469l-59 -36q42 -2 68 -45t10 -121q-15 -72 -73.5 -119t-130.5 -47t-113 41t-21 135q-45 -20 -126.5 -85t-83.5 -73h-139l111 522q-80 0 -114.5 15.5t-47 52t-3.5 82.5q14 66 67.5 110t124.5 44q66 0 110.5 -39t24.5 -135l-104 -492 q89 70 310 168q54 24 68 90zM350 725q-55 1 -67 -55q-12 -58 43 -58q56 0 68 58q12 56 -44 55zM762 215q-64 1 -77 -63q-15 -66 49 -66q66 0 80 66q14 64 -52 63z" />
<glyph unicode="&#xe1a;" horiz-adv-x="997" d="M1030 819l-174 -819h-692l24 116h66l86 404q-66 0 -104 11t-55 49t-7 90q12 56 61.5 105t131.5 49q66 0 110.5 -38t24.5 -137l-114 -533h357l149 703h136zM346 723q-56 1 -68 -55q-12 -58 44 -58t67 58q13 56 -43 55z" />
<glyph unicode="&#xe1b;" horiz-adv-x="997" d="M1127 1278l-271 -1278h-692l24 116h66l86 404q-66 0 -104 11t-55 49t-7 90q12 56 61.5 105t131.5 49q66 0 110.5 -38t24.5 -137l-114 -533h357l247 1162h135zM346 723q-56 1 -68 -55q-12 -58 44 -58t67 58q13 56 -43 55z" />
<glyph unicode="&#xe1c;" horiz-adv-x="901" d="M662 192l134 627h136l-174 -819h-136l-141 262l-252 -262h-135l138 649q20 92 79.5 133.5t129.5 41.5q76 0 108.5 -45t18.5 -109q-12 -59 -60 -104.5t-168 -45.5l-70 -328l194 195h92zM420 723q-56 1 -68 -55q-12 -58 44 -58q54 0 66 58q12 56 -42 55z" />
<glyph unicode="&#xe1d;" horiz-adv-x="899" d="M662 192l232 1086h135l-271 -1278h-136l-141 262l-252 -262h-135l138 649q20 92 79.5 133.5t129.5 41.5q76 0 108.5 -45t18.5 -109q-12 -59 -60 -104.5t-168 -45.5l-70 -328l194 195h92zM420 723q-56 1 -68 -55q-12 -58 44 -58q54 0 66 58q12 56 -42 55z" />
<glyph unicode="&#xe1e;" horiz-adv-x="1065" d="M778 0l-70 610l-328 -610h-151l111 520q-66 0 -104 11t-55 49t-7 90q12 56 61.5 105t131.5 49q66 0 110.5 -38t24.5 -137l-58 -268l-23 -74l277 512h106l66 -512l4 74l94 438h136l-174 -819h-152zM346 723q-56 1 -68 -55q-12 -58 44 -58t67 58q13 56 -43 55z" />
<glyph unicode="&#xe1f;" horiz-adv-x="1071" d="M778 0l-70 610l-328 -610h-151l111 520q-66 0 -104 11t-55 49t-7 90q12 56 61.5 105t131.5 49q66 0 110.5 -38t24.5 -137l-58 -268l-23 -74l277 512h106l66 -512l4 74l192 897h135l-271 -1278h-152zM346 723q-56 1 -68 -55q-12 -58 44 -58t67 58q13 56 -43 55z" />
<glyph unicode="&#xe20;" horiz-adv-x="981" d="M435 584q-53 50 -159 72q44 55 159 112.5t249 57.5q342 0 285 -273l-117 -553h-136l120 561q32 154 -167 154q-103 1 -167 -43q69 -24 112 -82q-129 -38 -160 -184l-53 -248q-20 -92 -79.5 -133t-129.5 -41q-74 0 -107 44t-19 109q12 60 59 104.5t169 44.5l28 132 q28 132 113 166zM214 84q56 0 68 58q12 54 -44 54q-55 0 -67 -54q-12 -58 43 -58z" />
<glyph unicode="&#xe21;" horiz-adv-x="966" d="M676 0q-45 96 -115 164t-113 68l-21 -99q-31 -145 -181 -145q-176 0 -136 182q16 74 71 127t157 53l36 170q-119 0 -148.5 45t-16.5 105q14 66 66.5 110t126.5 44q70 0 112 -41t22 -134l-63 -299q55 0 139 -63t115 -129l141 661h135l-174 -819h-153zM380 723 q-56 1 -67 -55q-13 -58 43 -58t68 58q12 56 -44 55zM234 180q-10 -47 -6 -64.5t26 -17.5q31 0 43 60l17 80q-64 0 -80 -58z" />
<glyph unicode="&#xe22;" horiz-adv-x="880" d="M321 645q-6 0 -18 -55q-31 -144 141 -144h138l-22 -98h-67q-76 0 -121.5 -36t-57.5 -91l-22 -105h340l150 703h135l-174 -819h-611l40 188q24 114 77 154.5t71 40.5q-64 0 -111 54.5t-25 158.5q23 108 113.5 170t188.5 62q90 0 128 -46t24 -110q-16 -76 -74 -115 t-118 -39q-62 0 -98.5 40t-26.5 87zM490 725q-56 1 -68 -55q-12 -58 44 -58q54 0 66 58q12 56 -42 55z" />
<glyph unicode="&#xe23;" horiz-adv-x="743" d="M654 563l-86 -399q-20 -92 -78 -133t-130 -41q-74 0 -107.5 44t-19.5 110q10 45 37.5 80.5t68 52t122.5 16.5l34 159h-367q17 80 36.5 128t71.5 110t130 101t186 39q112 0 194 -51t78 -159h-142q-23 94 -160 95q-94 0 -147 -49.5t-73 -102.5h352zM381 90q55 0 67 58 q12 56 -43 55q-55 1 -67 -55q-12 -58 43 -58z" />
<glyph unicode="&#xe24;" horiz-adv-x="897" d="M340 584q-54 52 -158 72q36 45 150 107.5t258 62.5q342 0 285 -273l-181 -848h-135l182 856q32 154 -166 154q-103 1 -167 -43q68 -24 112 -82q-64 -20 -114 -73t-62 -111l-24 -111q80 0 115 -15.5t47 -52.5t2 -81q-12 -56 -60 -105t-132 -49q-72 0 -113 41t-21 133 l53 252q25 119 129 166zM314 92q56 0 68 58q12 56 -44 55q-56 1 -68 -55q-12 -58 44 -58z" />
<glyph unicode="&#xe25;" horiz-adv-x="909" d="M344 284q70 0 103 -37.5t18 -109.5q-14 -64 -65.5 -107.5t-125.5 -43.5q-160 0 -122 176q30 139 149.5 282.5t227.5 186.5q127 -125 165 -319l38 176q48 224 -188 224q-240 0 -294 -253h-128q32 152 139.5 258.5t312.5 106.5q114 0 187.5 -36t103 -104t9.5 -162 l-110 -522h-142q0 74 -35 224.5t-101 236.5q-14 0 -74 -71t-68 -106zM297 80q55 0 67 57q12 55 -44 55q-55 0 -66 -55q-12 -57 43 -57z" />
<glyph unicode="&#xe26;" horiz-adv-x="987" d="M435 584q-53 50 -159 72q44 53 159 111.5t249 58.5q342 0 285 -273l-181 -848h-134l182 856q32 154 -167 154q-103 1 -167 -43q69 -24 112 -82q-129 -38 -160 -184l-53 -248q-20 -92 -79.5 -133t-129.5 -41q-74 0 -107 44t-19 109q12 60 59 104.5t169 44.5l28 132 q28 132 113 166zM214 84q56 0 68 58q12 54 -44 54q-55 0 -67 -54q-12 -58 43 -58z" />
<glyph unicode="&#xe27;" horiz-adv-x="764" d="M562 293l52 247q36 174 -138 175q-176 -1 -212 -173l-16 -73h-124l14 65q26 125 121 207.5t243 82.5q307 0 248 -279l-81 -381q-20 -92 -78.5 -133t-130.5 -41q-78 0 -109 46t-18 108q10 45 37.5 80.5t69.5 52t122 16.5zM482 90q54 0 66 58q12 56 -42 55q-56 1 -68 -55 q-12 -58 44 -58z" />
<glyph unicode="&#xe28;" horiz-adv-x="917" d="M758 612q-49 -37 -89 -53q36 -26 23 -84q-18 -84 -70 -125t-116 -41q-52 0 -83 27l-182 -336h-143l116 545q27 126 132 202.5t267 76.5q143 0 203 -46q56 54 74 138h144q-32 -156 -150 -216q30 -66 10 -155l-116 -545h-136l115 540q9 40 1 72zM713 688q-51 27 -117 27 q-88 0 -158 -42.5t-90 -132.5l-36 -165l-26 -86l98 174q55 96 88.5 112.5t125.5 44.5q62 20 115 68zM556 516q-62 0 -75 -62q-14 -64 48 -63q62 -1 75 63q14 62 -48 62z" />
<glyph unicode="&#xe29;" horiz-adv-x="1011" d="M928 340l-72 -340h-692l24 116h66l86 404q-66 0 -104 11t-55 49t-7 90q12 56 61.5 105t131.5 49q66 0 110.5 -38t24.5 -137l-114 -533h357l39 183q-42 -8 -98 -8q-219 -1 -187 151q13 62 59 94t96 32q68 0 97 -36t17 -96q-6 -26 -18 -43q33 1 56 11l88 415h136l-72 -337 q4 0 32 23t42 48l59 -90q-39 -48 -97 -85.5t-66 -37.5zM346 723q-56 1 -68 -55q-12 -58 44 -58t67 58q13 56 -43 55zM642 492q-51 0 -62 -54q-12 -54 40 -53q54 -1 64 53q12 54 -42 54z" />
<glyph unicode="&#xe2a;" horiz-adv-x="909" d="M775 786q44 44 61 126h150q-8 -41 -44 -106.5t-84 -99.5q26 -35 26.5 -93t-6.5 -91l-110 -522h-142q-20 299 -136 461q-14 -8 -46 -41t-62 -77.5t-34 -58.5q70 0 103 -37.5t18 -109.5q-14 -66 -65.5 -108.5t-125.5 -42.5q-160 0 -122 176q30 139 154 287.5t348 246.5 q-28 16 -110 16q-240 0 -293 -253h-129q37 176 156.5 270.5t305.5 94.5q136 0 187 -38zM698 312l38 176q18 82 1 128l-5 15q-49 -37 -136 -80q30 -26 63 -108t39 -131zM301 80q55 0 67 57q12 55 -44 55q-55 0 -66 -55q-12 -57 43 -57z" />
<glyph unicode="&#xe2b;" horiz-adv-x="989" d="M806 463l-438 -463h-139l111 520q-66 0 -104 11t-55 49t-7 90q12 56 61.5 105t131.5 49q66 0 110.5 -38t24.5 -137l-98 -463l348 359q-24 2 -43 37.5t-9 87.5q14 66 66 110t132 44q60 0 98 -39t20 -127q-14 -70 -96 -116q28 -14 33 -45.5t-10 -103.5l-83 -393h-136 l94 438zM873 729q-56 0 -67 -55q-12 -58 44 -58q54 0 66 58q12 55 -43 55zM346 723q-56 1 -68 -55q-12 -58 44 -58t67 58q13 56 -43 55z" />
<glyph unicode="&#xe2c;" horiz-adv-x="1085" d="M1078 717l-152 -717h-152l-101 463l-297 -463h-151l111 520q-80 0 -115 16.5t-48 52t-3 81.5q14 66 67 110t126 44q64 0 109.5 -38t25.5 -137l-68 -317l-24 -74l250 381h106l93 -381l5 74l66 307q-170 0 -141 139q14 68 66.5 110t111.5 42q83 0 113 -60q48 30 112 105 l56 -111q-108 -118 -166 -147zM944 834q-54 0 -66 -56q-12 -57 42 -57q56 0 68 57q12 56 -44 56zM342 723q-56 1 -68 -55q-12 -58 44 -58t67 58q13 56 -43 55z" />
<glyph unicode="&#xe2d;" horiz-adv-x="923" d="M192 0l84 393q18 86 76 135.5t138 49.5q70 0 104 -42t20 -110q-14 -66 -62 -108t-166 -42l-34 -160h324l78 372q23 108 -32.5 166t-169.5 58q-156 0 -228 -79.5t-92 -171.5h-129q112 363 475 363q150 0 251 -74t67 -228l-110 -522h-594zM468 479q-55 0 -67 -55 q-11 -58 43 -58q56 0 68 58q12 55 -44 55z" />
<glyph unicode="&#xe2e;" horiz-adv-x="852" d="M690 598q-121 -56 -250 -56q-114 0 -191 37t-63 107q32 148 345 148q193 0 239 -68q70 53 112 127l92 -69q-58 -94 -142 -152q2 -4 4 -14t0 -34q-4 -34 -10 -69l-118 -555h-610l67 316q20 94 82.5 139t132.5 45q74 0 105 -44t18 -108q-14 -68 -62.5 -109t-165.5 -41 l-17 -82h340l89 420q8 40 3 62zM662 692q-56 37 -170 37q-146 0 -154 -39q-9 -41 131 -41q93 0 193 43zM357 402q-56 0 -67 -56q-12 -57 43 -57q56 0 68 57q12 56 -44 56z" />
<glyph unicode="&#xe2f;" horiz-adv-x="850" d="M755 819h135l-174 -819h-135l125 588q-30 -35 -120 -72t-186 -37t-163.5 44.5t-46.5 144.5q16 76 67 116t129 40q158 0 124 -152q-10 -51 -40 -78q96 0 177.5 66.5t107.5 158.5zM363 729q-63 1 -75 -61q-13 -62 49 -62q63 0 75 62q14 62 -49 61z" />
<glyph unicode="&#xe30;" horiz-adv-x="760" d="M718 786l95 -51q-12 -59 -68.5 -126t-158 -100.5t-197.5 -33.5q-254 0 -218 168q15 72 68 108.5t115 36.5q80 0 104 -44t12 -101q-8 -39 -28 -61q232 0 276 204zM333 702q-63 0 -75 -61q-13 -61 49 -61q63 0 75 61q14 61 -49 61zM622 336l95 -52q-22 -106 -134.5 -183 t-290.5 -77q-123 0 -178.5 43t-38.5 125q16 74 68.5 110t114.5 36q80 0 104 -44t12 -102q-8 -39 -28 -63q232 0 276 207zM238 252q-62 0 -76 -62q-13 -62 49 -61q63 -1 75 61q14 62 -48 62z" />
<glyph unicode="&#xe31;" horiz-adv-x="0" d="M464 1256q-54 -112 -192 -195q-138 -80 -297 -80q-151 0 -221 47q-72 47 -54 133q14 66 66 109t124 43q66 0 94 -43q30 -42 18 -102q-12 -56 -46 -74q0 -6 66 -6q102 0 200 59q101 61 152 161zM-137 1224q-57 0 -69 -56q-12 -58 44 -58q57 0 70 58q12 56 -45 56z" />
<glyph unicode="&#xe32;" horiz-adv-x="719" d="M232 568h-124q14 64 59 122t112 96t178 38q308 0 248 -279l-115 -545h-136l114 540q38 174 -132 175q-70 0 -129 -35.5t-75 -111.5z" />
<glyph unicode="&#xe33;" horiz-adv-x="719" d="M0 987q-44 0 -77 18.5t-51 57.5q-16 41 -6 94q8 37 27.5 69t46.5 53t61.5 34.5t70.5 13.5q76 0 112 -47q36 -49 20 -123q-14 -67 -66 -119q-54 -52 -138 -51zM52 1231q-74 0 -89 -74q-16 -75 57 -75q74 0 90 75q16 74 -58 74zM110 568q20 94 109 176q88 80 240 80 q308 0 248 -279l-115 -545h-136l115 540q37 174 -133 175q-78 0 -133 -39q-56 -38 -70 -108h-125z" />
<glyph unicode="&#xe34;" horiz-adv-x="0" d="M76 942q-321 86 -603 86q-68 0 -134 -4q34 94 143.5 190t273.5 96q94 0 157 -37.5t102.5 -101t52 -138.5t8.5 -91zM-460 1120q42 2 70 2q143 0 309 -47q-63 129 -190 129q-61 0 -116 -24t-73 -60z" />
<glyph unicode="&#xe35;" horiz-adv-x="0" d="M-12 1196l28 137h136l-84 -391q-272 86 -603 86q-35 0 -83 -2l-49 -2q16 76 132.5 181t288.5 105t234 -114zM-468 1120q25 2 78 2q134 0 300 -47q-3 31 -55 80t-134 49q-68 0 -121 -26t-68 -58z" />
<glyph unicode="&#xe36;" horiz-adv-x="0" d="M-88 1241q46 82 148 82q72 0 98 -41t14 -96q-20 -96 -114 -119q18 -51 18 -125q-282 86 -603 86l-132 -4q36 112 143.5 197t231.5 85q104 0 196 -65zM44 1250q-60 0 -72 -60q-13 -62 46 -62q60 0 72 62q14 60 -46 60zM-460 1120q42 2 70 2q118 0 243 -30l10 -2l56 -15 q-2 22 -52.5 75.5t-137.5 53.5q-61 0 -116 -24t-73 -60z" />
<glyph unicode="&#xe37;" horiz-adv-x="0" d="M-155 1294l8 39h119l-21 -100l43 -59l34 159h120l-84 -391q-321 86 -603 86q-35 0 -83 -2l-50 -2q14 70 123 178t279 108q64 0 115 -16zM-472 1120q16 2 70 2h18q124 0 290 -47q-52 129 -191 129q-68 0 -120.5 -27t-66.5 -57z" />
<glyph unicode="&#xe38;" horiz-adv-x="0" d="M-358 -477l21 98q-178 -1 -148 139q12 55 57.5 102.5t125.5 47.5q162 0 116 -217l-36 -170h-136zM-323 -180q-60 0 -72 -60q-13 -60 47 -59q58 -1 70 59t-45 60z" />
<glyph unicode="&#xe39;" horiz-adv-x="0" d="M-446 -264l-22 -104h115l55 262h136l-78 -371h-386l21 98h2h-23q-56 0 -85 15.5t-41 47.5t-2 76q32 150 184 150q82 0 110.5 -52t13.5 -122zM-592 -180q-60 0 -72 -60q-13 -60 47 -59q59 -1 71 59t-46 60z" />
<glyph unicode="&#xe3a;" horiz-adv-x="0" d="M-358 -209q9 43 45 73t77 30q43 0 66.5 -30t14.5 -73q-9 -41 -45 -69.5t-78 -28.5q-41 0 -65 28.5t-15 69.5z" />
<glyph unicode="&#xe3f;" horiz-adv-x="895" d="M331 -146l31 146h-288l204 960h288l32 152h104l-32 -152q148 -8 201 -79.5t33 -165.5q-30 -138 -178 -203q170 -56 132 -234q-58 -268 -392 -278l-30 -146h-105zM480 557l62 291h-162l-62 -291h162zM646 846l-62 -289q162 9 191 143q15 70 -15 105t-114 41zM386 112 l70 332h-162l-70 -332h162zM560 442l-70 -330q202 6 236 166q33 158 -166 164z" />
<glyph unicode="&#xe40;" horiz-adv-x="506" d="M413 819l-111 -524q80 0 114 -16.5t47 -52.5t3 -80q-14 -66 -66 -110t-126 -44q-66 0 -111 38t-24 136l139 653h135zM296 92q56 0 67 58q13 56 -43 55q-56 1 -68 -55q-12 -58 44 -58z" />
<glyph unicode="&#xe41;" horiz-adv-x="899" d="M415 819l-111 -524q80 0 114.5 -15.5t47 -52.5t2.5 -81q-14 -66 -66 -110t-126 -44q-72 0 -113 41t-22 133l139 653h135zM298 92q56 0 67 58q13 56 -43 55q-56 1 -68 -55q-12 -58 44 -58zM808 819l-111 -524q121 0 149 -44.5t16 -104.5q-12 -58 -61 -106t-131 -48 q-66 0 -111 38t-25 136l140 653h134zM691 92q55 0 67 58q12 56 -43 55q-55 1 -67 -55q-12 -58 43 -58z" />
<glyph unicode="&#xe42;" horiz-adv-x="559" d="M514 1012l-153 -717q80 0 114.5 -15.5t47.5 -52.5t3 -81q-14 -66 -67 -110t-125 -44q-66 0 -111 38t-25 136l170 796l-240 128q26 125 132 197.5t234 72.5q148 0 203 -80t26 -215h-121q22 100 -19 146.5t-111 46.5q-127 0 -196 -111zM355 92q55 0 67 58q12 56 -43 55 q-55 1 -67 -55q-12 -58 43 -58z" />
<glyph unicode="&#xe43;" horiz-adv-x="651" d="M403 1254q46 -36 27 -124q-16 -74 -66 -122t-114 -48q-68 0 -106 45t-20 129q48 224 293 224q265 0 207 -272l-168 -791q120 0 148.5 -44.5t15.5 -104.5q-14 -68 -67 -111t-125 -43t-114 41t-22 133l198 928q14 66 11 95t-29 47t-69 18zM217 1130q-15 -72 43 -71 q64 -1 78 71q16 78 -45 78q-60 0 -76 -78zM449 92q55 0 67 58q12 56 -43 55q-55 1 -67 -55q-12 -58 43 -58z" />
<glyph unicode="&#xe44;" horiz-adv-x="612" d="M335 991h-166q5 17 15 63q52 242 12 357h130q30 -95 -1 -235q-3 -18 -17 -64l178 246h152l-226 -1063q80 0 114.5 -16.5t47 -52.5t3.5 -80q-14 -66 -66.5 -110t-126.5 -44q-66 0 -111 38t-23 136l214 1012zM406 92q56 0 68 58q12 56 -44 55q-55 1 -67 -55q-12 -58 43 -58 z" />
<glyph unicode="&#xe45;" horiz-adv-x="715" d="M220 568h-124q28 131 128 193.5t221 62.5q307 0 247 -279l-178 -840h-135l177 835q38 174 -132 175q-78 0 -134 -38.5t-70 -108.5z" />
<glyph unicode="&#xe46;" horiz-adv-x="1081" d="M546 662q166 0 135 -144q-17 -80 -69 -115t-110 -35q-78 0 -106 57t-12 134q20 94 93.5 178t163.5 84q113 0 153 -90q82 93 150 93q140 0 100 -189l-157 -737q-42 -200 -186 -279l-77 86q98 59 128 193l152 720q14 68 -10 68q-18 0 -56 -25.5t-68 -60.5q-64 108 -134 108 q-60 0 -90 -46zM548 578q-58 0 -70 -60q-12 -59 45 -59q60 0 72 59q13 60 -47 60z" />
<glyph unicode="&#xe47;" horiz-adv-x="0" d="M123 1489l110 -61q-80 -118 -258 -118q-176 0 -226.5 -5t-86.5 -32t-51 -95q-9 -39 -7 -72q50 58 108 94h90q-9 -41 22.5 -79.5t67.5 -38.5q-20 30 -13 65q25 119 147 119q55 0 85.5 -34t16.5 -94q-12 -55 -63 -106t-151 -51q-145 1 -197 107q-56 -35 -96 -105h-61 q-110 1 -72 183q50 240 300 239h52q56 -2 65 -2q188 0 218 86zM14 1194q-50 0 -62 -51q-10 -51 40 -51q52 0 62 51q12 51 -40 51z" />
<glyph unicode="&#xe48;" horiz-adv-x="0" d="M12 1382l52 240h134l-50 -240h-136z" />
<glyph unicode="&#xe49;" horiz-adv-x="0" d="M-2 1489q-59 0 -85.5 28.5t-16.5 76.5q11 53 51.5 82.5t94.5 29.5q62 0 86 -33t12 -86q-16 -78 -92 -131q43 0 117.5 37t125.5 89t61 100l81 -46q-58 -131 -217.5 -201.5t-339.5 -70.5l15 70q16 0 53.5 14.5t53.5 40.5zM26 1640q-48 0 -56 -44q-10 -48 37 -48q45 0 55 48 q9 44 -36 44z" />
<glyph unicode="&#xe4a;" horiz-adv-x="0" d="M-78 1503q22 19 56 19q70 0 55 -72q-18 -82 -99 -82q-47 0 -76.5 30t-14.5 99q17 80 64 111.5t83 31.5l59 -48l84 48q93 -10 71 -116q-8 -43 -32 -78q52 4 104 64t66 124l62 -38q-78 -222 -350 -222q54 41 70 117q14 64 -14 80l-76 -39l-60 45q-16 0 -33 -17.5t-21 -33.5 q-2 -11 2 -23zM-34 1480q-36 0 -42 -32q-8 -35 28 -35q32 0 40 35q6 32 -26 32z" />
<glyph unicode="&#xe4b;" horiz-adv-x="0" d="M-104 1460l20 92h128l19 86h135l-18 -86h128l-19 -92h-129l-18 -86h-135l18 86h-129z" />
<glyph unicode="&#xe4c;" horiz-adv-x="0" d="M167 1444q34 -22 22 -78t-52.5 -83t-83.5 -27q-53 0 -73 34.5t-12 75.5q20 98 142 127q112 26 141 46.5t41 74.5l84 -33q-20 -68 -81.5 -102.5t-127.5 -34.5zM88 1411q-46 0 -56 -45q-10 -47 36 -47t56 47q10 45 -36 45z" />
<glyph unicode="&#xe4d;" horiz-adv-x="0" d="M-66 934q-45 0 -79 18.5t-50.5 57t-4.5 94.5q11 51 40.5 89t72 59.5t93.5 21.5q86 0 116 -52t16 -118t-67 -118t-137 -52zM-14 1178q-74 0 -90 -74q-16 -76 58 -76t90 76q16 74 -58 74z" />
<glyph unicode="&#xe4e;" horiz-adv-x="0" d="M108 1024q-68 -47 -175 -47q-141 1 -119 103q10 49 66.5 98t164.5 49q-91 12 -75 86q8 43 81 77t163 34q64 0 95 -17l-60 -39q-23 10 -47 10q-22 0 -45 -2q-77 -20 -89 -78q-13 -60 86 -59l-32 -47q-72 0 -127 -28t-65 -74q-12 -58 55 -58q53 0 87 29z" />
<glyph unicode="&#xe4f;" horiz-adv-x="1030" d="M994 412q-24 -116 -99.5 -209t-178 -148t-219.5 -55q-116 0 -196 55t-115.5 148t-11.5 209q36 170 182 291t316 121q104 0 184 -48.5t122.5 -143.5t15.5 -220zM936 412q32 148 -49 252t-227 104q-147 0 -272.5 -104t-157.5 -252q-31 -148 50.5 -251t228.5 -103 q100 0 189.5 48t153 127t84.5 179zM818 412q-20 -96 -104 -165t-180 -69q-98 0 -152 69t-34 165q24 110 112 172.5t174 62.5q66 0 111.5 -31.5t66 -83.5t6.5 -120z" />
<glyph unicode="&#xe50;" horiz-adv-x="870" d="M810 286q-29 -137 -135.5 -215.5t-262.5 -78.5q-152 0 -227 80t-47 214q27 127 139.5 211.5t259.5 84.5q162 0 230.5 -87.5t42.5 -208.5zM678 284q20 94 -32 139.5t-136 45.5q-94 0 -160 -50.5t-84 -138.5q-18 -82 27.5 -129t139.5 -47q207 0 245 180z" />
<glyph unicode="&#xe51;" horiz-adv-x="893" d="M532 -106l-60 63q97 62 152.5 142.5t71.5 152.5q17 82 -22.5 149.5t-158.5 67.5q-64 0 -113.5 -22.5t-89 -67.5t-51.5 -103q-14 -64 -1 -92q39 108 152 109q68 0 101 -40.5t19 -104.5q-17 -80 -75.5 -117t-134.5 -37q-122 0 -170 82t-24 192q20 98 80 167t145 106t193 37 q158 0 236 -85t48 -227q-26 -122 -115 -225.5t-183 -146.5zM400 209q-60 1 -72 -61q-12 -58 45 -58q61 0 73 62q12 58 -46 57z" />
<glyph unicode="&#xe52;" horiz-adv-x="954" d="M696 518q14 22 51 42t68 20q72 0 98.5 -47t10.5 -125l-87 -408h-707l144 674q25 118 -74 145l129 86q121 -37 79 -237l-118 -552h436l60 282q18 86 -24 86q-44 0 -90 -64q-22 64 -62 64q-62 0 -83 -101q34 13 79 13q41 0 63.5 -31t12.5 -85q-13 -60 -58.5 -89t-94.5 -29 q-157 0 -113 206q20 94 74 153t124 59q58 0 82 -62zM573 328q-45 0 -55 -48q-10 -46 35 -46q47 0 57 46q10 48 -37 48z" />
<glyph unicode="&#xe53;" horiz-adv-x="917" d="M272 176q38 88 140 88q66 0 93.5 -37t14.5 -98q-28 -137 -186 -137q-125 0 -169.5 83t-14.5 222q24 116 98 200.5t190 84.5q120 0 118 -111q52 111 180 111q76 0 106.5 -51.5t12.5 -137.5l-83 -393h-136l84 398q18 84 -28 84q-74 0 -111 -134h-103q28 134 -59 134 q-51 0 -88 -63t-51 -126t-8 -117zM394 182q-52 0 -62 -51q-12 -53 42 -53q51 0 62 51q11 53 -42 53z" />
<glyph unicode="&#xe54;" horiz-adv-x="942" d="M726 114h80l-24 -114h-410q-138 0 -206 80t-38 215q28 131 136 205t268 74h130q109 0 188 79t108 215l112 -49q-30 -143 -144 -249.5t-276 -106.5h-164q-80 0 -141 -52.5t-78 -134.5q-14 -66 18.5 -114t94.5 -48h110q-29 6 -60.5 50.5t-19.5 101.5q12 56 57 99t107 43 q53 0 91.5 -31t24.5 -97q-21 -98 -108 -120q48 -46 144 -46zM566 332q-57 0 -70 -58q-12 -58 45 -57q57 -1 69 57q14 58 -44 58z" />
<glyph unicode="&#xe55;" horiz-adv-x="942" d="M638 578q136 0 214 81t106 209l112 -49q-30 -143 -144 -249.5t-276 -106.5h-164q-80 0 -141 -52.5t-78 -134.5q-14 -66 17.5 -114t95.5 -48h110q-33 8 -62.5 49.5t-17.5 102.5q12 58 57 99t110 41q56 0 91.5 -29t21.5 -97q-10 -45 -39.5 -78.5t-68.5 -41.5 q38 -46 144 -46h80l-24 -114h-410q-121 0 -198.5 72t-46.5 221q45 211 265 264q-56 29 -39 105q14 64 68.5 108.5t128.5 44.5q88 0 117 -46.5t15 -110.5q-12 -54 -44 -80zM534 733q-74 1 -90 -73t58 -74t90 74t-58 73zM566 332q-57 0 -70 -58q-12 -58 45 -57q57 -1 69 57 q14 58 -44 58z" />
<glyph unicode="&#xe56;" horiz-adv-x="950" d="M279 410h-115q8 16 28 114q54 256 -22 295l117 80q58 -47 62.5 -126t-23.5 -210l-6 -16q52 27 158 27h161q138 0 205.5 -79t39.5 -209q-22 -104 -107 -195t-212 -91h-185q-252 0 -212 188q13 62 64.5 105t114.5 43q74 0 110 -33t24 -90q-15 -73 -46 -99h125 q74 0 124 54.5t66 124.5q16 78 -33.5 124t-131.5 46h-159q-96 1 -147 -53zM336 246q-62 0 -76 -64t49 -63q64 -1 77 63q14 64 -50 64z" />
<glyph unicode="&#xe57;" horiz-adv-x="1126" d="M751 106q133 0 165 152l80 373q42 197 172 281l86 -88q-93 -52 -126 -206l-76 -356q-25 -118 -111.5 -190t-228.5 -72h-135l23 106q59 8 82 120l36 172q18 84 -30 84q-72 0 -109 -134h-103q28 134 -59 134q-49 0 -87 -62t-52 -127q-14 -64 -8 -117q38 88 140 88 q66 0 93.5 -38t14.5 -97q-14 -70 -68 -106.5t-118 -36.5q-123 0 -167.5 88t-16.5 221q24 116 96 201.5t192 85.5q118 0 118 -111q42 111 182 111q76 0 105 -53.5t12 -135.5l-36 -167q-19 -92 -66 -120zM392 182q-52 0 -62 -51q-12 -53 42 -53q51 0 62 51q11 53 -42 53z" />
<glyph unicode="&#xe58;" horiz-adv-x="1016" d="M432 108q-46 -51 -70 -116q-270 12 -212 284q30 144 134 221t263 77h129q136 0 222 67t124 252l96 -74q-36 -166 -150 -261t-282 -95h-172q-98 0 -155 -54.5t-73 -132.5q-34 -158 36 -157q101 139 145 163q4 -12 62.5 -91t110.5 -79q-34 45 -21 105q10 47 56 95t120 48 q80 0 110.5 -52t18.5 -112q-22 -106 -103 -156t-179 -50q-55 0 -102 20t-108 98zM784 270q-64 0 -78 -63q-13 -63 51 -63q65 0 77 63q14 63 -50 63z" />
<glyph unicode="&#xe59;" horiz-adv-x="1057" d="M248 196q12 50 59.5 79.5t100.5 29.5q74 0 102 -44.5t16 -102.5q-12 -59 -67 -109.5t-157 -50.5q-106 0 -162 71t-30 189q20 94 72.5 165t126 113t155.5 42q115 0 170 -58.5t54 -101.5q34 162 129 162q17 0 61 -15q44 -14 54 -14q58 0 102 209q16 80 16 124l108 -65 q0 -20 -6 -49q-30 -142 -84 -236t-110 -94q-16 0 -60 12t-58 13q-36 -1 -58 -99q-20 -94 -4 -173t114 -79q24 0 46 5l-25 -119q-129 0 -187 40t-87 165q-36 143 -54.5 171t-51.5 58.5t-85 30.5q-70 0 -124 -47.5t-72 -131.5q-12 -62 -4 -90zM392 221q-57 0 -69 -57 q-12 -58 45 -58q58 0 70 58q12 57 -46 57z" />
<glyph unicode="&#xe5a;" horiz-adv-x="997" d="M712 819h136l-174 -819h-136l124 588q-31 -41 -122 -75t-183 -34q-102 0 -166.5 44.5t-43.5 144.5q16 76 66.5 116t128.5 40q84 0 110 -45t13 -109q-11 -49 -39 -76q94 0 177 66.5t109 158.5zM320 729q-62 1 -74 -61q-13 -62 48 -62q62 0 74 62q14 62 -48 61zM948 819 h116l-174 -819h-116z" />
<glyph unicode="&#xe5b;" horiz-adv-x="1650" d="M1249 301q-132 -137 -154 -137q-21 0 -79 137q-126 -137 -150 -137q-22 0 -78 118q-168 -282 -393 -282q-146 0 -223.5 94t-37.5 285q34 162 147 265.5t260 103.5q101 0 207 -64l-26 -90q-88 72 -200 72q-104 0 -189 -84t-111 -210q-26 -120 18 -204t174 -84q90 0 167 58 t221 268q74 -154 87 -154q6 0 74 78q68 76 82 76q17 0 71 -154q136 154 158 154q4 0 49 -98q42 -98 96 -99q113 0 189 205h76q-100 -278 -276 -278q-116 0 -159 161z" />
<glyph unicode="&#x2000;" horiz-adv-x="853" />
<glyph unicode="&#x2001;" horiz-adv-x="1706" />
<glyph unicode="&#x2002;" horiz-adv-x="853" />
<glyph unicode="&#x2003;" horiz-adv-x="1706" />
<glyph unicode="&#x2004;" horiz-adv-x="568" />
<glyph unicode="&#x2005;" horiz-adv-x="426" />
<glyph unicode="&#x2006;" horiz-adv-x="284" />
<glyph unicode="&#x2007;" horiz-adv-x="284" />
<glyph unicode="&#x2008;" horiz-adv-x="213" />
<glyph unicode="&#x2009;" horiz-adv-x="341" />
<glyph unicode="&#x200a;" horiz-adv-x="94" />
<glyph unicode="&#x200b;" horiz-adv-x="0" />
<glyph unicode="&#x2010;" horiz-adv-x="446" d="M92 352l26 119h362l-25 -119h-363z" />
<glyph unicode="&#x2011;" horiz-adv-x="446" d="M92 352l26 119h362l-25 -119h-363z" />
<glyph unicode="&#x2012;" horiz-adv-x="446" d="M92 352l26 119h362l-25 -119h-363z" />
<glyph unicode="&#x2013;" d="M38 299l21 97h745l-20 -97h-746z" />
<glyph unicode="&#x2014;" horiz-adv-x="1341" d="M38 299l21 97h1341l-20 -97h-1342z" />
<glyph unicode="&#x2018;" horiz-adv-x="299" d="M356 798l-30 -136h-126l22 108q17 80 49 128t104 79l19 -45q-76 -30 -100 -134h62z" />
<glyph unicode="&#x2019;" horiz-adv-x="299" d="M234 834l29 137h125l-23 -109q-17 -80 -48 -128t-103 -78l-18 46q78 28 100 132h-62z" />
<glyph unicode="&#x201a;" horiz-adv-x="299" d="M86 137h127l-23 -109q-16 -78 -48 -126q-30 -47 -104 -80l-20 47q78 28 100 131h-61z" />
<glyph unicode="&#x201c;" horiz-adv-x="446" d="M324 798l-28 -136h-125l23 108q17 80 47.5 128t102.5 79l22 -45q-76 -30 -102 -134h60zM530 798l-30 -136h-126l22 108q22 102 63 145t88 62l21 -45q-76 -30 -102 -134h64z" />
<glyph unicode="&#x201d;" horiz-adv-x="446" d="M210 834l28 137h128l-24 -109q-17 -80 -48.5 -128t-103.5 -78l-19 46q73 26 100 132h-61zM412 834l29 137h127l-23 -109q-17 -80 -49 -128t-104 -78l-18 46q74 26 100 132h-62z" />
<glyph unicode="&#x201e;" horiz-adv-x="446" d="M62 137h124l-22 -109q-16 -80 -48 -128q-28 -47 -103 -78l-19 47q78 28 100 131h-62zM264 137h127l-23 -109q-16 -78 -48 -126q-30 -47 -104 -80l-19 47q77 28 99 131h-61z" />
<glyph unicode="&#x2020;" d="M404 568h-262l22 104h262l57 266h117l-56 -266h264l-22 -104h-264l-170 -796h-116z" />
<glyph unicode="&#x2021;" d="M290 16h-264l22 105h264l101 475h-265l23 106h265l52 246h116l-52 -246h264l-22 -106h-264l-102 -475h264l-22 -105h-264l-52 -244h-116z" />
<glyph unicode="&#x2022;" horiz-adv-x="469" d="M146 471q10 47 40.5 84t72 59.5t89.5 22.5q70 0 107 -49.5t23 -116.5q-10 -47 -40.5 -85t-72 -60.5t-89.5 -22.5q-78 0 -110.5 53t-19.5 115z" />
<glyph unicode="&#x2026;" horiz-adv-x="1341" d="M130 0l29 135h135l-28 -135h-136zM579 0l29 135h135l-29 -135h-135zM1026 0l28 135h136l-29 -135h-135z" />
<glyph unicode="&#x202f;" horiz-adv-x="341" />
<glyph unicode="&#x2030;" horiz-adv-x="1341" d="M786 977h84l-606 -1012h-86zM152 721q52 247 242 247q72 0 118 -52q46 -54 16 -193q-56 -258 -242 -258q-74 0 -119 53q-46 57 -15 203zM248 715q-36 -168 58 -168q88 0 124 170q36 172 -54 172q-92 0 -128 -174zM521 219q53 250 239 250q86 1 126 -59t12 -187 q-54 -258 -242 -258q-84 -1 -122 61q-40 60 -13 193zM618 215q-36 -170 56 -170q88 0 124 170q36 172 -53 172q-91 0 -127 -172zM964 219q53 250 239 250q87 1 125 -59q40 -60 13 -187q-54 -258 -243 -258q-188 0 -134 254zM1059 215q-36 -170 58 -170q88 0 124 170 q37 172 -53 172q-92 0 -129 -172z" />
<glyph unicode="&#x2039;" horiz-adv-x="446" d="M256 346l110 -299h-99l-134 303l261 295h99z" />
<glyph unicode="&#x203a;" horiz-adv-x="446" d="M196 645h96l138 -295l-266 -303h-96l236 299z" />
<glyph unicode="&#x2044;" horiz-adv-x="239" d="M542 1040h129l-809 -1081h-127z" />
<glyph unicode="&#x205f;" horiz-adv-x="426" />
<glyph unicode="&#x20ac;" horiz-adv-x="688" d="M862 948l-96 -143q-54 71 -126 71q-82 0 -127 -69q-14 -20 -27.5 -55.5t-27.5 -83.5h242l-65 -113h-205l-15 -73h191l-67 -112h-143q-10 -57 -14 -95.5t-1 -59.5q7 -88 89 -88q76 0 206 96l-38 -178q-62 -30 -120 -45.5t-111 -15.5q-289 0 -219 386h-98l67 112h53l18 73 h-98l66 113h60q106 352 402 352q126 0 204 -72z" />
<glyph unicode="&#x2122;" horiz-adv-x="1341" d="M482 880h-172l16 80h436l-16 -80h-174l-97 -454h-90zM822 960h131l45 -426l222 426h126l-113 -534h-80l95 448l-232 -448h-82l-47 454l-97 -454h-82z" />
<glyph unicode="&#x2202;" horiz-adv-x="708" d="M733 502l19 72q9 32 15 59q13 62 6 110.5t-31 82.5t-65 52.5t-93 18.5q-37 0 -69.5 -7.5t-61 -21.5t-55 -35t-50.5 -49h-32q38 55 75 95.5t75 66t78 38t83 12.5q30 -2 60 -10.5t55 -26t43.5 -45t29 -65.5t10 -89.5t-16.5 -116.5q-26 -123 -76.5 -235t-124.5 -210 q-169 -214 -353 -214q-55 0 -95.5 15t-65.5 45t-32.5 72t4.5 97q13 62 44 121t73.5 109.5t92 89.5t97.5 61q43 20 85.5 30.5t84.5 10.5q29 0 53 -6.5t44.5 -15.5t37.5 -23t29 -29q8 -9 14 -25zM708 440q-6 38 -21 67t-37 50t-50.5 31t-61.5 10q-61 0 -132 -45 q-71 -43 -137 -151q-34 -54 -56.5 -108t-34.5 -110q-8 -39 -4.5 -69.5t16 -52t36.5 -33t52 -11.5q86 0 195 90q70 58 127.5 141t107.5 191z" />
<glyph unicode="&#x2206;" horiz-adv-x="876" d="M833 0h-839l644 971zM679 58l-135 675l-450 -675h585z" />
<glyph unicode="&#x220f;" horiz-adv-x="1179" d="M1042 938h-556l-236 -1108q-6 -28 -4.5 -50t12 -34t30.5 -18t52 -6h26l-5 -25h-419l4 25h28q30 0 52.5 6t38.5 18t26.5 34t16.5 50l220 1030q12 58 -8 82t-82 24h-28l6 28h1119l-6 -28h-25q-62 0 -92 -24t-43 -82l-219 -1030q-6 -28 -4 -50t12 -34t30.5 -18t51.5 -6h24 l-4 -25h-420l4 25h25q31 0 54 6t39 18t27.5 34t17.5 50z" />
<glyph unicode="&#x2211;" horiz-adv-x="1022" d="M858 -303h-916l4 25l600 624l-336 620l6 28h894l-32 -236h-26q4 49 -2.5 82.5t-23 55.5t-44.5 32t-66 10h-519l281 -530l-566 -588h572q28 0 56 4t56 14q22 6 41 17.5t36 29t34 44t33 63.5l25 -6z" />
<glyph unicode="&#x221a;" horiz-adv-x="786" d="M986 1308h54l-508 -1357l-196 709l-152 -64l-14 45l232 107l162 -578z" />
<glyph unicode="&#x221e;" horiz-adv-x="1022" d="M530 467q73 109 137 151q34 20 74.5 32t90.5 12q110 0 174 -82q60 -80 32 -212q-14 -64 -44 -116t-76 -94q-94 -84 -188 -84q-70 0 -118 53q-32 29 -75 147q-32 -43 -63 -73.5t-62 -51t-64.5 -30t-73.5 -9.5q-100 0 -154 74q-56 70 -30 186q24 115 105 185q79 71 165 71 q64 0 100 -30q38 -33 70 -129zM568 326q14 -55 31.5 -91.5t40 -57.5t49.5 -28t59 -7q43 0 83.5 15t73.5 46t57 73t35 92q23 104 -25 170q-44 68 -121 68q-24 0 -45.5 -5t-43 -18t-42 -33t-40.5 -46q-14 -18 -42 -62t-70 -116zM498 414q-8 39 -21 66.5t-32 46t-44 27.5t-57 9 q-37 0 -71.5 -13.5t-63.5 -38.5t-49 -60t-30 -81q-10 -47 -6 -83.5t23 -63.5q37 -57 99 -57q68 0 132 62q20 18 50 64t70 122z" />
<glyph unicode="&#x222b;" horiz-adv-x="393" d="M346 1034q16 54 34.5 99t40.5 79q13 22 30 40t36 29t36.5 17t31.5 6q18 0 33.5 -6t24.5 -17t13 -24.5t1 -27.5q-4 -16 -10.5 -29.5t-17.5 -22.5t-24 -14.5t-27 -5.5q-24 1 -48 25q-12 14 -25 14q-10 0 -21.5 -10t-17.5 -35q-3 -14 -6 -38.5t-7 -64.5q-18 -144 -35.5 -259 t-36.5 -203q-5 -24 -30 -127l-70 -287q-49 -202 -122 -274q-46 -48 -102 -48q-39 0 -56 24t-9 62q3 14 10.5 27t17.5 21t22 12t26 4q28 0 44 -16q16 -24 32 -25q26 0 35 41q2 12 4.5 34t4.5 48l14.5 109.5t19.5 126.5l29 164l29 144z" />
<glyph unicode="&#x2248;" horiz-adv-x="786" d="M898 727q-12 -45 -34 -81t-50 -60.5t-60 -37t-67 -12.5q-20 0 -37.5 2t-29.5 9l-62 25l-116 48q-48 22 -84.5 34t-61.5 12q-49 0 -89.5 -31t-66.5 -99h-30q10 45 31 81.5t49 59.5t60.5 36.5t63.5 15.5q14 0 30 -3t30 -7q34 -10 80 -28.5t106 -47.5l58 -26.5t44 -16.5 q10 -2 21 -3t23 -1q27 0 51 8t44.5 24.5t37.5 41t28 57.5h31zM824 383q-12 -45 -33.5 -81t-49.5 -60.5t-60.5 -38t-67.5 -13.5q-33 0 -101 23l-142 63q-48 22 -85 34t-62 12q-24 0 -46.5 -7.5t-41.5 -23t-37 -39.5t-32 -60h-30q10 47 32 82t48.5 59.5t59 37t63.5 14.5 q29 0 61 -10q30 -10 78 -28.5t109 -47.5q32 -16 57.5 -25.5t43.5 -15.5q8 -4 19 -5t25 -1q27 0 51.5 8t45 24.5t37 41t28.5 57.5h30z" />
<glyph unicode="&#x2260;" horiz-adv-x="786" d="M112 572h422l228 374h57l-225 -374h272l-14 -64h-298l-156 -260h400l-14 -66h-424l-226 -366h-57l225 366h-272l14 66h297l157 260h-399z" />
<glyph unicode="&#x2264;" horiz-adv-x="786" d="M780 172l-684 320l12 57l820 319l-16 -74l-722 -274l604 -276zM-18 -45h753l-13 -63h-754z" />
<glyph unicode="&#x2265;" horiz-adv-x="786" d="M176 868l684 -319l-13 -57l-819 -320l15 72l724 274l-607 276zM-18 -45h753l-13 -63h-754z" />
<glyph unicode="&#x25ca;" horiz-adv-x="708" d="M572 996l184 -500l-396 -496h-78l-169 496l381 500h78zM518 928l-330 -432l146 -430l344 430z" />
<glyph unicode="&#x25cc;" horiz-adv-x="1020" d="M708 104q-6 -28 -24 -42.5t-48 -14.5q-31 0 -44 14.5t-7 42.5q8 35 27 49.5t50 14.5q30 0 42 -14.5t4 -49.5zM416 108q-6 -30 -26 -45.5t-51 -15.5t-44 14.5t-7 42.5q8 35 27 49.5t50 14.5q30 0 43.5 -14.5t7.5 -45.5zM424 733q-6 -28 -26 -42.5t-50 -14.5q-64 0 -52 57 q8 35 26.5 50t51.5 15q30 0 44 -15t6 -50zM966 733q-12 -57 -74 -57q-34 0 -46.5 14t-6.5 43q8 35 26.5 50t52.5 15q31 0 43.5 -15t4.5 -50zM859 817q-6 -28 -23.5 -43.5t-47.5 -15.5q-35 0 -47.5 15t-6.5 44q8 35 26 49t54 14q30 0 41.5 -14t3.5 -49zM850 188 q-14 -62 -74 -61q-30 0 -44 15.5t-6 45.5q6 32 26 48t50 16q62 0 48 -64zM566 817q-6 -28 -26 -43.5t-50 -15.5q-31 0 -43.5 15t-6.5 44q8 35 27 49t49 14t44 -14t6 -49zM1026 463q-6 -31 -26 -46t-49 -15q-35 0 -47 15t-6 46q7 32 25.5 46.5t53.5 14.5q28 0 42 -14.5 t7 -46.5zM251 316q-7 -31 -27 -46.5t-50 -15.5q-31 0 -44 15t-6 47q7 34 26.5 48.5t50.5 14.5q30 0 43.5 -14.5t6.5 -48.5zM308 188q-7 -31 -26.5 -46t-50.5 -15q-64 -1 -50 61q14 64 77 64q30 0 43 -16t7 -48zM314 610q-7 -33 -27.5 -48t-48.5 -15q-35 0 -46.5 15.5 t-5.5 47.5q7 32 26.5 47t50.5 15q30 0 44 -15t7 -47zM253 463q-13 -61 -77 -61q-34 0 -46 15t-6 46q7 32 25.5 46.5t52.5 14.5q33 0 45.5 -14.5t5.5 -46.5zM720 850q-8 -35 -26 -49.5t-52 -14.5q-28 0 -42 14.5t-6 49.5q6 30 26 46t48 16q35 0 46.5 -16t5.5 -46zM557 80 q-8 -35 -26 -49.5t-53 -14.5q-28 0 -42 14.5t-6 49.5q6 30 26 46t48 16q35 0 47 -16t6 -46zM1026 610q-7 -33 -25.5 -48t-53.5 -15q-30 0 -43.5 15.5t-6.5 47.5t26 47t53 15q31 0 44 -15t6 -47zM964 316q-7 -31 -25.5 -46.5t-54.5 -15.5q-30 0 -43 15t-7 47q7 34 27.5 48.5 t50.5 14.5q35 0 47 -14.5t5 -48.5z" />
<glyph unicode="&#xe000;" horiz-adv-x="695" d="M0 695h695v-695h-695v695z" />
<glyph unicode="&#xf700;" horiz-adv-x="809" d="M372 176q-27 -22 -80 -22q-148 0 -114 155q12 54 62 97.5t117 43.5q127 0 129 -134l3 -200h45l81 248q12 54 9 78.5t-24.5 45t-83.5 35.5t-158 15q-112 0 -206 -20q34 160 111 231.5t210 71.5q22 0 97 -6q76 -6 98 -6q54 0 69.5 10.5t25.5 56.5h133q-19 -90 -56.5 -132 t-150.5 -42q-6 0 -117 6l-120 7q-112 0 -129 -78q55 8 113 8q174 0 263 -57.5t65 -169.5q-6 -30 -16 -58l-126 -360h-246zM334 360q-57 0 -70 -59q-12 -59 44 -59q60 0 72 59q14 59 -46 59z" />
<glyph unicode="&#xf701;" horiz-adv-x="0" d="M-152 942q-298 86 -604 86l-132 -4q14 68 128.5 177t286.5 109q98 0 162 -40.5t101.5 -104t49.5 -135.5t8 -88zM-690 1120q42 2 70 2q146 0 310 -47q0 20 -52 74.5t-138 54.5q-70 0 -124 -27t-66 -57z" />
<glyph unicode="&#xf702;" horiz-adv-x="0" d="M-262 1196l29 137h135l-83 -391q-315 86 -604 86q-35 0 -83 -2l-49 -2q16 76 132.5 181t286.5 105q112 0 168 -45t68 -69zM-718 1120q25 2 78 2q135 0 301 -47q-3 25 -54.5 77t-135.5 52q-70 0 -124.5 -28t-64.5 -56z" />
<glyph unicode="&#xf703;" horiz-adv-x="0" d="M-357 1241q6 31 51.5 56.5t97.5 25.5q76 0 99.5 -42t12.5 -95q-20 -96 -114 -119q16 -49 19 -125q-280 86 -604 86q-53 0 -133 -4q14 68 90 148t151 107t135 27q111 0 195 -65zM-224 1250q-60 0 -72 -60q-13 -62 46 -62q60 0 72 62q14 60 -46 60zM-728 1120q42 2 70 2 q150 0 308 -47q2 16 -50.5 72.5t-138.5 56.5q-70 0 -123.5 -27t-65.5 -57z" />
<glyph unicode="&#xf704;" horiz-adv-x="0" d="M-401 1294l8 39h119l-21 -100l45 -59l34 159h118l-83 -391q-315 86 -604 86q-35 0 -83 -2l-49 -2q14 70 122.5 178t278.5 108q65 0 115 -16zM-718 1120q25 2 78 2q82 0 163 -15t138 -32q-58 129 -190 129q-70 0 -121.5 -26t-67.5 -58z" />
<glyph unicode="&#xf705;" horiz-adv-x="0" d="M-310 981l64 297h134l-62 -297h-136z" />
<glyph unicode="&#xf706;" horiz-adv-x="0" d="M-414 1126q-144 0 -118 121q14 64 62 96.5t107 32.5q68 0 95.5 -39t14.5 -98q-18 -87 -103 -149q140 24 237 106t111 152l94 -52q-66 -150 -248 -231.5t-394 -81.5l18 80q22 0 64 18.5t60 44.5zM-384 1300q-54 0 -64 -53q-12 -53 42 -53q52 0 63 53t-41 53z" />
<glyph unicode="&#xf707;" horiz-adv-x="0" d="M-438 1184l-78 59q-24 -4 -44 -26.5t-24 -42.5q-4 -18 0 -27q32 25 76 25q92 0 72 -92q-22 -104 -131 -105q-74 0 -103.5 49t-14.5 119q14 68 70 123t120 57l75 -61l107 61q64 0 85.5 -42.5t7.5 -106.5q-12 -56 -42 -101q35 0 116 67.5t104 174.5l80 -49 q-48 -133 -167 -209t-283 -76q70 53 90 147q16 76 -20 107zM-526 1118q-43 0 -53 -43q-9 -43 34 -43t52 43q10 43 -33 43z" />
<glyph unicode="&#xf708;" horiz-adv-x="0" d="M-519 1132l22 105h151l33 151h135l-32 -151h151l-22 -105h-151l-32 -151h-136l32 151h-151z" />
<glyph unicode="&#xf709;" horiz-adv-x="0" d="M-198 1216q43 -26 28 -98q-14 -64 -62 -103.5t-112 -39.5q-62 0 -92 39.5t-17 101.5q26 125 210 170l73 18q61 16 90.5 48t39.5 82l108 -42q-23 -82 -99.5 -129t-166.5 -47zM-300 1176q-59 0 -71 -60q-11 -59 47 -59t70 59q12 60 -46 60z" />
<glyph unicode="&#xf70a;" horiz-adv-x="0" d="M-66 981l62 297h136l-63 -297h-135z" />
<glyph unicode="&#xf70b;" horiz-adv-x="0" d="M-101 1126q-66 0 -97.5 32t-19.5 89q14 64 60 96.5t108 32.5q67 0 94.5 -37t13.5 -100q-18 -87 -101 -149q49 0 135 43t144 100t70 115l94 -52q-67 -150 -249 -231.5t-393 -81.5l17 80q24 0 64 17t60 46zM-70 1300q-54 0 -64 -53q-12 -53 42 -53q51 0 62 53q10 53 -40 53 z" />
<glyph unicode="&#xf70c;" horiz-adv-x="0" d="M-162 1184l-78 59q-24 -4 -44 -26.5t-24 -42.5q-4 -18 0 -27q34 25 74 25q94 0 74 -92q-22 -104 -130 -105q-74 0 -103 49t-15 119q14 68 70 123t120 57l74 -61l108 61q59 0 83 -39.5t9 -109.5q-12 -56 -42 -101q35 0 116 67.5t104 174.5l81 -49q-48 -133 -167.5 -209 t-283.5 -76q71 55 91 147q16 76 -22 109zM-250 1118q-42 0 -52 -43q-8 -43 34 -43q44 0 52 43q10 43 -34 43z" />
<glyph unicode="&#xf70d;" horiz-adv-x="0" d="M-184 1132l22 105h152l32 151h136l-33 -151h151l-22 -105h-151l-32 -151h-135l32 151h-152z" />
<glyph unicode="&#xf70e;" horiz-adv-x="0" d="M16 1216q18 -4 27 -34.5t1 -63.5q-14 -64 -62 -103.5t-111 -39.5q-61 0 -91 42t-18 99q26 125 210 170l73 18q61 16 90 48t40 82l108 -42q-23 -80 -100 -128t-167 -48zM-84 1176q-60 0 -72 -60q-12 -59 47 -59q57 0 69 59q12 60 -44 60z" />
<glyph unicode="&#xf70f;" horiz-adv-x="1280" d="M620 0l119 561q32 154 -166 154q-103 1 -167 -43q12 0 53.5 -29t58.5 -53q-64 -20 -114 -73t-62 -111l-24 -111q80 0 114.5 -15.5t47 -52.5t2.5 -81q-14 -66 -67 -110t-125 -44t-113 41t-21 133l53 252q25 118 129 166q-52 50 -158 72q5 22 128.5 96t279.5 74 q342 0 285 -273l-93 -437h246l149 703h135l-174 -819h-516zM312 92q55 0 67 58q12 56 -43 55q-56 1 -68 -55q-12 -58 44 -58z" />
<glyph unicode="&#xf710;" horiz-adv-x="0" d="M271 1260q-42 -125 -186 -203q-141 -78 -315 -78q-144 0 -209 49t-47 133q16 72 68 113t126 41q64 0 94 -41q31 -38 17 -102q-10 -46 -47 -76q12 -2 27 -3t33 -1q80 0 161 34q78 32 129 86q48 55 58 101zM-321 1227q-57 1 -69 -57t44 -58q58 0 70 58t-45 57z" />
<glyph unicode="&#xf711;" horiz-adv-x="0" d="M-368 934q-52 0 -85 21.5t-47 59t-2 89.5q11 51 40.5 89t71.5 59.5t94 21.5q76 0 111.5 -47t19.5 -123q-14 -66 -66.5 -118t-136.5 -52zM-317 1178q-73 0 -89 -74q-16 -76 58 -76t89 76q16 74 -58 74z" />
<glyph unicode="&#xf712;" horiz-adv-x="0" d="M-627 1106q54 60 108 94h90q-9 -41 22 -79.5t67 -38.5q-6 8 -14 30q-4 14 2 35q26 119 148 119q56 0 85 -34t17 -94q-12 -55 -65 -106t-151 -51q-144 1 -196 107q-12 0 -49 -40t-47 -65h-62q-110 1 -72 183q52 240 306 239l106 -2q194 0 224 86l110 -61 q-80 -118 -258 -120h-197q-139 0 -165 -122q-10 -43 -9 -80zM-218 1194q-52 0 -62 -51t41 -51t61 51t-40 51z" />
<glyph unicode="&#xf713;" horiz-adv-x="0" d="M-233 1382l51 240h136l-52 -240h-135z" />
<glyph unicode="&#xf714;" horiz-adv-x="0" d="M-182 1489q-68 0 -89 32.5t-13 72.5q11 53 51.5 82.5t95.5 29.5q122 0 97 -119q-16 -78 -91 -131q45 0 118 37t124 89t61 100l81 -46q-58 -129 -216.5 -200.5t-340.5 -71.5l14 70q18 0 55 15.5t53 39.5zM-153 1640q-48 0 -57 -44q-10 -48 38 -48q44 0 54 48q10 44 -35 44 z" />
<glyph unicode="&#xf715;" horiz-adv-x="0" d="M-277 1503q21 19 57 19q70 0 55 -72q-17 -82 -99 -82q-45 0 -76.5 29t-15.5 100q17 80 67.5 111.5t80.5 31.5l58 -48l85 48q93 -10 71 -116q-8 -43 -32 -78q42 0 98.5 58t71.5 130l62 -38q-78 -222 -350 -222q54 41 70 117q14 64 -14 80l-76 -39l-60 45 q-18 0 -34.5 -18.5t-19.5 -32.5q-1 -5 1 -23zM-232 1480q-35 0 -42 -32q-8 -35 28 -35q32 0 40 35q6 32 -26 32z" />
<glyph unicode="&#xf716;" horiz-adv-x="0" d="M-350 1460l20 92h129l19 86h135l-19 -86h129l-19 -92h-129l-18 -86h-135l18 86h-130z" />
<glyph unicode="&#xf717;" horiz-adv-x="0" d="M-62 1468q6 -6 19 -32q5 -26 1 -44q-7 -34 -26.5 -59t-48.5 -39t-61 -14q-45 0 -68.5 33t-13.5 79q20 96 140 126q112 26 141 46t40 74l81 -32q-19 -70 -82.5 -104t-121.5 -34zM-140 1436q-47 0 -56 -46q-10 -46 37 -46q45 0 55 46q9 46 -36 46z" />
<glyph unicode="&#xf718;" horiz-adv-x="0" d="M-409 -672q-178 0 -149 140q14 64 64 106q48 41 119 41q61 -1 93 -29q32 -29 36 -65q4 -37 -13 -121l-31 -148h-135zM-396 -473q-60 1 -72 -59t47 -60q58 0 70 60q13 60 -45 59z" />
<glyph unicode="&#xf719;" horiz-adv-x="0" d="M-410 -637l56 262h135l-79 -371h-384l20 99h-37q-67 1 -95 37q-30 37 -16 102q32 150 182 150q82 0 112 -54q28 -52 14 -120l-22 -105h114zM-648 -448q-60 0 -72 -60q-13 -60 46 -60q58 0 70 60q14 60 -44 60z" />
<glyph unicode="&#xf71a;" horiz-adv-x="0" d="M-438 -500q9 43 46 72q34 28 76 28q18 0 35 -6t28.5 -19t16 -32t-1.5 -43q-8 -42 -43 -72q-37 -28 -79 -28q-20 0 -36.5 8t-27 21.5t-14.5 32t0 38.5z" />
<glyph unicode="&#xf71b;" horiz-adv-x="993" d="M836 561q32 154 -167 154q-103 1 -167 -43q69 -24 112 -82q-32 -10 -56 -16t-42 -19t-29.5 -32t-19.5 -56l-53 -248q-20 -92 -79 -133t-129 -41q-74 0 -108 43q-34 44 -20 110q12 60 60 105t168 45l25 115q7 32 16.5 51.5t21 32t28.5 21t38 16.5q-53 50 -159 72 q34 47 152 108q118 62 256 62q342 0 285 -273l-147 -690l-228 -205l-228 139q-55 -143 -205 -143q-83 0 -117 49t-19 119q17 80 73 122t130 42q52 0 82 -19l18 55h128l-2 -10q-8 -35 -34 -98l172 -106l104 100zM226 146q56 0 68 57q12 55 -44 55q-55 0 -66 -55 q-13 -57 42 -57zM204 -119q-60 0 -73 -61q-12 -60 47 -60q60 0 72 60q14 61 -46 61z" />
<glyph unicode="&#xf71c;" horiz-adv-x="1001" d="M854 561q32 154 -166 154q-102 1 -167 -43q65 -24 111 -82q-130 -40 -160 -184l-36 -168q-20 -92 -76 -134q-60 -40 -132 -40t-108 42q-34 45 -19 111q13 61 59 105q48 44 169 44l11 52q28 132 114 166q-55 52 -160 72q172 170 409 170q343 0 285 -273l-150 -703 l-228 -206l-98 126l-144 -126l-77 118q-17 -48 -69 -82q-54 -32 -113 -32q-65 0 -109 40q-44 42 -26 124q16 80 73 122q58 44 134 44q49 0 78 -19l18 55h129l-3 -14q-11 -43 -29 -86l-9 -22l50 -64l126 100l87 -112l84 76zM249 164q55 0 67 57q12 55 -43 55t-67 -55 q-12 -57 43 -57zM153 -127q-60 1 -73 -61q-12 -60 47 -60t71 60q14 62 -45 61z" />
<glyph unicode="&#xf71d;" horiz-adv-x="1085" d="M926 0h-152l-101 463l-297 -463h-151l111 520q-80 0 -116 16t-47 52q-12 36 -3 82q14 66 67 110q52 44 126 44q65 0 111 -40q46 -37 24 -135l-68 -317l-24 -74l250 381h106l93 -381l5 74l66 307q-170 0 -141 139q15 68 67 111q52 41 111 41q83 0 113 -60q50 30 112 105 l56 -111q-108 -117 -166 -147zM944 834q-54 0 -66 -56q-12 -57 42 -57q56 0 68 57q12 56 -44 56zM342 723q-56 1 -68 -55q-12 -58 44 -58t67 58q13 56 -43 55z" />
<glyph unicode="&#xf8ff;" horiz-adv-x="1132" d="M740 844q12 0 39 6t67 18q39 10 72.5 17.5t57.5 7.5q43 0 79.5 -12.5t63.5 -34.5q16 -14 31.5 -32t29.5 -40q-68 -49 -100 -86q-62 -68 -79 -148q-18 -88 15 -159q34 -72 93 -92q-21 -43 -53 -87t-71 -92q-123 -136 -215 -136q-39 0 -95 24q-32 8 -57.5 13t-47.5 5 q-46 0 -106 -20q-34 -12 -59 -18t-43 -6q-108 0 -176 182q-32 92 -40 181t12 179q18 84 51 149t85 119q104 104 228 105q53 -1 122 -23q70 -20 96 -20zM1020 1132q-10 -47 -42 -99t-88 -97q-24 -20 -47 -33t-41 -21q-17 -2 -35.5 -5t-41.5 -5q12 53 35 99.5t58.5 84.5 t86.5 66t118 42q0 -10 -1 -18t-2 -14z" />
<glyph horiz-adv-x="0" />
<glyph horiz-adv-x="764" d="M762 450h-270l-58 -274h-80l58 274h-272l16 78h273l58 273h80l-58 -273h270zM667 0h-623l18 80h622z" />
<glyph d="M698 37q-78 -35 -121 -44t-125 -9q-156 0 -250 92t-94 264h-86l46 78h46q2 8 4 22t7 37l5 21q4 18 9 34h-75l44 76h60q60 158 200 258t296 100q90 0 131 -11t89 -39l-23 -111h-11q-40 36 -83 56.5t-115 22.5q-109 -2 -216.5 -67t-175.5 -209h303l-43 -76h-290 q-6 -20 -10 -32l-4 -21q-4 -20 -5 -34.5t-2 -26.5h245l-44 -78h-206q8 -144 90 -207t184 -67q95 4 138 22t94 58h10z" />
<glyph horiz-adv-x="0" d="M-25 0h-615l218 1024h614z" />
<glyph horiz-adv-x="450" d="M-23 -144l17 82q8 35 16.5 46.5t47.5 11.5h288q41 0 45.5 -11t-3.5 -47l-18 -82q-12 -60 -39 -59q-12 -1 -14 49q0 20 -8.5 42t-43.5 26t-74 4q-51 0 -83 -5t-47.5 -15t-37.5 -58q-22 -44 -36 -43q-22 -1 -10 59z" />
<glyph horiz-adv-x="0" d="M-364 -414q39 0 60.5 -27.5t13.5 -66.5t-42 -66.5t-72 -27.5q-39 0 -60.5 27.5t-13.5 66.5t41.5 66.5t72.5 27.5z" />
<glyph horiz-adv-x="719" d="M-370 966q-45 0 -77.5 20t-49.5 58q-18 38 -7 92q8 37 28 69t47 54.5t60.5 34.5t70.5 12q76 0 113 -46q35 -48 19 -124q-14 -66 -66 -116q-52 -54 -138 -54zM-318 1210q-72 0 -88 -74q-16 -76 56 -75q76 -1 92 75q16 74 -60 74zM110 568q20 94 109 176q88 80 240 80 q308 0 248 -279l-115 -545h-136l115 540q37 174 -133 175q-78 0 -133 -39q-56 -38 -70 -108h-125z" />
<glyph horiz-adv-x="0" d="M-134 1024q-68 -47 -176 -47q-142 1 -120 103q10 50 68 98q56 50 164 49q-92 12 -76 86q9 43 82 77q72 34 163 34q65 0 94 -17l-59 -39q-22 10 -46 10q-22 0 -46 -2q-76 -20 -88 -78q-13 -60 85 -59l-33 -47q-72 0 -126 -28q-54 -26 -65 -74q-12 -58 55 -58q50 0 86 29z " />
<glyph horiz-adv-x="1024" d="M104 0l202 950h768l-202 -950h-768zM258 129h512l148 695h-512z" />
</font>
</defs>
</svg>
