<?xml version="1.0" standalone="no"?>
<!DOCTYPE svg PUBLIC "-//W3C//DTD SVG 1.1//EN" "http://www.w3.org/Graphics/SVG/1.1/DTD/svg11.dtd" >
<svg xmlns="http://www.w3.org/2000/svg">
<metadata>
This is a custom SVG webfont generated by Font Squirrel.
Copyright   : UPCCordia  UPC Unity Progress CoLtd 1986 All rights reserved
Foundry     : Boonlert Wuthikornkhanarak
Foundry URL : infoupccoth
</metadata>
<defs>
<font id="webfontuuUgdGCA" horiz-adv-x="0" >
<font-face units-per-em="2048" ascent="1638" descent="-410" />
<missing-glyph horiz-adv-x="372" />
<glyph unicode="&#xe4f;&#x22;" horiz-adv-x="641" d="M576 375q0 -106 -75 -181t-181 -75q-72 0 -128.5 34.5t-91 91t-34.5 130.5q0 72 34.5 128t91 90.5t128.5 34.5q74 0 130 -34.5t91 -90.5t35 -128zM542 375q0 61 -29 111t-79 80t-114 30q-56 0 -105 -25.5t-83 -77t-34 -118.5q0 -94 66 -158.5t156 -64.5q92 0 157 64.5 t65 158.5zM428 375q0 -29 -12 -52.5t-37 -40t-59 -16.5q-28 0 -53 14.5t-39.5 39t-14.5 55.5q0 43 31.5 76t75.5 33q30 0 55 -16t39 -39.5t14 -53.5zM456 868l-20 -178h-59l-21 178v156h100v-156zM280 868l-18 -178h-59l-19 178v156h96v-156z" />
<glyph unicode="&#xe24;&#xe32;" horiz-adv-x="1202" d="M719 -498h-78v1096q0 76 -66.5 119t-166.5 43q-116 0 -212 -66q80 -20 166 -78q-49 -20 -80.5 -45.5t-42.5 -51t-11 -58.5v-219q18 16 48 16q39 0 70 -15t50.5 -46t19.5 -74q0 -39 -17.5 -69t-49 -47t-73.5 -17q-33 0 -59.5 13t-45.5 43t-19 75v373q0 84 98 118 q-56 32 -170 62q43 68 140.5 112t189.5 44q98 0 166 -29q14 -7 22 -13q62 32 129 33q114 0 190.5 -71.5t76.5 -184.5v-1071h-76v1057q0 62 -25 105.5t-66 68.5t-100 25q-41 0 -61 -10q10 -8 16 -17q37 -49 37 -121v-1100zM344 125q0 61 -62 61q-70 0 -69 -67q-1 -61 63 -61 q68 0 68 67z" />
<glyph unicode="&#xe26;&#xe32;" horiz-adv-x="1390" d="M815 -498h-75v1096q0 76 -68 119t-166 43q-121 0 -211 -66q84 -20 164 -78q-48 -22 -79.5 -48t-40.5 -49t-9 -58v-336q0 -54 -38 -94.5t-92 -40.5q-38 0 -70 18t-49 48t-17 67q0 55 34 92t90 37q34 0 66 -16v256q0 84 94 120q-53 32 -172 62q43 68 140.5 112t193.5 44 q94 0 164 -29q6 -5 12 -7q43 32 123 32q112 0 188 -72t76 -184v-1072h-75v1057q0 62 -25 105.5t-66 68.5t-98 25q-33 0 -51 -6q12 -12 20 -25q37 -49 37 -121v-1100zM262 119q0 71 -70 71q-60 0 -59 -63q-1 -71 67 -71q62 0 62 63z" />
<glyph unicode="&#xfb01;" horiz-adv-x="545" d="M408 -4v639h-166v-635h-82v635h-111v61h111v72q0 72 14 114q14 40 56 68q44 26 100 27q37 -1 100 -17l-12 -65q-48 6 -70 6q-34 0 -57 -10.5t-35 -36.5q-14 -24 -14 -98v-60l166 2v-4h82v-698h-82z" />
<glyph unicode="&#xfb02;" horiz-adv-x="536" d="M387 4v893q-20 2 -37.5 3t-27.5 1q-35 0 -57.5 -10.5t-36.5 -36.5q-12 -24 -13 -98v-60h123v-61h-123v-635h-82v635h-111v61h111v72q1 72 15 114q14 40 55 68q40 26 100 27q16 0 39.5 -3.5t50.5 -9.5h76v-960h-82z" />
<glyph unicode=" "  horiz-adv-x="372" />
<glyph unicode="&#x09;" horiz-adv-x="372" />
<glyph unicode="&#xa0;" horiz-adv-x="372" />
<glyph unicode="!" horiz-adv-x="446" d="M272 746l-22 -508h-54l-22 508v214h98v-214zM280 0h-112v127h112v-127z" />
<glyph unicode="&#x22;" horiz-adv-x="372" d="M326 805l-21 -179h-59l-20 179v155h100v-155zM150 805l-19 -179h-59l-19 179v155h97v-155z" />
<glyph unicode="#" horiz-adv-x="747" d="M708 280h-188l-57 -272h-59l59 272h-258l-59 -272h-60l60 272h-116v62h126l53 260h-179v62h191l57 274h62l-58 -274h254l60 274h64l-58 -274h106v-62h-118l-54 -260h172v-62zM526 602h-256l-55 -260h258z" />
<glyph unicode="$" horiz-adv-x="747" d="M393 -16v-119h-49v119q-250 8 -293 276l80 10q43 -203 213 -219v412q-72 18 -115 34.5t-80 46.5t-56 75t-19 102q0 76 31.5 130t91 87t147.5 39v57h49v-57q205 -17 254 -229l-82 -10q-32 147 -172 167v-373q172 -51 226.5 -113.5t54.5 -156.5q0 -118 -73.5 -191 t-207.5 -87zM393 448v-397q203 27 203 205q0 43 -16.5 77.5t-52.5 60.5t-134 54zM344 547v361q-192 -14 -192 -185q0 -33 10 -59.5t31.5 -49t58.5 -39t92 -28.5z" />
<glyph unicode="%" horiz-adv-x="1194" d="M1106 215q0 -250 -198 -250q-92 0 -145 67.5t-53 178.5q0 80 26 138.5t69 89t103 30.5q51 0 88.5 -19.5t62.5 -55.5t36 -80.5t11 -98.5zM477 723q-1 -250 -197 -250q-47 0 -82.5 16.5t-61.5 50.5t-39 78t-13 101q0 114 51 186t145 72t145.5 -69t51.5 -185zM406 721 q0 193 -124 193q-126 0 -126 -189q0 -195 126 -195q124 0 124 191zM1032 213q0 195 -122 195q-126 0 -126 -191q0 -195 126 -195q122 0 122 191zM910 977l-562 -1012h-68l562 1012h68z" />
<glyph unicode="&#x26;" horiz-adv-x="895" d="M856 56l-58 -72q-76 62 -153 149q-110 -149 -264 -149q-90 0 -158.5 39t-107.5 100t-39 141q0 41 11 76t34 66.5t64 64.5t114 76q-51 68 -78 119t-27 94q0 92 64 154.5t156 62.5q66 0 114 -27.5t75.5 -73.5t27.5 -110q0 -134 -207 -236l213 -254l39 78l32 90l84 -16 q-46 -129 -96 -217l76 -82q26 -26 84 -73zM588 196q-129 132 -244 290q-110 -62 -145 -109t-35 -99q0 -86 62 -152t146 -66q124 0 216 136zM542 770q0 56 -35 93.5t-91 37.5q-55 0 -95.5 -37.5t-40.5 -93.5q0 -16 7.5 -38t23 -47t66.5 -95q165 86 165 180z" />
<glyph unicode="'" horiz-adv-x="299" d="M194 805l-18 -177h-57l-21 177v155h96v-155z" />
<glyph unicode="(" horiz-adv-x="446" d="M393 -215h-63q-228 315 -228 625q0 106 22 203t73 206t133 225h59q-201 -320 -201 -638q0 -324 205 -621z" />
<glyph unicode=")" horiz-adv-x="446" d="M119 -215h-59q200 322 200 641q0 322 -207 618h66q227 -314 227 -624q0 -174 -58.5 -323.5t-168.5 -311.5z" />
<glyph unicode="*" horiz-adv-x="522" d="M467 798l-84 -24l-82 -18l55 -68l58 -66l-58 -44l-49 74l-47 75l-90 -149l-62 44l54 66l59 68l-86 18l-84 24l25 68l78 -32l82 -36l-15 179h74l-11 -179l78 36l82 32z" />
<glyph unicode="+" horiz-adv-x="887" d="M790 442h-319v-321h-61v321h-322v60h322v322h61v-322h319v-60z" />
<glyph unicode="," horiz-adv-x="372" d="M164 -178l-35 47q33 24 45 48.5t14 82.5h-53v127h115v-127q0 -116 -86 -178z" />
<glyph unicode="-" horiz-adv-x="446" d="M400 330h-351v86h351v-86z" />
<glyph unicode="." horiz-adv-x="372" d="M246 0h-115v127h115v-127z" />
<glyph unicode="/" horiz-adv-x="372" d="M377 977l-313 -1001h-64l316 1001h61z" />
<glyph unicode="0" horiz-adv-x="747" d="M674 471q0 -487 -304 -487t-304 470q0 136 18 232t56 155.5t95 89t135 29.5q304 0 304 -489zM590 471q0 424 -220 424q-55 0 -97.5 -25.5t-70.5 -76.5t-39 -131t-11 -195q0 -100 9 -173t33.5 -127.5t69.5 -85t111 -30.5q215 0 215 420z" />
<glyph unicode="1" horiz-adv-x="747" d="M477 0h-81v803q-108 -102 -244 -154v72q205 111 270 239h55v-960z" />
<glyph unicode="2" horiz-adv-x="747" d="M670 0h-623q6 47 22.5 92t78.5 113.5t176 156.5q82 64 125 101t74.5 76t45 76t13.5 77q0 60 -27 105t-74 70.5t-109 25.5q-182 0 -216 -209l-86 12q14 122 95 193t212 71q127 0 209 -75t82 -191q0 -70 -31 -131t-88 -114t-187 -150q-152 -116 -206 -221h514v-78z" />
<glyph unicode="3" horiz-adv-x="747" d="M66 244l80 12q44 -205 218 -205q66 0 116 29.5t79 80.5t29 119q0 90 -58.5 144.5t-152.5 54.5q-33 0 -86 -10l8 71q74 0 115.5 14t71.5 37t44.5 56t14.5 76q0 76 -51.5 123t-131.5 47q-154 -1 -202 -189l-82 15q58 241 284 241q123 0 196 -65t73 -178q1 -136 -141 -201 q188 -48 188 -234q0 -135 -87 -216.5t-227 -81.5q-244 0 -298 260z" />
<glyph unicode="4" horiz-adv-x="747" d="M680 240h-131v-240h-80v240h-447v74l464 646h63v-646h131v-74zM469 314v514l-367 -514h367z" />
<glyph unicode="5" horiz-adv-x="747" d="M66 238l82 10q40 -197 222 -197q58 0 107 27.5t84 87.5t35 141q0 104 -62.5 172t-158.5 68q-113 -1 -221 -107l-68 10l90 498h463v-76h-401l-62 -327q106 73 211 73q125 0 210 -88t85 -214q0 -68 -23.5 -128.5t-65.5 -105.5t-103.5 -71.5t-133.5 -26.5q-226 0 -290 254z " />
<glyph unicode="6" horiz-adv-x="747" d="M658 738l-82 -9q-42 164 -180 164q-41 0 -76.5 -13.5t-62.5 -39t-47 -57t-31 -64.5t-21 -92t-16 -160q104 139 258 139q122 0 201 -84t79 -213q0 -96 -39 -168.5t-105.5 -114.5t-156.5 -42q-80 0 -141.5 30.5t-102.5 92t-58 142.5t-17 197q0 170 35.5 280t113 172 t191.5 62q212 0 258 -222zM590 299q0 104 -56.5 168.5t-148.5 64.5q-96 0 -159.5 -63t-63.5 -160q0 -104 62 -181t157 -77q94 0 151.5 72t57.5 176z" />
<glyph unicode="7" horiz-adv-x="747" d="M680 895q-182 -209 -269 -425t-108 -470h-88q8 110 29.5 214t56.5 201t89 192t186 267h-504v74h608v-53z" />
<glyph unicode="8" horiz-adv-x="747" d="M236 516q-136 62 -136 196q0 74 35 129.5t95 87t140 31.5q78 0 140 -32.5t96.5 -87t34.5 -128.5q0 -135 -137 -196q176 -60 176 -240q0 -144 -93 -218t-217 -74q-92 0 -158 33.5t-108 104t-42 154.5q0 86 40 147t134 93zM594 270q0 64 -28 110t-77 71.5t-121 25.5 q-70 0 -120 -25.5t-76 -71.5t-26 -110q0 -100 61 -159.5t161 -59.5q102 0 164 59.5t62 159.5zM557 712q0 54 -23.5 95t-65.5 63.5t-100 22.5q-55 0 -96.5 -23.5t-65.5 -63.5t-24 -94q0 -74 54 -119.5t132 -45.5q80 0 134.5 45.5t54.5 119.5z" />
<glyph unicode="9" horiz-adv-x="747" d="M84 205l80 10q43 -164 182 -164q78 0 137 51.5t83 129t34 245.5q-104 -139 -258 -139q-123 0 -201.5 84t-78.5 213q0 141 85 233t215 92q98 0 168 -47t111 -144t41 -271q0 -170 -36 -280t-114 -172t-190 -62q-211 0 -258 221zM580 635q0 51 -15.5 97t-46 84t-70.5 57.5 t-88 19.5q-94 0 -152 -72.5t-58 -177.5q0 -102 57 -166.5t149 -64.5q96 0 160 63.5t64 159.5z" />
<glyph unicode=":" horiz-adv-x="372" d="M246 568h-115v128h115v-128zM246 0h-115v127h115v-127z" />
<glyph unicode=";" horiz-adv-x="372" d="M164 -178l-35 47q33 24 45 48.5t14 82.5h-53v127h115v-127q0 -116 -86 -178zM250 568h-115v128h115v-128z" />
<glyph unicode="&#x3c;" horiz-adv-x="887" d="M792 148l-704 296v54l704 298v-67l-622 -258l622 -258v-65z" />
<glyph unicode="=" horiz-adv-x="887" d="M792 604h-704v58h704v-58zM792 280h-704v62h704v-62z" />
<glyph unicode="&#x3e;" horiz-adv-x="887" d="M792 446l-704 -298v65l622 260l-622 256v67l704 -296v-54z" />
<glyph unicode="?" horiz-adv-x="671" d="M366 238h-84v55q2 32 8.5 62t18 55.5t36.5 55.5t63 64q118 106 118 191q0 76 -53 128t-131 52q-148 -1 -194 -195l-90 15q62 256 292 256q80 0 140.5 -32.5t94 -89.5t33.5 -132q0 -117 -134 -244q-43 -38 -71 -72.5t-37.5 -74.5t-9.5 -94zM387 0h-115v127h115v-127z" />
<glyph unicode="@" horiz-adv-x="1073" d="M1077 30q-82 -129 -211.5 -193.5t-295.5 -64.5q-102 0 -191.5 27t-161 77t-119 121t-73 157t-25.5 184q0 172 75 303t199 202t294 71q148 0 253 -55.5t170.5 -168t65.5 -252.5q0 -92 -23.5 -166t-70.5 -132t-116 -99t-128 -41q-80 0 -80 70q0 18 4 51 q-102 -121 -223 -121q-50 0 -90.5 19.5t-72 59.5t-48.5 88.5t-17 108.5q0 62 17 120t48.5 113.5t73 92.5t93.5 57.5t104 20.5q60 0 111 -30t88 -95l23 109h82l-111 -527q-9 -34 -9 -51q0 -26 34 -26q20 0 42.5 9t62.5 36.5t76.5 78t55.5 113.5t19 141q0 90 -31 169 t-86 137.5t-136 87t-186 28.5q-223 0 -366.5 -147.5t-143.5 -376.5q0 -156 65.5 -269.5t180.5 -177t273 -63.5q133 0 241.5 46t196.5 158h67zM696 436q0 80 -47 133t-121 53q-110 0 -181 -110t-71 -240q0 -90 46 -150t122 -60q49 0 94.5 31.5t84.5 92t56 121.5t17 129z" />
<glyph unicode="A" horiz-adv-x="895" d="M895 0h-103l-124 305h-449l-121 -305h-98l391 960h95zM637 381l-201 483l-188 -483h389z" />
<glyph unicode="B" horiz-adv-x="895" d="M114 0v960h363q90 0 156.5 -28.5t103.5 -83t37 -131.5q0 -62 -31 -115t-106 -96q98 -33 141 -93.5t43 -142.5t-33.5 -140t-103.5 -94t-166 -36h-404zM209 456v-378h299q64 0 113 20.5t77 63.5q29 42 29 108q0 86 -59.5 136t-155.5 50h-303zM209 878v-340h281 q62 0 104.5 22t66 60t23.5 92q0 43 -14 75t-43 52.5t-74 29.5t-111 9h-233z" />
<glyph unicode="C" horiz-adv-x="968" d="M910 301q-94 -317 -398 -317q-102 0 -181 31.5t-134 95t-89 161.5t-34 207q0 220 120 359t320 139q138 0 234 -67.5t149 -213.5l-86 -24q-82 230 -291 229q-162 0 -257 -119.5t-95 -304.5q0 -206 96 -311.5t244 -105.5q240 0 320 264z" />
<glyph unicode="D" horiz-adv-x="968" d="M116 0v960h370q139 0 231 -65t133 -174t41 -235q0 -230 -106.5 -358t-298.5 -128h-370zM207 880v-800h227q82 0 141.5 13t113 63.5t80.5 133t27 202.5q0 388 -362 388h-227z" />
<glyph unicode="E" horiz-adv-x="819" d="M756 0h-635v960h614v-82h-522v-344h483v-80h-483v-374h543v-80z" />
<glyph unicode="F" horiz-adv-x="747" d="M684 880h-477v-348h407v-80h-407v-452h-91v960h568v-80z" />
<glyph unicode="G" horiz-adv-x="1044" d="M958 123q-190 -139 -399 -139q-76 0 -141.5 16t-120.5 49t-101 82t-70 97t-36 109t-12 132q0 160 57 272.5t164 174t256 61.5q152 0 251 -67.5t138 -207.5l-88 -26q-74 225 -307 225q-174 0 -276.5 -114.5t-102.5 -309.5q0 -116 43 -209.5t129 -150.5t209 -57 q173 0 317 104v236h-305v79h395v-356z" />
<glyph unicode="H" horiz-adv-x="968" d="M850 0h-88v467h-557v-467h-91v960h91v-413h557v413h88v-960z" />
<glyph unicode="I" horiz-adv-x="372" d="M234 0h-90v960h90v-960z" />
<glyph unicode="J" horiz-adv-x="671" d="M33 264l81 10q14 -214 179 -214q170 0 170 214v686h90v-686q-1 -290 -271 -290q-236 0 -249 280z" />
<glyph unicode="K" horiz-adv-x="895" d="M893 0h-121l-389 512l-174 -156v-356h-90v960h90v-501l543 501h122l-432 -392z" />
<glyph unicode="L" horiz-adv-x="747" d="M690 0h-574v960h91v-882h483v-78z" />
<glyph unicode="M" horiz-adv-x="1118" d="M1000 0h-92l14 862l-328 -862h-76l-324 862l15 -862h-90v960h127l309 -831l313 831h132v-960z" />
<glyph unicode="N" horiz-adv-x="968" d="M850 0h-96l-556 819l9 -819h-93v960h93l559 -827l-6 827h90v-960z" />
<glyph unicode="O" horiz-adv-x="1044" d="M971 479q0 -223 -119 -359q-120 -136 -328 -136q-140 0 -237 60t-153 171t-56 264q0 226 120 362t326 136q139 0 238.5 -61.5t154 -172t54.5 -264.5zM876 479q0 190 -94 306t-258 116q-166 0 -259 -116.5t-93 -305.5q0 -186 95 -302.5t257 -116.5q106 0 184 51t123 146.5 t45 221.5z" />
<glyph unicode="P" horiz-adv-x="819" d="M213 406v-406h-92v960h333q146 0 228 -71.5t82 -202.5q0 -60 -20.5 -111t-58.5 -90t-98.5 -59t-132.5 -20h-241zM213 876v-390h215q242 0 242 196q0 194 -242 194h-215z" />
<glyph unicode="Q" horiz-adv-x="1044" d="M994 0l-28 -64q-86 30 -198 111q-102 -63 -244 -63q-104 0 -186 33.5t-141.5 101t-89 157.5t-29.5 203q0 226 120 362t326 136q139 0 237.5 -59.5t154 -171t55.5 -267.5q1 -243 -141 -383q82 -58 164 -96zM692 102q-70 52 -160 82l21 68q97 -20 203 -104q120 114 120 331 q0 132 -45 227t-123 145t-184 50q-164 0 -258 -117.5t-94 -304.5q0 -186 95 -302.5t257 -116.5q86 0 168 42z" />
<glyph unicode="R" horiz-adv-x="895" d="M893 0h-117l-129 203q-80 126 -114.5 162.5t-80.5 56.5t-104 20h-139v-442h-90v960h403q92 0 157 -30.5t99.5 -87t34.5 -138.5q-1 -230 -279 -256q102 -54 176 -166zM209 880v-360h254q254 0 254 184q0 39 -13.5 71t-43 57.5t-77 36.5t-116.5 11h-258z" />
<glyph unicode="S" horiz-adv-x="819" d="M62 289l90 8q10 -119 78 -178q70 -59 182 -59q82 0 139 24t88 72.5t31 103.5q0 146 -252 190q-170 31 -244 94.5t-74 176.5q0 118 86 187t220 69q150 0 232.5 -66.5t88.5 -204.5l-88 -4q-15 198 -225 199q-98 0 -162 -46t-64 -126q0 -137 230 -184q170 -35 254 -97.5 t84 -181.5q0 -63 -23 -114.5t-69 -89.5t-108 -58t-138 -20q-328 0 -356 305z" />
<glyph unicode="T" horiz-adv-x="747" d="M710 876h-294v-876h-92v876h-294v84h680v-84z" />
<glyph unicode="U" horiz-adv-x="968" d="M114 960h93v-614q1 -286 277 -286q274 0 274 284v616h92v-608q0 -368 -364 -368q-372 0 -372 368v608z" />
<glyph unicode="V" horiz-adv-x="819" d="M815 960l-359 -960h-94l-352 960h96l304 -862l313 862h92z" />
<glyph unicode="W" horiz-adv-x="1194" d="M1174 960l-256 -960h-92l-230 858l-236 -858h-90l-256 960h92l210 -831l222 831h111l223 -827l216 827h86z" />
<glyph unicode="X" horiz-adv-x="819" d="M817 0h-111l-286 428l-304 -428h-108l360 502l-308 458h108l252 -384l276 384h94l-319 -448z" />
<glyph unicode="Y" horiz-adv-x="819" d="M813 960l-361 -546v-414h-92v414l-350 546h109l293 -460l298 460h103z" />
<glyph unicode="Z" horiz-adv-x="819" d="M780 0h-747v84l623 798h-568v78h678v-78l-626 -804h640v-78z" />
<glyph unicode="[" horiz-adv-x="446" d="M412 -200h-308v1230h308v-70h-228v-1091h228v-69z" />
<glyph unicode="\" horiz-adv-x="372" d="M377 -24h-61l-316 1001h64z" />
<glyph unicode="]" horiz-adv-x="446" d="M344 -200h-309v69h227v1091h-227v70h309v-1230z" />
<glyph unicode="^" horiz-adv-x="887" d="M733 624l-43 -34l-250 301l-252 -301l-40 34l292 353z" />
<glyph unicode="_" horiz-adv-x="671" d="M680 -168h-688v68h688v-68z" />
<glyph unicode="`" horiz-adv-x="446" d="M299 786h-67l-148 174h129z" />
<glyph unicode="a" horiz-adv-x="747" d="M680 0h-88q-20 48 -27 106q-113 -122 -285 -122q-62 0 -110.5 22t-78 65t-29.5 107q0 43 13 78t42 61.5t76 44.5q47 20 169 36q137 20 195 40q0 59 -3 91t-22.5 60.5t-58.5 43t-96 14.5q-181 1 -217 -153l-84 12q38 204 299 204q82 0 138.5 -18t82.5 -52t35.5 -85 t9.5 -139l-4 -197q0 -78 8.5 -119.5t34.5 -99.5zM557 330v45q-70 -27 -219 -53q-80 -14 -117 -29t-55 -43q-18 -30 -18 -66q0 -58 42 -92t109 -34q39 0 77 10t74 30.5t60 49t35.5 73.5t11.5 109z" />
<glyph unicode="b" horiz-adv-x="819" d="M190 106v-106h-82v960h82v-378q104 128 260 128q148 0 229 -101t81 -255q0 -168 -83 -269t-233 -101q-154 0 -254 122zM676 346q0 131 -62 214q-64 83 -172 83q-119 0 -186.5 -82t-67.5 -223q0 -133 67 -210t181 -77q56 0 100 21.5t75.5 63.5t48 94t16.5 116z" />
<glyph unicode="c" horiz-adv-x="747" d="M684 226q-41 -119 -114.5 -180.5t-197.5 -61.5q-94 0 -161 39t-109 124t-42 201q0 76 17 137.5t42 99t57.5 64.5t78.5 44t122 17q227 0 297 -210l-86 -14q-46 158 -216 157q-53 0 -94.5 -20.5t-71.5 -59.5t-45 -90t-15 -117q0 -138 60 -221.5t171 -83.5q158 1 225 187z " />
<glyph unicode="d" horiz-adv-x="819" d="M717 0h-82v106q-111 -122 -263 -122q-72 0 -128 25.5t-97 76.5t-62 118.5t-21 149.5q0 156 81 256t230 100q162 0 260 -128v378h82v-960zM637 350q0 134 -69.5 213.5t-184.5 79.5q-108 0 -170.5 -84t-62.5 -213q0 -125 64 -210t173 -85q119 0 184.5 79t65.5 220z" />
<glyph unicode="e" horiz-adv-x="747" d="M682 338h-534q2 -135 63 -211t170 -76q152 0 213 168l80 -12q-41 -119 -114.5 -171t-182.5 -52q-148 0 -231.5 98t-83.5 266t84 265t233 97q301 0 303 -372zM594 406q-18 240 -217 239q-92 0 -153.5 -62.5t-73.5 -176.5h444z" />
<glyph unicode="f" horiz-adv-x="372" d="M404 960l-13 -65q-47 6 -69 6q-35 0 -57.5 -10.5t-36 -35.5t-13.5 -99v-60h145v-61h-145v-635h-82v635h-111v61h111v72q0 74 14.5 115t55.5 67.5t100 26.5q35 -1 101 -17z" />
<glyph unicode="g" horiz-adv-x="819" d="M94 -78l80 -14q26 -123 192 -123q268 0 269 254v67q-60 -74 -122.5 -98t-137.5 -24q-70 0 -126.5 24.5t-98.5 74.5t-63 115.5t-21 147.5q0 108 41 194t108 128t160 42q80 0 143.5 -28t116.5 -104v118h80v-640q0 -117 -35 -192t-109.5 -110.5t-189.5 -35.5 q-273 0 -287 204zM635 340q0 137 -64.5 220t-179.5 83q-59 0 -102 -21.5t-75 -60.5t-47 -92t-15 -121q0 -131 63 -215t174 -84q68 0 121 29.5t89 95.5t36 166z" />
<glyph unicode="h" horiz-adv-x="747" d="M645 0h-82v432q0 113 -44 161q-43 48 -117 48q-39 0 -74 -14.5t-64.5 -41t-47.5 -61t-25 -76.5t-7 -147v-301h-82v960h82v-366q94 116 226 116q236 0 235 -256v-454z" />
<glyph unicode="i" horiz-adv-x="299" d="M188 838h-82v122h82v-122zM188 0h-82v696h82v-696z" />
<glyph unicode="j" horiz-adv-x="299" d="M-41 -268l17 72q28 -8 50 -9q26 0 44 10.5t27 32.5t9 96v762h82v-752q0 -59 -3 -94.5t-19 -66.5t-47 -48t-76 -17q-28 0 -84 14zM188 840h-82v120h82v-120z" />
<glyph unicode="k" horiz-adv-x="671" d="M666 0h-107l-266 381l-103 -95v-286h-84v960h84v-588l338 324h115l-289 -260z" />
<glyph unicode="l" horiz-adv-x="299" d="M188 0h-82v960h82v-960z" />
<glyph unicode="m" horiz-adv-x="1118" d="M1012 0h-82v430q0 96 -15.5 134t-49 57.5t-79.5 19.5q-64 0 -106.5 -35.5t-61 -97.5t-18.5 -166v-342h-80v440q0 72 -12 113t-45 63.5t-82 22.5q-88 0 -140.5 -72.5t-52.5 -196.5v-370h-82v696h82v-100q88 114 214 114q134 0 184 -114q94 114 219 114q207 0 207 -237 v-473z" />
<glyph unicode="n" horiz-adv-x="747" d="M645 0h-82v432q0 113 -44 161q-43 48 -117 48q-39 0 -74 -14.5t-64.5 -41t-47.5 -61t-25 -76.5t-7 -147v-301h-82v696h82v-102q94 116 226 116q236 0 235 -256v-454z" />
<glyph unicode="o" horiz-adv-x="747" d="M680 346q0 -172 -81 -267t-231 -95q-72 0 -128 25.5t-98 74.5t-62 114.5t-20 145.5q0 82 18 147.5t55 114t92 76.5t143 28q144 0 228 -92t84 -272zM596 346q0 94 -28 162t-77 101.5t-119 33.5q-108 0 -167 -78.5t-59 -214.5q0 -133 60 -216t166 -83q52 0 91 17.5 t69.5 56.5t47 95t16.5 126z" />
<glyph unicode="p" horiz-adv-x="819" d="M190 106v-372h-82v962h82v-114q106 128 260 128q70 0 124 -21t96 -67t66 -115t24 -153q0 -168 -83 -269t-233 -101q-154 0 -254 122zM676 346q0 90 -30 158t-81 103.5t-123 35.5q-60 0 -105.5 -19.5t-79.5 -59.5t-51.5 -97t-17.5 -129q0 -133 67 -210t181 -77 q56 0 100 21.5t75.5 63.5t48 94t16.5 116z" />
<glyph unicode="q" horiz-adv-x="819" d="M717 -266h-82v372q-110 -122 -260 -122q-72 0 -127.5 24.5t-98.5 74.5t-64 118.5t-21 152.5q0 156 81 256t230 100q162 0 260 -128v114h82v-962zM637 350q0 134 -69.5 213.5t-184.5 79.5q-108 0 -170.5 -84t-62.5 -213q0 -125 64 -210t173 -85q119 0 184.5 79t65.5 220z " />
<glyph unicode="r" horiz-adv-x="446" d="M465 670l-33 -72q-62 26 -92 26q-24 0 -45 -7t-39 -24t-30.5 -40t-20 -49.5t-12.5 -80t-5 -95.5v-328h-82v696h72v-141q54 155 164 155q57 0 123 -40z" />
<glyph unicode="s" horiz-adv-x="671" d="M49 188l84 15q18 -80 71.5 -116t133.5 -36q53 0 95 17.5t64.5 47.5t22.5 70q0 36 -25.5 63t-67.5 41q-42 16 -118 32q-237 49 -237 194q0 90 70 142q72 52 176 52q212 0 258 -182l-80 -12q-22 74 -60 101.5t-116 27.5q-49 0 -88.5 -15.5t-58.5 -39.5q-19 -26 -19 -58 q0 -35 17 -58.5t67 -42.5t128 -35q150 -35 195 -84.5t45 -115.5t-33 -112.5t-94 -73t-145 -26.5q-54 0 -98 10t-79.5 31.5t-63.5 58t-44 104.5z" />
<glyph unicode="t" horiz-adv-x="372" d="M362 0q-56 -10 -88 -10q-47 0 -80.5 15t-50 47t-16.5 116v467h-99v61h99v178l82 52v-230h131v-61h-131v-457q0 -49 6 -72.5t23.5 -35.5t47.5 -12q22 0 64 8z" />
<glyph unicode="u" horiz-adv-x="747" d="M639 0h-84v102q-90 -118 -223 -118q-236 0 -236 258v454h82v-432q0 -114 44 -161t118 -47q49 0 91 20t74.5 62t41 98.5t8.5 156.5v303h84v-696z" />
<glyph unicode="v" horiz-adv-x="671" d="M652 696l-280 -696h-75l-279 696h88l230 -596l229 596h87z" />
<glyph unicode="w" horiz-adv-x="968" d="M958 696l-233 -696h-84l-159 572l-158 -572h-84l-234 696h86l186 -594l166 594h76l166 -594l188 594h84z" />
<glyph unicode="x" horiz-adv-x="671" d="M660 0h-103l-221 303l-224 -303h-102l279 362l-259 334h103l203 -268l202 268h101l-256 -326z" />
<glyph unicode="y" horiz-adv-x="671" d="M660 696l-275 -696l-53 -137q-58 -145 -162 -145q-26 0 -78 12l-10 82q50 -10 74 -10q39 0 57.5 15t36.5 60l47 123l-275 696h90l230 -602l238 602h80z" />
<glyph unicode="z" horiz-adv-x="671" d="M641 0h-613v72l478 554h-450v70h562v-55l-483 -569h506v-72z" />
<glyph unicode="{" horiz-adv-x="446" d="M383 -215q-60 0 -101.5 19.5t-65.5 62.5t-24 145v138q0 88 -14 135t-41 66t-71 19v89q64 0 95 51t31 166v137q0 102 22 147.5t66 64.5t103 19v-73q-43 -2 -68.5 -15.5t-37 -44.5t-11.5 -157q0 -206 -39 -261t-90 -79q31 -14 54.5 -35t40 -48.5t25.5 -64t9 -152.5v-58 q0 -78 9 -124t29 -58t79 -16v-73z" />
<glyph unicode="|" horiz-adv-x="299" d="M180 -266h-68v1226h68v-1226z" />
<glyph unicode="}" horiz-adv-x="446" d="M381 372q-125 0 -125 -216v-80q0 -78 -4 -121t-22.5 -85t-54 -63.5t-89.5 -21.5q-10 0 -22 2v73q37 0 64.5 13t40.5 41t13 162q0 100 8 160.5t25 90t40 52.5t57 37q-41 18 -69 48t-41.5 67t-17.5 74.5t-4 111.5l2 57q0 104 -8 134t-36 45t-74 18v73q62 0 103.5 -19 t65 -60t23.5 -148v-137q0 -92 16.5 -141t45 -64.5t63.5 -15.5v-87z" />
<glyph unicode="~" horiz-adv-x="887" d="M790 463q-78 -54 -114 -65t-68 -11q-18 0 -43 5.5t-49 14.5t-82 35q-108 52 -158 52q-80 0 -186 -88v73q106 76 184 76q41 0 70.5 -9.5t99.5 -41.5q110 -54 164 -54q74 0 182 90v-77z" />
<glyph horiz-adv-x="1024" />
<glyph unicode="&#xa1;" horiz-adv-x="463" d="M284 582h-106v104h106v-104zM291 -274h-119v202l35 510h47l37 -510v-202z" />
<glyph unicode="&#xa2;" horiz-adv-x="772" d="M682 219q-22 -106 -100 -171.5t-184 -65.5q-32 0 -82 14l-80 -270l-44 14l78 266q-180 84 -180 334q0 190 89 277t212 87q22 0 80 -8l78 260l41 -12l-76 -260q126 -49 154 -178l-86 -12q-16 68 -86 126l-162 -562q42 -10 62 -11q74 0 128 48.5t72 132.5zM454 637l-54 4 q-90 0 -155 -70.5t-65 -224.5q0 -108 27 -167.5t84 -102.5z" />
<glyph unicode="&#xa3;" horiz-adv-x="772" d="M712 18q-84 -34 -142 -34q-48 0 -142 28l-90 27q-38 4 -68 4q-104 0 -196 -53l-35 84q151 96 151 272q0 50 -14 102h-129v66h111q-42 132 -42 196q0 138 91 203.5t201 65.5t185 -59.5t95 -167.5l-88 -12q-12 78 -66 125t-128 47q-84 0 -138.5 -53.5t-54.5 -129.5t43 -215 h211v-66h-203q22 -50 22 -78q0 -129 -155 -288q109 28 149 28q52 0 122 -16q118 -28 161 -28q54 0 121 30z" />
<glyph unicode="&#xa4;" horiz-adv-x="772" d="M694 223l-55 -55l-92 92q-80 -55 -164 -55q-82 0 -162 55l-92 -92l-55 55l94 91q-56 82 -56 161q0 82 56 164l-94 88l55 57l92 -92q76 54 162 54t164 -54l92 92l55 -57l-94 -88q54 -80 54 -164q0 -81 -54 -161zM576 475q0 80 -56.5 136.5t-136.5 56.5q-82 0 -137.5 -56.5 t-55.5 -136.5t56.5 -136.5t136.5 -56.5q70 0 131.5 51.5t61.5 141.5z" />
<glyph unicode="&#xa5;" horiz-adv-x="772" d="M740 960l-275 -483h243v-65h-280v-132h280v-59h-280v-221h-86v221h-282v59h282v132h-282v65h243l-277 483h99l191 -340l30 -59l37 -82q18 46 33.5 77.5l35.5 69.5l183 334h105z" />
<glyph unicode="&#xa6;" horiz-adv-x="360" d="M217 475h-71v504h71v-504zM217 -293h-71v504h71v-504z" />
<glyph unicode="&#xa7;" horiz-adv-x="772" d="M538 98q106 -80 107 -184q0 -100 -76.5 -153.5t-175.5 -53.5q-239 0 -277 213l91 14q39 -158 186 -157q62 0 113 34.5t51 100.5q0 32 -25.5 68t-63.5 64t-173 112q-127 78 -175 135t-48 129q0 152 154 200q-88 80 -89 160q0 88 66.5 143.5t164.5 55.5q230 0 265 -205 l-95 -8q-28 146 -159 146q-56 0 -106 -33t-50 -93q0 -33 23.5 -67.5t55.5 -58t161 -103.5q98 -60 139 -91.5t65.5 -74.5t24.5 -92q0 -93 -66 -141q-18 -18 -88 -60zM270 586q-120 -64 -120 -152q0 -57 42 -99.5t136 -100.5q86 -51 156 -99q126 61 126 141q0 86 -194 210 q-108 68 -146 100z" />
<glyph unicode="&#xa8;" horiz-adv-x="463" d="M406 862h-94v104h94v-104zM152 862h-94v104h94v-104z" />
<glyph unicode="&#xa9;" horiz-adv-x="1024" d="M1010 484q0 -129 -67 -249.5t-184.5 -183.5t-244.5 -63t-244.5 64t-184.5 183t-67 249q0 131 69 250.5t189 182t238 62.5q127 0 247.5 -67.5t184.5 -185t64 -242.5zM958 484q0 184 -131 314t-313 130q-186 0 -315 -130t-129 -314q0 -178 127 -311.5t317 -133.5 q186 0 315 129.5t129 315.5zM742 364q-54 -158 -228 -157q-110 0 -181 71.5t-71 203.5q0 129 71 200.5t187 71.5q158 0 209 -132l-47 -12q-51 100 -164 100q-86 0 -141 -60t-55 -171q0 -110 52 -168.5t136 -58.5q137 0 180 127z" />
<glyph unicode="&#xaa;" horiz-adv-x="514" d="M459 518h-61q-12 29 -13 80q-103 -92 -187 -92q-59 0 -104 33t-45 100q-1 106 151 127l99 14q35 6 80 18q0 74 -23.5 104t-99.5 30q-104 0 -127 -80l-59 14q33 112 186 113q94 0 140 -31.5t46 -115.5v-206q-2 -64 17 -108zM381 756q-64 -18 -141.5 -29.5t-100.5 -34 t-23 -53.5q0 -35 28 -59.5t77 -24.5q56 0 94.5 28.5t52 59.5t13.5 113z" />
<glyph unicode="&#xab;" horiz-adv-x="772" d="M643 49h-65l-199 293l199 293h65l-170 -293zM379 635l-166 -293l164 -293h-61l-206 293l206 293h63z" />
<glyph unicode="&#xac;" horiz-adv-x="811" d="M717 289h-80v297h-543v80h623v-377z" />
<glyph unicode="&#xad;" horiz-adv-x="463" d="M402 299h-340v88h340v-88z" />
<glyph unicode="&#xae;" horiz-adv-x="1024" d="M1010 484q0 -129 -67 -249.5t-184.5 -183.5t-244.5 -63t-244.5 64t-184.5 183t-67 249q0 131 69 250.5t189 182t238 62.5q127 0 247.5 -67.5t184.5 -185t64 -242.5zM958 484q0 184 -131 314t-313 130q-186 0 -315 -130t-129 -314q0 -178 127 -311.5t317 -133.5 q186 0 315 129.5t129 315.5zM723 215h-69l-44 80q-46 82 -81 118.5t-99 36.5h-68v-235h-55v518h172q146 0 182.5 -43t36.5 -90q0 -53 -42 -95t-126 -44l25 -19q41 -24 117 -143zM362 692v-198h126q150 0 149 100q0 39 -28.5 68.5t-129.5 29.5h-117z" />
<glyph unicode="&#xaf;" horiz-adv-x="768" d="M772 1063h-776v53h776v-53z" />
<glyph unicode="&#xb0;" horiz-adv-x="555" d="M446 807q0 -70 -51 -121t-121 -51t-120 51.5t-50 120.5q0 70 50 121t120 51t121 -51t51 -121zM408 807q0 53 -39 92t-93 39q-56 0 -94 -38t-38 -91q0 -28 9 -52t28 -43.5t43 -28.5t50 -9q55 0 94.5 38.5t39.5 92.5z" />
<glyph unicode="&#xb1;" horiz-adv-x="762" d="M432 606h276v-104h-276v-272h-104v272h-277v104h277v272h104v-272zM51 90v86h655v-86h-655z" />
<glyph unicode="&#xb2;" horiz-adv-x="463" d="M424 498h-387q17 72 163 176q90 66 118 94t28 68q0 41 -27 66.5t-81 25.5q-88 0 -115 -76l-70 6q37 115 187 115q96 0 138 -36t42 -85q0 -47 -31 -89t-141 -122q-58 -41 -111 -94h287v-49z" />
<glyph unicode="&#xb3;" horiz-adv-x="463" d="M43 598l67 6q30 -74 116 -74q51 0 87.5 30t36.5 79q0 53 -36 71.5t-105 20.5l6 37q43 0 77 22.5t34 63.5q0 78 -98 78q-78 0 -107 -68l-63 10q46 98 170 99q170 0 170 -111q0 -80 -101 -110q125 -28 125 -128q0 -68 -56 -103t-134 -35q-154 0 -189 112z" />
<glyph unicode="&#xb4;" horiz-adv-x="463" d="M366 966l-122 -155h-66l74 155h114z" />
<glyph unicode="&#xb5;" horiz-adv-x="801" d="M674 0h-76v127q-66 -108 -112 -125.5t-84 -17.5q-39 0 -79.5 13t-109.5 107v-380h-86v962h86v-288q0 -182 22.5 -233t64.5 -78t96 -27q59 0 104 30.5t66.5 82t21.5 223.5v290h86v-686z" />
<glyph unicode="&#xb6;" horiz-adv-x="747" d="M733 878h-96v-1154h-82v1154h-185v-1154h-77v708q-125 0 -200 71t-75 189q0 109 68 188.5t236 79.5h411v-82z" />
<glyph unicode="&#xb7;" horiz-adv-x="385" d="M248 420h-104v104h104v-104z" />
<glyph unicode="&#xb8;" horiz-adv-x="463" d="M90 -280l6 46l48 -2q126 0 126 68q0 16 -12 35q-26 27 -88 27l24 88h56l-20 -72q57 0 88.5 -25t31.5 -59q0 -37 -40 -74.5t-140 -37.5q-43 0 -80 6z" />
<glyph unicode="&#xb9;" horiz-adv-x="463" d="M305 498h-63v395q-86 -70 -152 -90v49q94 39 168 121h47v-475z" />
<glyph unicode="&#xba;" horiz-adv-x="508" d="M459 740q0 -111 -58.5 -174.5t-146.5 -63.5q-80 0 -143.5 55t-63.5 181q0 129 63.5 185t143.5 56q90 0 147.5 -63.5t57.5 -175.5zM391 744q0 98 -42 138t-95 40q-140 0 -140 -182q0 -90 39 -136.5t101 -46.5q137 1 137 187z" />
<glyph unicode="&#xbb;" horiz-adv-x="772" d="M656 342l-204 -293h-63l168 293l-168 293h63zM389 342l-201 -293h-63l170 293l-170 293h63z" />
<glyph unicode="&#xbc;" horiz-adv-x="1159" d="M1122 84h-72v-104h-63v104h-260v60l267 310h56v-331h72v-39zM991 979l-723 -1018h-63l723 1018h63zM305 498h-63v395q-86 -70 -152 -90v49q94 39 168 121h47v-475zM987 123v239l-211 -239h211z" />
<glyph unicode="&#xbd;" horiz-adv-x="1159" d="M977 979l-723 -1018h-68l724 1018h67zM1118 -20h-387q24 76 164 176q92 68 119.5 95t27.5 67q0 90 -110 90q-54 0 -77 -19t-38 -55l-67 6q35 114 184 114q98 0 139 -35.5t41 -84.5q0 -54 -36 -97t-136 -114q-60 -45 -112 -97h288v-46zM305 498h-63v395q-86 -70 -152 -90 v49q94 39 168 121h47v-475z" />
<glyph unicode="&#xbe;" horiz-adv-x="1159" d="M1122 84h-72v-104h-63v104h-260v60l264 310h59v-331h72v-39zM991 979l-723 -1018h-63l721 1018h65zM43 598l67 6q30 -74 116 -74q51 0 87.5 30t36.5 79q0 53 -36 71.5t-105 20.5l6 37q43 0 77 22.5t34 63.5q0 78 -98 78q-78 0 -107 -68l-63 10q46 98 170 99 q170 0 170 -111q0 -80 -101 -110q125 -28 125 -128q0 -68 -56 -103t-134 -35q-154 0 -189 112zM987 123v239l-211 -239h211z" />
<glyph unicode="&#xbf;" horiz-adv-x="850" d="M729 -37q-45 -254 -303 -254q-144 0 -222.5 75.5t-78.5 178.5q0 62 27.5 113t115.5 129q74 64 96.5 105.5t22.5 131.5h84q0 -14 2 -18q0 -92 -29.5 -144t-121.5 -134q-66 -58 -86.5 -94t-20.5 -80q0 -82 62.5 -140t148.5 -58q78 0 135 50t78 150zM479 582h-104v104h104 v-104z" />
<glyph unicode="&#xc0;" horiz-adv-x="895" d="M895 0h-103l-124 305h-449l-121 -305h-98l391 960h95zM637 381l-201 483l-188 -483h389zM483 1026h-67l-148 174h129z" />
<glyph unicode="&#xc1;" horiz-adv-x="895" d="M895 0h-103l-124 305h-449l-121 -305h-98l391 960h95zM637 381l-201 483l-188 -483h389zM577 1183l-122 -155h-66l74 155h114z" />
<glyph unicode="&#xc2;" horiz-adv-x="895" d="M895 0h-103l-124 305h-449l-121 -305h-98l391 960h95zM637 381l-201 483l-188 -483h389zM612 1028h-94l-84 111l-86 -111h-97l121 155h114z" />
<glyph unicode="&#xc3;" horiz-adv-x="895" d="M895 0h-103l-124 305h-449l-121 -305h-98l391 960h95zM637 381l-201 483l-188 -483h389zM640 1150q0 -54 -32 -87t-82 -33q-34 0 -105 34q-47 28 -73 29q-60 1 -68 -65h-58q4 57 38 88.5t84 31.5q36 0 106 -34q44 -22 72 -23q51 -1 63 59h55z" />
<glyph unicode="&#xc4;" horiz-adv-x="895" d="M895 0h-103l-124 305h-449l-121 -305h-98l391 960h95zM637 381l-201 483l-188 -483h389zM606 1062h-94v104h94v-104zM352 1062h-94v104h94v-104z" />
<glyph unicode="&#xc5;" horiz-adv-x="895" d="M895 0h-103l-124 305h-449l-121 -305h-98l391 960h95zM637 381l-201 483l-188 -483h389zM332 1117q0 49 33.5 76.5t73.5 27.5q39 0 71.5 -26.5t32.5 -77.5q0 -52 -34 -79.5t-70 -27.5q-39 0 -73 27.5t-34 79.5zM367 1114q0 -26 18 -49.5t54 -23.5q28 0 48.5 21.5 t20.5 51.5q0 27 -18.5 50.5t-50.5 23.5q-35 0 -53.5 -23.5t-18.5 -50.5z" />
<glyph unicode="&#xc6;" horiz-adv-x="1390" d="M1296 0h-616v286h-412l-137 -286h-103l462 960h790v-82h-502v-340h465v-84h-465v-370h518v-84zM680 370v508h-125l-248 -508h373z" />
<glyph unicode="&#xc7;" horiz-adv-x="968" d="M910 301q-94 -317 -398 -317q-102 0 -181 31.5t-134 95t-89 161.5t-34 207q0 220 120 359t320 139q138 0 234 -67.5t149 -213.5l-86 -24q-82 230 -291 229q-162 0 -257 -119.5t-95 -304.5q0 -206 96 -311.5t244 -105.5q240 0 320 264zM364 -262l6 46l48 -2q126 0 126 68 q0 16 -12 35q-26 27 -88 27l24 88h56l-20 -72q57 0 88.5 -25t31.5 -59q0 -37 -40 -74.5t-140 -37.5q-43 0 -80 6z" />
<glyph unicode="&#xc8;" horiz-adv-x="819" d="M756 0h-635v960h614v-82h-522v-344h483v-80h-483v-374h543v-80zM493 1026h-67l-148 174h129z" />
<glyph unicode="&#xc9;" horiz-adv-x="819" d="M756 0h-635v960h614v-82h-522v-344h483v-80h-483v-374h543v-80zM566 1206l-122 -155h-66l74 155h114z" />
<glyph unicode="&#xca;" horiz-adv-x="819" d="M756 0h-635v960h614v-82h-522v-344h483v-80h-483v-374h543v-80zM606 1051h-94l-84 111l-86 -111h-97l121 155h114z" />
<glyph unicode="&#xcb;" horiz-adv-x="819" d="M756 0h-635v960h614v-82h-522v-344h483v-80h-483v-374h543v-80zM606 1042h-94v104h94v-104zM352 1042h-94v104h94v-104z" />
<glyph unicode="&#xcc;" horiz-adv-x="372" d="M234 0h-90v960h90v-960zM263 1026h-67l-148 174h129z" />
<glyph unicode="&#xcd;" horiz-adv-x="372" d="M234 0h-90v960h90v-960zM339 1206l-122 -155h-66l74 155h114z" />
<glyph unicode="&#xce;" horiz-adv-x="372" d="M234 0h-90v960h90v-960zM385 1051h-94l-84 111l-86 -111h-97l121 155h114z" />
<glyph unicode="&#xcf;" horiz-adv-x="372" d="M234 0h-90v960h90v-960zM381 1062h-94v104h94v-104zM127 1062h-94v104h94v-104z" />
<glyph unicode="&#xd0;" horiz-adv-x="1003" d="M125 0v452h-111v56h111v452h325q158 0 243 -36.5t153 -144t68 -293.5q0 -486 -447 -486h-342zM221 878v-370h275v-56h-275v-368h229q215 0 288 113t73 291q0 182 -71.5 286t-291.5 104h-227z" />
<glyph unicode="&#xd1;" horiz-adv-x="968" d="M850 0h-96l-556 819l9 -819h-93v960h93l559 -827l-6 827h90v-960zM700 1150q0 -54 -32 -87t-82 -33q-34 0 -105 34q-47 28 -73 29q-60 1 -68 -65h-58q4 57 38 88.5t84 31.5q36 0 106 -34q44 -22 72 -23q51 -1 63 59h55z" />
<glyph unicode="&#xd2;" horiz-adv-x="1044" d="M971 479q0 -223 -119 -359q-120 -136 -328 -136q-140 0 -237 60t-153 171t-56 264q0 226 120 362t326 136q139 0 238.5 -61.5t154 -172t54.5 -264.5zM876 479q0 190 -94 306t-258 116q-166 0 -259 -116.5t-93 -305.5q0 -186 95 -302.5t257 -116.5q106 0 184 51t123 146.5 t45 221.5zM559 1036h-67l-148 174h129z" />
<glyph unicode="&#xd3;" horiz-adv-x="1044" d="M971 479q0 -223 -119 -359q-120 -136 -328 -136q-140 0 -237 60t-153 171t-56 264q0 226 120 362t326 136q139 0 238.5 -61.5t154 -172t54.5 -264.5zM876 479q0 190 -94 306t-258 116q-166 0 -259 -116.5t-93 -305.5q0 -186 95 -302.5t257 -116.5q106 0 184 51t123 146.5 t45 221.5zM661 1216l-122 -155h-66l74 155h114z" />
<glyph unicode="&#xd4;" horiz-adv-x="1044" d="M971 479q0 -223 -119 -359q-120 -136 -328 -136q-140 0 -237 60t-153 171t-56 264q0 226 120 362t326 136q139 0 238.5 -61.5t154 -172t54.5 -264.5zM876 479q0 190 -94 306t-258 116q-166 0 -259 -116.5t-93 -305.5q0 -186 95 -302.5t257 -116.5q106 0 184 51t123 146.5 t45 221.5zM707 1061h-94l-84 111l-86 -111h-97l121 155h114z" />
<glyph unicode="&#xd5;" horiz-adv-x="1044" d="M971 479q0 -223 -119 -359q-120 -136 -328 -136q-140 0 -237 60t-153 171t-56 264q0 226 120 362t326 136q139 0 238.5 -61.5t154 -172t54.5 -264.5zM876 479q0 190 -94 306t-258 116q-166 0 -259 -116.5t-93 -305.5q0 -186 95 -302.5t257 -116.5q106 0 184 51t123 146.5 t45 221.5zM735 1169q0 -54 -32 -87t-82 -33q-34 0 -105 34q-47 28 -73 29q-60 1 -68 -65h-58q4 57 38 88.5t84 31.5q36 0 106 -34q44 -22 72 -23q51 -1 63 59h55z" />
<glyph unicode="&#xd6;" horiz-adv-x="1044" d="M971 479q0 -223 -119 -359q-120 -136 -328 -136q-140 0 -237 60t-153 171t-56 264q0 226 120 362t326 136q139 0 238.5 -61.5t154 -172t54.5 -264.5zM876 479q0 190 -94 306t-258 116q-166 0 -259 -116.5t-93 -305.5q0 -186 95 -302.5t257 -116.5q106 0 184 51t123 146.5 t45 221.5zM705 1081h-94v104h94v-104zM451 1081h-94v104h94v-104z" />
<glyph unicode="&#xd7;" horiz-adv-x="811" d="M678 262l-60 -57l-212 213l-216 -215l-57 57l215 213l-215 213l59 60l216 -214l210 214l58 -60l-211 -211z" />
<glyph unicode="&#xd8;" horiz-adv-x="1081" d="M1006 956l-117 -130q66 -98 88.5 -171t22.5 -176q0 -221 -124 -358t-331 -137q-163 0 -309 110l-115 -127l-39 33l114 131q-72 112 -93 184t-21 162q0 226 124 364t336 138q158 -1 310 -115l112 127zM792 798q-132 100 -250 101q-170 0 -265 -113.5t-95 -306.5 q0 -155 74 -281zM828 756l-533 -596q107 -98 245 -98q180 0 268.5 121.5t88.5 291.5q1 150 -69 281z" />
<glyph unicode="&#xd9;" horiz-adv-x="968" d="M114 960h93v-614q1 -286 277 -286q274 0 274 284v616h92v-608q0 -368 -364 -368q-372 0 -372 368v608zM518 1026h-67l-148 174h129z" />
<glyph unicode="&#xda;" horiz-adv-x="968" d="M114 960h93v-614q1 -286 277 -286q274 0 274 284v616h92v-608q0 -368 -364 -368q-372 0 -372 368v608zM596 1206l-122 -155h-66l74 155h114z" />
<glyph unicode="&#xdb;" horiz-adv-x="968" d="M114 960h93v-614q1 -286 277 -286q274 0 274 284v616h92v-608q0 -368 -364 -368q-372 0 -372 368v608zM658 1051h-94l-84 111l-86 -111h-97l121 155h114z" />
<glyph unicode="&#xdc;" horiz-adv-x="968" d="M114 960h93v-614q1 -286 277 -286q274 0 274 284v616h92v-608q0 -368 -364 -368q-372 0 -372 368v608zM652 1062h-94v104h94v-104zM398 1062h-94v104h94v-104z" />
<glyph unicode="&#xdd;" horiz-adv-x="819" d="M813 960l-361 -546v-414h-92v414l-350 546h109l293 -460l298 460h103zM546 1206l-122 -155h-66l74 155h114z" />
<glyph unicode="&#xde;" horiz-adv-x="927" d="M221 203v-203h-96v960h96v-200h263q127 0 203.5 -25t119.5 -94t43 -153q0 -284 -356 -285h-273zM221 676v-390h275q252 0 252 198q0 57 -27 105t-71 67.5t-156 19.5h-273z" />
<glyph unicode="&#xdf;" horiz-adv-x="850" d="M336 121l74 35q60 -106 145 -107q51 0 97 35.5t46 99.5q0 41 -19 67.5t-87 72.5q-110 76 -134 112.5t-24 69.5q0 45 52 131q60 99 59 151q0 53 -46.5 88.5t-107.5 35.5q-182 0 -182 -256v-656h-88v662q0 318 272 317q88 0 161.5 -45t73.5 -133q0 -62 -52 -156 q-52 -87 -52 -121q0 -54 107 -122q88 -60 122.5 -102t34.5 -106q0 -92 -66 -151t-165 -59q-149 0 -221 137z" />
<glyph unicode="&#xe0;" horiz-adv-x="747" d="M680 0h-88q-20 48 -27 106q-113 -122 -285 -122q-62 0 -110.5 22t-78 65t-29.5 107q0 43 13 78t42 61.5t76 44.5q47 20 169 36q137 20 195 40q0 59 -3 91t-22.5 60.5t-58.5 43t-96 14.5q-181 1 -217 -153l-84 12q38 204 299 204q82 0 138.5 -18t82.5 -52t35.5 -85 t9.5 -139l-4 -197q0 -78 8.5 -119.5t34.5 -99.5zM557 330v45q-70 -27 -219 -53q-80 -14 -117 -29t-55 -43q-18 -30 -18 -66q0 -58 42 -92t109 -34q39 0 77 10t74 30.5t60 49t35.5 73.5t11.5 109zM428 786h-67l-148 174h129z" />
<glyph unicode="&#xe1;" horiz-adv-x="747" d="M680 0h-88q-20 48 -27 106q-113 -122 -285 -122q-62 0 -110.5 22t-78 65t-29.5 107q0 43 13 78t42 61.5t76 44.5q47 20 169 36q137 20 195 40q0 59 -3 91t-22.5 60.5t-58.5 43t-96 14.5q-181 1 -217 -153l-84 12q38 204 299 204q82 0 138.5 -18t82.5 -52t35.5 -85 t9.5 -139l-4 -197q0 -78 8.5 -119.5t34.5 -99.5zM557 330v45q-70 -27 -219 -53q-80 -14 -117 -29t-55 -43q-18 -30 -18 -66q0 -58 42 -92t109 -34q39 0 77 10t74 30.5t60 49t35.5 73.5t11.5 109zM512 966l-122 -155h-66l74 155h114z" />
<glyph unicode="&#xe2;" horiz-adv-x="747" d="M680 0h-88q-20 48 -27 106q-113 -122 -285 -122q-62 0 -110.5 22t-78 65t-29.5 107q0 43 13 78t42 61.5t76 44.5q47 20 169 36q137 20 195 40q0 59 -3 91t-22.5 60.5t-58.5 43t-96 14.5q-181 1 -217 -153l-84 12q38 204 299 204q82 0 138.5 -18t82.5 -52t35.5 -85 t9.5 -139l-4 -197q0 -78 8.5 -119.5t34.5 -99.5zM557 330v45q-70 -27 -219 -53q-80 -14 -117 -29t-55 -43q-18 -30 -18 -66q0 -58 42 -92t109 -34q39 0 77 10t74 30.5t60 49t35.5 73.5t11.5 109zM541 811h-94l-84 111l-86 -111h-97l121 155h114z" />
<glyph unicode="&#xe3;" horiz-adv-x="747" d="M680 0h-88q-20 48 -27 106q-113 -122 -285 -122q-62 0 -110.5 22t-78 65t-29.5 107q0 43 13 78t42 61.5t76 44.5q47 20 169 36q137 20 195 40q0 59 -3 91t-22.5 60.5t-58.5 43t-96 14.5q-181 1 -217 -153l-84 12q38 204 299 204q82 0 138.5 -18t82.5 -52t35.5 -85 t9.5 -139l-4 -197q0 -78 8.5 -119.5t34.5 -99.5zM557 330v45q-70 -27 -219 -53q-80 -14 -117 -29t-55 -43q-18 -30 -18 -66q0 -58 42 -92t109 -34q39 0 77 10t74 30.5t60 49t35.5 73.5t11.5 109zM569 950q0 -54 -32 -87t-82 -33q-34 0 -105 34q-47 28 -73 29q-60 1 -68 -65 h-58q4 57 38 88.5t84 31.5q36 0 106 -34q44 -22 72 -23q51 -1 63 59h55z" />
<glyph unicode="&#xe4;" horiz-adv-x="747" d="M680 0h-88q-20 48 -27 106q-113 -122 -285 -122q-62 0 -110.5 22t-78 65t-29.5 107q0 43 13 78t42 61.5t76 44.5q47 20 169 36q137 20 195 40q0 59 -3 91t-22.5 60.5t-58.5 43t-96 14.5q-181 1 -217 -153l-84 12q38 204 299 204q82 0 138.5 -18t82.5 -52t35.5 -85 t9.5 -139l-4 -197q0 -78 8.5 -119.5t34.5 -99.5zM557 330v45q-70 -27 -219 -53q-80 -14 -117 -29t-55 -43q-18 -30 -18 -66q0 -58 42 -92t109 -34q39 0 77 10t74 30.5t60 49t35.5 73.5t11.5 109zM535 847h-94v104h94v-104zM281 847h-94v104h94v-104z" />
<glyph unicode="&#xe5;" horiz-adv-x="747" d="M680 0h-88q-20 48 -27 106q-113 -122 -285 -122q-62 0 -110.5 22t-78 65t-29.5 107q0 43 13 78t42 61.5t76 44.5q47 20 169 36q137 20 195 40q0 59 -3 91t-22.5 60.5t-58.5 43t-96 14.5q-181 1 -217 -153l-84 12q38 204 299 204q82 0 138.5 -18t82.5 -52t35.5 -85 t9.5 -139l-4 -197q0 -78 8.5 -119.5t34.5 -99.5zM557 330v45q-70 -27 -219 -53q-80 -14 -117 -29t-55 -43q-18 -30 -18 -66q0 -58 42 -92t109 -34q39 0 77 10t74 30.5t60 49t35.5 73.5t11.5 109zM262 887q0 49 33.5 76.5t73.5 27.5q39 0 71.5 -26.5t32.5 -77.5 q0 -52 -34 -79.5t-70 -27.5q-39 0 -73 27.5t-34 79.5zM297 884q0 -26 18 -49.5t54 -23.5q28 0 48.5 21.5t20.5 51.5q0 27 -18.5 50.5t-50.5 23.5q-35 0 -53.5 -23.5t-18.5 -50.5z" />
<glyph unicode="&#xe6;" horiz-adv-x="1237" d="M1164 354l-3 -24h-520q0 -86 15.5 -142.5t73.5 -97.5t134 -41q152 -1 197 151l92 -12q-72 -204 -295 -204q-160 0 -264 145q-142 -145 -301 -145q-90 0 -159.5 46t-69.5 142q0 86 64 139t238 76q110 14 187 37q0 32 2 41q0 92 -40 132t-138 40q-180 1 -205 -137l-86 10 q49 192 293 192q114 0 163.5 -27.5t83.5 -78.5q90 106 232 106q140 0 226 -100t80 -248zM555 370q-67 -30 -237 -58q-158 -25 -158 -136q0 -64 46 -97.5t110 -33.5q80 0 144 40t79.5 91t15.5 194zM1071 396q-14 242 -213 241q-110 0 -164.5 -72.5t-54.5 -168.5h432z" />
<glyph unicode="&#xe7;" horiz-adv-x="747" d="M684 226q-41 -119 -114.5 -180.5t-197.5 -61.5q-94 0 -161 39t-109 124t-42 201q0 76 17 137.5t42 99t57.5 64.5t78.5 44t122 17q227 0 297 -210l-86 -14q-46 158 -216 157q-53 0 -94.5 -20.5t-71.5 -59.5t-45 -90t-15 -117q0 -138 60 -221.5t171 -83.5q158 1 225 187z M230 -252l6 46l48 -2q126 0 126 68q0 16 -12 35q-26 27 -88 27l24 88h56l-20 -72q57 0 88.5 -25t31.5 -59q0 -37 -40 -74.5t-140 -37.5q-43 0 -80 6z" />
<glyph unicode="&#xe8;" horiz-adv-x="747" d="M682 338h-534q2 -135 63 -211t170 -76q152 0 213 168l80 -12q-41 -119 -114.5 -171t-182.5 -52q-148 0 -231.5 98t-83.5 266t84 265t233 97q301 0 303 -372zM594 406q-18 240 -217 239q-92 0 -153.5 -62.5t-73.5 -176.5h444zM420 786h-67l-148 174h129z" />
<glyph unicode="&#xe9;" horiz-adv-x="747" d="M682 338h-534q2 -135 63 -211t170 -76q152 0 213 168l80 -12q-41 -119 -114.5 -171t-182.5 -52q-148 0 -231.5 98t-83.5 266t84 265t233 97q301 0 303 -372zM594 406q-18 240 -217 239q-92 0 -153.5 -62.5t-73.5 -176.5h444zM516 966l-122 -155h-66l74 155h114z" />
<glyph unicode="&#xea;" horiz-adv-x="747" d="M682 338h-534q2 -135 63 -211t170 -76q152 0 213 168l80 -12q-41 -119 -114.5 -171t-182.5 -52q-148 0 -231.5 98t-83.5 266t84 265t233 97q301 0 303 -372zM594 406q-18 240 -217 239q-92 0 -153.5 -62.5t-73.5 -176.5h444zM562 811h-94l-84 111l-86 -111h-97l121 155 h114z" />
<glyph unicode="&#xeb;" horiz-adv-x="747" d="M682 338h-534q2 -135 63 -211t170 -76q152 0 213 168l80 -12q-41 -119 -114.5 -171t-182.5 -52q-148 0 -231.5 98t-83.5 266t84 265t233 97q301 0 303 -372zM594 406q-18 240 -217 239q-92 0 -153.5 -62.5t-73.5 -176.5h444zM546 826h-94v104h94v-104zM292 826h-94v104 h94v-104z" />
<glyph unicode="&#xec;" horiz-adv-x="385" d="M240 0h-88v686h88v-686zM272 786h-67l-148 174h129z" />
<glyph unicode="&#xed;" horiz-adv-x="385" d="M240 0h-88v686h88v-686zM355 966l-122 -155h-66l74 155h114z" />
<glyph unicode="&#xee;" horiz-adv-x="385" d="M240 0h-88v686h88v-686zM385 811h-94l-84 111l-86 -111h-97l121 155h114z" />
<glyph unicode="&#xef;" horiz-adv-x="385" d="M240 0h-88v686h88v-686zM379 826h-94v104h94v-104zM125 826h-94v104h94v-104z" />
<glyph unicode="&#xf0;" horiz-adv-x="772" d="M538 624q-60 128 -128 206l-184 -84l-15 36l170 78q-66 62 -119 100h88q40 -30 88 -71l140 65l18 -36l-123 -60q227 -260 227 -520q0 -160 -85 -257t-232 -97q-150 0 -232.5 94t-82.5 256q0 160 75 256t213 96q66 0 182 -62zM606 342q0 112 -55 198t-172 86 q-115 0 -168 -85t-53 -209q0 -129 58 -206t167 -77q104 0 163.5 82t59.5 211z" />
<glyph unicode="&#xf1;" horiz-adv-x="747" d="M645 0h-82v432q0 113 -44 161q-43 48 -117 48q-39 0 -74 -14.5t-64.5 -41t-47.5 -61t-25 -76.5t-7 -147v-301h-82v696h82v-102q94 116 226 116q236 0 235 -256v-454zM580 950q0 -54 -32 -87t-82 -33q-34 0 -105 34q-47 28 -73 29q-60 1 -68 -65h-58q4 57 38 88.5t84 31.5 q36 0 106 -34q44 -22 72 -23q51 -1 63 59h55z" />
<glyph unicode="&#xf2;" horiz-adv-x="747" d="M680 346q0 -172 -81 -267t-231 -95q-72 0 -128 25.5t-98 74.5t-62 114.5t-20 145.5q0 82 18 147.5t55 114t92 76.5t143 28q144 0 228 -92t84 -272zM596 346q0 94 -28 162t-77 101.5t-119 33.5q-108 0 -167 -78.5t-59 -214.5q0 -133 60 -216t166 -83q52 0 91 17.5 t69.5 56.5t47 95t16.5 126zM409 786h-67l-148 174h129z" />
<glyph unicode="&#xf3;" horiz-adv-x="747" d="M680 346q0 -172 -81 -267t-231 -95q-72 0 -128 25.5t-98 74.5t-62 114.5t-20 145.5q0 82 18 147.5t55 114t92 76.5t143 28q144 0 228 -92t84 -272zM596 346q0 94 -28 162t-77 101.5t-119 33.5q-108 0 -167 -78.5t-59 -214.5q0 -133 60 -216t166 -83q52 0 91 17.5 t69.5 56.5t47 95t16.5 126zM501 966l-122 -155h-66l74 155h114z" />
<glyph unicode="&#xf4;" horiz-adv-x="747" d="M680 346q0 -172 -81 -267t-231 -95q-72 0 -128 25.5t-98 74.5t-62 114.5t-20 145.5q0 82 18 147.5t55 114t92 76.5t143 28q144 0 228 -92t84 -272zM596 346q0 94 -28 162t-77 101.5t-119 33.5q-108 0 -167 -78.5t-59 -214.5q0 -133 60 -216t166 -83q52 0 91 17.5 t69.5 56.5t47 95t16.5 126zM541 811h-94l-84 111l-86 -111h-97l121 155h114z" />
<glyph unicode="&#xf5;" horiz-adv-x="747" d="M680 346q0 -172 -81 -267t-231 -95q-72 0 -128 25.5t-98 74.5t-62 114.5t-20 145.5q0 82 18 147.5t55 114t92 76.5t143 28q144 0 228 -92t84 -272zM596 346q0 94 -28 162t-77 101.5t-119 33.5q-108 0 -167 -78.5t-59 -214.5q0 -133 60 -216t166 -83q52 0 91 17.5 t69.5 56.5t47 95t16.5 126zM565 950q0 -54 -32 -87t-82 -33q-34 0 -105 34q-47 28 -73 29q-60 1 -68 -65h-58q4 57 38 88.5t84 31.5q36 0 106 -34q44 -22 72 -23q51 -1 63 59h55z" />
<glyph unicode="&#xf6;" horiz-adv-x="747" d="M680 346q0 -172 -81 -267t-231 -95q-72 0 -128 25.5t-98 74.5t-62 114.5t-20 145.5q0 82 18 147.5t55 114t92 76.5t143 28q144 0 228 -92t84 -272zM596 346q0 94 -28 162t-77 101.5t-119 33.5q-108 0 -167 -78.5t-59 -214.5q0 -133 60 -216t166 -83q52 0 91 17.5 t69.5 56.5t47 95t16.5 126zM535 835h-94v104h94v-104zM281 835h-94v104h94v-104z" />
<glyph unicode="&#xf7;" horiz-adv-x="764" d="M434 626h-106v105h106v-105zM692 434h-622v80h622v-80zM434 215h-106v107h106v-107z" />
<glyph unicode="&#xf8;" horiz-adv-x="850" d="M234 43l-72 -90l-35 29l69 92q-88 94 -88 260q0 172 83 270t235 98q94 0 207 -63l65 86l37 -29l-69 -90q84 -108 84 -264q0 -170 -83 -264t-239 -94q-104 0 -194 59zM584 576q-82 62 -156 61q-112 0 -170 -84t-58 -211q0 -108 50 -198zM614 538l-332 -430q68 -60 142 -59 q121 0 177.5 86t56.5 209q0 96 -44 194z" />
<glyph unicode="&#xf9;" horiz-adv-x="747" d="M639 0h-84v102q-90 -118 -223 -118q-236 0 -236 258v454h82v-432q0 -114 44 -161t118 -47q49 0 91 20t74.5 62t41 98.5t8.5 156.5v303h84v-696zM409 786h-67l-148 174h129z" />
<glyph unicode="&#xfa;" horiz-adv-x="747" d="M639 0h-84v102q-90 -118 -223 -118q-236 0 -236 258v454h82v-432q0 -114 44 -161t118 -47q49 0 91 20t74.5 62t41 98.5t8.5 156.5v303h84v-696zM476 966l-122 -155h-66l74 155h114z" />
<glyph unicode="&#xfb;" horiz-adv-x="747" d="M639 0h-84v102q-90 -118 -223 -118q-236 0 -236 258v454h82v-432q0 -114 44 -161t118 -47q49 0 91 20t74.5 62t41 98.5t8.5 156.5v303h84v-696zM541 811h-94l-84 111l-86 -111h-97l121 155h114z" />
<glyph unicode="&#xfc;" horiz-adv-x="747" d="M639 0h-84v102q-90 -118 -223 -118q-236 0 -236 258v454h82v-432q0 -114 44 -161t118 -47q49 0 91 20t74.5 62t41 98.5t8.5 156.5v303h84v-696zM516 835h-94v104h94v-104zM262 835h-94v104h94v-104z" />
<glyph unicode="&#xfd;" horiz-adv-x="671" d="M660 696l-275 -696l-53 -137q-58 -145 -162 -145q-26 0 -78 12l-10 82q50 -10 74 -10q39 0 57.5 15t36.5 60l47 123l-275 696h90l230 -602l238 602h80zM476 966l-122 -155h-66l74 155h114z" />
<glyph unicode="&#xfe;" horiz-adv-x="772" d="M196 100v-376h-88v1236h88v-374q68 116 216 116q146 0 217 -105t71 -249q0 -141 -72 -252.5t-224 -111.5q-138 0 -208 116zM608 350q0 115 -50 203t-158 88q-102 0 -159 -89t-57 -212q0 -129 56 -210t156 -81q102 0 157 83t55 218z" />
<glyph unicode="&#xff;" horiz-adv-x="671" d="M660 696l-275 -696l-53 -137q-58 -145 -162 -145q-26 0 -78 12l-10 82q50 -10 74 -10q39 0 57.5 15t36.5 60l47 123l-275 696h90l230 -602l238 602h80zM506 835h-94v104h94v-104zM252 835h-94v104h94v-104z" />
<glyph unicode="&#x131;" horiz-adv-x="385" d="M240 0h-88v686h88v-686z" />
<glyph unicode="&#x152;" horiz-adv-x="1390" d="M1329 0h-551v164q-82 -180 -288 -180q-194 0 -290 141t-96 357q0 234 99 365.5t287 131.5q100 0 178 -53.5t110 -141.5v176h530v-82h-442v-338h408v-84h-408v-372h463v-84zM770 490q0 182 -73 298.5t-207 116.5q-144 0 -213.5 -118.5t-69.5 -315.5q0 -186 72.5 -300.5 t210.5 -114.5q139 0 209.5 119t70.5 315z" />
<glyph unicode="&#x153;" horiz-adv-x="1313" d="M1243 328h-533q0 -124 62 -201.5t170 -77.5q148 -1 198 149l89 -12q-64 -202 -289 -202q-186 0 -274 147q-106 -147 -270 -147q-170 0 -246 103t-76 249q0 112 36 195t108 127t178 44q182 0 268 -151q96 151 264 151q164 0 239.5 -108t75.5 -266zM620 346q0 129 -60 210 t-169 81q-112 0 -169.5 -87t-57.5 -206q0 -131 60 -213t167 -82q115 0 172 89.5t57 207.5zM1151 393q-22 244 -215 244q-98 0 -159.5 -69.5t-61.5 -174.5h436z" />
<glyph unicode="&#x160;" horiz-adv-x="819" d="M62 289l90 8q10 -119 78 -178q70 -59 182 -59q82 0 139 24t88 72.5t31 103.5q0 146 -252 190q-170 31 -244 94.5t-74 176.5q0 118 86 187t220 69q150 0 232.5 -66.5t88.5 -204.5l-88 -4q-15 198 -225 199q-98 0 -162 -46t-64 -126q0 -137 230 -184q170 -35 254 -97.5 t84 -181.5q0 -63 -23 -114.5t-69 -89.5t-108 -58t-138 -20q-328 0 -356 305zM588 1212l-125 -155h-115l-120 155h96l86 -114l84 114h94z" />
<glyph unicode="&#x161;" horiz-adv-x="671" d="M49 188l84 15q18 -80 71.5 -116t133.5 -36q53 0 95 17.5t64.5 47.5t22.5 70q0 36 -25.5 63t-67.5 41q-42 16 -118 32q-237 49 -237 194q0 90 70 142q72 52 176 52q212 0 258 -182l-80 -12q-22 74 -60 101.5t-116 27.5q-49 0 -88.5 -15.5t-58.5 -39.5q-19 -26 -19 -58 q0 -35 17 -58.5t67 -42.5t128 -35q150 -35 195 -84.5t45 -115.5t-33 -112.5t-94 -73t-145 -26.5q-54 0 -98 10t-79.5 31.5t-63.5 58t-44 104.5zM492 966l-125 -155h-115l-120 155h96l86 -114l84 114h94z" />
<glyph unicode="&#x178;" horiz-adv-x="819" d="M813 960l-361 -546v-414h-92v414l-350 546h109l293 -460l298 460h103zM562 1062h-94v104h94v-104zM308 1062h-94v104h94v-104z" />
<glyph unicode="&#x17d;" horiz-adv-x="819" d="M780 0h-747v84l623 798h-568v78h678v-78l-626 -804h640v-78zM620 1212l-125 -155h-115l-120 155h96l86 -114l84 114h94z" />
<glyph unicode="&#x17e;" horiz-adv-x="671" d="M641 0h-613v72l478 554h-450v70h562v-55l-483 -569h506v-72zM516 966l-125 -155h-115l-120 155h96l86 -114l84 114h94z" />
<glyph unicode="&#x192;" horiz-adv-x="772" d="M717 958l-17 -71q-60 12 -92 12q-46 0 -69 -22.5t-37 -100.5l-16 -90h138l-10 -60h-139l-133 -755q-16 -94 -53 -129t-107 -35q-56 1 -131 15l17 71q66 -12 90 -12q84 1 104 119l123 726h-135l8 60h138l20 104q12 78 25 109t51 55.5t98 24.5q67 -1 127 -21z" />
<glyph unicode="&#x2c6;" horiz-adv-x="463" d="M412 811h-94l-84 111l-86 -111h-97l121 155h114z" />
<glyph unicode="&#x2c7;" horiz-adv-x="463" d="M422 966l-125 -155h-115l-120 155h96l86 -114l84 114h94z" />
<glyph unicode="&#x2da;" horiz-adv-x="463" d="M127 887q0 49 33.5 76.5t73.5 27.5q39 0 71.5 -26.5t32.5 -77.5q0 -52 -34 -79.5t-70 -27.5q-39 0 -73 27.5t-34 79.5zM162 884q0 -26 18 -49.5t54 -23.5q28 0 48.5 21.5t20.5 51.5q0 27 -18.5 50.5t-50.5 23.5q-35 0 -53.5 -23.5t-18.5 -50.5z" />
<glyph unicode="&#x2dc;" horiz-adv-x="463" d="M440 950q0 -54 -32 -87t-82 -33q-34 0 -105 34q-47 28 -73 29q-60 1 -68 -65h-58q4 57 38 88.5t84 31.5q36 0 106 -34q44 -22 72 -23q51 -1 63 59h55z" />
<glyph unicode="&#x3a9;" horiz-adv-x="829" d="M832 116v-116h-376v242q22 0 51 6t57 18t53.5 33t46 51.5t32.5 70.5t12 91q0 20 -4 50t-16 62t-33.5 62.5t-54 55t-77.5 39.5t-107 15q-61 0 -107.5 -15t-79.5 -39.5t-54 -55t-32.5 -62.5t-16.5 -62t-5 -50q0 -51 12.5 -91t32.5 -70.5t46 -51.5t54.5 -33t56 -18t49.5 -6 v-242h-374v116h258v36q-18 4 -43 14t-51.5 27.5t-53 45t-48 65.5t-35 90t-13.5 118q0 74 19.5 132t51 101t72.5 72t86 47t91 26.5t84 8.5q39 0 85 -8.5t90 -26.5t85 -47t72.5 -72t50 -101t18.5 -132q0 -70 -14.5 -123t-35.5 -93t-48 -65.5t-54.5 -43t-51 -25.5t-37.5 -10 v-36h256z" />
<glyph unicode="&#xe00;" horiz-adv-x="209" />
<glyph unicode="&#xe01;" horiz-adv-x="819" d="M700 0h-76v598q0 76 -67 119t-166 43q-118 0 -211 -66q80 -20 164 -78q-49 -20 -80.5 -47t-42 -50t-10.5 -58v-461h-76v494q1 84 97 118q-54 32 -170 62q43 68 140 112t191 44q96 0 165.5 -29t105.5 -78t36 -121v-602z" />
<glyph unicode="&#xe02;" horiz-adv-x="770" d="M652 0h-420v76h102v387q0 28 32 98q36 71 36 97q0 90 -101 102q-88 0 -131 -29q43 0 75.5 -15.5t48 -45t15.5 -70.5q0 -32 -15.5 -61t-46 -49.5t-75.5 -20.5q-43 0 -69.5 17.5t-44 50.5t-17.5 69q0 56 19.5 100t74.5 84t156 40q84 0 137.5 -46t53.5 -124q0 -35 -38 -111 q-34 -77 -34 -99v-374h166v743h76v-819zM240 608q0 64 -66 64q-64 0 -64 -64q0 -66 64 -66q66 0 66 66z" />
<glyph unicode="&#xe03;" horiz-adv-x="819" d="M698 0h-422v76h103v462q-1 56 63 116q28 26 29 34q0 12 -17.5 31t-27.5 19q-20 0 -96 -68q-86 84 -121 84q-29 0 -61 -36t-38 -69q28 29 84 29q54 0 89 -38t35 -93q0 -56 -37 -91.5t-99 -35.5q-70 0 -103.5 49t-33.5 123q0 102 62.5 170t105.5 68q20 0 35 -11l80 -61 l78 59q16 13 28 13q14 0 68.5 -60t54.5 -78q0 -8 -88 -112q-15 -18 -15 -52v-452h168v743h76v-819zM252 553q0 63 -66 63q-64 0 -63 -63q-1 -65 63 -65q66 0 66 65z" />
<glyph unicode="&#xe04;" horiz-adv-x="854" d="M735 0h-75v532q0 66 -30 116t-81 81t-117 31q-64 0 -116 -28t-91 -90t-39 -150v-324l44 135l61 209q38 131 145 131q56 0 95 -40t39 -95q0 -60 -39 -98t-99 -38q-76 0 -98 50l-10 -33l-130 -389h-78v494q0 144 88.5 240t223.5 96q84 0 152.5 -33t111.5 -100t43 -159v-538 zM498 504q0 68 -70 68q-62 0 -62 -62q0 -68 70 -68q62 0 62 62z" />
<glyph unicode="&#xe05;" horiz-adv-x="854" d="M740 0h-76v592q0 154 -86 154q-32 0 -52 -15l-86 -65l-86 65q-20 17 -61 17q-97 0 -97 -156v-422l42 129l61 176q47 133 139 133q136 0 136 -135q0 -39 -17 -67.5t-45 -45t-68 -16.5q-56 0 -102 56l-16 -54l-128 -346h-77v635q0 47 21.5 90t57.5 68.5t82 25.5 q72 -1 105 -27q17 -12 53 -44q24 22 58 44q35 26 102 27q41 0 71.5 -20.5t49.5 -59.5t19 -87v-652zM504 477q0 63 -64 63q-66 0 -65 -63q-1 -65 65 -65q64 0 64 65z" />
<glyph unicode="&#xe06;" horiz-adv-x="997" d="M874 0h-73q0 14 -26.5 51t-65.5 80t-81 71t-89 46t-70 20v-186q0 -41 -31.5 -66.5t-77.5 -25.5q-47 0 -85.5 21.5t-66.5 63t-28 97.5q0 86 61 130t155 44v192q0 52 63 116q31 28 31 34q0 12 -18 31t-28 19q-22 0 -100 -68q-86 84 -118 84q-29 0 -62 -37t-37 -68 q26 29 86 29q33 0 58.5 -13t44 -43t18.5 -75q0 -56 -39 -91.5t-99 -35.5q-134 0 -134 176q0 98 63 166t103 68q24 0 38 -11l76 -61l80 59q16 13 26 13q16 0 71 -61t55 -77q0 -14 -40 -57l-50 -59q-14 -16 -15 -48v-186q90 -16 182.5 -75t159.5 -157l-10 74v635h73v-819z M396 112v158q-140 0 -140 -102q0 -41 30 -73.5t72 -32.5q38 0 38 50zM268 553q0 63 -65 63q-63 0 -63 -63q0 -65 63 -65q65 0 65 65z" />
<glyph unicode="&#xe07;" horiz-adv-x="641" d="M522 0h-76l-434 440l56 56l336 -344q6 -6 22 -29l18 -25l10 -16l-8 55v379q0 24 3 36.5t20 39.5q-33 -35 -86 -35q-33 0 -59.5 15.5t-47 45t-20.5 70.5t18.5 72.5t49 50.5t69.5 19q50 0 89.5 -39t39.5 -87v-704zM450 690q0 64 -63 64q-61 0 -61 -62q0 -64 63 -64 q61 0 61 62z" />
<glyph unicode="&#xe08;" horiz-adv-x="782" d="M664 0h-72l-119 344q-17 46 -23 58q-26 -46 -96 -46q-39 0 -67.5 16.5t-44.5 46t-16 69.5q0 30 14 59t43 47t67 18q104 0 140 -104l88 -268l20 -74v370q0 54 -26.5 100t-85 83t-136.5 37q-106 0 -164.5 -72t-58.5 -196v-64h-76v74q0 100 38 174t101.5 115t151.5 41 q140 0 231 -79t91 -209v-540zM420 486q0 62 -62 61q-62 1 -61 -61q-1 -64 61 -64t62 64z" />
<glyph unicode="&#xe09;" horiz-adv-x="829" d="M364 0h-75v358q-93 20 -93 128q0 36 19 66t49 48t66 18q56 0 94.5 -38t38.5 -92q-1 -98 -99 -130v-274q148 112 192 142t70 30v266q0 100 -71 166t-176 66q-64 0 -116 -29t-90 -92t-38 -151v-62h-77v62q0 100 44 179t114 124t165 45q68 0 125 -22t104.5 -65t69.5 -98 t22 -121v-274q88 -22 88 -125q0 -56 -36 -93.5t-90 -37.5q-35 0 -64.5 13t-48.5 37t-19 52q0 22 2 31zM723 127q1 67 -67 67q-64 0 -64 -63q0 -67 68 -67q64 0 63 63zM393 488q1 64 -63 63q-64 1 -64 -63t64 -64t63 64z" />
<glyph unicode="&#xe0a;" horiz-adv-x="782" d="M694 834l-131 -132l97 -69v-633h-404v76h94v448q0 38 5 56t29 46t64 62q-92 66 -180 66q-98 0 -133 -46q20 8 35 9q30 0 58 -13.5t45.5 -45.5t17.5 -72q0 -55 -41.5 -93.5t-97.5 -38.5q-62 0 -96 38t-34 114q0 92 72 155t176 63q114 0 228 -80l143 140zM584 76v522 l-74 54q-33 -31 -53.5 -53.5t-24.5 -34t-4 -44.5v-444h156zM221 594q1 64 -65 64q-64 0 -64 -64q0 -66 64 -66q66 0 65 66z" />
<glyph unicode="&#xe0b;" horiz-adv-x="782" d="M698 834l-130 -132l96 -86v-616h-410v76h100v462q0 52 54 105l55 55q-49 48 -59 48q-12 0 -99 -76q-87 84 -121 84q-29 0 -53.5 -32t-28.5 -66q39 22 66 22q55 0 90 -38t35 -93q0 -52 -37 -89.5t-86 -37.5q-135 0 -135 184q0 78 45.5 152t109.5 74q22 0 36 -11l77 -65 l78 63q17 13 29 13t100 -80l135 134zM588 76v510l-76 66q-10 -8 -36 -34t-35 -47t-9 -43v-452h156zM230 553q0 63 -66 63q-64 0 -64 -63q0 -65 64 -65q66 0 66 65z" />
<glyph unicode="&#xe0c;" horiz-adv-x="1222" d="M1104 0h-76q-4 28 -68.5 103t-140 117t-117.5 44v-182q0 -92 -90 -92q-41 0 -73.5 22.5t-55 64.5t-22.5 93q0 74 44.5 121t120.5 51v256q0 76 -67 119t-166 43q-121 0 -211 -66q86 -24 164 -78q-139 -62 -139 -155v-227q22 22 59 22q41 0 71.5 -17.5t47.5 -46t17 -69.5 q0 -39 -19 -68t-50.5 -47t-70.5 -18q-57 0 -94 37t-37 96v354q1 81 103 135q-54 34 -170 62q43 68 140.5 112t191.5 44q100 0 170.5 -31t103 -80t32.5 -117v-266q80 -10 174.5 -72t151.5 -156v711h76v-819zM631 112v158q-99 -2 -99 -100q0 -39 23 -73.5t55 -34.5q20 0 21 50 zM330 125q0 61 -62 61q-64 0 -63 -67q0 -61 61 -61q64 0 64 67z" />
<glyph unicode="&#xe0d;" horiz-adv-x="1245" d="M1126 0h-502v598q0 76 -67 119t-166 43q-118 0 -211 -66q80 -20 164 -78q-78 -35 -111 -68.5t-33 -86.5v-231q29 26 64 26q58 0 96 -38t38 -95q0 -39 -18 -69t-49.5 -47t-70.5 -17t-68.5 17t-46 47t-16.5 69v354q1 97 103 135q-54 32 -170 62q43 68 140 112t191 44 q96 0 165.5 -29t105.5 -78t36 -121v-526h350v743h76v-819zM1108 -84q-28 -121 -118 -191.5t-210 -70.5q-56 0 -97.5 20.5t-64 55t-22.5 82.5q0 56 40 91t95 35q56 0 93.5 -40t37.5 -92q0 -58 -49 -90q66 4 135.5 73t81.5 145zM796 -196q0 68 -67 67q-65 1 -65 -65 q0 -68 67 -68q65 0 65 66zM328 125q0 61 -62 61q-70 0 -70 -67q0 -61 62 -61q70 0 70 67z" />
<glyph unicode="&#xe0e;" horiz-adv-x="901" d="M782 -295l-198 -201l-178 119q-26 17 -40 55v-30q0 -55 -40 -98.5t-96 -43.5q-43 0 -76 20t-52.5 51.5t-19.5 74.5q0 57 40 98t97 41q65 -1 95 -31l-11 19q-4 11 -4 21v106h69v-170l206 -134l132 134v862q0 76 -67 119t-166 43q-120 0 -211 -66q84 -20 164 -78 q-47 -22 -78.5 -48t-41 -49t-9.5 -58v-336q0 -54 -38 -94.5t-91 -40.5q-39 0 -70.5 18t-49.5 48t-18 67q0 55 35 92t91 37q35 0 65 -16v256q1 84 95 120q-54 32 -172 62q43 68 140 112t193 44q94 0 163.5 -29t105.5 -78t36 -121v-897zM299 -350q0 74 -76 74q-26 0 -45.5 -22 t-19.5 -48q0 -74 70 -74q18 0 33 8t26.5 25t11.5 37zM230 119q0 71 -70 71q-60 0 -60 -63q0 -71 68 -71q62 0 62 63z" />
<glyph unicode="&#xe0f;" horiz-adv-x="901" d="M782 -344l-147 -152l-93 92l-90 -92q-26 26 -77 84q-9 14 -15 33q-8 -49 -43 -82t-77 -33q-47 0 -83 20t-55.5 51.5t-19.5 74.5q0 57 40 98t97 41q57 -1 95 -33q-8 12 -13 25q-2 13 -2 17v106h69v-201l84 -103l90 89l89 -89l75 80v916q0 76 -67 119t-166 43 q-120 0 -211 -66q84 -20 164 -78q-47 -22 -78.5 -48t-41 -49t-9.5 -58v-336q0 -54 -38 -94.5t-91 -40.5q-39 0 -70.5 18t-49.5 48t-18 67q0 55 35 92t91 37q35 0 65 -16v256q1 84 95 120q-54 32 -172 62q43 68 140 112t193 44q94 0 163.5 -29t105.5 -78t36 -121v-946z M299 -350q0 74 -76 74q-18 0 -33.5 -9.5t-23.5 -25t-8 -35.5q0 -74 76 -74q66 0 65 70zM230 119q0 71 -70 71q-60 0 -60 -63q0 -71 68 -71q62 0 62 63z" />
<glyph unicode="&#xe10;" horiz-adv-x="782" d="M706 858q-14 -116 -26 -137t-45 -21q-18 0 -123 25q-98 25 -135 25q-160 0 -207 -117q58 31 164 31q127 0 225.5 -33t98.5 -95l-84 -536h-72l-90 258q-4 16 -6 35q0 6 2 41q-35 -70 -115 -70q-31 0 -58.5 15.5t-48 48t-20.5 76.5q0 56 38 94t95 38q96 0 127 -96l84 -258 l16 -88h6l6 136l44 294q0 32 -95.5 51t-189.5 19q-105 0 -201 -18l2 20q8 92 83 158.5t202 66.5q78 -1 180 -27q43 -12 57 -12q6 2 15 86zM656 -379l-142 -143l-90 90l-88 -90l-66 74q-16 18 -24 50q-12 -122 -138 -122q-60 0 -95 40t-35 105q0 35 15 64t46 49t73 20 q54 0 86 -28q-6 14 -11 24t-5 18v146h72v-240l82 -104l88 88l88 -88l74 76v30q4 18 10 34q-31 -32 -82 -32q-125 0 -125 130q0 58 38.5 94t96.5 36q59 0 95.5 -36t36.5 -100v-185zM180 -383q0 69 -70 69q-64 0 -63 -63q-1 -69 65 -69q68 0 68 63zM588 -188q0 62 -66 61 q-66 1 -66 -67q0 -62 68 -62q64 0 64 68zM362 400q0 64 -63 63q-24 0 -43.5 -18.5t-19.5 -44.5q0 -64 63 -64t63 64z" />
<glyph unicode="&#xe11;" horiz-adv-x="1032" d="M912 0h-76v616q0 128 -103 128h-12l-275 -744h-69v538q-1 56 63 116q28 26 29 34q0 10 -16.5 30t-28.5 20q-20 0 -96 -68q-86 84 -121 84q-29 0 -61 -36t-38 -69q28 29 84 29q54 0 89 -38t35 -93q0 -39 -18 -68t-47.5 -44t-70.5 -15q-70 0 -103.5 49t-33.5 123 q0 104 63.5 171t104.5 67q20 0 35 -11l80 -61l78 59q16 13 28 13q8 0 34 -24t57.5 -62t31.5 -52q0 -8 -88 -112q-15 -18 -15 -52v-315l58 164l160 442h51q191 -1 191 -207v-612zM250 553q0 63 -66 63q-64 0 -63 -63q-1 -65 63 -65q66 0 66 65z" />
<glyph unicode="&#xe12;" horiz-adv-x="1257" d="M1138 0h-75q-8 33 -70.5 103.5t-139.5 114.5t-113 48v-184q0 -92 -93 -92q-70 0 -110.5 50t-40.5 132q0 49 19 86t57 59.5t92 24.5v250q0 154 -86 154q-32 0 -52 -15l-86 -65l-86 65q-20 17 -61 17q-97 0 -97 -156v-494l172 205q10 12 29 27.5t27 19.5q-35 0 -63.5 15.5 t-49 44t-20.5 63.5q0 37 15.5 67t45 48t72.5 18q41 0 70.5 -17t47 -45t17.5 -67q0 -51 -45 -105l-316 -372h-77v635q0 47 21.5 90t57.5 68.5t82 25.5q72 -1 105 -27q17 -12 53 -44q24 22 58 44q35 26 102 27q41 0 71.5 -20.5t49.5 -59.5t19 -87v-316q62 0 165 -64.5 t158 -152.5v700h75v-819zM664 112v158q-94 -2 -94 -98q0 -110 75 -110q19 0 19 50zM492 477q0 70 -70 70q-64 1 -64 -63q0 -74 70 -74q64 0 64 67z" />
<glyph unicode="&#xe13;" horiz-adv-x="1245" d="M926 190l-35 -30l-93 -68q-68 -49 -104 -92h-70v598q0 76 -67 119t-166 43q-118 0 -211 -66q80 -20 164 -78q-49 -20 -80.5 -45.5t-43 -51t-11.5 -58.5v-227q22 20 57 20q39 0 67.5 -17.5t46.5 -46t18 -67.5t-18 -69t-49.5 -47t-70.5 -17q-57 0 -91 37t-34 96v371 q1 84 97 118q-54 32 -170 62q43 68 140 112t191 44q96 0 165.5 -29t105.5 -78t36 -121v-504q78 80 177 138.5t165 58.5v524h76v-535q94 -38 94 -140q0 -47 -19 -82.5t-53 -53.5t-81 -18q-149 0 -149 152q0 8 16 48zM1147 142q0 88 -88 88q-86 0 -86 -84q0 -88 88 -88 q86 0 86 84zM328 125q0 63 -64 63t-64 -67q0 -63 62 -63q66 0 66 67z" />
<glyph unicode="&#xe14;" horiz-adv-x="854" d="M735 0h-75v532q0 66 -32 116t-83 80t-119 30t-119 -35t-82 -95t-31 -134v-380l178 224q10 12 42 39l12 8q-127 0 -127 123q0 37 18.5 67.5t48.5 49t66 18.5q39 0 69.5 -17.5t48.5 -46t18 -65.5q0 -52 -46 -108l-334 -406h-72v494q0 142 88.5 239t223.5 97q90 0 159 -38 t108.5 -104t39.5 -150v-538zM498 504q0 68 -70 68q-62 0 -62 -62q0 -68 70 -68q62 0 62 62z" />
<glyph unicode="&#xe15;" horiz-adv-x="854" d="M735 0h-75v592q0 154 -86 154q-33 0 -52 -15l-86 -65l-86 65q-22 17 -61 17q-97 0 -97 -156v-494l172 205q4 6 27 29q10 8 29 18q-56 0 -95 37t-39 86q0 60 37 96.5t97 36.5q57 0 96 -36t39 -93q0 -51 -45 -105l-316 -372h-78v635q0 74 47 129t115 55q72 -1 105 -27 q16 -12 53 -44q26 22 58 44q35 26 102 27q37 0 65.5 -16.5t51 -55.5t22.5 -95v-652zM488 477q0 70 -70 70q-64 1 -64 -63q0 -74 70 -74q64 0 64 67z" />
<glyph unicode="&#xe16;" horiz-adv-x="819" d="M700 0h-76v598q0 76 -67 119t-166 43q-118 0 -211 -66q80 -20 164 -78q-49 -20 -80.5 -45.5t-44 -52t-12.5 -59.5v-231q15 22 63 22q36 0 65 -17.5t46 -45t17 -64.5q0 -39 -18 -69t-49.5 -47t-70.5 -17q-57 0 -91 37t-34 94v373q1 84 97 118q-54 32 -170 62 q43 68 140 112t191 44q96 0 165.5 -29t105.5 -78t36 -121v-602zM330 121q0 61 -68 61q-64 0 -64 -66q0 -60 62 -60q70 0 70 65z" />
<glyph unicode="&#xe17;" horiz-adv-x="878" d="M760 0h-76v616q0 128 -102 128h-12l-271 -744h-69v559q0 3 2 11v14q-24 -22 -60 -23q-35 0 -63.5 14.5t-49 45.5t-20.5 73q0 34 15.5 64t47 51t74.5 21q60 0 95.5 -38t35.5 -98v-494l21 82l30 97l158 440h54q190 -1 190 -207v-612zM242 698q0 62 -64 62q-68 0 -68 -68 q0 -61 62 -61q70 -1 70 67z" />
<glyph unicode="&#xe18;" horiz-adv-x="735" d="M672 692l-60 -40q-70 106 -214 106q-84 0 -155 -50t-101 -128q8 4 21 8t27 4h248q154 0 154 -142v-450h-476v76h97v446h-151l2 18q12 121 115 205.5t229 84.5q176 0 264 -138zM516 76v366q0 43 -21 61.5t-49 18.5h-157v-446h227z" />
<glyph unicode="&#xe19;" horiz-adv-x="878" d="M574 205q-20 0 -87 -42t-112 -84t-72 -79h-75v576q-18 -14 -54 -15q-37 0 -64.5 14.5t-49 45.5t-21.5 73q0 34 15.5 64t47 51t74.5 21q39 0 67.5 -17t45 -48t16.5 -71v-586q78 76 151.5 118t137.5 57.5t90 15.5v520h76v-535q94 -38 94 -140q0 -154 -154 -154 q-45 0 -77.5 19t-52 53t-19.5 80q1 36 23 63zM788 142q0 88 -88 88q-86 0 -86 -84q0 -88 88 -88q86 0 86 84zM242 698q0 62 -62 62q-70 0 -70 -68q0 -61 62 -61q70 -1 70 67z" />
<glyph unicode="&#xe1a;" horiz-adv-x="913" d="M794 0h-654v76h94v504q-20 -16 -64 -17q-56 0 -92.5 37.5t-36.5 93.5q0 34 15.5 64t48 51t75.5 21q39 0 67.5 -17t45 -48t16.5 -71v-618h410v743h75v-819zM244 698q0 62 -62 62q-70 0 -70 -68q0 -61 62 -61q70 -1 70 67z" />
<glyph unicode="&#xe1b;" horiz-adv-x="913" d="M794 0h-654v76h94v504q-20 -16 -64 -17q-56 0 -92.5 37.5t-36.5 93.5q0 34 15.5 64t48 51t75.5 21q39 0 67.5 -17t45 -48t16.5 -71v-618h410v1182h75v-1258zM244 698q0 62 -62 62q-70 0 -70 -68q0 -61 62 -61q70 -1 70 67z" />
<glyph unicode="&#xe1c;" horiz-adv-x="829" d="M710 0h-69l-223 272l-224 -272h-71v694q0 38 17.5 69t46 49t67.5 18q58 0 97.5 -39t39.5 -97q0 -39 -17.5 -68.5t-46 -47t-65.5 -17.5q-40 1 -64 23v-463l187 229h65l185 -223v692h75v-819zM320 692q0 68 -70 68q-62 0 -62 -62q0 -68 66 -67q66 0 66 61z" />
<glyph unicode="&#xe1d;" horiz-adv-x="829" d="M710 0h-69l-223 272l-224 -272h-71v694q0 38 17.5 69t46 49t67.5 18q58 0 97.5 -39t39.5 -97q0 -39 -17.5 -68.5t-46 -47t-65.5 -17.5q-40 1 -64 23v-463l187 229h65l185 -223v1131h75v-1258zM320 692q0 68 -70 68q-62 0 -62 -62q0 -68 66 -67q66 0 66 61z" />
<glyph unicode="&#xe1e;" horiz-adv-x="948" d="M830 0h-76l-201 628l-25 107l-22 -107l-203 -628h-75v580q-22 -18 -62 -19q-54 0 -90.5 39.5t-36.5 93.5q0 34 15.5 64t47 51t74.5 21q60 0 93.5 -38t33.5 -98v-475l41 135l150 465h71l164 -501l25 -105v606h76v-819zM242 698q0 62 -62 62q-70 0 -70 -68q0 -61 62 -61 q70 -1 70 67z" />
<glyph unicode="&#xe1f;" horiz-adv-x="948" d="M830 0h-76l-201 628l-25 107l-22 -107l-203 -628h-75v580q-22 -18 -62 -19q-54 0 -90.5 39.5t-36.5 93.5q0 34 15.5 64t47 51t74.5 21q60 0 93.5 -38t33.5 -98v-475l41 135l150 465h71l164 -501l25 -105v1045h76v-1258zM242 698q0 62 -62 62q-70 0 -70 -68q0 -61 62 -61 q70 -1 70 67z" />
<glyph unicode="&#xe20;" horiz-adv-x="901" d="M782 0h-76v598q0 76 -67 119t-166 43q-120 0 -211 -66q84 -20 164 -78q-47 -22 -78.5 -48t-41 -49t-9.5 -58v-336q0 -54 -38 -94.5t-91 -40.5q-39 0 -70.5 18t-49.5 48t-18 67q0 55 35 92t91 37q35 0 65 -16v256q1 84 95 120q-54 32 -172 62q43 68 140 112t193 44 q94 0 163.5 -29t105.5 -78t36 -121v-602zM230 119q0 71 -70 71q-60 0 -60 -63q0 -71 68 -71q62 0 62 63z" />
<glyph unicode="&#xe21;" horiz-adv-x="889" d="M770 0h-76q0 10 -33 44t-82 73t-121.5 77t-125.5 42v-154q0 -92 -90 -92q-45 0 -82 22.5t-59.5 59t-22.5 82.5q0 76 49 119t131 43v262q-10 -16 -58 -17q-61 0 -97.5 38.5t-36.5 94.5q0 57 40 96.5t97 39.5t94 -38t37 -98v-385q68 0 184 -63.5t176 -143.5v717h76v-819z M260 112v128q-106 0 -106 -86q0 -32 27 -62t59 -30q20 0 20 50zM268 698q0 62 -63 62q-68 0 -68 -68q-1 -61 63 -61q68 -1 68 67z" />
<glyph unicode="&#xe22;" horiz-adv-x="819" d="M698 0h-546v278q0 106 57 130q-139 45 -139 196q0 39 11 75t39 71.5t67 57.5t87 22q68 0 107 -38t39 -98q0 -39 -17.5 -68.5t-46 -47t-65.5 -17.5q-123 0 -123 115q0 6 2 24q-26 -26 -26 -92t44 -112t105 -46h119v-71h-107q-77 0 -77 -90v-213h394v743h76v-819zM348 692 q0 68 -68 68q-64 0 -63 -62q-1 -68 67 -67q64 0 64 61z" />
<glyph unicode="&#xe23;" horiz-adv-x="616" d="M584 557h-72v17q0 53 -24.5 94.5t-63.5 66.5t-92 25q-166 0 -186 -160q39 12 57 12h223v-500q0 -49 -38 -85.5t-89 -36.5q-139 0 -139 139q0 37 17 67t46 47t66 17q34 0 61 -18v298h-274v42q0 104 75 176t181 72q74 0 130 -32t89 -86t33 -124v-31zM354 127q0 61 -61 61 q-63 0 -63 -63q0 -61 61 -61q63 0 63 63z" />
<glyph unicode="&#xe24;" horiz-adv-x="819" d="M700 -498h-76v1096q0 76 -67 119t-166 43q-118 0 -211 -66q80 -20 164 -78q-49 -20 -80.5 -45.5t-43 -51t-11.5 -58.5v-219q18 16 51 16q37 0 67.5 -15t50.5 -46t20 -74q0 -39 -18 -69t-49.5 -47t-70.5 -17q-34 0 -61 13t-45.5 43t-18.5 75v373q1 84 97 118 q-54 32 -170 62q43 68 140 112t191 44q96 0 165.5 -29t105.5 -78t36 -121v-1100zM328 125q0 61 -62 61q-70 0 -70 -67q0 -61 64 -61q68 0 68 67z" />
<glyph unicode="&#xe25;" horiz-adv-x="829" d="M710 0h-75q0 94 -91.5 290t-147.5 252q-37 -34 -99.5 -130t-91.5 -182q31 26 65 26q57 0 97.5 -38t40.5 -95q0 -58 -40 -95.5t-98 -37.5q-62 0 -100.5 44t-38.5 108t14.5 121t44 115t90 137t118.5 130q68 -51 144 -194t116 -295l4 2l-27 221v153q0 94 -67.5 160 t-163.5 66q-72 0 -127.5 -35t-89 -94t-33.5 -135v-56h-76v56q0 100 42 175t115 118t171 43q64 0 117 -21t98 -64t67 -94t22 -113v-538zM336 125q0 61 -66 61t-65 -67q-1 -61 63 -61q68 0 68 67z" />
<glyph unicode="&#xe26;" horiz-adv-x="901" d="M782 -498h-76v1096q0 76 -67 119t-166 43q-120 0 -211 -66q84 -20 164 -78q-47 -22 -78.5 -48t-41 -49t-9.5 -58v-336q0 -54 -38 -94.5t-91 -40.5q-39 0 -70.5 18t-49.5 48t-18 67q0 55 35 92t91 37q35 0 65 -16v256q1 84 95 120q-54 32 -172 62q43 68 140 112t193 44 q94 0 163.5 -29t105.5 -78t36 -121v-1100zM230 119q0 71 -70 71q-60 0 -60 -63q0 -71 68 -71q62 0 62 63z" />
<glyph unicode="&#xe27;" horiz-adv-x="710" d="M516 242v332q0 53 -23.5 91.5t-65.5 63.5t-95 25q-86 0 -143.5 -58.5t-57.5 -144.5v-119h-75v125q0 114 80.5 193.5t195.5 79.5q106 0 183 -72t77 -176v-470q0 -34 -17.5 -61t-46 -44t-63.5 -17q-137 0 -137 139q0 37 17 67t45 47t64 17q40 0 62 -18zM520 129 q0 59 -59 59q-63 0 -63 -65q0 -59 58 -59q64 0 64 65z" />
<glyph unicode="&#xe28;" horiz-adv-x="854" d="M649 738q43 -29 64.5 -85.5t21.5 -114.5v-538h-75v532q0 106 -54 148q-8 -6 -34 -41q-4 -6 -40 -41q38 -35 38 -86q0 -60 -40 -96.5t-100 -36.5q-64 0 -94 43l-12 -33l-130 -389h-78v494q0 64 17 118t56 105t99 82t140 31q102 0 168 -46q30 41 74 146l68 -33 q2 -4 -28 -53q-42 -78 -61 -106zM553 725q-35 33 -127 33q-68 0 -120 -36t-85 -97t-33 -137v-314l38 129l65 209q41 131 145 131q18 0 41 -8q35 34 76 90zM498 506q0 68 -68 68q-62 0 -62 -64q0 -68 68 -68q62 0 62 64z" />
<glyph unicode="&#xe29;" horiz-adv-x="973" d="M981 586q-105 -122 -187 -164v-422h-654v76h94v502q-20 -16 -60 -17q-60 0 -96.5 38.5t-36.5 94.5q0 34 15.5 64t48 51t75.5 21q39 0 67.5 -17t45 -48t16.5 -71v-618h410v315q-57 -27 -147 -27q-76 0 -128.5 42t-52.5 110q0 54 36 90.5t87 36.5q39 0 66.5 -16.5t44 -44 t16.5 -66.5q1 -55 -59 -94q31 0 43 2t42.5 12t51.5 33v350h75v-317q26 12 75 61t59 70zM244 698q0 62 -60 62q-72 0 -72 -68q0 -61 60 -61q72 -1 72 67zM578 514q0 62 -60 62q-59 0 -59 -58q0 -62 61 -62q58 0 58 58z" />
<glyph unicode="&#xe2a;" horiz-adv-x="829" d="M710 0h-75q0 94 -90.5 288t-144.5 248q-90 -96 -142 -183t-62 -140q30 39 78 39q39 0 68.5 -17.5t47.5 -45t18 -66.5q0 -58 -40 -95.5t-98 -37.5q-41 0 -72.5 20t-49 55t-17.5 81q0 92 42.5 195t186.5 263l124 140q0 14 -80 14q-72 0 -127.5 -35t-89 -94t-33.5 -135v-56 h-76v56q0 100 42 175t115 118t171 43q72 0 120 -23q16 0 64 125l70 -31q-37 -84 -70 -133q68 -43 94 -103.5t26 -126.5v-538zM643 217v311q0 76 -33.5 125t-62.5 57l-103 -122q39 -29 99.5 -141.5t66.5 -147.5zM340 125q0 63 -62 63q-72 0 -71 -69q-1 -66 65 -66q68 0 68 72 z" />
<glyph unicode="&#xe2b;" horiz-adv-x="878" d="M725 576l35 -21v-555h-76v522l-385 -522h-67v578q-18 -16 -60 -17q-60 0 -96.5 38.5t-36.5 94.5q0 34 15.5 64t47 51t74.5 21q127 0 127 -140v-561l21 29l307 410q-103 50 -103 132q0 55 38 92.5t94 37.5q58 0 95 -36t37 -94q0 -60 -67 -124zM242 698q0 62 -62 62 q-70 0 -70 -68q0 -61 62 -61q70 -1 70 67zM721 700q1 60 -61 60q-16 0 -30 -8t-22 -22t-8 -30q0 -46 70 -84q52 44 51 84z" />
<glyph unicode="&#xe2c;" horiz-adv-x="948" d="M942 1008l-112 -111v-897h-76l-226 712l-22 -84l-203 -628h-69v580q-24 -18 -64 -19q-37 0 -65.5 16.5t-47 47.5t-18.5 69q0 34 15.5 63t47 50t74.5 21q127 0 127 -134v-485l41 145l150 465h71l193 -596v586q0 5 2 17q4 12 14 24q-28 -24 -74 -24q-39 0 -69.5 17t-48 48 t-17.5 69q0 58 37.5 97t95.5 39q30 0 58 -12.5t48 -37t24 -57.5q0 -5 2 -21q2 4 6 23q0 4 6 23l47 47zM236 698q0 62 -62 62q-68 0 -68 -70q0 -62 60 -62q70 0 70 70zM764 960q0 62 -60 62q-68 0 -67 -66q-1 -62 61 -61q66 -1 66 65z" />
<glyph unicode="&#xe2d;" horiz-adv-x="807" d="M688 0h-485v482q0 57 36.5 95.5t94.5 38.5q38 0 69 -18t49.5 -48t18.5 -68q0 -56 -36.5 -95t-92.5 -39q-38 0 -64 18v-290h334v456q0 96 -68.5 161t-164.5 65q-64 0 -118 -29t-93 -90t-39 -145v-56h-76v56q0 100 43.5 175t115.5 118t169 43q127 0 217 -84t90 -208v-538z M400 479q0 66 -68 66q-60 1 -60 -61q0 -66 68 -66q60 0 60 61z" />
<glyph unicode="&#xe2e;" horiz-adv-x="782" d="M612 719q26 -29 39 -70t13 -111v-538h-541v362q0 60 35.5 98t95.5 38q58 0 97.5 -39t39.5 -97t-33.5 -95t-89.5 -37q-36 0 -70 18v-172h390v510q0 54 -29 86q-37 -36 -94 -68t-141 -32t-152 29.5t-68 86.5q0 62 75 102t163 40q137 0 217 -66l29 28l74 84l53 -48 q0 -2 -16.5 -21t-53.5 -55zM508 715q-60 45 -162 45q-55 0 -110.5 -20.5t-55.5 -51.5q0 -14 19.5 -24t56 -16.5t66.5 -6.5q66 0 109.5 22.5t76.5 51.5zM318 360q0 66 -68 66q-60 0 -60 -62q0 -66 68 -65q60 -1 60 61z" />
<glyph unicode="&#xe2f;" horiz-adv-x="735" d="M616 0h-76v555l28 151l-7 2q-18 -80 -93 -148t-173 -68q-66 0 -117 23t-88 73.5t-37 99.5q0 58 36.5 100t94.5 42q38 0 68 -17t47 -45t17 -68q0 -35 -16 -62.5t-43 -44.5t-63 -17q38 -18 74 -19q214 0 272 262h76v-819zM250 696q0 64 -64 64t-63 -64q-1 -64 63 -63 q64 -1 64 63z" />
<glyph unicode="&#xe30;" horiz-adv-x="735" d="M684 776q-58 -116 -159 -185t-216 -69q-66 0 -120 25t-80.5 59.5t-26.5 81.5q0 37 17 65.5t49 47t71 18.5q58 0 92.5 -36.5t34.5 -92.5q0 -88 -78 -108q82 0 151 32.5t118 83t81 121.5zM684 254q-58 -117 -159 -185.5t-216 -68.5q-66 0 -119 23.5t-80.5 59.5t-27.5 83 q0 32 15 61t47 49.5t75 20.5q37 0 66 -16.5t45 -45t16 -67.5q0 -88 -78 -108q110 0 205 62t145 175zM282 160q0 68 -69 68q-61 0 -61 -62q0 -68 67 -68q63 0 63 62zM282 682q0 68 -69 68q-61 0 -61 -62q0 -68 67 -68q63 0 63 62z" />
<glyph unicode="&#xe31;" d="M144 1208q-88 -111 -203 -182.5t-217 -71.5q-88 0 -138.5 39t-50.5 105q0 33 14.5 61.5t44 48t68.5 19.5q35 0 62.5 -16.5t44 -43.5t16.5 -59q0 -64 -35 -86q35 0 139.5 54t196.5 182zM-280 1098q0 62 -62 61q-58 0 -58 -57q0 -62 62 -62q58 0 58 58z" />
<glyph unicode="&#xe32;" horiz-adv-x="710" d="M592 0h-76v559q0 62 -24.5 105.5t-65 68.5t-98.5 25q-76 0 -134.5 -54t-58.5 -130v-9h-73v15q0 102 80 176t186 74q115 0 189.5 -72t74.5 -184v-574z" />
<glyph unicode="&#xe33;" horiz-adv-x="710" d="M592 0h-76v559q0 62 -24.5 105.5t-65 68.5t-98.5 25q-76 0 -134.5 -54t-58.5 -130v-9h-73v15q0 102 80 176t186 74q115 0 189.5 -72t74.5 -184v-574zM10 1174q0 -39 -17 -73t-53 -57.5t-84 -23.5q-43 0 -77.5 20.5t-55 55t-20.5 78.5q0 43 20.5 77.5t55.5 55t77 20.5 q45 0 79.5 -20.5t54.5 -55t20 -77.5zM-60 1174q0 24 -11 42.5t-30 30t-43 11.5q-20 0 -38 -9.5t-32 -29t-14 -45.5q0 -20 10.5 -39t30 -32t43.5 -13q22 0 41 10t31 30t12 44z" />
<glyph unicode="&#xe34;" d="M-119 952q-122 45 -231.5 64.5t-227.5 19.5q-112 0 -196 -10q0 31 19.5 74t47 73.5t65.5 51t84 31t104 10.5q78 0 138 -26t104 -65t68.5 -88t24.5 -135zM-176 1016q-29 84 -110.5 131t-190.5 47q-149 0 -227 -117q18 8 69 18.5t127 10.5q131 0 212 -30t120 -60z" />
<glyph unicode="&#xe35;" d="M-119 952q-122 45 -231.5 64.5t-227.5 19.5q-112 0 -196 -10q0 41 36 104.5t107 99.5t183 36q51 0 103 -16.5t98.5 -48t74.5 -75.5q-18 34 -18 84v191h71v-449zM-176 1016q-29 84 -110.5 131t-190.5 47q-149 0 -227 -117q18 8 69 18.5t127 10.5q131 0 212 -30t120 -60z " />
<glyph unicode="&#xe36;" d="M-119 952q-122 45 -231.5 64.5t-227.5 19.5q-112 0 -196 -10q0 31 19.5 72.5t47 72.5t66.5 52.5t87 32t106 10.5q62 0 92 -16q-8 14 -8 42q0 34 14 59t40 39.5t60 14.5q52 0 84.5 -31.5t32.5 -83.5q-1 -90 -93 -108q35 -16 71 -73t36 -157zM-176 1016q-29 84 -110.5 131 t-190.5 47q-149 0 -227 -117q18 8 69 18.5t127 10.5q131 0 212 -30t120 -60zM-194 1284q0 60 -58 60q-55 0 -55 -56q0 -59 57 -59q56 0 56 55z" />
<glyph unicode="&#xe37;" d="M-119 952q-122 45 -231.5 64.5t-227.5 19.5q-112 0 -196 -10q0 41 34 100.5t106.5 99.5t160.5 40q78 0 129 -19v154h72v-187q8 0 49 -36q36 -30 47 -52q-14 62 -14 84v191h71v-449zM-176 1016q-29 84 -110.5 131t-190.5 47q-149 0 -227 -117q18 8 69 18.5t127 10.5 q131 0 212 -30t120 -60z" />
<glyph unicode="&#xe38;" d="M-116 -446h-72v102q0 26 18 55l8 13q-34 -32 -82 -33q-33 0 -58.5 15.5t-40.5 41.5t-15 62q0 35 16 61.5t44 42.5t64 16q30 0 57 -13t44 -41t17 -66v-256zM-178 -192q0 58 -58 57q-58 1 -57 -57q-1 -58 57 -58t58 58z" />
<glyph unicode="&#xe39;" d="M-116 -446h-302v69h52v31q0 28 20 57q4 7 6 11q-32 -34 -82 -34q-32 0 -58 16t-41 42t-15 62q0 35 16 61.5t44 42.5t64 16q51 0 84 -32t33 -88v-185h107v303h72v-372zM-356 -192q0 58 -58 57q-58 1 -57 -57q-1 -60 57 -60t58 60z" />
<glyph unicode="&#xe3a;" d="M-84 -168q0 -14 -5 -26.5t-14 -22t-23 -14.5t-26 -5q-14 0 -27 5t-22.5 14.5t-14.5 22t-5 26.5t5 27.5t14.5 23t22.5 14.5t27 5q12 0 26 -5t23 -15.5t14 -23t5 -26.5z" />
<glyph unicode="&#xe3f;" horiz-adv-x="895" d="M473 0v-135h-67v135h-292v960h292v132h67v-132h4q90 0 156.5 -28.5t103.5 -83t37 -131.5q0 -62 -31 -115t-106 -96q98 -33 141 -93.5t43 -142.5t-33.5 -140t-103.5 -94t-166 -36h-45zM473 456v-378h35q64 0 113 20.5t77.5 63t28.5 108.5q0 86 -59.5 136t-155.5 50h-39z M406 78v378h-197v-378h197zM406 538v340h-197v-340h197zM473 878v-340h17q62 0 104.5 22t66 60t23.5 92q0 74 -47 118t-164 48z" />
<glyph unicode="&#xe40;" horiz-adv-x="413" d="M142 819h75v-581q33 18 65 18q33 0 60.5 -14t47.5 -45t20 -74q0 -58 -40 -95.5t-98 -37.5t-94 38t-36 95v696zM338 123q0 63 -62 63q-68 0 -67 -65q-1 -63 63 -63q66 0 66 65z" />
<glyph unicode="&#xe41;" horiz-adv-x="850" d="M142 819h75v-581q33 18 65 18q33 0 60.5 -14t47.5 -45t20 -74q0 -58 -40 -95.5t-98 -37.5t-94 38t-36 95v696zM498 819h76v-581q30 18 65 18q37 0 64.5 -17.5t45 -47t17.5 -68.5q0 -58 -40 -95.5t-98 -37.5q-57 0 -93.5 38t-36.5 95v696zM338 123q0 63 -62 63 q-68 0 -67 -65q-1 -63 63 -63q66 0 66 65zM694 123q0 63 -63 63q-66 0 -66 -65q-1 -63 63 -63q66 0 66 65z" />
<glyph unicode="&#xe42;" horiz-adv-x="508" d="M400 1044q0 86 -50 142q-47 57 -127 57q-65 0 -111 -45q-44 -45 -54 -90l218 -131v-737q24 18 62 18q58 0 90 -37q35 -36 35 -98q0 -26 -8.5 -51t-25.5 -43.5t-43 -28.5t-58 -10q-120 0 -121 135v817l-231 138q50 234 250 233q55 0 99.5 -17.5t77.5 -50.5t51.5 -78 t18.5 -100v-23h-73zM398 119q0 67 -64 67q-66 0 -66 -63q0 -67 62 -67q68 0 68 63z" />
<glyph unicode="&#xe43;" horiz-adv-x="594" d="M62 1194q14 12 48 12q22 0 42 -7t34 -21t22.5 -34t8.5 -42q-1 -50 -33 -84q-32 -35 -78 -35q-122 -1 -122 137q0 45 15 84t41 66.5t61.5 43t76.5 15.5q190 0 190 -252v-847q29 26 68 26q117 0 117 -133q1 -133 -137 -133q-118 0 -119 129v948q0 191 -133 191 q-72 0 -102 -64zM490 119q0 67 -66 67q-62 0 -62 -70q0 -66 62 -65q66 0 66 68zM156 1094q0 56 -52 55q-54 1 -53 -51q-1 -54 51 -54q54 0 54 50z" />
<glyph unicode="&#xe44;" horiz-adv-x="569" d="M262 1256q-2 -2 -6 -12t-12 -24l-27 -36l-145 -207h-74q0 12 1 31.5t1 50.5q2 41 3 75t1 60q0 84 -26 207h65q27 -102 27 -197q0 -26 -2 -61t-8 -80l48 71l140 208h76v-1100q26 16 57 16q123 0 123 -135q0 -133 -138 -133q-116 0 -116 129v1067q0 24 6 51zM438 121 q0 69 -61 69q-65 0 -65 -69q0 -68 58 -68q68 0 68 68z" />
<glyph unicode="&#xe45;" horiz-adv-x="755" d="M592 -498h-76v1057q0 62 -24.5 105.5t-65 68.5t-98.5 25q-76 0 -134.5 -54t-58.5 -130v-9h-73v15q0 102 80 176t186 74q113 0 188.5 -72t75.5 -184v-1072z" />
<glyph unicode="&#xe46;" horiz-adv-x="770" d="M649 -498h-75v1242h-19q-78 0 -86 -99l-2 -25h-65l-2 25q-8 107 -140 107q-28 0 -43 -6q101 -8 101 -118q0 -53 -36 -87.5t-90 -34.5q-39 0 -69.5 17t-48.5 48t-18 74q0 56 25 93.5t72 59t111 21.5q66 -1 113 -23q45 -22 55 -63q0 31 34 58.5t108 27.5h75v-1317zM252 635 q0 65 -66 65q-62 0 -61 -61q-1 -65 67 -65q60 0 60 61z" />
<glyph unicode="&#xe47;" d="M-64 1282q-74 -80 -180 -80q-34 0 -78 6q-84 10 -106 10q-47 0 -73.5 -25t-26.5 -73q0 -54 51 -94q14 40 51 96q80 -110 137 -118q-27 26 -27 55q0 28 12.5 48.5t33 33t49.5 12.5q28 0 49.5 -13.5t35 -35.5t13.5 -54q0 -106 -139 -106q-41 0 -86.5 28t-65.5 54 q-6 0 -38 -82q-142 56 -142 176q0 162 188 162q22 0 94 -6q37 -4 66 -4q46 0 78 14t60 45zM-176 1054q0 46 -45 46q-41 0 -41 -43q0 -45 45 -45q41 0 41 42z" />
<glyph unicode="&#xe48;" d="M-116 1483h-78v287h78v-287z" />
<glyph unicode="&#xe49;" d="M0 1728q-49 -146 -154.5 -208t-236.5 -62q-39 0 -72 6l-4 44q91 44 139 126q-16 -20 -51 -20q-47 0 -76 32t-29 78q0 45 31 75t76 30q52 0 84.5 -37t32.5 -92q0 -128 -117 -190q108 0 192.5 65t122.5 180zM-324 1720q0 52 -51 52q-53 0 -53 -52q0 -54 53 -53q51 -1 51 53 z" />
<glyph unicode="&#xe4a;" d="M0 1780q0 -112 -26.5 -177t-87 -95t-156.5 -30v38q78 40 78 126q0 70 -64 70q-48 0 -60 -45h-24q-20 47 -84 47q-20 0 -36.5 -8t-30 -28.5t-13.5 -47.5q0 -34 8 -41q8 59 70 59q37 0 64.5 -24t27.5 -62q0 -36 -25.5 -61t-62.5 -25q-34 0 -63 20t-47.5 54.5t-18.5 75.5 q0 60 31.5 105t87.5 45q60 0 102 -48q30 48 78 48q33 0 59.5 -14.5t42 -42t15.5 -64.5q0 -66 -45 -121q55 16 84.5 66t29.5 180h66zM-385 1558q0 44 -43 44q-33 0 -33 -36q0 -42 43 -42q33 0 33 34z" />
<glyph unicode="&#xe4b;" d="M18 1626h-141v-143h-71v143h-142v72h142v141h71v-141h141v-72z" />
<glyph unicode="&#xe4c;" d="M102 1594q-74 -64 -254 -64q-43 0 -61 -10q92 -12 92 -103q0 -32 -14.5 -58t-38.5 -40.5t-58 -14.5q-30 0 -56 12.5t-42 40t-16 65.5q0 78 60 121.5t161 45.5q123 1 197 59zM-178 1411q0 59 -60 59q-48 0 -48 -48q0 -60 54 -60t54 49z" />
<glyph unicode="&#xe4d;" d="M-116 1145q0 -39 -18 -73t-52 -58q-36 -23 -84 -23q-32 0 -60 12.5t-49 33t-33 48t-12 60.5q0 30 12 59t33 49.5t49 32.5t60 12q33 0 60.5 -12t47.5 -32.5t33 -49.5t13 -59zM-186 1145q0 18 -6 33.5t-17.5 26.5t-27 17.5t-33.5 6.5t-34 -6.5t-27 -17.5t-17 -26t-6 -34 q0 -16 6 -32.5t17 -28t27 -17.5t34 -6q14 0 29 6t26.5 16.5t20 27t8.5 34.5z" />
<glyph unicode="&#xe4e;" d="M35 1407l-47 -31q-32 6 -50 6q-55 2 -102 -21t-47 -57q0 -28 41 -46.5t86 -18.5l-22 -47q-86 0 -142.5 -30t-56.5 -82q0 -48 82 -48q61 0 98 25l37 -29q-58 -47 -156 -47q-136 1 -135 101q-1 60 59 100q58 41 126 45q-28 5 -54 27q-28 24 -28 52q0 54 60 86t152 32 q64 0 99 -17z" />
<glyph unicode="&#xe4f;" horiz-adv-x="641" d="M576 375q0 -106 -75 -181t-181 -75q-72 0 -128.5 34.5t-91 91t-34.5 130.5q0 72 34.5 128t91 90.5t128.5 34.5q74 0 130 -34.5t91 -90.5t35 -128zM542 375q0 61 -29 111t-79 80t-114 30q-56 0 -105 -25.5t-83 -77t-34 -118.5q0 -94 66 -158.5t156 -64.5q92 0 157 64.5 t65 158.5zM428 375q0 -29 -12 -52.5t-37 -40t-59 -16.5q-28 0 -53 14.5t-39.5 39t-14.5 55.5q0 43 31.5 76t75.5 33q30 0 55 -16t39 -39.5t14 -53.5z" />
<glyph unicode="&#xe50;" horiz-adv-x="948" d="M824 272q0 -133 -101 -213.5t-250 -80.5q-104 0 -183 39t-122 103t-43 152q0 133 100.5 217.5t247.5 84.5q104 0 183 -40t123.5 -106t44.5 -156zM750 272q0 104 -79 166t-198 62q-78 0 -140.5 -29t-97.5 -79t-35 -120q0 -68 34 -117t95.5 -78.5t143.5 -29.5 q121 0 199 61.5t78 163.5z" />
<glyph unicode="&#xe51;" horiz-adv-x="948" d="M584 -110l-39 52q88 41 142.5 124.5t54.5 175.5q0 76 -37 132t-97.5 90t-138.5 34q-72 0 -127.5 -32t-87 -83t-31.5 -119q0 -94 50.5 -151t138.5 -57l10 2q-110 18 -110 124q0 53 37 93.5t95 40.5q62 0 100 -41t38 -105q0 -78 -56.5 -124t-144.5 -46q-108 0 -168.5 79 t-60.5 195q0 90 46 156t115.5 103t151.5 37q146 0 246 -91.5t100 -232.5q0 -117 -60.5 -212t-166.5 -144zM512 182q0 68 -68 68t-67 -68q-1 -68 67 -68t68 68z" />
<glyph unicode="&#xe52;" horiz-adv-x="997" d="M901 0h-759v631q0 80 -20 107.5t-50 35.5l55 56q30 -18 42.5 -31t23 -32t15.5 -45t5 -56v-596h617v313q0 103 -82 103q-76 0 -120 -103q-58 105 -146 105q-110 0 -124 -120q32 50 94 50q58 0 97 -37t39 -95q0 -57 -39 -94.5t-97 -37.5q-47 0 -79.5 22t-53 68.5 t-20.5 105.5q0 62 25.5 109t65.5 72.5t92 25.5q94 0 146 -84q35 84 130 84q63 0 103 -45t40 -121v-391zM514 286q0 68 -66 68q-64 0 -63 -63q-1 -68 65 -68q64 -1 64 63z" />
<glyph unicode="&#xe53;" horiz-adv-x="997" d="M878 0h-71v366q0 118 -92 118q-23 0 -40 -9.5t-33 -31t-27 -57.5t-11 -79v-307h-72v284q0 88 -45 145t-123 57q-82 0 -134 -73t-52 -167q0 -58 16 -102q18 49 27 61q33 43 99 43q37 0 66.5 -17.5t46.5 -47t17 -67.5q0 -55 -36 -90.5t-94 -35.5q-94 0 -153 78t-59 186 q0 127 72 215t186 88q150 0 199 -131q39 131 158 131q155 0 155 -178v-379zM379 116q1 66 -65 66q-64 0 -64 -63q0 -66 66 -66q64 -1 63 63z" />
<glyph unicode="&#xe54;" horiz-adv-x="997" d="M998 626q-16 -34 -42 -61t-61 -45t-70 -28t-65.5 -14.5t-77.5 -4.5l-228 6q-55 0 -94.5 -10t-80.5 -34.5t-63 -62.5t-22 -88q0 -110 76 -165t230 -55q-136 53 -136 196q0 43 19 75.5t49.5 51.5t71.5 19q135 0 135 -136q0 -120 -131 -120q-34 0 -54 16q33 -43 97.5 -69.5 t134.5 -26.5h162v-70h-400q-104 0 -177 33t-110.5 94t-37.5 151q0 56 17.5 100t52.5 78t78 55t85 30.5t98 9.5l228 -6q47 0 78.5 5t67.5 18.5t64 39.5t46 62zM576 270q0 68 -68 68t-68 -68t68 -67q68 -1 68 67z" />
<glyph unicode="&#xe55;" horiz-adv-x="997" d="M996 626q-74 -156 -355 -155q-71 1 -189 15q-72 0 -129 -27t-94 -80t-37 -125q0 -190 306 -190q-136 53 -136 196q0 43 20 75.5t50.5 51.5t69.5 19q59 0 97 -38t38 -94q0 -124 -131 -124q-34 0 -54 16q33 -43 97.5 -69.5t134.5 -26.5h162v-70h-400q-152 0 -238.5 72 t-86.5 202q0 84 70.5 162t178.5 96q-88 44 -88 138q0 62 44 104.5t106 42.5q68 0 111 -40.5t43 -106.5q0 -78 -68 -125q58 -7 115 -7q242 0 303 132zM516 670q0 78 -84 78q-30 0 -56 -24t-26 -56q0 -70 82 -111q84 41 84 113zM574 270q0 68 -68 68t-68 -68t68 -67 q68 -1 68 67z" />
<glyph unicode="&#xe56;" horiz-adv-x="948" d="M344 58q20 -10 31 -11q61 0 121.5 17.5t125 54.5t99.5 87t35 108q0 80 -76 122.5t-188 42.5q-174 0 -322 -88v240q0 72 -17 101.5t-53 41.5l56 56q56 -31 71 -72.5t15 -91.5v-172q122 58 250 57q336 1 336 -235q0 -140 -128 -233t-284 -93q-102 0 -179 45t-77 125 q0 58 41 96.5t98 38.5q33 0 60.5 -14.5t46 -45.5t18.5 -79q0 -24 -10 -45t-29 -36t-41 -17zM358 160q0 68 -67 68q-59 0 -59 -60q0 -68 67 -68q59 0 59 60z" />
<glyph unicode="&#xe57;" horiz-adv-x="997" d="M946 774q-18 0 -47 -34q-21 -31 -21 -109v-465q0 -86 -47 -126t-108 -40h-111v366q0 110 -67 111q-73 -1 -91 -111h-46q-12 112 -113 113q-54 0 -90.5 -55.5t-36.5 -118.5q0 -90 37 -174q0 52 33.5 84.5t91.5 32.5q37 0 66.5 -17.5t47 -47t17.5 -67.5q1 -126 -139 -126 q-106 0 -166 94t-60 225q0 70 30 126.5t76 89t105 32.5q100 -1 125 -103q35 102 121 103q58 0 94.5 -40.5t36.5 -102.5v-344h39q24 0 44.5 12t30 32.5t9.5 51.5v500q0 31 5 56.5t15.5 44.5t22.5 32t43 31zM387 116q1 66 -65 66q-64 0 -64 -63q0 -66 66 -66q64 -1 63 63z" />
<glyph unicode="&#xe58;" horiz-adv-x="997" d="M998 626q-18 -41 -48 -70.5t-70 -47.5t-85 -26.5t-113 -8.5l-228 6q-72 0 -113.5 -15.5t-73 -37.5t-52.5 -58t-21 -92q0 -92 34 -143q51 127 120 127q37 0 84 -32l176 -136q0 35 6 67.5t38 61.5t81 29q56 0 95.5 -37t39.5 -92q0 -39 -17 -70t-52 -52t-84 -21q-20 0 -43 6 t-47.5 18t-38.5 23l-115 83q-96 72 -125 72q-46 0 -104 -190q-118 120 -119 286q0 56 17.5 101t52.5 79t77 55t85 30.5t99 9.5l228 -6q70 0 117 12.5t83 40.5t56 72zM801 119q0 65 -66 65q-67 0 -67 -68q0 -66 65 -65q68 0 68 68z" />
<glyph unicode="&#xe59;" horiz-adv-x="997" d="M848 377q-36 109 -106 109q-82 0 -82 -130q0 -56 20 -100l58 -129q14 -35 27 -52t36 -30l12 -6l-35 -57q-12 0 -44 23t-54 75l-96 221q-80 185 -222 185q-86 0 -144 -62t-58 -152q0 -142 112 -200q-22 27 -22 65q0 56 39 94.5t94 38.5q39 0 67.5 -17t47 -48t18.5 -70 q0 -66 -52 -105.5t-124 -39.5q-70 0 -124 37t-90 103t-36 146q0 123 77 202t193 79q176 0 246 -166q0 76 35 122t99 46q78 1 124 -73l12 -19q26 14 38 36.5t12 66.5v114q0 47 -7 62.5t-35 31.5l48 52q39 -20 51 -46q15 -29 15 -92v-122q0 -52 -18 -91t-57 -67.5t-75 -34.5z M444 133q0 65 -65 65q-63 0 -63 -65t63 -65q65 0 65 65z" />
<glyph unicode="&#xe5a;" horiz-adv-x="837" d="M602 0h-76v555l27 151l-6 2q-22 -94 -98.5 -155t-168.5 -61q-68 0 -124 28.5t-86.5 70.5t-30.5 97q0 58 37.5 100t93.5 42q35 0 63.5 -14.5t48 -44t19.5 -71.5q0 -56 -33.5 -91t-87.5 -35q60 -16 70 -17q70 0 124 30.5t94 90.5t58 141h76v-819zM768 0h-72v815h72v-815z M236 696q0 64 -64 64t-64 -64t64 -63q64 -1 64 63z" />
<glyph unicode="&#xe5b;" horiz-adv-x="1622" d="M1592 418l-26 -111q-12 -55 -42.5 -93t-66 -56t-79.5 -18q-88 0 -141 81l-55 82l-64 -88q-38 -53 -61 -53q-18 0 -68 78l-41 65q-96 -139 -118 -139q-18 0 -64 53l-41 49q-105 -260 -323 -260q-112 0 -190.5 43t-120.5 125t-42 201q0 112 41 195.5t116.5 130.5t176.5 47 q104 0 217 -66l-6 -90q-98 72 -209 72q-114 0 -179.5 -84t-65.5 -220q0 -80 27 -140t82.5 -95t139.5 -35q43 0 82 12t71 38t55 59t113 213q32 -47 124 -152l57 76q23 40 63 78q14 0 46 -54l59 -106l73 102q40 54 52 54q6 0 102 -134q47 -66 80 -65q96 0 121 92q13 37 31 113 h74z" />
<glyph unicode="&#x2000;" horiz-adv-x="919" />
<glyph unicode="&#x2001;" horiz-adv-x="1839" />
<glyph unicode="&#x2002;" horiz-adv-x="919" />
<glyph unicode="&#x2003;" horiz-adv-x="1839" />
<glyph unicode="&#x2004;" horiz-adv-x="613" />
<glyph unicode="&#x2005;" horiz-adv-x="459" />
<glyph unicode="&#x2006;" horiz-adv-x="306" />
<glyph unicode="&#x2007;" horiz-adv-x="306" />
<glyph unicode="&#x2008;" horiz-adv-x="229" />
<glyph unicode="&#x2009;" horiz-adv-x="367" />
<glyph unicode="&#x200a;" horiz-adv-x="102" />
<glyph unicode="&#x200b;" />
<glyph unicode="&#x2010;" horiz-adv-x="446" d="M400 330h-351v86h351v-86z" />
<glyph unicode="&#x2011;" horiz-adv-x="446" d="M400 330h-351v86h351v-86z" />
<glyph unicode="&#x2012;" horiz-adv-x="446" d="M400 330h-351v86h351v-86z" />
<glyph unicode="&#x2013;" horiz-adv-x="671" d="M680 305h-688v59h688v-59z" />
<glyph unicode="&#x2014;" horiz-adv-x="1341" d="M1350 305h-1358v59h1358v-59z" />
<glyph unicode="&#x2018;" horiz-adv-x="299" d="M207 912q-59 -40 -59 -130h52v-128h-112v128q0 120 86 178z" />
<glyph unicode="&#x2019;" horiz-adv-x="299" d="M119 654l-33 48q60 40 60 130h-54v128h113v-128q0 -120 -86 -178z" />
<glyph unicode="&#x201a;" horiz-adv-x="309" d="M108 -178l-10 18q68 38 68 160h-66v108h98v-96q0 -142 -90 -190z" />
<glyph unicode="&#x201c;" horiz-adv-x="522" d="M432 912q-60 -40 -60 -130h54v-128h-112v128q0 120 86 178zM205 912q-61 -40 -61 -130h54v-128h-112v128q0 120 84 178z" />
<glyph unicode="&#x201d;" horiz-adv-x="522" d="M119 654l-33 48q60 40 60 130h-56v128h115v-128q0 -120 -86 -178zM346 654l-32 48q58 40 58 130h-52v128h112v-128q0 -122 -86 -178z" />
<glyph unicode="&#x201e;" horiz-adv-x="463" d="M84 -178l-10 18q66 36 66 160h-64v108h96v-96q0 -88 -22.5 -128t-65.5 -62zM295 -178l-13 18q68 38 68 160h-64v108h97v-96q0 -144 -88 -190z" />
<glyph unicode="&#x2020;" horiz-adv-x="772" d="M698 588h-272v-824h-88v824h-270v74h270v276h88v-276h272v-74z" />
<glyph unicode="&#x2021;" horiz-adv-x="772" d="M700 16h-272v-252h-88v252h-272v76h272v526h-272v74h272v254h88v-254h272v-74h-272v-526h272v-76z" />
<glyph unicode="&#x2022;" horiz-adv-x="671" d="M500 469q0 -47 -22 -83t-58.5 -58.5t-83.5 -22.5t-83 22.5t-58.5 58.5t-22.5 83q0 68 48 116t116 48q47 0 83.5 -22.5t58.5 -58.5t22 -83z" />
<glyph unicode="&#x2026;" horiz-adv-x="1341" d="M1176 0h-115v127h115v-127zM727 0h-113v127h113v-127zM280 0h-112v127h112v-127z" />
<glyph unicode="&#x202f;" horiz-adv-x="367" />
<glyph unicode="&#x2030;" horiz-adv-x="1390" d="M1348 213q0 -250 -176 -250q-180 0 -181 248q1 241 179 241t178 -239zM891 213q-1 -250 -179 -250t-178 248q0 241 176 241q180 0 181 -239zM398 731q0 -252 -177 -252q-178 0 -178 250q0 242 176 242q179 0 179 -240zM332 725q0 195 -111 195q-113 0 -113 -197 q0 -193 115 -193q109 0 109 195zM824 207q0 195 -112 195t-112 -195q0 -193 115 -193q109 0 109 193zM1280 207q0 195 -108 195q-112 0 -113 -195q1 -193 115 -193q106 0 106 193zM690 979l-395 -1016h-53l395 1016h53z" />
<glyph unicode="&#x2039;" horiz-adv-x="463" d="M346 49h-62l-200 293l200 293h62l-168 -293z" />
<glyph unicode="&#x203a;" horiz-adv-x="463" d="M372 346l-194 -297h-62l170 293l-170 293h62z" />
<glyph unicode="&#x2044;" horiz-adv-x="653" d="M96 0h-100l563 1067h101z" />
<glyph unicode="&#x205f;" horiz-adv-x="459" />
<glyph unicode="&#x20ac;" horiz-adv-x="841" d="M807 22q-39 -18 -68 -29t-55 -18.5t-56 -9.5t-71 -2q-78 0 -147.5 22.5t-124.5 66.5t-95 109t-59 148h-94l41 117h38q0 6 -1 15t-1 22q0 4 -1 11.5t1 23.5h-77l41 112h53q16 72 55.5 136.5t91.5 111.5q62 50 131.5 75t149.5 25q41 0 77 -4t65.5 -12t55 -18t50.5 -23v-139 h-41q-22 18 -44 31.5t-46 24t-51 16.5t-60 6q-47 0 -93 -13.5t-85 -41t-70 -70.5t-47 -105h293l-37 -112h-280v-33v-21q0 -8 2 -18h250l-42 -117h-184q20 -59 47 -99t66 -64q43 -29 91 -44.5t89 -17.5q44 2 73.5 5t45.5 13q18 8 40 23t42 35h41v-138z" />
<glyph unicode="&#x2122;" horiz-adv-x="1390" d="M1194 442h-51v455h-33l-139 -455h-57l-146 455h-35v-455h-51v518h106l154 -481l148 481h104v-518zM588 914h-180v-472h-60v472h-178v46h418v-46z" />
<glyph unicode="&#x2202;" horiz-adv-x="723" d="M590 838q16 -26 26 -57t17.5 -61t11.5 -57.5t6.5 -51t2.5 -39.5v-25q0 -14 -1 -38.5t-6 -54.5l-9 -64q-5 -34 -12.5 -67.5t-17.5 -67t-22 -61.5q-14 -30 -27.5 -56t-29 -47t-37.5 -41t-50 -36q-39 -22 -78.5 -29t-75.5 -3t-67 16t-55 28q-56 39 -84.5 90.5t-32.5 119.5 q-4 39 2.5 74.5t16.5 67.5t24 59t31 47q43 53 93 79.5t110 24.5q27 -2 48.5 -7t40.5 -13.5t38 -20t41 -27.5q2 22 5 48t3 54v4q0 25 -4 52.5t-10 55.5t-12.5 50.5t-12.5 34.5q-4 14 -14.5 30.5t-25.5 32t-35 26t-44 12.5t-41 2t-30 -2t-25 -7t-29 -14l-53 -25l-84 107l28 17 q24 10 54 19t63 14t67 5t66 -8q76 -18 131.5 -65t98.5 -125zM424 188q18 47 31.5 101.5t21.5 126.5l-4 4q-8 12 -17.5 23t-21.5 19.5t-29 15t-37 4.5q-28 0 -53 -16t-47 -44q-31 -41 -44 -88.5t-13 -105.5q0 -10 1 -30t5 -40.5t13.5 -40t25.5 -31.5q20 -14 39 -14t41 10 q26 12 48 37.5t40 68.5z" />
<glyph unicode="&#x2206;" horiz-adv-x="874" d="M852 0h-846l332 946h180zM172 114h512l-64 182l-63 178l-62 178l-63 180h-4z" />
<glyph unicode="&#x220f;" horiz-adv-x="919" d="M92 -133v1099h727v-1103h-133v977h-463v-973h-131z" />
<glyph unicode="&#x2211;" horiz-adv-x="803" d="M64 -112v128l360 400l-178 187l-176 189v128h670v-134h-464l160 -168l158 -168v-59l-338 -373h508v-130h-700z" />
<glyph unicode="&#x221a;" horiz-adv-x="907" d="M43 240h219l108 -268l183 526l180 524h141l-440 -1248h-129l-153 363h-109v103z" />
<glyph unicode="&#x221e;" horiz-adv-x="1046" d="M80 291q0 38 9 69t24.5 55.5t36 41t43 28t46 16.5t45.5 5q31 0 61 -7t60.5 -22.5t60.5 -41t60 -63.5q38 37 70 64t62 44.5t61 25.5t65 8t70.5 -13t65 -41t47 -70t18.5 -99q0 -48 -14.5 -84.5t-43 -63.5t-68.5 -41t-91 -14q-35 0 -66.5 10t-59.5 28t-54 37t-46 37 q-4 4 -8 8.5t-8 6.5q-4 -4 -8 -9.5t-8 -9.5l-10 -10q-16 -16 -36 -33.5t-43 -32t-55 -23.5t-73 -9q-45 0 -84 19.5t-68 48t-45 64.5t-16 71zM299 196q20 0 38.5 7.5t36.5 21t36 30.5l38 38l-22 26.5t-34 32.5t-43 28.5t-50 12.5q-30 0 -50.5 -11.5t-32 -25.5t-16 -31.5 t-4.5 -29.5q0 -20 9.5 -38.5t25 -32t34 -21t34.5 -7.5zM774 393q-10 0 -23 -4t-28 -11.5t-29 -16.5t-26 -19q-30 -22 -64 -51q27 -25 46.5 -40t35.5 -25.5t34 -16.5l38 -13h-4q20 -4 39 0t35 21q16 16 24 34.5t8 39.5q0 18 -7 35.5t-18 33t-28 24.5t-33 9z" />
<glyph unicode="&#x222b;" horiz-adv-x="549" d="M291 584q4 10 6 22l4 25l17 77q9 40 23.5 78t33 70.5t46 58t63.5 39.5t84 14q16 0 29 -2t27.5 -6t28.5 -11l31 -15l-41 -104q-24 14 -44.5 22t-35.5 8h-12q-9 0 -15 -2q-20 -6 -35 -25.5t-26.5 -47t-19.5 -59.5l-17 -64q-6 -26 -10 -49t-8 -39v2q-22 -125 -47 -249 l-47 -247q-14 -72 -34 -136.5t-51.5 -112.5t-78 -75.5t-113.5 -27.5q-20 0 -45.5 6t-52.5 14l39 119q14 -10 25 -16.5t19.5 -9.5t17 -4t16.5 -1q31 0 54.5 35t44.5 97t40 151t37 193z" />
<glyph unicode="&#x2248;" horiz-adv-x="782" d="M100 196q0 35 6 72t24 66.5t46.5 49.5t73.5 20q12 0 23 -2t20.5 -5.5l17 -6.5t11.5 -5l174 -105q12 -8 24 -11t24.5 -3t23 3t18.5 9t13 17.5t7 24t2 24.5t-2 22h82q2 -20 0 -42.5t-7 -45t-15 -42t-26 -35t-36 -24.5t-47 -11q-26 -2 -56 4t-65 28l-143 91q-22 18 -42.5 19 t-35.5 -12.5t-23 -38.5t-6 -61h-86zM100 436q0 35 6 72t24 66.5t46.5 49t73.5 19.5q24 0 44 -7.5t28 -11.5l174 -104q12 -8 24 -11t24.5 -3t23 3t18.5 9t13 17.5t7 24t2 24.5t-2 22h82q2 -20 0 -43t-7 -45t-15 -42t-26 -35t-36 -24t-47 -11q-26 -2 -56 4t-65 28l-143 90 q-22 18 -42.5 19.5t-35.5 -12t-23 -39t-6 -60.5h-86z" />
<glyph unicode="&#x2260;" horiz-adv-x="792" d="M514 490h209v-105h-264l-63 -121h327v-104h-383l-49 -94h-101l50 94h-174v104h229l63 121h-292v105h348l55 102h101z" />
<glyph unicode="&#x2264;" horiz-adv-x="786" d="M64 0v86h663v-86h-663zM211 456l514 -208v-119l-661 279v100l661 276v-116z" />
<glyph unicode="&#x2265;" horiz-adv-x="786" d="M64 0v86h663v-86h-663zM66 668v116l661 -276v-100l-661 -279v119l514 208z" />
<glyph unicode="&#x25ca;" horiz-adv-x="930" d="M870 402l-407 -464l-407 464l407 464zM715 402l-65 71l-62 70l-62 69l-63 72l-64 -71l-62 -68l-63 -71l-63 -72l64 -71l63 -69l61 -70l64 -71z" />
<glyph unicode="&#x25cc;" horiz-adv-x="1020" d="M926 628q0 -44 -46 -44q-42 0 -42 44t44 44t44 -44zM926 326q0 -44 -46 -44q-42 0 -42 44t42 44q46 0 46 -44zM164 477q0 -43 -43 -43q-45 0 -45 43t45 43q43 0 43 -43zM559 874q0 -44 -45 -44q-41 0 -41 44t41 44q45 0 45 -44zM559 82q0 -45 -45 -45q-41 0 -41 45 q0 43 41 43q45 0 45 -43zM192 628q0 -44 -40 -44q-46 0 -46 44t44 44q42 0 42 -44zM278 194q0 -42 -42 -42q-44 0 -44 42q0 46 44 46q42 0 42 -46zM192 326q0 -44 -42 -44q-44 0 -44 44t44 44q42 0 42 -44zM956 477q0 -43 -40 -43q-46 0 -46 43t46 43q40 0 40 -43zM408 842 q0 -40 -44 -41q-42 1 -42 41q0 46 42 45q44 1 44 -45zM838 194q0 -42 -42 -42t-42 42q0 46 42 46t42 -46zM278 756q0 -38 -42 -39q-44 1 -44 39q0 46 44 45q42 1 42 -45zM838 756q0 -38 -42 -39q-44 1 -44 39q0 46 44 45q42 1 42 -45zM708 842q0 -40 -38 -41q-46 1 -46 41 q0 46 46 45q38 1 38 -45zM408 112q0 -42 -44 -42q-42 0 -42 38q0 46 42 46q44 0 44 -42zM708 108q0 -38 -38 -38q-44 0 -44 38q0 46 44 46q38 0 38 -46z" />
<glyph unicode="&#xe000;" horiz-adv-x="695" d="M0 695h695v-695h-695v695z" />
<glyph unicode="&#xf700;" horiz-adv-x="782" d="M706 858q-14 -116 -26 -137t-45 -21q-18 0 -123 25q-98 25 -135 25q-160 0 -207 -117q58 31 164 31q127 0 225.5 -33t98.5 -95l-84 -536h-72l-90 258q-4 16 -6 35q0 6 2 41q-35 -70 -115 -70q-31 0 -58.5 15.5t-48 48t-20.5 76.5q0 56 38 94t95 38q96 0 127 -96l84 -258 l16 -88h6l6 136l44 294q0 32 -95.5 51t-189.5 19q-105 0 -201 -18l2 20q8 92 83 158.5t202 66.5q78 -1 180 -27q43 -12 57 -12q6 2 15 86zM362 400q0 64 -63 63q-24 0 -43.5 -18.5t-19.5 -44.5q0 -64 63 -64q24 0 43.5 18.5t19.5 45.5z" />
<glyph unicode="&#xf701;" d="M-270 952q-122 45 -231 64.5t-228 19.5q-113 0 -197 -10q0 31 19.5 74t47 73.5t65.5 51t85 31t103 10.5q78 0 138 -26t104 -65t69 -88t25 -135zM-328 1016q-29 84 -110.5 131t-189.5 47q-150 0 -228 -117q18 8 69 18.5t127 10.5q131 0 212 -30t120 -60z" />
<glyph unicode="&#xf702;" d="M-270 952q-122 45 -231 64.5t-228 19.5q-113 0 -197 -10q0 41 36 104.5t107 99.5t183 36q80 0 158 -38t118 -104q-18 36 -18 86v191h72v-449zM-328 1016q-29 84 -110.5 131t-189.5 47q-150 0 -228 -117q18 8 69 18.5t127 10.5q131 0 212 -30t120 -60z" />
<glyph unicode="&#xf703;" d="M-270 952q-122 45 -231 64.5t-228 19.5q-113 0 -197 -10q0 31 19.5 72.5t47 72.5t66.5 52.5t87 32t106 10.5q62 0 92 -16q-8 14 -8 42q0 34 14 59t40 39.5t60 14.5q52 0 85 -31.5t33 -83.5q0 -90 -93 -108q33 -14 70 -71t37 -159zM-328 1016q-29 84 -110.5 131t-189.5 47 q-150 0 -228 -117q18 8 69 18.5t127 10.5q131 0 212 -30t120 -60zM-346 1284q0 60 -58 60q-56 0 -55 -56q-1 -59 57 -59q56 0 56 55z" />
<glyph unicode="&#xf704;" d="M-270 952q-122 45 -231 64.5t-228 19.5q-113 0 -197 -10q0 41 34 100.5t107 99.5t161 40q78 0 128 -19v154h72v-187q8 0 49 -36q37 -30 47 -52q-14 62 -14 84v191h72v-449zM-328 1016q-29 84 -110.5 131t-189.5 47q-150 0 -228 -117q18 8 69 18.5t127 10.5q131 0 212 -30 t120 -60z" />
<glyph unicode="&#xf705;" d="M-270 948h-76v287h76v-287z" />
<glyph unicode="&#xf706;" d="M-127 1233q-51 -160 -165 -230.5t-259 -70.5q-53 0 -92 8l-4 47q99 45 155 139q-18 -20 -59 -20q-30 0 -53.5 12t-42.5 41t-19 68q0 49 34 83t85 34q58 0 93.5 -41t35.5 -103q0 -141 -129 -211q119 0 215 72.5t136 198.5zM-486 1220q0 60 -59 60q-57 0 -57 -58t60 -58 q56 0 56 56z" />
<glyph unicode="&#xf707;" d="M-256 1288q0 -182 -71 -258t-230 -76v42q88 48 88 140q1 76 -71 76q-50 0 -68 -48h-29q-20 50 -88 50q-92 0 -92 -92q0 -37 8 -47q12 65 78 65q103 0 103 -94q0 -24 -12 -44.5t-34 -35t-53 -14.5q-33 0 -62.5 17.5t-54 57.5t-24.5 89q0 168 124 168q72 0 120 -51 q30 51 96 51q120 0 120 -125q0 -90 -51 -143q58 12 92.5 67t34.5 205h76zM-684 1044q0 48 -45 48q-41 0 -41 -42q0 -46 45 -46q41 0 41 40z" />
<glyph unicode="&#xf708;" d="M-230 1092h-142v-144h-72v144h-142v72h142v140h72v-140h142v-72z" />
<glyph unicode="&#xf709;" d="M-18 1250q0 -18 -90 -44t-195 -26q-49 0 -69 -12q102 -14 102 -114q0 -36 -16.5 -65t-43 -44t-63.5 -15q-35 0 -64 14t-47 44t-18 71q0 178 248 184q144 3 221 67zM-336 1052q0 62 -66 62q-52 0 -52 -57q0 -61 65 -61q53 0 53 56z" />
<glyph unicode="&#xf70a;" d="M-116 948h-78v287h78v-287z" />
<glyph unicode="&#xf70b;" d="M24 1233q-51 -160 -165.5 -230.5t-258.5 -70.5q-54 0 -92 8l-4 47q100 45 156 139q-18 -20 -60 -20q-34 0 -59 15t-40 43t-15 63q0 49 34 83t84 34q39 0 68 -19t45.5 -51.5t16.5 -73.5q0 -141 -130 -211q119 0 215.5 72.5t135.5 198.5zM-334 1220q0 60 -59 60 q-57 0 -57 -58t59 -58q57 0 57 56z" />
<glyph unicode="&#xf70c;" d="M10 1288q0 -118 -29.5 -192t-97 -108t-174.5 -34v42q88 48 88 140q1 76 -71 76q-49 0 -68 -48h-28q-20 50 -89 50q-92 0 -92 -92q1 -37 9 -47q12 65 77 65q103 0 103 -94q0 -41 -29 -67.5t-70 -26.5q-32 0 -62 17.5t-54.5 57.5t-24.5 89q0 168 125 168q73 0 119 -51 q31 51 96 51q120 0 120 -125q0 -90 -50 -143q45 10 74.5 43t40.5 86t11 143h76zM-418 1044q0 48 -45 48q-41 0 -41 -42q0 -46 45 -46q41 0 41 40z" />
<glyph unicode="&#xf70d;" d="M18 1092h-141v-144h-71v144h-142v72h142v140h71v-140h141v-72z" />
<glyph unicode="&#xf70e;" d="M131 1250q0 -18 -90.5 -44t-194.5 -26q-50 0 -69 -12q102 -14 102 -114q0 -36 -16.5 -64t-43.5 -44t-63 -16q-39 0 -67.5 16t-44.5 45t-16 68q0 178 247 184q143 3 221 67zM-186 1052q0 62 -66 62q-53 0 -53 -57q-1 -61 65 -61q54 0 54 56z" />
<glyph unicode="&#xf70f;" horiz-adv-x="1245" d="M1126 0h-502v598q0 76 -67 119t-166 43q-118 0 -211 -66q80 -20 164 -78q-78 -35 -111 -68.5t-33 -86.5v-231q29 26 64 26q58 0 96 -38t38 -95q0 -39 -18 -69t-49.5 -47t-70.5 -17t-68.5 17t-46 47t-16.5 69v354q1 97 103 135q-54 32 -170 62q43 68 140 112t191 44 q96 0 165.5 -29t105.5 -78t36 -121v-526h350v743h76v-819zM328 125q0 61 -62 61q-70 0 -70 -67q0 -61 62 -61q70 0 70 67z" />
<glyph unicode="&#xf710;" d="M-6 1208q-197 -254 -424 -254q-56 0 -100 20t-65 52t-21 72q0 33 14 62.5t43 48t67 18.5q49 0 87.5 -35t38.5 -84q0 -56 -38 -86q18 0 47 10t75 34t99 70t119 122zM-434 1098q0 62 -60 61q-58 0 -57 -57q-1 -62 59 -62q58 0 58 58z" />
<glyph unicode="&#xf711;" d="M-320 1136q0 -39 -17 -72.5t-52 -57.5q-37 -22 -84 -23q-33 0 -60.5 11.5t-48 32.5t-32.5 49t-12 60q0 31 12 59.5t32.5 49.5t48 33t60.5 12q30 0 59 -12t49.5 -33t32.5 -49.5t12 -59.5zM-389 1136q0 16 -7.5 32t-18.5 27t-25 18t-33 7q-18 0 -33.5 -7t-27 -18t-17.5 -27 t-6 -32q0 -18 6 -33t17.5 -26.5t26.5 -18t34 -6.5q14 0 29.5 6.5t26.5 17t19.5 25.5t8.5 35z" />
<glyph unicode="&#xf712;" d="M-209 1282q-74 -80 -180 -80q-33 0 -80 6q-85 10 -107 10q-47 0 -72.5 -25t-25.5 -73q0 -54 50 -94q16 40 52 96q78 -110 136 -118q-25 26 -25 55q0 41 26.5 67.5t66.5 26.5q28 0 50.5 -13.5t35 -35.5t12.5 -54q0 -106 -138 -106q-41 0 -85.5 28t-67.5 54q-6 0 -39 -82 q-140 56 -140 176q0 162 187 162q25 0 97 -6q36 -4 63 -4q45 0 78 14t59 45zM-324 1054q0 46 -44 46q-42 0 -42 -43q0 -45 46 -45q40 0 40 42z" />
<glyph unicode="&#xf713;" d="M-270 1483h-76v287h76v-287z" />
<glyph unicode="&#xf714;" d="M-152 1728q-49 -146 -154.5 -208t-235.5 -62q-38 0 -72 6l-4 44q92 44 139 126q-15 -20 -51 -20q-28 0 -51 12t-38.5 38t-15.5 60q0 30 14.5 53t38.5 37.5t54 14.5q31 0 55.5 -13.5t42.5 -43t18 -72.5q0 -128 -116 -190q108 0 192 65t123 180zM-475 1720q1 52 -51 52 q-54 0 -54 -52q0 -54 54 -53q52 -1 51 53z" />
<glyph unicode="&#xf715;" d="M-152 1780q0 -108 -25.5 -174t-87 -97t-157.5 -31v38q78 40 78 126q0 70 -64 70q-47 0 -59 -45h-25q-20 47 -84 47q-20 0 -36 -8t-30 -28.5t-14 -47.5q0 -34 9 -41q7 59 71 59q24 0 45 -12t33 -31t12 -43q0 -36 -25 -61t-63 -25q-35 0 -63.5 20t-46.5 54.5t-18 75.5 q0 60 31 105t87 45q58 0 102 -48q30 48 78 48q51 0 84.5 -34t33.5 -87q0 -66 -46 -121q56 16 85.5 66t29.5 180h65zM-536 1558q0 44 -44 44q-32 0 -32 -36q0 -42 42 -42q34 0 34 34z" />
<glyph unicode="&#xf716;" d="M-131 1626h-143v-143h-72v143h-142v72h142v141h72v-141h143v-72z" />
<glyph unicode="&#xf717;" d="M-49 1594q-74 -64 -254 -64q-43 0 -61 -10q92 -12 92 -103q0 -32 -14.5 -58t-39 -40.5t-57.5 -14.5q-35 0 -60.5 16t-40 41t-14.5 61q0 82 63 123.5t159 43.5q123 1 196 59zM-330 1411q0 59 -59 59q-49 0 -49 -48q0 -60 55 -60q53 0 53 49z" />
<glyph unicode="&#xf718;" d="M-188 -721v115q0 26 18 55q2 2 4 5.5t4 7.5q-34 -34 -82 -34q-25 0 -45 8.5t-35.5 25t-24.5 38.5t-9 48q0 50 36 86q36 34 88 34q50 0 84 -34q34 -32 34 -86v-269h-72zM-178 -454q0 56 -58 56t-57 -56q-1 -58 57 -58t58 58z" />
<glyph unicode="&#xf719;" d="M-418 -746v70h52v56q0 26 20 55q4 6 6 10q-32 -31 -82 -31q-49 0 -82 35q-32 33 -32 82q0 54 36 88q36 35 88 35q50 0 84 -33q32 -34 33 -90v-207h107v328h72v-398h-302zM-356 -469q0 57 -58 57t-57 -57q-1 -57 57 -57t58 57z" />
<glyph unicode="&#xf71a;" d="M-84 -418q0 -14 -5 -26t-14 -21.5t-23 -16t-26 -6.5q-14 0 -27 6.5t-22.5 16t-14.5 21.5t-5 26t5 26.5t14.5 22t22.5 15.5t27 6q12 0 26 -6t23 -15.5t14 -22t5 -26.5z" />
<glyph unicode="&#xf71b;" horiz-adv-x="901" d="M782 -125l-198 -201l-178 119q-26 17 -40 55v-30q0 -55 -40 -98.5t-96 -43.5q-43 0 -76 20t-52.5 51.5t-19.5 74.5q0 57 40 98t97 41q65 -1 95 -31l-11 19q-4 11 -4 21v106h69v-170l206 -134l132 134v692q0 76 -67 119t-166 43q-120 0 -211 -66q84 -20 164 -78 q-47 -22 -78.5 -48t-41 -49t-9.5 -58v-283q0 -53 -38 -94t-91 -41q-39 0 -70.5 18.5t-49.5 48.5t-18 66q0 56 35 92.5t91 36.5q35 0 65 -16v203q1 84 95 120q-54 32 -172 62q43 68 140 112t193 44q94 0 163.5 -29t105.5 -78t36 -121v-727zM299 -180q0 74 -76 74 q-26 0 -45.5 -22t-19.5 -48q0 -74 70 -74q18 0 33 8t26.5 25t11.5 37zM230 172q0 72 -70 72q-60 0 -60 -64q0 -72 68 -72q62 0 62 64z" />
<glyph unicode="&#xf71c;" horiz-adv-x="901" d="M782 -133l-147 -151l-93 92l-90 -92q-26 26 -77 84q-9 14 -15 32q-8 -49 -43 -81.5t-77 -32.5q-47 0 -83 19t-55.5 51t-19.5 75q0 57 40 98t97 41t95 -32q-8 12 -13 24q-2 12 -2 16v106h69v-200l84 -102l90 88l89 -88l75 80v704q0 76 -67 119t-166 43q-120 0 -211 -66 q84 -20 164 -78q-47 -22 -78.5 -48t-41 -49t-9.5 -58v-233q0 -54 -38 -95t-91 -41q-39 0 -70.5 18.5t-49.5 48t-18 67.5q0 55 35 91.5t91 36.5q35 0 65 -16v154q1 84 95 120q-54 32 -172 62q43 68 140 112t193 44q94 0 163.5 -29t105.5 -78t36 -121v-735zM299 -140 q0 74 -76 74q-18 0 -33.5 -9t-23.5 -24t-8 -36q0 -74 76 -74q66 -1 65 69zM230 221q0 72 -70 72q-60 1 -60 -63q0 -72 68 -72q62 0 62 63z" />
<glyph unicode="&#xf71d;" horiz-adv-x="948" d="M942 905l-112 -111v-794h-76l-226 641l-22 -84l-203 -557h-69v580q-24 -18 -64 -19q-37 0 -65.5 16.5t-47 47.5t-18.5 69q0 34 15.5 63t47 50t74.5 21q127 0 127 -134v-485l41 145l150 394h71l193 -525v483q0 4 2 17q4 13 14 25q-28 -24 -74 -25q-39 0 -69.5 17.5t-48 48 t-17.5 69.5q0 58 37.5 97t95.5 39q30 0 58 -13t48 -37t24 -57q0 -5 2 -21q2 4 6 23q0 5 6 23l47 46zM236 698q0 62 -62 62q-68 0 -68 -70q0 -62 60 -62q70 0 70 70zM764 858q0 62 -60 62q-68 0 -67 -66q-1 -62 61 -62q66 0 66 66z" />
<glyph />
<glyph horiz-adv-x="764" d="M692 450h-270v-274h-80v274h-272v78h272v273h80v-273h270v-78zM692 0h-622v80h622v-80z" />
<glyph horiz-adv-x="747" d="M715 37q-70 -35 -110.5 -44t-122.5 -9q-156 0 -270 92t-150 264h-86l28 78h47q0 8 -1 22t-1 37v21q0 18 2 34h-75l28 76h60q26 158 145 258t275 100q90 0 134 -11t97 -39v-111h-11q-47 36 -94.5 56.5t-119.5 22.5q-108 -2 -203 -67t-131 -209h303l-27 -76h-290 q-2 -20 -2 -32v-21q0 -20 2 -34.5t4 -26.5h245l-29 -78h-204q39 -144 134.5 -207t197.5 -67q94 4 133 22t81 58h11v-109z" />
<glyph d="M0 0h-614v1024h614v-1024z" />
<glyph horiz-adv-x="450" d="M33 -144v82q0 35 6 46.5t45 11.5h288q41 0 47.5 -11t6.5 -47v-82q0 -60 -26 -59q-12 -1 -25 49q-4 20 -17.5 42t-49.5 26t-74 4q-51 0 -82 -5t-44.5 -15t-25.5 -58q-12 -44 -26 -43q-22 -1 -23 59z" />
<glyph d="M-252 -414q39 0 66.5 -27.5t27.5 -66.5t-27.5 -66.5t-66.5 -27.5t-66.5 27.5t-27.5 66.5t27.5 66.5t66.5 27.5z" />
<glyph horiz-adv-x="710" d="M516 0v559q0 45 -14 82t-39 62.5t-60 40t-75 14.5q-76 0 -136 -54q-58 -56 -57 -130v-9h-73v15q0 102 80 176t186 74q115 0 188 -72q76 -72 76 -184v-574h-76zM-316 1149q0 -39 -17 -73t-52 -58q-37 -22 -84 -22q-30 0 -59 12t-49.5 32.5t-32.5 48t-12 60.5q0 30 12 59 t32.5 49.5t49 32.5t59.5 12q33 0 61.5 -12t49 -32.5t31.5 -49.5t11 -59zM-385 1149q0 18 -6.5 32.5t-17.5 25.5t-26 18.5t-34 7.5q-14 0 -28.5 -6.5t-26.5 -16.5t-20.5 -25t-8.5 -36q0 -14 6.5 -29.5t17.5 -27.5t26 -19.5t34 -7.5q16 0 31.5 6t26.5 16.5t18.5 27t7.5 34.5z " />
<glyph d="M-219 1372q-33 6 -49 6q-52 2 -102 -22q-48 -24 -48 -56q0 -28 41 -46t86 -19l-23 -47q-86 0 -140 -31q-58 -28 -58 -82q0 -47 82 -47q62 0 98 24l37 -28q-57 -47 -155 -47q-136 0 -136 100q0 59 60 101q58 40 124 44q-28 4 -52 28q-30 24 -30 52q0 54 62 84 q60 34 152 34q64 0 98 -17z" />
<glyph horiz-adv-x="1024" d="M129 0v950h768v-950h-768zM256 129h512v695h-512v-695z" />
</font>
</defs>
</svg>
