<?xml version="1.0" standalone="no"?>
<!DOCTYPE svg PUBLIC "-//W3C//DTD SVG 1.1//EN" "http://www.w3.org/Graphics/SVG/1.1/DTD/svg11.dtd" >
<svg xmlns="http://www.w3.org/2000/svg">
<metadata>
This is a custom SVG webfont generated by Font Squirrel.
Copyright   : UPCCordia  UPC Unity Progress CoLtd 1986 All rights reserved
Foundry     : Boonlert Wuthikornkhanarak
Foundry URL : infoupccoth
</metadata>
<defs>
<font id="webfontUgwD7Gma" horiz-adv-x="747" >
<font-face units-per-em="2048" ascent="1638" descent="-410" />
<missing-glyph horiz-adv-x="459" />
<glyph unicode="&#xe4f;&#x22;" horiz-adv-x="1030" d="M932 412q0 -116 -56 -209q-56 -91 -147 -147q-90 -56 -207 -56q-116 0 -206 56q-92 57 -148 147q-56 93 -56 209q0 170 122 290q119 122 288 122q52 0 101 -13t93 -36t83 -59t69 -83q64 -96 64 -221zM874 412q0 148 -102 252q-104 104 -250 104q-148 0 -252 -104 q-102 -104 -102 -252t102 -252q104 -102 252 -102q100 0 180 46q78 50 126 130q46 80 46 178zM756 412q0 -96 -70 -166q-68 -68 -164 -68t-166 68q-70 70 -70 166q0 110 76 172q74 64 160 63q50 0 93 -18.5t73.5 -50t49 -74t18.5 -92.5zM348 1094v156h136v-156l-32 -184h-71 zM565 1094v156h135v-156l-32 -184h-70z" />
<glyph unicode="&#xe24;&#xe32;" horiz-adv-x="1231" d="M242 584q-66 52 -174 72q26 45 126 108q102 62 246 62q184 0 270 -80q6 6 13 12t15 12q22 14 37 25.5t33 17.5t38 9.5t49 3.5q78 0 127 -19t77.5 -54.5t40 -89t11.5 -123.5v-839h-135v833q0 45 -3 79t-14.5 57.5t-35 36t-66.5 12.5q-18 0 -29.5 -1t-17.5 -6l-13 -12 l-20 -16q-18 -14 -26.5 -34t-12.5 -42q2 -12 3 -26t1 -29v-848h-135v856q-1 154 -199 154q-102 1 -157 -43q74 -24 129 -82q-60 -20 -98 -74q-40 -52 -40 -110v-111q80 -1 118 -17q39 -16 59 -50q20 -36 20 -82q-1 -58 -39 -105q-36 -49 -120 -49q-72 0 -124 41 q-48 40 -48 133v252q0 119 94 166zM320 92q56 0 55 58q1 56 -55 55q-56 1 -56 -55q0 -58 56 -58z" />
<glyph unicode="&#xe26;&#xe32;" horiz-adv-x="1325" d="M874 586q2 -16 2 -33v-848h-134v856q0 154 -200 154q-102 1 -157 -43q74 -24 129 -82q-121 -38 -121 -184v-248q0 -92 -51 -134q-51 -40 -121 -40q-75 0 -117 42q-42 45 -42 111q0 61 36 105q38 44 160 44v132q0 132 78 166q-64 50 -174 72q32 55 135 112q101 58 237 58 q182 0 269 -78q15 18 35 32q22 14 37.5 25.5t32 18t36.5 9.5t52 3q76 0 126 -19t78.5 -55.5t39 -90t10.5 -120.5v-842h-136v817q0 28 1 55t-1 51t-7 43t-15 32.5t-29 20.5t-47 7q-20 0 -32.5 -3t-22 -8t-17.5 -12.5t-20 -17.5q-50 -38 -50 -108zM221 84q55 0 55 58 q0 54 -55 54t-55 -54q0 -58 55 -58z" />
<glyph unicode="&#xfb01;" horiz-adv-x="545" d="M370 604h-136v-604h-118v604h-104v92h104v74q0 62 13 104q11 43 57 74q47 29 123 29q50 -1 111 -13l-18 -102q-18 4 -36 5t-34 1q-56 0 -76 -22q-22 -22 -22 -86v-64h136v2h118v-696h-118v602z" />
<glyph unicode="&#xfb02;" horiz-adv-x="565" d="M372 604h-138v-604h-118v604h-104v92h104v74q0 62 13 104q11 43 57 74q47 29 123 29h25q14 0 29.5 -2t31 -3.5t27.5 -3.5h70v-968h-120v604zM234 696h138v172h-10h-12q-12 0 -27.5 -1t-29 -4t-23.5 -7t-14 -10q-22 -22 -22 -86v-64z" />
<glyph unicode=" "  horiz-adv-x="459" />
<glyph unicode="&#x09;" horiz-adv-x="459" />
<glyph unicode="&#xa0;" horiz-adv-x="459" />
<glyph unicode="!" horiz-adv-x="372" d="M152 238l-38 510v212h148v-212l-34 -510h-76zM121 0v135h135v-135h-135z" />
<glyph unicode="&#x22;" horiz-adv-x="477" d="M94 620l-32 183v157h134v-157l-30 -183h-72zM312 620l-34 183v157h136v-157l-31 -183h-71z" />
<glyph unicode="#" d="M68 -16l57 278h-111v98h130l48 238h-178v98h199l57 281h96l-54 -281h204l58 281h100l-58 -281h113v-98h-133l-49 -238h182v-98h-201l-57 -278h-99l56 278h-205l-57 -278h-98zM242 360h206l50 238h-207z" />
<glyph unicode="$" d="M334 -137v117q-268 35 -287 286l119 23q24 -188 168 -209v374q-266 60 -266 271q0 106 65 181.5t201 87.5v54h70v-54q224 -20 256 -238l-122 -18q-20 133 -134 155v-340q280 -57 280 -281q0 -140 -86 -213t-194 -77v-119h-70zM334 895q-60 -10 -104 -50t-44 -112 q0 -119 148 -165v327zM404 80q72 8 114.5 60t42.5 126q0 62 -30.5 102t-126.5 70v-358z" />
<glyph unicode="%" horiz-adv-x="1194" d="M78 729q0 100 50 174t152 74q104 0 157 -73.5t53 -180.5q0 -114 -57 -184t-153 -70q-102 0 -152 75t-50 185zM282 895q-102 0 -102 -176q0 -168 102 -168t103 176q-1 168 -103 168zM282 -35l527 1012h96l-524 -1012h-99zM698 226q0 112 55.5 179.5t147.5 67.5 q106 0 157.5 -74.5t51.5 -181.5q0 -98 -50 -175t-159 -77q-102 0 -152.5 75t-50.5 186zM905 391q-102 0 -102 -178q0 -168 100 -168q105 0 105 178q0 168 -103 168z" />
<glyph unicode="&#x26;" horiz-adv-x="895" d="M637 112q-117 -128 -275 -128q-140 0 -222 85t-82 195q0 178 228 287q-108 125 -108 211q0 92 70 153.5t168 61.5q96 0 160.5 -58.5t64.5 -146.5q0 -138 -182 -234l172 -218q30 58 47 132l120 -26q-30 -127 -83 -207q65 -87 149 -147l-80 -94q-72 44 -147 134zM398 614 q122 72 122 154q0 43 -27 77.5t-81 34.5q-49 0 -81 -30.5t-32 -75.5t47 -98zM563 207l-217 268q-162 -99 -162 -203q0 -74 53 -129t125 -55q124 0 201 119z" />
<glyph unicode="'" horiz-adv-x="256" d="M88 620l-28 181v159h132v-159l-30 -181h-74z" />
<glyph unicode="(" horiz-adv-x="446" d="M312 -215q-234 293 -234 629q0 320 234 630h84q-130 -217 -164 -360.5t-34 -269.5q0 -315 198 -629h-84z" />
<glyph unicode=")" horiz-adv-x="446" d="M168 -215h-86q196 315 196 629q0 316 -196 630h86q232 -312 232 -630q0 -334 -232 -629z" />
<glyph unicode="*" horiz-adv-x="522" d="M43 784l29 92q104 -37 151 -63q-12 119 -12 164h94q-2 -66 -14 -162q67 33 153 61l31 -92q-83 -28 -163 -36q41 -36 112 -126l-78 -54q-39 52 -90 140q-49 -92 -86 -140l-76 54q76 94 109 126q-84 16 -160 36z" />
<glyph unicode="+" horiz-adv-x="784" d="M336 156v262h-262v110h262v262h112v-262h260v-110h-260v-262h-112z" />
<glyph unicode="," horiz-adv-x="372" d="M119 0v135h135v-135q0 -142 -110 -190l-34 50q72 31 76 140h-67z" />
<glyph unicode="-" horiz-adv-x="446" d="M43 352v119h363v-119h-363z" />
<glyph unicode="." horiz-adv-x="372" d="M123 0v135h133v-135h-133z" />
<glyph unicode="/" horiz-adv-x="372" d="M0 -16l278 993h94l-278 -993h-94z" />
<glyph unicode="0" d="M56 473q0 491 312 491q314 0 314 -491q0 -489 -314 -489q-312 0 -312 489zM176 473q0 -393 192 -393t193 393q-1 393 -195 393q-92 0 -141 -90t-49 -303z" />
<glyph unicode="1" d="M500 0h-117v752q-95 -90 -237 -142v113q207 97 278 241h76v-964z" />
<glyph unicode="2" d="M674 112v-112h-635q-1 154 245 354q170 139 219.5 213.5t49.5 132.5q0 82 -56.5 124t-126.5 42q-96 0 -141 -57t-47 -135l-120 12q26 278 313 278q131 0 215 -74t84 -192q0 -72 -42 -151.5t-243 -247.5l-100 -86q-52 -43 -86 -101h471z" />
<glyph unicode="3" d="M58 254l116 16q38 -190 188 -190q84 0 140.5 58t56.5 142q0 82 -52.5 135.5t-134.5 53.5q-34 -1 -83 -15l12 103q68 0 109.5 13.5t73.5 51.5t32 95q0 68 -44 109.5t-112 41.5q-148 0 -174 -174l-118 21q22 118 98 183.5t190 65.5q135 0 209 -76.5t74 -172.5 q0 -134 -133 -195q180 -42 180 -238q0 -143 -101 -220.5t-223 -77.5q-125 0 -209.5 73.5t-94.5 196.5z" />
<glyph unicode="4" d="M434 0v230h-418v108l438 622h97v-622h131v-108h-131v-230h-117zM434 338v432l-301 -432h301z" />
<glyph unicode="5" d="M56 252l124 10q26 -182 184 -182q98 0 151 72t53 164q0 98 -56 157t-150 59q-116 0 -174 -92l-112 14l94 494h477v-114h-383l-51 -258q86 62 180 61q132 0 215.5 -87.5t83.5 -223.5q0 -94 -41 -173t-114 -124t-173 -45q-131 0 -213.5 72.5t-94.5 195.5z" />
<glyph unicode="6" d="M668 725l-117 -8q-31 151 -164 151q-96 0 -156.5 -95t-62.5 -277q84 126 234 126q137 0 209.5 -96t72.5 -214q0 -154 -88 -241t-211 -87q-334 0 -334 464q1 516 345 516q112 0 185 -63.5t87 -175.5zM186 312q0 -108 58.5 -170t138.5 -62q88 0 134 68.5t46 156.5 q0 94 -50 153.5t-136 59.5q-82 0 -136.5 -58t-54.5 -148z" />
<glyph unicode="7" d="M64 834v114h622v-92q-154 -162 -253 -397.5t-113 -458.5h-122q4 226 105 455t231 379h-470z" />
<glyph unicode="8" d="M238 520q-146 54 -146 197q0 110 78 178.5t198 68.5q106 0 192.5 -64t86.5 -188q0 -139 -141 -192q182 -58 182 -246q0 -129 -89 -209.5t-229 -80.5q-94 0 -165.5 38t-110 103t-38.5 153q0 194 182 242zM213 721q0 -70 43.5 -113t113.5 -43q60 0 108 38t48 112t-49 113.5 t-107 39.5q-68 0 -112.5 -42.5t-44.5 -104.5zM176 276q0 -94 59 -145t137 -51q74 0 135 48t61 144q0 86 -57 141.5t-143 55.5q-72 0 -132 -48.5t-60 -144.5z" />
<glyph unicode="9" d="M74 221l112 13q26 -154 160 -154q100 0 162 88t62 284q-80 -126 -230 -126q-140 0 -212 96t-72 219q0 144 83 233.5t219 89.5q330 0 330 -464q0 -264 -92 -390t-252 -126q-114 0 -185 62.5t-85 174.5zM555 645q0 96 -50.5 158.5t-132.5 62.5q-86 0 -141 -67.5t-55 -161.5 q0 -90 54 -148.5t138 -58.5q86 0 136.5 59.5t50.5 155.5z" />
<glyph unicode=":" horiz-adv-x="372" d="M121 561v135h135v-135h-135zM121 0v135h135v-135h-135z" />
<glyph unicode=";" horiz-adv-x="372" d="M119 561v135h135v-135h-135zM119 0v135h135v-135q0 -142 -110 -190l-34 50q72 31 76 140h-67z" />
<glyph unicode="&#x3c;" horiz-adv-x="784" d="M74 420v110l634 268v-116l-503 -207l503 -209v-118z" />
<glyph unicode="=" horiz-adv-x="784" d="M708 565h-634v111h634v-111zM708 272h-634v111h634v-111z" />
<glyph unicode="&#x3e;" horiz-adv-x="784" d="M708 420l-634 -272v118l504 209l-504 207v116l634 -268v-110z" />
<glyph unicode="?" d="M309 236q0 90 12.5 137t53.5 96q65 56 163 168q18 31 19 69q0 72 -54.5 123t-130.5 51q-162 0 -192 -194l-120 14q32 276 310 277q117 0 213.5 -66.5t96.5 -195.5q0 -117 -146 -246q-72 -62 -91 -100.5t-21 -132.5h-113zM301 0v135h135v-135h-135z" />
<glyph unicode="@" horiz-adv-x="1362" d="M760 106q-94 -108 -201 -108q-108 0 -172.5 88t-64.5 207q0 162 104 289.5t236 127.5q125 0 198 -120l22 100h118l-95 -438q-18 -90 -18 -102q0 -44 45 -44q57 0 154.5 95.5t97.5 267.5q0 192 -140.5 302.5t-326.5 110.5q-244 0 -395.5 -161t-151.5 -403q0 -258 159 -381 t404 -123q324 0 461 198h119q-58 -123 -208.5 -208.5t-369.5 -85.5q-315 0 -489 159.5t-174 429.5q0 182 86 345t226 245t339 82q264 0 411.5 -153.5t147.5 -358.5q0 -184 -124 -326.5t-271 -142.5q-56 0 -88.5 22t-38.5 86zM444 284q0 -78 38 -134t102 -56q52 0 106 40 t94 115t40 177q0 82 -42 134t-110 52q-96 0 -162 -104.5t-66 -223.5z" />
<glyph unicode="A" horiz-adv-x="895" d="M-2 0l368 960h138l393 -960h-145l-111 291h-403l-105 -291h-135zM274 396h326l-100 266q-45 121 -68 198q-18 -96 -51 -184z" />
<glyph unicode="B" horiz-adv-x="895" d="M98 0v960h361q162 0 239.5 -71.5t77.5 -173.5q0 -138 -133 -203q181 -54 181 -234q0 -278 -359 -278h-367zM226 557h206q110 0 165 29.5t55 113.5q0 62 -34 105t-200 43h-192v-291zM226 112h239q114 0 170.5 40t56.5 126q0 78 -50 122t-194 44h-222v-332z" />
<glyph unicode="C" horiz-adv-x="968" d="M788 338l128 -33q-82 -321 -398 -321q-234 0 -342 146t-108 358q0 244 132 366.5t320 122.5q299 -1 379 -281l-125 -28q-64 200 -256 200q-172 0 -246 -108t-74 -272q0 -209 88.5 -302.5t221.5 -93.5q226 0 280 246z" />
<glyph unicode="D" horiz-adv-x="968" d="M104 0v960h330q148 0 240 -36.5t157.5 -149t65.5 -288.5q0 -220 -103.5 -353t-343.5 -133h-346zM232 112h204q119 0 186.5 34t105.5 121t38 221q0 133 -39 216.5t-106.5 113.5t-188.5 30h-200v-736z" />
<glyph unicode="E" horiz-adv-x="895" d="M106 0v960h695v-112h-567v-295h530v-113h-530v-328h590v-112h-718z" />
<glyph unicode="F" horiz-adv-x="819" d="M110 0v960h648v-112h-520v-299h450v-113h-450v-436h-128z" />
<glyph unicode="G" horiz-adv-x="1044" d="M553 377v113h407v-357q-188 -149 -399 -149q-221 0 -355 134t-134 357q0 211 120 356.5t361 145.5q322 0 393 -285l-114 -30q-62 206 -279 206q-168 0 -259 -102t-91 -282q0 -203 101.5 -294.5t250.5 -91.5q169 0 281 100v179h-283z" />
<glyph unicode="H" horiz-adv-x="968" d="M106 0v960h130v-395h497v395h127v-960h-127v452h-497v-452h-130z" />
<glyph unicode="I" horiz-adv-x="372" d="M125 0v960h127v-960h-127z" />
<glyph unicode="J" horiz-adv-x="671" d="M37 272l115 17q8 -193 141 -193q80 0 111.5 45t31.5 158v661h127v-655q0 -321 -268 -321q-131 0 -197 72q-62 69 -61 200v16z" />
<glyph unicode="K" horiz-adv-x="895" d="M98 0v960h128v-476l476 476h172l-403 -388l422 -572h-168l-342 486l-157 -152v-334h-128z" />
<glyph unicode="L" d="M98 0v960h128v-848h472v-112h-600z" />
<glyph unicode="M" horiz-adv-x="1118" d="M100 0v960h191l227 -680l45 -143q17 62 51 156l232 667h170v-960h-123v805l-279 -805h-114l-279 817v-817h-121z" />
<glyph unicode="N" horiz-adv-x="968" d="M102 0v960h132l504 -753v753h120v-960h-129l-506 756v-756h-121z" />
<glyph unicode="O" horiz-adv-x="1044" d="M66 469q0 156 57 269.5t159 175.5q100 63 242 63q202 0 330.5 -136.5t128.5 -361.5q0 -246 -136.5 -370.5t-322.5 -124.5q-205 0 -331.5 139t-126.5 346zM196 467q0 -166 88 -270.5t240 -104.5q164 0 246 113t82 274q0 192 -94 290.5t-232 98.5q-174 0 -252 -114.5 t-78 -286.5z" />
<glyph unicode="P" horiz-adv-x="895" d="M104 0v960h363q116 0 192 -20t126.5 -90t50.5 -168q0 -291 -359 -291h-245v-391h-128zM232 504h247q225 0 225 176q0 62 -25 100.5t-67 53t-135 14.5h-245v-344z" />
<glyph unicode="Q" horiz-adv-x="1044" d="M832 102q88 -60 164 -88l-40 -88q-102 36 -204 117q-108 -59 -238 -59q-213 0 -334.5 141t-121.5 354q0 244 134 371t326 127q201 0 330 -134.5t129 -360.5q1 -240 -145 -380zM551 266q110 -30 182 -92q113 102 113 308q0 190 -94 288t-234 98q-156 0 -243 -103t-87 -286 q0 -156 79 -271.5t251 -115.5q68 0 129 27q-59 36 -127 53z" />
<glyph unicode="R" horiz-adv-x="968" d="M106 0v960h426q100 0 169 -17t121 -84t52 -161q0 -226 -272 -262q98 -40 182 -174l168 -262h-160l-126 200q-72 111 -112 154.5t-75 57.5t-98 14h-147v-426h-128zM234 536h272q238 0 238 162q0 156 -208 156h-302v-318z" />
<glyph unicode="S" horiz-adv-x="895" d="M62 309l118 11q14 -114 92 -168t193 -54q118 0 177.5 48t59.5 114q0 70 -55 107t-237 77q-184 43 -249 110.5t-65 157.5q0 129 99.5 197t238.5 68q178 0 267 -82t95 -205l-122 -10q-18 184 -234 184q-222 0 -221 -143q0 -60 46.5 -91.5t182.5 -61.5q135 -31 208 -58.5 t121.5 -89.5t48.5 -150q0 -136 -105 -211t-252 -75q-203 0 -304 92t-103 233z" />
<glyph unicode="T" horiz-adv-x="819" d="M348 0v848h-318v112h762v-112h-317v-848h-127z" />
<glyph unicode="U" horiz-adv-x="968" d="M733 960h127v-554q0 -119 -24.5 -211.5t-113.5 -151.5q-88 -59 -236 -59q-203 0 -291.5 99t-88.5 323v554h128v-554q0 -94 14 -160t71.5 -107t155.5 -41q138 0 198 64t60 244v554z" />
<glyph unicode="V" horiz-adv-x="895" d="M379 0l-373 960h138l249 -698q31 -88 51 -156q20 70 52 156l260 698h128l-376 -960h-129z" />
<glyph unicode="W" horiz-adv-x="1265" d="M270 0l-254 960h132l145 -628q26 -111 41 -197l43 177l182 648h153l138 -485q54 -186 76 -340q12 68 47 209l151 616h128l-265 -960h-121l-202 731l-31 113l-29 -113l-202 -731h-132z" />
<glyph unicode="X" horiz-adv-x="895" d="M6 0l371 500l-328 460h151l175 -245q55 -78 77 -119q30 48 76 108l195 256h137l-338 -452l365 -508h-158l-241 342l-42 66q-34 -58 -46 -72l-242 -336h-152z" />
<glyph unicode="Y" horiz-adv-x="895" d="M375 0v408l-371 552h154l190 -288q50 -78 98 -164q43 78 105 170l187 282h146l-382 -552v-408h-127z" />
<glyph unicode="Z" horiz-adv-x="819" d="M26 0v119l592 729h-536v112h688v-112l-598 -736h614v-112h-760z" />
<glyph unicode="[" horiz-adv-x="372" d="M92 -200v1226h260v-96h-143v-1032h143v-98h-260z" />
<glyph unicode="\" horiz-adv-x="372" d="M278 -16l-278 993h94l278 -993h-94z" />
<glyph unicode="]" horiz-adv-x="372" d="M284 -200h-260v98h144v1032h-144v96h260v-1226z" />
<glyph unicode="^" horiz-adv-x="628" d="M156 452h-121l231 525h96l232 -525h-119l-161 392z" />
<glyph unicode="_" d="M-20 -266v84h782v-84h-782z" />
<glyph unicode="`" horiz-adv-x="446" d="M305 782h-96l-149 182h155z" />
<glyph unicode="a" d="M542 86q-118 -102 -256 -102q-98 0 -167.5 49t-69.5 151q0 70 36 116t89 68q54 22 148 34q144 16 210 40q0 68 -9 97t-47 52t-112 23q-72 0 -116 -26q-44 -24 -64 -106l-114 16q43 212 313 212q112 0 171.5 -30.5t78.5 -80.5q19 -51 19 -151l2 -304q0 -76 36 -144h-125 q-19 37 -23 86zM532 348q-66 -26 -192 -43q-112 -16 -139 -49q-27 -34 -27 -70q0 -110 142 -110q216 0 216 229v43z" />
<glyph unicode="b" d="M196 0h-108v960h117v-342q77 92 193 92q135 0 213.5 -97t78.5 -255q0 -162 -81 -268t-218 -106q-123 0 -195 102v-86zM196 352q0 -102 23 -156t66 -84t96 -30q92 0 141.5 77t49.5 189q0 108 -44 187t-143 79q-88 0 -138.5 -75t-50.5 -187z" />
<glyph unicode="c" horiz-adv-x="671" d="M542 256l118 -16q-18 -118 -96 -187t-196 -69q-150 0 -232.5 96t-82.5 266q0 188 90.5 276t224.5 88q236 0 279 -218l-115 -19q-33 141 -157 141q-201 0 -201 -266t192 -266q152 0 176 174z" />
<glyph unicode="d" d="M540 0v88q-68 -104 -194 -104q-141 0 -221 104t-80 258q0 182 85 273t210 91q122 0 192 -94v344h117v-960h-109zM168 346q0 -116 49 -190t139 -74q92 0 139 73t47 183q0 125 -49 200.5t-143 75.5q-182 0 -182 -268z" />
<glyph unicode="e" d="M565 223l121 -14q-60 -225 -305 -225q-94 0 -166.5 37t-119 116.5t-46.5 204.5q0 106 36 189t109.5 131t180.5 48q110 0 183 -54t102.5 -133t29.5 -205h-520q8 -108 63.5 -172t147.5 -64q133 0 184 141zM178 414h387q-8 100 -60.5 150t-129.5 50q-82 0 -137.5 -55 t-59.5 -145z" />
<glyph unicode="f" horiz-adv-x="372" d="M116 0v604h-104v92h104v74q0 62 13 105t59 72.5t121 29.5q50 -1 111 -13l-18 -102q-37 6 -70 6q-56 0 -77 -22t-21 -86v-64h134v-92h-134v-604h-118z" />
<glyph unicode="g" d="M68 -58l114 -16q14 -110 160 -110q76 0 123 30.5t59 79t12 164.5q-78 -90 -192 -90q-137 0 -219 99t-82 253q0 170 85 264t216 94q125 0 203 -98v84h111v-602q0 -116 -20 -192t-95.5 -130t-200.5 -54q-137 0 -208 61q-67 58 -67 153q1 5 1 10zM164 360q0 -262 190 -262 q94 0 143.5 70t49.5 188q0 112 -51.5 185t-143.5 73t-140 -74t-48 -180z" />
<glyph unicode="h" d="M88 0v960h119v-344q83 94 207 94q113 0 177.5 -55t64.5 -215v-440h-120v440q0 170 -145 170q-184 0 -184 -229v-381h-119z" />
<glyph unicode="i" horiz-adv-x="299" d="M88 826v134h119v-134h-119zM88 0v696h119v-696h-119z" />
<glyph unicode="j" horiz-adv-x="299" d="M88 824v136h117v-136h-117zM-62 -270l23 100q35 -8 55 -8q41 0 56.5 28.5t15.5 114.5v731h117v-735q0 -120 -35 -181q-36 -62 -140 -62q-48 0 -92 12z" />
<glyph unicode="k" horiz-adv-x="671" d="M88 0v960h119v-546l279 282h153l-267 -258l294 -438h-146l-229 356l-84 -80v-276h-119z" />
<glyph unicode="l" horiz-adv-x="299" d="M86 0v960h119v-960h-119z" />
<glyph unicode="m" horiz-adv-x="1118" d="M88 0v696h106v-98q72 112 212 112q154 0 196 -120q82 120 215 120q215 0 215 -233v-477h-118v438q0 172 -124 172q-170 0 -170 -206v-404h-118v452q0 158 -123 158q-82 0 -127 -54t-45 -196v-360h-119z" />
<glyph unicode="n" d="M88 0v696h106v-98q76 112 222 112q94 0 147 -35.5t72 -91t19 -155.5v-428h-118v424q0 186 -145 186q-184 0 -184 -229v-381h-119z" />
<glyph unicode="o" d="M45 348q0 194 99.5 278t225.5 84q150 0 238 -96t88 -256q0 -192 -94 -283t-232 -91q-170 0 -247.5 106t-77.5 258zM166 348q0 -122 53 -194t151 -72q102 0 154 77t52 193q0 104 -50 183t-156 79q-102 0 -153 -75.5t-51 -190.5z" />
<glyph unicode="p" d="M88 -266v962h108v-90q76 104 202 104q148 0 221 -103t73 -255q0 -182 -92 -275t-211 -93q-112 0 -182 88v-338h-119zM194 344q0 -118 48.5 -190t138.5 -72q94 0 142.5 77t48.5 195q0 116 -48.5 190t-136.5 74q-92 0 -142.5 -81t-50.5 -193z" />
<glyph unicode="q" d="M532 -266v340q-64 -90 -182 -90q-147 0 -225 112t-78 258q0 178 85 267t208 89q129 0 205 -108v94h104v-962h-117zM168 350q0 -116 50 -192t142 -76q88 0 136.5 74t48.5 184q0 119 -51.5 198.5t-141.5 79.5q-92 0 -138 -75.5t-46 -192.5z" />
<glyph unicode="r" horiz-adv-x="446" d="M86 0v696h106v-106q68 120 152 120q60 0 121 -36l-41 -111q-43 27 -86 27q-133 0 -133 -226v-364h-119z" />
<glyph unicode="s" horiz-adv-x="671" d="M41 207l117 19q20 -144 180 -144t160 110q0 39 -29 58.5t-127 44.5q-106 26 -157.5 45.5t-87 63.5t-35.5 108q0 86 68 142t188 56q248 0 276 -194l-117 -16q-15 114 -151 114q-152 0 -152 -90q0 -35 27 -53.5t137 -48.5q123 -33 167 -50.5t78.5 -61.5t34.5 -105 q0 -100 -77.5 -160.5t-202.5 -60.5q-256 0 -297 223z" />
<glyph unicode="t" horiz-adv-x="372" d="M346 106l16 -104q-50 -10 -88 -10q-56 0 -92 16t-54 50t-18 147v399h-88v92h88v172l118 70v-242h118v-92h-118v-408q0 -53 11 -74.5t56 -21.5q19 0 51 6z" />
<glyph unicode="u" d="M545 0v102q-81 -118 -221 -118q-92 0 -146.5 38t-73 92t-18.5 150v432h119v-387q0 -82 6 -123.5t40.5 -70.5t94.5 -29q88 0 137 51t49 187v372h117v-696h-104z" />
<glyph unicode="v" horiz-adv-x="671" d="M280 0l-264 696h126l149 -418q26 -70 45 -138q14 50 43 130l155 426h122l-265 -696h-111z" />
<glyph unicode="w" horiz-adv-x="968" d="M217 0l-213 696h123l151 -550l146 550h123l137 -536l160 536h114l-216 -696h-124l-136 534l-142 -534h-123z" />
<glyph unicode="x" horiz-adv-x="671" d="M10 0l254 362l-236 334h148l106 -164q29 -42 50 -78l53 78l117 164h141l-239 -328l258 -368h-146l-180 274l-184 -274h-142z" />
<glyph unicode="y" horiz-adv-x="671" d="M84 -268l-14 110q39 -10 67 -10q58 0 83.5 27t61.5 135l2 4l-264 698h130l143 -403q30 -84 51 -162q18 80 49 160l147 405h120l-264 -708q-60 -158 -107 -214t-129 -56q-34 0 -76 14z" />
<glyph unicode="z" horiz-adv-x="671" d="M26 0v96l443 508q-76 -4 -133 -4h-283v96h567v-78l-448 -522q80 6 148 6h321v-102h-615z" />
<glyph unicode="{" horiz-adv-x="448" d="M41 469q78 0 106.5 51.5t28.5 200.5q0 154 16.5 210t61.5 84.5t131 28.5h35v-104h-18q-76 0 -96 -29t-20 -104q0 -142 -5 -202t-36 -110.5t-93 -80.5q62 -24 98 -84t36 -211q0 -111 3.5 -151t25 -60t87.5 -20h18v-103h-35q-100 0 -136 30.5t-53.5 70.5t-17.5 212 q0 148 -25.5 204t-111.5 58v109z" />
<glyph unicode="|" horiz-adv-x="348" d="M123 -282v1259h103v-1259h-103z" />
<glyph unicode="}" horiz-adv-x="448" d="M410 469v-109q-62 0 -99 -37t-37 -215q0 -156 -16 -212t-63 -83.5t-127 -27.5h-38v103h21q74 0 93.5 28t19.5 106q0 144 5 203t38 112t94 77q-82 39 -109.5 102.5t-27.5 191.5q0 131 -4 162t-22.5 50.5t-86.5 19.5h-21v104h38q78 0 123 -23t63 -76t18 -189 q0 -162 25 -224.5t113 -62.5z" />
<glyph unicode="~" horiz-adv-x="784" d="M58 364v136q70 78 182 78q72 0 204 -58q74 -30 113 -30q88 0 170 90v-140q-80 -74 -180 -74q-71 0 -189 54q-78 34 -130 34q-78 0 -170 -90z" />
<glyph horiz-adv-x="1024" />
<glyph unicode="&#xa1;" horiz-adv-x="446" d="M293 561h-137v135h137v-135zM297 -51v-213h-145v213l32 507h76z" />
<glyph unicode="&#xa2;" d="M342 84q20 -6 41 -6q61 0 111 41q54 40 65 137l119 -14q-22 -120 -102 -191q-82 -69 -191 -69q-37 0 -67 10l-78 -260l-74 20l76 262q-172 86 -172 330q0 182 90 274q88 94 219 94q14 0 30.5 -2l34.5 -4l74 254l72 -20l-74 -254q122 -48 150 -194l-115 -19 q-17 75 -63 113zM385 618q-86 0 -139 -67q-56 -66 -56 -201q0 -172 82 -234l146 500z" />
<glyph unicode="&#xa3;" d="M467 530v-98h-187q12 -26 13 -57q0 -125 -117 -250q56 15 94 15q53 0 123 -17q119 -27 152 -27q49 0 127 37l36 -109q-94 -40 -157 -40q-47 0 -139 28q-102 30 -152 31q-102 1 -196 -61l-46 112q150 88 150 258q0 40 -10 80h-130v98h101q-33 110 -33 172q0 125 84 199 q82 76 213 76q103 1 187 -59q84 -58 104 -189l-116 -19q-10 80 -60 126q-49 44 -117 44q-65 0 -117 -42q-54 -43 -53 -117q0 -73 39 -191h207z" />
<glyph unicode="&#xa4;" horiz-adv-x="772" d="M694 223l-55 -55l-92 92q-80 -55 -164 -55q-82 0 -162 55l-92 -92l-55 55l94 91q-56 82 -56 161q0 82 56 164l-94 88l55 57l92 -92q76 54 162 54t164 -54l92 92l55 -57l-94 -88q54 -80 54 -164q0 -81 -54 -161zM576 475q0 80 -56.5 136.5t-136.5 56.5q-82 0 -137.5 -56.5 t-55.5 -136.5t56.5 -136.5t136.5 -56.5q70 0 131.5 51.5t61.5 141.5z" />
<glyph unicode="&#xa5;" d="M314 213h-273v90h273v95h-273v98h223l-266 464h131l191 -338l23 -44.5t25 -55.5q16 36 56 106l178 332h140l-265 -464h223v-98h-270v-95h270v-90h-270v-213h-116v213z" />
<glyph unicode="&#xa6;" horiz-adv-x="348" d="M226 459h-103v518h103v-518zM226 -282h-103v518h103v-518z" />
<glyph unicode="&#xa7;" d="M213 -28q28 -154 166 -154q69 0 107 32q36 34 36 80q0 30 -30 70q-28 40 -218 154l-77 51l-53 37q-39 34 -66 82q-25 49 -25 98q0 54 35 108q36 55 112 76q-84 82 -84 164q0 84 66 146q64 62 172 61q244 1 274 -227l-120 -12q-24 142 -142 142q-60 0 -98 -32 q-36 -33 -36 -72q0 -42 38 -80q18 -18 64 -50t120 -76q136 -84 183 -138q47 -53 47 -129q0 -131 -148 -187q104 -80 105 -184q1 -92 -73 -153q-72 -61 -187 -61q-252 0 -287 237zM477 160q97 50 97 122q0 36 -34 78q-32 39 -149 111l-71 47l-62 43q-98 -51 -98 -127 q0 -42 30 -78q26 -35 136 -100q45 -24 83 -48.5t68 -47.5z" />
<glyph unicode="&#xa8;" horiz-adv-x="446" d="M41 966h123v-134h-123v134zM284 966h124v-134h-124v134z" />
<glyph unicode="&#xa9;" horiz-adv-x="989" d="M498 977q124 1 242 -63t184 -183q68 -119 67 -249q0 -205 -145 -351q-146 -143 -348 -143q-127 0 -246 65q-120 67 -184 183q-66 120 -66 246q0 152 80 272q80 122 196 172q114 52 220 51zM498 895q-174 0 -295 -121q-119 -120 -119 -292q0 -168 121 -290t293 -122 q100 0 202 53q100 53 154 155q56 104 56 204q0 172 -122 292q-120 121 -290 121zM735 379q-17 -82 -83 -131q-64 -50 -154 -50q-116 0 -189 76q-71 74 -71 208q0 131 71 204q72 74 195 74q174 0 221 -154l-78 -20q-41 100 -147 100q-72 0 -123 -51q-49 -52 -49 -156 q0 -99 44 -151q48 -52 122 -52q56 0 100 31q46 33 62 95z" />
<glyph unicode="&#xaa;" horiz-adv-x="497" d="M358 559q-78 -69 -168 -69q-62 0 -110 34q-50 36 -50 109q0 64 38 92q38 33 122 47l96 14q12 2 28 5t36 10q0 53 -22 75q-20 22 -80 23q-96 0 -111 -82l-90 25q29 136 201 135q116 0 158 -45q38 -45 38 -115v-197q0 -88 27 -118h-96q-17 27 -17 57zM348 723 q-18 -4 -50 -10.5t-75 -12.5q-94 -16 -94 -67q1 -24 21 -45q22 -20 63 -20q47 0 82 24q32 24 43 49q10 26 10 82z" />
<glyph unicode="&#xab;" d="M393 47h-96l-209 299l209 299h96l-170 -299zM649 47h-98l-207 299l207 299h98l-174 -299z" />
<glyph unicode="&#xac;" horiz-adv-x="784" d="M598 278v287h-522v111h632v-398h-110z" />
<glyph unicode="&#xad;" horiz-adv-x="463" d="M402 299h-340v88h340v-88z" />
<glyph unicode="&#xae;" horiz-adv-x="989" d="M498 977q124 1 242 -63t184 -183q68 -119 67 -249q0 -205 -145 -351q-146 -143 -348 -143q-127 0 -246 65q-120 67 -184 183q-66 120 -66 246q0 152 80 272q80 122 196 172q114 52 220 51zM498 895q-174 0 -295 -121q-119 -120 -119 -292q0 -168 121 -290t293 -122 q100 0 202 53q100 53 154 155q56 104 56 204q0 172 -122 292q-120 121 -290 121zM280 742h183q122 0 174 -38q53 -35 53 -106q0 -58 -41 -102q-43 -44 -111 -50q48 -14 124 -132l65 -105h-105l-46 84q-48 89 -80 115q-28 26 -80 26h-50v-225h-86v533zM469 510q129 0 129 80 q0 41 -31 60.5t-104 19.5h-97v-160h103z" />
<glyph unicode="&#xaf;" horiz-adv-x="741" d="M-20 1110h782v-84h-782v84z" />
<glyph unicode="&#xb0;" horiz-adv-x="536" d="M84 796q0 74 53 128q54 54 127 53q66 0 125 -47q59 -50 59 -134q0 -47 -21 -86.5t-65 -68.5q-43 -29 -98 -29q-64 0 -120 50q-60 48 -60 134zM156 796q0 -47 30 -79q32 -33 80 -33q54 0 80 37q31 33 31 75q0 22 -9.5 42t-24.5 35.5t-34.5 23.5t-42.5 8q-40 -1 -76 -29 q-34 -28 -34 -80z" />
<glyph unicode="&#xb1;" horiz-adv-x="860" d="M68 178h724v-178h-724v178zM342 725h176v-153h274v-179h-274v-155h-176v155h-274v179h274v153z" />
<glyph unicode="&#xb2;" horiz-adv-x="446" d="M16 479q4 82 166 201q86 62 111 86q27 26 27 58q0 72 -90 71q-80 0 -101 -76l-99 13q34 142 202 141q98 0 143 -39q47 -38 47 -94t-33 -98q-18 -20 -53 -50t-86 -70q-56 -39 -78 -63h254v-80h-410z" />
<glyph unicode="&#xb3;" horiz-adv-x="446" d="M116 618q23 -74 101 -73q49 1 76 27q29 26 29 61q0 71 -105 71l-23 -2h-8h-6l14 72q104 0 105 68q0 12 -5 22t-15.5 18.5t-24.5 12.5t-35 4q-68 1 -92 -65l-94 14q23 68 67 96q41 29 119 29q181 0 181 -123q0 -76 -91 -104q115 -26 115 -126q0 -62 -54 -106 q-51 -45 -147 -45q-175 -1 -201 139z" />
<glyph unicode="&#xb4;" horiz-adv-x="446" d="M234 966h153l-143 -184h-98z" />
<glyph unicode="&#xb5;" horiz-adv-x="772" d="M668 0h-107v84q-59 -100 -174 -100q-102 0 -166 86v-336h-117v962h117v-294q1 -164 17 -208q16 -45 53 -73q34 -31 92 -31q51 0 90 26q41 28 59 74t19 210v296h117v-696z" />
<glyph unicode="&#xb6;" horiz-adv-x="721" d="M264 418q-32 0 -64 7t-61 21.5t-53 37t-45 50.5q-41 62 -41 150q0 129 82 203q80 73 230 73h413v-112h-94v-1114h-111v1114h-145v-1114h-111v684z" />
<glyph unicode="&#xb7;" horiz-adv-x="372" d="M121 540h135v-134h-135v134z" />
<glyph unicode="&#xb8;" horiz-adv-x="317" d="M211 0l-55 -84q14 4 24 6t23 2q22 0 43.5 -7t39 -20t28 -34t10.5 -45q0 -66 -46 -101t-134 -35q-24 0 -46 3t-40.5 7.5l-34 8.5t-23.5 10l26 66q8 -4 20 -8.5t25 -7.5t27 -5t29 -2q14 0 27.5 4t22.5 10t15 16t6 20q0 22 -17 35t-46 13q-16 0 -26.5 -2t-22.5 -6l-30 29 l77 127h78z" />
<glyph unicode="&#xb9;" horiz-adv-x="446" d="M217 844q-65 -54 -147 -76v82q94 30 172 123h70v-494h-95v365z" />
<glyph unicode="&#xba;" horiz-adv-x="489" d="M244 977q94 1 154 -65q62 -66 61 -181q1 -100 -53 -174q-53 -71 -160 -71q-98 0 -158 65q-60 66 -60 176q0 119 60 185q62 66 156 65zM244 891q-116 0 -117 -160q1 -85 33 -123q34 -36 84 -36q118 0 118 161q0 80 -34 119q-32 39 -84 39z" />
<glyph unicode="&#xbb;" d="M346 645h98l210 -299l-210 -299h-96l170 299zM92 645h98l206 -299l-206 -299h-98l172 299z" />
<glyph unicode="&#xbc;" horiz-adv-x="1118" d="M887 977h102l-721 -1014h-102zM217 844q-65 -54 -147 -76v82q94 30 172 123h70v-494h-95v365zM938 82h-252v80l266 309h78v-319h70v-70h-70v-102h-92v102zM938 324l-152 -172h152v172z" />
<glyph unicode="&#xbd;" horiz-adv-x="1118" d="M870 977h105l-723 -1014h-102zM217 844q-65 -54 -147 -76v82q94 30 172 123h70v-494h-95v365zM686 -20q12 86 168 198q86 62 110 88q24 28 25 56q0 72 -90 71q-78 1 -98 -73l-101 10q37 142 201 141q97 0 145 -39q48 -36 48 -92q0 -54 -31 -94q-29 -41 -143 -123 q-53 -39 -76 -63h252v-80h-410z" />
<glyph unicode="&#xbe;" horiz-adv-x="1118" d="M887 977h102l-721 -1014h-102zM116 618q23 -74 101 -73q49 1 76 27q29 26 29 61q0 71 -103 71l-39 -2l14 72q104 0 105 68q0 12 -5 22t-15.5 18.5t-24.5 12.5t-35 4q-68 1 -92 -65l-94 14q23 68 67 96q41 29 119 29q181 0 181 -123q0 -76 -91 -104q115 -26 115 -126 q0 -62 -54 -106q-51 -45 -147 -45q-175 -1 -201 139zM936 82h-250v80l264 309h80v-319h70v-70h-70v-102h-94v102zM936 324l-150 -172h150v172z" />
<glyph unicode="&#xbf;" horiz-adv-x="819" d="M479 561h-133v135h133v-135zM471 459q0 -12 1 -20.5t1 -12.5q-1 -92 -31 -148q-30 -52 -120 -132q-64 -58 -80 -88q-16 -31 -16 -68q0 -72 52 -123q56 -51 132 -51q164 0 192 194l121 -14q-17 -136 -99 -207q-82 -69 -212 -69q-142 0 -226 75q-82 79 -82 187q0 64 29 116 t115 128q74 68 92 104q18 37 18 129h113z" />
<glyph unicode="&#xc0;" horiz-adv-x="895" d="M-2 0l368 960h138l393 -960h-145l-111 291h-403l-105 -291h-135zM274 396h326l-100 266q-45 121 -68 198q-18 -96 -51 -184zM483 1050h-96l-149 182h155z" />
<glyph unicode="&#xc1;" horiz-adv-x="895" d="M-2 0l368 960h138l393 -960h-145l-111 291h-403l-105 -291h-135zM274 396h326l-100 266q-45 121 -68 198q-18 -96 -51 -184zM451 1234h153l-143 -184h-98z" />
<glyph unicode="&#xc2;" horiz-adv-x="895" d="M-2 0l368 960h138l393 -960h-145l-111 291h-403l-105 -291h-135zM274 396h326l-100 266q-45 121 -68 198q-18 -96 -51 -184zM363 1050h-136l142 184h126l146 -184h-131l-73 113z" />
<glyph unicode="&#xc3;" horiz-adv-x="895" d="M-2 0l368 960h138l393 -960h-145l-111 291h-403l-105 -291h-135zM274 396h326l-100 266q-45 121 -68 198q-18 -96 -51 -184zM204 1038q0 70 39 110q37 40 94 40q41 0 111 -34q38 -20 61 -21q43 -1 49 57h84q0 -74 -36 -112q-36 -36 -90 -37q-41 1 -109 37q-45 22 -65 22 q-50 0 -50 -62h-88z" />
<glyph unicode="&#xc4;" horiz-adv-x="895" d="M-2 0l368 960h138l393 -960h-145l-111 291h-403l-105 -291h-135zM274 396h326l-100 266q-45 121 -68 198q-18 -96 -51 -184zM246 1183h123v-134h-123v134zM489 1183h124v-134h-124v134z" />
<glyph unicode="&#xc5;" horiz-adv-x="895" d="M-2 0l368 960h138l393 -960h-145l-111 291h-403l-105 -291h-135zM274 396h326l-100 266q-45 121 -68 198q-18 -96 -51 -184zM287 1270q0 -18 6 -34t18 -27t28 -17t32 -6t31.5 6t27 17t17.5 27t6 34q0 16 -6 31t-17.5 26.5t-27 18t-31.5 6.5t-32 -6.5t-28 -18t-18 -26.5 t-6 -31zM211 1270q0 32 11 62t33 52t52 35t64 13q33 0 62.5 -13t52 -35t35 -52t12.5 -62q0 -35 -12.5 -64.5t-35 -52.5t-52.5 -35t-62 -12q-34 0 -64 12t-52 35t-33 52.5t-11 64.5z" />
<glyph unicode="&#xc6;" horiz-adv-x="1341" d="M463 960h789v-112h-484v-295h448v-115h-448v-326h502v-112h-629v276h-373l-131 -276h-137zM641 389v459h-96l-221 -459h317z" />
<glyph unicode="&#xc7;" horiz-adv-x="968" d="M788 338l128 -33q-82 -321 -398 -321q-234 0 -342 146t-108 358q0 244 132 366.5t320 122.5q299 -1 379 -281l-125 -28q-64 200 -256 200q-172 0 -246 -108t-74 -272q0 -209 88.5 -302.5t221.5 -93.5q226 0 280 246zM450 14h86l-20 -70q56 -6 84 -32q29 -28 29 -64 q1 -48 -47 -86q-46 -38 -144 -38q-48 0 -94 8l8 78l62 -4q104 0 104 48q0 46 -102 46z" />
<glyph unicode="&#xc8;" horiz-adv-x="895" d="M106 0v960h695v-112h-567v-295h530v-113h-530v-328h590v-112h-718zM535 1052h-96l-149 182h155z" />
<glyph unicode="&#xc9;" horiz-adv-x="895" d="M106 0v960h695v-112h-567v-295h530v-113h-530v-328h590v-112h-718zM464 1236h153l-143 -184h-98z" />
<glyph unicode="&#xca;" horiz-adv-x="895" d="M106 0v960h695v-112h-567v-295h530v-113h-530v-328h590v-112h-718zM382 1052h-136l142 184h126l146 -184h-131l-73 113z" />
<glyph unicode="&#xcb;" horiz-adv-x="895" d="M106 0v960h695v-112h-567v-295h530v-113h-530v-328h590v-112h-718zM271 1183h123v-134h-123v134zM514 1183h124v-134h-124v134z" />
<glyph unicode="&#xcc;" horiz-adv-x="372" d="M125 0v960h127v-960h-127zM279 1052h-96l-149 182h155z" />
<glyph unicode="&#xcd;" horiz-adv-x="372" d="M125 0v960h127v-960h-127zM208 1236h153l-143 -184h-98z" />
<glyph unicode="&#xce;" horiz-adv-x="372" d="M125 0v960h127v-960h-127zM126 1052h-136l142 184h126l146 -184h-131l-73 113z" />
<glyph unicode="&#xcf;" horiz-adv-x="372" d="M125 0v960h127v-960h-127zM15 1183h123v-134h-123v134zM258 1183h124v-134h-124v134z" />
<glyph unicode="&#xd0;" horiz-adv-x="968" d="M104 436h-106v88h106v436h330q154 0 242 -36t156 -148q66 -110 65 -290q-1 -208 -99 -346q-100 -140 -348 -140h-346v436zM436 112q106 0 176 30q70 28 113 116t43 230q0 128 -41 212q-39 84 -105 115q-66 33 -190 33h-200v-324h264v-88h-264v-324h204z" />
<glyph unicode="&#xd1;" horiz-adv-x="968" d="M102 0v960h132l504 -753v753h120v-960h-129l-506 756v-756h-121zM274 1058q0 70 39 110q37 40 94 40q41 0 111 -34q38 -20 61 -21q43 -1 49 57h84q0 -74 -36 -112q-36 -36 -90 -37q-41 1 -109 37q-45 22 -65 22q-50 0 -50 -62h-88z" />
<glyph unicode="&#xd2;" horiz-adv-x="1044" d="M66 469q0 156 57 269.5t159 175.5q100 63 242 63q202 0 330.5 -136.5t128.5 -361.5q0 -246 -136.5 -370.5t-322.5 -124.5q-205 0 -331.5 139t-126.5 346zM196 467q0 -166 88 -270.5t240 -104.5q164 0 246 113t82 274q0 192 -94 290.5t-232 98.5q-174 0 -252 -114.5 t-78 -286.5zM585 1052h-96l-149 182h155z" />
<glyph unicode="&#xd3;" horiz-adv-x="1044" d="M66 469q0 156 57 269.5t159 175.5q100 63 242 63q202 0 330.5 -136.5t128.5 -361.5q0 -246 -136.5 -370.5t-322.5 -124.5q-205 0 -331.5 139t-126.5 346zM196 467q0 -166 88 -270.5t240 -104.5q164 0 246 113t82 274q0 192 -94 290.5t-232 98.5q-174 0 -252 -114.5 t-78 -286.5zM543 1236h153l-143 -184h-98z" />
<glyph unicode="&#xd4;" horiz-adv-x="1044" d="M66 469q0 156 57 269.5t159 175.5q100 63 242 63q202 0 330.5 -136.5t128.5 -361.5q0 -246 -136.5 -370.5t-322.5 -124.5q-205 0 -331.5 139t-126.5 346zM196 467q0 -166 88 -270.5t240 -104.5q164 0 246 113t82 274q0 192 -94 290.5t-232 98.5q-174 0 -252 -114.5 t-78 -286.5zM451 1062h-136l142 184h126l146 -184h-131l-73 113z" />
<glyph unicode="&#xd5;" horiz-adv-x="1044" d="M66 469q0 156 57 269.5t159 175.5q100 63 242 63q202 0 330.5 -136.5t128.5 -361.5q0 -246 -136.5 -370.5t-322.5 -124.5q-205 0 -331.5 139t-126.5 346zM196 467q0 -166 88 -270.5t240 -104.5q164 0 246 113t82 274q0 192 -94 290.5t-232 98.5q-174 0 -252 -114.5 t-78 -286.5zM303 1068q0 70 39 110q37 40 94 40q41 0 111 -34q38 -20 61 -21q43 -1 49 57h84q0 -74 -36 -112q-36 -36 -90 -37q-41 1 -109 37q-45 22 -65 22q-50 0 -50 -62h-88z" />
<glyph unicode="&#xd6;" horiz-adv-x="1044" d="M66 469q0 156 57 269.5t159 175.5q100 63 242 63q202 0 330.5 -136.5t128.5 -361.5q0 -246 -136.5 -370.5t-322.5 -124.5q-205 0 -331.5 139t-126.5 346zM196 467q0 -166 88 -270.5t240 -104.5q164 0 246 113t82 274q0 192 -94 290.5t-232 98.5q-174 0 -252 -114.5 t-78 -286.5zM340 1185h123v-134h-123v134zM583 1185h124v-134h-124v134z" />
<glyph unicode="&#xd7;" horiz-adv-x="784" d="M312 473l-206 207l80 80l205 -205l207 205l78 -80l-205 -205l207 -207l-80 -80l-207 208l-207 -208l-78 80z" />
<glyph unicode="&#xd8;" horiz-adv-x="1044" d="M930 996l64 -56l-116 -129q102 -146 103 -332q0 -227 -129 -360q-132 -135 -328 -135q-168 0 -294 102l-111 -125l-66 55l117 130q-30 45 -51 83.5t-33 73.5q-24 72 -24 174q0 223 126 361q124 140 336 139q164 -1 295 -105zM740 784q-98 84 -216 84q-136 0 -233 -94 q-99 -92 -99 -295q0 -139 60 -241zM307 172q94 -80 213 -80q144 0 238 100q92 102 92 283q0 142 -56 242z" />
<glyph unicode="&#xd9;" horiz-adv-x="968" d="M733 960h127v-554q0 -119 -24.5 -211.5t-113.5 -151.5q-88 -59 -236 -59q-203 0 -291.5 99t-88.5 323v554h128v-554q0 -94 14 -160t71.5 -107t155.5 -41q138 0 198 64t60 244v554zM535 1052h-96l-149 182h155z" />
<glyph unicode="&#xda;" horiz-adv-x="968" d="M733 960h127v-554q0 -119 -24.5 -211.5t-113.5 -151.5q-88 -59 -236 -59q-203 0 -291.5 99t-88.5 323v554h128v-554q0 -94 14 -160t71.5 -107t155.5 -41q138 0 198 64t60 244v554zM464 1236h153l-143 -184h-98z" />
<glyph unicode="&#xdb;" horiz-adv-x="968" d="M733 960h127v-554q0 -119 -24.5 -211.5t-113.5 -151.5q-88 -59 -236 -59q-203 0 -291.5 99t-88.5 323v554h128v-554q0 -94 14 -160t71.5 -107t155.5 -41q138 0 198 64t60 244v554zM402 1052h-136l142 184h126l146 -184h-131l-73 113z" />
<glyph unicode="&#xdc;" horiz-adv-x="968" d="M733 960h127v-554q0 -119 -24.5 -211.5t-113.5 -151.5q-88 -59 -236 -59q-203 0 -291.5 99t-88.5 323v554h128v-554q0 -94 14 -160t71.5 -107t155.5 -41q138 0 198 64t60 244v554zM291 1185h123v-134h-123v134zM534 1185h124v-134h-124v134z" />
<glyph unicode="&#xdd;" horiz-adv-x="895" d="M375 0v408l-371 552h154l190 -288q50 -78 98 -164q43 78 105 170l187 282h146l-382 -552v-408h-127zM464 1236h153l-143 -184h-98z" />
<glyph unicode="&#xde;" horiz-adv-x="895" d="M104 960h128v-194h235q125 0 197 -22q74 -20 122 -90q52 -68 52 -166q0 -116 -76 -204q-74 -90 -285 -90h-245v-194h-128v960zM479 309q227 1 227 175q0 64 -32 104q-33 43 -72 53q-39 11 -127 11h-243v-343h247z" />
<glyph unicode="&#xdf;" horiz-adv-x="819" d="M100 656q0 98 21 161q18 66 88 113q68 47 172 47q110 1 176 -55q65 -56 65 -134q0 -68 -52 -155q-46 -82 -46 -111q0 -24 16 -45q8 -10 28 -25.5t48 -33.5q110 -74 136 -119t26 -94q0 -80 -61 -152q-63 -69 -179 -69q-84 0 -145 42q-61 46 -92 116l101 46 q58 -106 134 -106q48 0 84 32q38 34 38 80q0 37 -17 58q-16 22 -78 64q-114 80 -137 116q-24 39 -24 72q0 47 50 135q58 96 58 137t-37 72q-34 32 -96 32q-70 0 -115 -44q-45 -43 -45 -187v-649h-117v656z" />
<glyph unicode="&#xe0;" d="M542 86q-118 -102 -256 -102q-98 0 -167.5 49t-69.5 151q0 70 36 116t89 68q54 22 148 34q144 16 210 40q0 68 -9 97t-47 52t-112 23q-72 0 -116 -26q-44 -24 -64 -106l-114 16q43 212 313 212q112 0 171.5 -30.5t78.5 -80.5q19 -51 19 -151l2 -304q0 -76 36 -144h-125 q-19 37 -23 86zM532 348q-66 -26 -192 -43q-112 -16 -139 -49q-27 -34 -27 -70q0 -110 142 -110q216 0 216 229v43zM434 782h-96l-149 182h155z" />
<glyph unicode="&#xe1;" d="M542 86q-118 -102 -256 -102q-98 0 -167.5 49t-69.5 151q0 70 36 116t89 68q54 22 148 34q144 16 210 40q0 68 -9 97t-47 52t-112 23q-72 0 -116 -26q-44 -24 -64 -106l-114 16q43 212 313 212q112 0 171.5 -30.5t78.5 -80.5q19 -51 19 -151l2 -304q0 -76 36 -144h-125 q-19 37 -23 86zM532 348q-66 -26 -192 -43q-112 -16 -139 -49q-27 -34 -27 -70q0 -110 142 -110q216 0 216 229v43zM394 966h153l-143 -184h-98z" />
<glyph unicode="&#xe2;" d="M542 86q-118 -102 -256 -102q-98 0 -167.5 49t-69.5 151q0 70 36 116t89 68q54 22 148 34q144 16 210 40q0 68 -9 97t-47 52t-112 23q-72 0 -116 -26q-44 -24 -64 -106l-114 16q43 212 313 212q112 0 171.5 -30.5t78.5 -80.5q19 -51 19 -151l2 -304q0 -76 36 -144h-125 q-19 37 -23 86zM532 348q-66 -26 -192 -43q-112 -16 -139 -49q-27 -34 -27 -70q0 -110 142 -110q216 0 216 229v43zM302 782h-136l142 184h126l146 -184h-131l-73 113z" />
<glyph unicode="&#xe3;" d="M542 86q-118 -102 -256 -102q-98 0 -167.5 49t-69.5 151q0 70 36 116t89 68q54 22 148 34q144 16 210 40q0 68 -9 97t-47 52t-112 23q-72 0 -116 -26q-44 -24 -64 -106l-114 16q43 212 313 212q112 0 171.5 -30.5t78.5 -80.5q19 -51 19 -151l2 -304q0 -76 36 -144h-125 q-19 37 -23 86zM532 348q-66 -26 -192 -43q-112 -16 -139 -49q-27 -34 -27 -70q0 -110 142 -110q216 0 216 229v43zM150 798q0 70 39 110q37 40 94 40q41 0 111 -34q38 -20 61 -21q43 -1 49 57h84q0 -74 -36 -112q-36 -36 -90 -37q-41 1 -109 37q-45 22 -65 22 q-50 0 -50 -62h-88z" />
<glyph unicode="&#xe4;" d="M542 86q-118 -102 -256 -102q-98 0 -167.5 49t-69.5 151q0 70 36 116t89 68q54 22 148 34q144 16 210 40q0 68 -9 97t-47 52t-112 23q-72 0 -116 -26q-44 -24 -64 -106l-114 16q43 212 313 212q112 0 171.5 -30.5t78.5 -80.5q19 -51 19 -151l2 -304q0 -76 36 -144h-125 q-19 37 -23 86zM532 348q-66 -26 -192 -43q-112 -16 -139 -49q-27 -34 -27 -70q0 -110 142 -110q216 0 216 229v43zM191 966h123v-134h-123v134zM434 966h124v-134h-124v134z" />
<glyph unicode="&#xe5;" d="M542 86q-118 -102 -256 -102q-98 0 -167.5 49t-69.5 151q0 70 36 116t89 68q54 22 148 34q144 16 210 40q0 68 -9 97t-47 52t-112 23q-72 0 -116 -26q-44 -24 -64 -106l-114 16q43 212 313 212q112 0 171.5 -30.5t78.5 -80.5q19 -51 19 -151l2 -304q0 -76 36 -144h-125 q-19 37 -23 86zM532 348q-66 -26 -192 -43q-112 -16 -139 -49q-27 -34 -27 -70q0 -110 142 -110q216 0 216 229v43zM222 1002q0 -18 6 -34t18 -27t28 -17t32 -6t31.5 6t27 17t17.5 27t6 34q0 16 -6 31t-17.5 26.5t-27 18t-31.5 6.5t-32 -6.5t-28 -18t-18 -26.5t-6 -31z M146 1002q0 32 11 62t33 52t52 35t64 13q33 0 62.5 -13t52 -35t35 -52t12.5 -62q0 -35 -12.5 -64.5t-35 -52.5t-52.5 -35t-62 -12q-34 0 -64 12t-52 35t-33 52.5t-11 64.5z" />
<glyph unicode="&#xe6;" horiz-adv-x="1194" d="M1136 213q-32 -110 -112 -170q-82 -59 -194 -59q-162 0 -258 130q-132 -130 -290 -130q-124 0 -180 63q-58 63 -57 135q-1 74 55 138q52 62 252 86q53 8 94.5 16t71.5 16v27q0 83 -34 115q-34 34 -120 34q-70 0 -118 -22q-50 -22 -68 -113l-114 15q40 218 300 218 q180 0 242 -94q86 94 224 94q156 0 233 -108q75 -108 75 -246v-40h-503q1 -88 21 -134q22 -46 71 -74q51 -28 107 -28q142 0 180 148zM1018 416q-16 198 -188 198q-90 0 -144 -59q-51 -59 -51 -139h383zM520 348q-108 -34 -229 -51q-121 -19 -121 -111q0 -48 35 -78 q34 -30 100 -30q77 0 133 38q55 38 68 80q14 44 14 152z" />
<glyph unicode="&#xe7;" horiz-adv-x="671" d="M542 256l118 -16q-18 -118 -96 -187t-196 -69q-150 0 -232.5 96t-82.5 266q0 188 90.5 276t224.5 88q236 0 279 -218l-115 -19q-33 141 -157 141q-201 0 -201 -266t192 -266q152 0 176 174zM320 14h86l-21 -70q56 -6 84 -32q29 -28 29 -64q0 -48 -48 -86 q-44 -38 -142 -38q-48 0 -95 8l9 78l61 -4q104 0 104 48q0 46 -102 46z" />
<glyph unicode="&#xe8;" d="M565 223l121 -14q-60 -225 -305 -225q-94 0 -166.5 37t-119 116.5t-46.5 204.5q0 106 36 189t109.5 131t180.5 48q110 0 183 -54t102.5 -133t29.5 -205h-520q8 -108 63.5 -172t147.5 -64q133 0 184 141zM178 414h387q-8 100 -60.5 150t-129.5 50q-82 0 -137.5 -55 t-59.5 -145zM428 782h-96l-149 182h155z" />
<glyph unicode="&#xe9;" d="M565 223l121 -14q-60 -225 -305 -225q-94 0 -166.5 37t-119 116.5t-46.5 204.5q0 106 36 189t109.5 131t180.5 48q110 0 183 -54t102.5 -133t29.5 -205h-520q8 -108 63.5 -172t147.5 -64q133 0 184 141zM178 414h387q-8 100 -60.5 150t-129.5 50q-82 0 -137.5 -55 t-59.5 -145zM388 966h153l-143 -184h-98z" />
<glyph unicode="&#xea;" d="M565 223l121 -14q-60 -225 -305 -225q-94 0 -166.5 37t-119 116.5t-46.5 204.5q0 106 36 189t109.5 131t180.5 48q110 0 183 -54t102.5 -133t29.5 -205h-520q8 -108 63.5 -172t147.5 -64q133 0 184 141zM178 414h387q-8 100 -60.5 150t-129.5 50q-82 0 -137.5 -55 t-59.5 -145zM302 782h-136l142 184h126l146 -184h-131l-73 113z" />
<glyph unicode="&#xeb;" d="M565 223l121 -14q-60 -225 -305 -225q-94 0 -166.5 37t-119 116.5t-46.5 204.5q0 106 36 189t109.5 131t180.5 48q110 0 183 -54t102.5 -133t29.5 -205h-520q8 -108 63.5 -172t147.5 -64q133 0 184 141zM178 414h387q-8 100 -60.5 150t-129.5 50q-82 0 -137.5 -55 t-59.5 -145zM185 966h123v-134h-123v134zM428 966h124v-134h-124v134z" />
<glyph unicode="&#xec;" horiz-adv-x="372" d="M129 696h119v-696h-119v696zM279 782h-96l-149 182h155z" />
<glyph unicode="&#xed;" horiz-adv-x="372" d="M129 696h119v-696h-119v696zM208 966h153l-143 -184h-98z" />
<glyph unicode="&#xee;" horiz-adv-x="372" d="M129 696h119v-696h-119v696zM126 782h-136l142 184h126l146 -184h-131l-73 113z" />
<glyph unicode="&#xef;" horiz-adv-x="372" d="M129 696h119v-696h-119v696zM15 966h123v-134h-123v134zM258 966h124v-134h-124v134z" />
<glyph unicode="&#xf0;" d="M344 960l44 -34l38 -31l139 65l31 -65l-112 -55q208 -242 208 -498q0 -168 -90 -262q-90 -96 -232 -96q-88 0 -156 34.5t-118 110.5q-50 74 -49 211q0 172 86 264q84 92 211 92q70 0 140 -38q-43 86 -95 138l-178 -81l-31 65l158 74q-60 54 -135 106h141zM570 346 q0 140 -64 199q-66 61 -142 61q-82 0 -138 -66q-58 -66 -58 -204q0 -126 58 -192q56 -64 142 -64q84 0 144 68q58 70 58 198z" />
<glyph unicode="&#xf1;" d="M88 0v696h106v-98q76 112 222 112q94 0 147 -35.5t72 -91t19 -155.5v-428h-118v424q0 186 -145 186q-184 0 -184 -229v-381h-119zM154 798q0 70 39 110q37 40 94 40q41 0 111 -34q38 -20 61 -21q43 -1 49 57h84q0 -74 -36 -112q-36 -36 -90 -37q-41 1 -109 37 q-45 22 -65 22q-50 0 -50 -62h-88z" />
<glyph unicode="&#xf2;" d="M45 348q0 194 99.5 278t225.5 84q150 0 238 -96t88 -256q0 -192 -94 -283t-232 -91q-170 0 -247.5 106t-77.5 258zM166 348q0 -122 53 -194t151 -72q102 0 154 77t52 193q0 104 -50 183t-156 79q-102 0 -153 -75.5t-51 -190.5zM405 782h-96l-149 182h155z" />
<glyph unicode="&#xf3;" d="M45 348q0 194 99.5 278t225.5 84q150 0 238 -96t88 -256q0 -192 -94 -283t-232 -91q-170 0 -247.5 106t-77.5 258zM166 348q0 -122 53 -194t151 -72q102 0 154 77t52 193q0 104 -50 183t-156 79q-102 0 -153 -75.5t-51 -190.5zM400 966h153l-143 -184h-98z" />
<glyph unicode="&#xf4;" d="M45 348q0 194 99.5 278t225.5 84q150 0 238 -96t88 -256q0 -192 -94 -283t-232 -91q-170 0 -247.5 106t-77.5 258zM166 348q0 -122 53 -194t151 -72q102 0 154 77t52 193q0 104 -50 183t-156 79q-102 0 -153 -75.5t-51 -190.5zM302 782h-136l142 184h126l146 -184h-131 l-73 113z" />
<glyph unicode="&#xf5;" d="M45 348q0 194 99.5 278t225.5 84q150 0 238 -96t88 -256q0 -192 -94 -283t-232 -91q-170 0 -247.5 106t-77.5 258zM166 348q0 -122 53 -194t151 -72q102 0 154 77t52 193q0 104 -50 183t-156 79q-102 0 -153 -75.5t-51 -190.5zM150 798q0 70 39 110q37 40 94 40 q41 0 111 -34q38 -20 61 -21q43 -1 49 57h84q0 -74 -36 -112q-36 -36 -90 -37q-41 1 -109 37q-45 22 -65 22q-50 0 -50 -62h-88z" />
<glyph unicode="&#xf6;" d="M45 348q0 194 99.5 278t225.5 84q150 0 238 -96t88 -256q0 -192 -94 -283t-232 -91q-170 0 -247.5 106t-77.5 258zM166 348q0 -122 53 -194t151 -72q102 0 154 77t52 193q0 104 -50 183t-156 79q-102 0 -153 -75.5t-51 -190.5zM191 966h123v-134h-123v134zM434 966h124 v-134h-124v134z" />
<glyph unicode="&#xf7;" horiz-adv-x="737" d="M301 740h133v-136h-133v136zM51 420v108h633v-108h-633zM301 342h133v-133h-133v133z" />
<glyph unicode="&#xf8;" horiz-adv-x="819" d="M670 740l63 -48l-69 -90q76 -94 76 -256q0 -112 -37 -192t-115 -126q-76 -44 -174 -44q-108 0 -184 53l-70 -88l-62 47l72 90q-82 92 -82 252q0 202 100 288t222 86q96 0 196 -56zM538 568q-62 46 -124 46q-86 0 -146 -67q-60 -66 -59 -199q1 -98 35 -166zM295 123 q49 -41 115 -41q80 0 145 60q63 59 63 206q0 90 -30 158z" />
<glyph unicode="&#xf9;" d="M545 0v102q-81 -118 -221 -118q-92 0 -146.5 38t-73 92t-18.5 150v432h119v-387q0 -82 6 -123.5t40.5 -70.5t94.5 -29q88 0 137 51t49 187v372h117v-696h-104zM426 782h-96l-149 182h155z" />
<glyph unicode="&#xfa;" d="M545 0v102q-81 -118 -221 -118q-92 0 -146.5 38t-73 92t-18.5 150v432h119v-387q0 -82 6 -123.5t40.5 -70.5t94.5 -29q88 0 137 51t49 187v372h117v-696h-104zM374 966h153l-143 -184h-98z" />
<glyph unicode="&#xfb;" d="M545 0v102q-81 -118 -221 -118q-92 0 -146.5 38t-73 92t-18.5 150v432h119v-387q0 -82 6 -123.5t40.5 -70.5t94.5 -29q88 0 137 51t49 187v372h117v-696h-104zM292 782h-136l142 184h126l146 -184h-131l-73 113z" />
<glyph unicode="&#xfc;" d="M545 0v102q-81 -118 -221 -118q-92 0 -146.5 38t-73 92t-18.5 150v432h119v-387q0 -82 6 -123.5t40.5 -70.5t94.5 -29q88 0 137 51t49 187v372h117v-696h-104zM181 966h123v-134h-123v134zM424 966h124v-134h-124v134z" />
<glyph unicode="&#xfd;" horiz-adv-x="671" d="M84 -268l-14 110q39 -10 67 -10q58 0 83.5 27t61.5 135l2 4l-264 698h130l143 -403q30 -84 51 -162q18 80 49 160l147 405h120l-264 -708q-60 -158 -107 -214t-129 -56q-34 0 -76 14zM355 966h153l-143 -184h-98z" />
<glyph unicode="&#xfe;" d="M88 960h119v-338q81 90 191 90q136 0 216 -100q78 -100 78 -260q0 -166 -86 -266q-84 -102 -217 -102q-47 0 -88 16t-94 72v-338h-119v1226zM194 344q0 -132 56 -198q55 -64 131 -64q70 0 131 60q60 64 60 212q0 145 -60 205q-58 59 -125 59q-68 0 -129 -63 q-64 -63 -64 -211z" />
<glyph unicode="&#xff;" horiz-adv-x="671" d="M84 -268l-14 110q39 -10 67 -10q58 0 83.5 27t61.5 135l2 4l-264 698h130l143 -403q30 -84 51 -162q18 80 49 160l147 405h120l-264 -708q-60 -158 -107 -214t-129 -56q-34 0 -76 14zM162 966h123v-134h-123v134zM405 966h124v-134h-124v134z" />
<glyph unicode="&#x131;" horiz-adv-x="372" d="M129 696h119v-696h-119v696z" />
<glyph unicode="&#x152;" horiz-adv-x="1341" d="M1298 0h-563v140q-88 -156 -264 -156q-187 0 -287 137q-98 135 -98 361q0 216 92 354q94 142 293 141q174 1 264 -145v128h545v-112h-426v-293h391v-115h-391v-328h444v-112zM471 874q-100 0 -178 -90t-78 -313q0 -202 78 -295q76 -90 178 -90q94 0 174 84q82 86 82 318 q1 200 -75 292q-74 94 -181 94z" />
<glyph unicode="&#x153;" horiz-adv-x="1267" d="M641 114q-98 -130 -260 -130q-90 0 -161.5 37t-119.5 114q-48 80 -47 205q1 182 91 276q90 96 239 96q172 0 258 -132q92 132 256 132q143 0 231 -98t88 -296h-514q0 -94 54 -166q54 -70 154 -70q136 0 180 146l118 -17q-62 -227 -300 -227q-182 0 -267 130zM174 348 q0 -134 60 -200t145 -66q84 0 143 68q62 70 62 200q0 134 -62 199q-59 65 -143 65q-83 0 -143 -67q-62 -68 -62 -199zM1092 414q0 86 -54 143t-135 57q-90 0 -143 -61q-52 -61 -52 -139h384z" />
<glyph unicode="&#x160;" horiz-adv-x="895" d="M62 309l118 11q14 -114 92 -168t193 -54q118 0 177.5 48t59.5 114q0 70 -55 107t-237 77q-184 43 -249 110.5t-65 157.5q0 129 99.5 197t238.5 68q178 0 267 -82t95 -205l-122 -10q-18 184 -234 184q-222 0 -221 -143q0 -60 46.5 -91.5t182.5 -61.5q135 -31 208 -58.5 t121.5 -89.5t48.5 -150q0 -136 -105 -211t-252 -75q-203 0 -304 92t-103 233zM518 1236h133l-145 -184h-127l-142 184h136l74 -112z" />
<glyph unicode="&#x161;" horiz-adv-x="671" d="M41 207l117 19q20 -144 180 -144t160 110q0 39 -29 58.5t-127 44.5q-106 26 -157.5 45.5t-87 63.5t-35.5 108q0 86 68 142t188 56q248 0 276 -194l-117 -16q-15 114 -151 114q-152 0 -152 -90q0 -35 27 -53.5t137 -48.5q123 -33 167 -50.5t78.5 -61.5t34.5 -105 q0 -100 -77.5 -160.5t-202.5 -60.5q-256 0 -297 223zM387 966h133l-145 -184h-127l-142 184h136l74 -112z" />
<glyph unicode="&#x178;" horiz-adv-x="895" d="M375 0v408l-371 552h154l190 -288q50 -78 98 -164q43 78 105 170l187 282h146l-382 -552v-408h-127zM260 1183h123v-134h-123v134zM503 1183h124v-134h-124v134z" />
<glyph unicode="&#x17d;" horiz-adv-x="819" d="M26 0v119l592 729h-536v112h688v-112l-598 -736h614v-112h-760zM505 1212h133l-145 -184h-127l-142 184h136l74 -112z" />
<glyph unicode="&#x17e;" horiz-adv-x="671" d="M26 0v96l443 508q-76 -4 -133 -4h-283v96h567v-78l-448 -522q80 6 148 6h321v-102h-615zM401 966h133l-145 -184h-127l-142 184h136l74 -112z" />
<glyph unicode="&#x192;" d="M53 -164l59 -10q24 -4 42 -4q39 0 55 20q17 18 29 78l114 684h-131l17 92h130l17 86q6 36 13.5 63t13.5 46q16 33 55 59q39 28 103 29q52 -1 140 -27l-22 -98q-66 14 -100 14q-36 0 -56 -18q-18 -16 -30 -86l-12 -68h132l-16 -92h-135l-125 -714q-16 -98 -57 -136 q-39 -36 -113 -36q-64 0 -146 18z" />
<glyph unicode="&#x2c6;" horiz-adv-x="446" d="M152 782h-136l142 184h126l146 -184h-131l-73 113z" />
<glyph unicode="&#x2c7;" horiz-adv-x="446" d="M307 966h133l-145 -184h-127l-142 184h136l74 -112z" />
<glyph unicode="&#x2d8;" horiz-adv-x="317" d="M53 1067q2 -20 11.5 -37.5t23.5 -30t33 -18.5t39 -6t38.5 6t33 18.5t23.5 29.5t11 38h92q0 -18 -4 -40.5t-13 -44.5t-24.5 -43t-37 -38t-51.5 -26t-68 -9t-68 9t-52 26t-36 38t-23 43t-12.5 44t-3.5 41h88z" />
<glyph unicode="&#x2d9;" horiz-adv-x="317" d="M240 1044v-170h-160v170h160z" />
<glyph unicode="&#x2da;" horiz-adv-x="317" d="M76 1002q0 -18 6 -34t18 -27t28 -17t32 -6t31.5 6t27 17t17.5 27t6 34q0 16 -6 31t-17.5 26.5t-27 18t-31.5 6.5t-32 -6.5t-28 -18t-18 -26.5t-6 -31zM0 1002q0 32 11 62t33 52t52 35t64 13q33 0 62.5 -13t52 -35t35 -52t12.5 -62q0 -35 -12.5 -64.5t-35 -52.5t-52.5 -35 t-62 -12q-34 0 -64 12t-52 35t-33 52.5t-11 64.5z" />
<glyph unicode="&#x2db;" horiz-adv-x="317" d="M328 -284q-14 -8 -34 -14l-41 -10q-22 -5 -42.5 -7.5t-38.5 -2.5q-39 0 -65.5 11.5t-43 29t-22.5 39.5t-6 46q0 64 44 114t132 78h96q-47 -28 -75.5 -53t-44 -44t-21.5 -37t-6 -34q0 -24 15 -41t42 -17q24 0 42.5 6.5t41.5 16.5z" />
<glyph unicode="&#x2dc;" horiz-adv-x="446" d="M4 798q0 70 39 110q37 40 94 40q41 0 111 -34q38 -20 61 -21q43 -1 49 57h84q0 -74 -36 -112q-36 -36 -90 -37q-41 1 -109 37q-45 22 -65 22q-50 0 -50 -62h-88z" />
<glyph unicode="&#x2dd;" horiz-adv-x="317" d="M262 1067h199l-141 -205h-136zM24 1067h199l-141 -205h-131z" />
<glyph unicode="&#x3a9;" horiz-adv-x="1102" d="M473 0h-424v234h25q6 -26 14 -44t19.5 -27t28 -12t40.5 -3h213v20q-57 16 -100 37t-76 45q-30 24 -56 59t-43.5 75t-26.5 84t-9 87q0 108 55 207q29 49 71 87t95 64.5t116.5 39.5t135.5 13q74 0 135.5 -12t114.5 -38q109 -56 165 -154q29 -50 43.5 -100t14.5 -107 q0 -82 -37 -170q-18 -43 -42.5 -76t-57.5 -58t-75 -46t-97 -37v-20h211q27 0 43 3t26.5 12t17.5 27t15 44h24v-234h-424l24 203q40 16 73 38.5t55 53.5q74 102 74 262q0 90 -21.5 158.5t-60.5 113.5t-94.5 68t-122.5 23q-146 0 -215 -82q-90 -98 -90 -279q0 -104 27 -181 t79 -122q16 -16 40 -28.5t54 -24.5z" />
<glyph unicode="&#x3c0;" horiz-adv-x="725" d="M696 641v-103h-164l-14 -210q-2 -28 -3 -52t-1 -44q0 -49 6 -79.5t16 -42.5q24 -20 56 -20q68 0 80 84h24q-22 -188 -154 -188q-30 0 -55.5 8t-43 26.5t-27.5 46t-10 64.5q0 24 3 75.5t11 131.5l18 200h-147q-8 -129 -17.5 -219.5t-17.5 -152.5q-20 -118 -47 -152 q-12 -14 -28.5 -21t-38.5 -7q-14 0 -29 4t-25 12t-16 19.5t-6 27.5q0 29 38 80q26 37 47 75t35 80q14 39 25 102.5t17 151.5h-50q-28 0 -49 -6t-37 -19t-30.5 -31t-26.5 -42h-27q12 36 25 67t29 56t32 40t33 23q16 8 46 11.5t75 3.5h448z" />
<glyph unicode="&#xe00;" horiz-adv-x="205" />
<glyph unicode="&#xe01;" horiz-adv-x="776" d="M782 0h-135v561q-1 154 -199 154q-102 1 -157 -43q80 -30 129 -82q-60 -20 -99 -73t-39 -111v-406h-134v418q0 118 94 166q-66 52 -174 72q136 170 372 170q342 0 342 -273v-553z" />
<glyph unicode="&#xe02;" horiz-adv-x="887" d="M282 0v116h74v273q0 45 46 137q28 64 28 92q0 110 -110 111q-45 0 -74 -8q30 0 64 -33.5t34 -93.5q0 -74 -49 -113t-105 -39q-162 0 -162 170q0 110 83 166t190 56q114 0 186 -58t72 -154q-1 -32 -33 -114q-34 -84 -34 -123v-269h134v703h136v-819h-480zM188 534 q58 0 58 58q0 57 -58 57t-57 -57q-1 -58 57 -58z" />
<glyph unicode="&#xe03;" horiz-adv-x="903" d="M424 696l-82 -57l-94 63q-27 0 -47.5 -16t-20.5 -32q72 0 107 -36t35 -92q0 -60 -38 -96.5t-100 -36.5q-60 0 -104.5 43t-44.5 127q0 92 58.5 170.5t162.5 90.5l84 -66l92 66q154 -54 154 -200q0 -36 -12 -63q-43 -88 -53.5 -115.5t-10.5 -60.5v-269h135v703h135v-819 h-479v116h74v273q0 45 45 133q14 29 30 80q2 53 -26 94zM184 576q-50 0 -49 -50q-1 -52 49 -51q50 -1 50 51q0 50 -50 50z" />
<glyph unicode="&#xe04;" horiz-adv-x="923" d="M379 336l-111 -336h-143v545q0 133 94.5 206t245.5 73q340 0 340 -279v-545h-135v540q0 174 -207 175q-92 0 -147.5 -47.5t-55.5 -127.5v-165l-8 -86l68 197q41 116 157 116q64 0 102.5 -40t38.5 -93q0 -76 -42 -118t-109 -42q-58 0 -88 27zM473 516q-61 0 -61 -62 q0 -64 61 -63q61 -1 61 63q0 62 -61 62z" />
<glyph unicode="&#xe05;" horiz-adv-x="936" d="M256 316l-8 -88l82 220q44 116 160 117q58 0 99.5 -36.5t41.5 -96.5q0 -78 -44.5 -119t-107.5 -41q-53 0 -88 27l-115 -299h-155v574q0 94 57.5 169t151.5 85l145 -70l145 70q98 -4 154 -70t56 -184v-574h-136v586q0 104 -82 120l-137 -71l-135 71q-84 -16 -84 -120v-270 zM486 479q-62 0 -62 -61q0 -64 62 -64t61 64q1 61 -61 61z" />
<glyph unicode="&#xe06;" horiz-adv-x="1034" d="M518 352q56 -2 153 -66t125 -128v661h136v-819h-154q-49 96 -133 164t-127 68v-99q0 -145 -150 -145q-88 0 -132 49t-44 133q0 182 191 182v136q-1 51 59 118q20 18 40 46q0 12 -16 28t-34 20l-82 -57l-94 63q-22 0 -45 -14t-23 -34q72 0 107 -36t35 -92q0 -68 -42 -100 t-96 -32q-51 0 -100 39t-49 131t58.5 170t162.5 90l84 -66l92 66q41 -6 111.5 -59.5t70.5 -86.5q0 -28 -50 -86q-54 -62 -54 -112v-132zM192 580q-48 0 -48 -50q0 -52 48 -51q50 -1 50 51q0 50 -50 50zM316 180q0 -47 7 -64.5t29 -17.5q30 0 31 60v80q-63 0 -67 -58z" />
<glyph unicode="&#xe07;" horiz-adv-x="682" d="M430 0l-418 426l88 78l342 -350v368q-94 0 -145 31t-51 117q0 56 38 105t122 49q64 0 118 -38t54 -137v-649h-148zM406 723q-56 1 -56 -55q0 -58 56 -58t55 58q1 56 -55 55z" />
<glyph unicode="&#xe08;" horiz-adv-x="858" d="M53 430v102q0 142 106.5 217t254.5 75q172 0 253 -81t81 -198v-545h-144l-116 318q-38 -26 -90 -27q-68 0 -109 37.5t-41 101.5q0 154 145 154q121 0 160 -117l67 -203l-8 111v165q0 80 -56 127.5t-150 47.5q-224 -1 -224 -187v-98h-129zM393 372q61 0 61 64q0 62 -61 62 t-61 -62q0 -64 61 -64z" />
<glyph unicode="&#xe09;" horiz-adv-x="962" d="M606 140q-114 -88 -147 -140h-145v203q0 36 20 63q-41 0 -89.5 32t-48.5 110q0 68 46 107.5t110 39.5q66 0 109 -40.5t43 -102.5q0 -44 -29 -96q-27 -50 -27 -86v-95q114 115 244 174v179q0 106 -69.5 165t-188.5 59q-70 0 -120 -15t-79.5 -45t-51 -85t-21.5 -106h-121 q18 363 395 363q154 0 273 -76t119 -226v-213l-17 -25q101 -36 101 -142q0 -68 -37 -112t-115 -44q-58 0 -106 36t-48 118zM348 467q-57 1 -57 -57q0 -60 57 -60q60 0 60 60q0 58 -60 57zM758 196q-58 0 -58 -59t58 -59q59 0 59 59t-59 59z" />
<glyph unicode="&#xe0a;" horiz-adv-x="889" d="M246 721q36 0 67 -39t31 -88q0 -76 -51 -114t-109 -38q-158 0 -158 168q0 104 82 164t199 60q133 0 233 -60l25 -14l168 178l91 -78l-156 -160l94 -80v-620h-480v116h74v338q0 78 31 114l99 106q-66 55 -168 55q-36 0 -72 -8zM186 534q58 0 58 58q0 57 -58 57t-57 -57 q-1 -58 57 -58zM492 448v-332h134v474l-36 26l-60 -67q-38 -43 -38 -101z" />
<glyph unicode="&#xe0b;" horiz-adv-x="893" d="M450 704l-92 -63l-114 76q-24 0 -46 -15.5t-22 -33.5q72 0 107 -36t35 -92q0 -59 -39 -95.5t-99 -36.5q-59 0 -104.5 44t-45.5 126q0 94 60 171t162 85l102 -74l107 76l121 -76l168 178l90 -78l-156 -160l94 -80v-620h-479v116h73v338q0 80 32 114l98 106zM508 448v-332 h135v474l-37 26l-59 -67q-14 -16 -37 -72q-2 -9 -2 -29zM180 590q-49 0 -49 -50t49 -50q50 0 50 50t-50 50z" />
<glyph unicode="&#xe0c;" horiz-adv-x="1282" d="M643 282v279q-1 154 -199 154q-102 1 -158 -43q74 -24 130 -82q-59 -20 -98.5 -74t-39.5 -110v-111q121 0 159 -44.5t38 -104.5q0 -58 -38.5 -106t-120.5 -48q-72 0 -122 41t-50 133v252q0 118 94 166q-64 50 -174 72q133 170 372 170q342 0 342 -273v-231 q150 -18 246 -134v631h135v-819h-135q-6 45 -63.5 111.5t-108.5 86.5q8 -24 8 -61q0 -64 -41 -106.5t-111 -42.5q-64 0 -110.5 35t-46.5 112q0 50 22.5 91.5t69.5 55.5zM316 92q54 0 54 58q0 56 -54 55q-56 1 -56 -55q0 -58 56 -58zM704 84q56 0 56 58q0 54 -56 54t-55 -54 q-1 -58 55 -58z" />
<glyph unicode="&#xe0d;" horiz-adv-x="1282" d="M643 0v561q-1 154 -199 154q-102 1 -158 -43q74 -24 130 -82q-53 -18 -95.5 -68t-42.5 -116v-111q121 0 159 -44.5t38 -104.5q0 -58 -38.5 -106t-120.5 -48q-72 0 -122 41t-50 133v252q0 118 94 166q-64 50 -174 72q33 53 134 111.5t238 58.5q342 0 342 -273v-437h246 v703h135v-819h-516zM316 92q54 0 54 58q0 56 -54 55q-56 1 -56 -55q0 -58 56 -58zM1030 -84h125q0 -116 -99.5 -198t-234.5 -82q-82 0 -140.5 35.5t-58.5 115.5q0 64 41 100.5t103 36.5q68 0 103.5 -40t35.5 -89q0 -26 -10 -43q53 0 94 43t41 121zM764 -156q-56 0 -56 -55 t56 -55q55 0 55 55t-55 55z" />
<glyph unicode="&#xe0e;" horiz-adv-x="993" d="M742 -184v745q0 154 -200 154q-102 1 -157 -43q74 -24 129 -82q-121 -38 -121 -184v-248q0 -92 -51 -133t-121 -41q-74 0 -116.5 44t-42.5 109q0 60 37.5 104.5t158.5 44.5v132q0 132 78 166q-64 50 -174 72q24 47 129 108.5t243 61.5q342 0 342 -273v-783l-184 -204 l-258 139q-24 -143 -174 -143q-82 0 -127 48t-45 120q0 78 47 121t121 43q51 0 86 -19l6 55h129v-12q0 -34 -14 -96l195 -106zM221 84q55 0 55 58q0 54 -55 54t-55 -54q0 -58 55 -58zM254 -211q-60 1 -60 -61q0 -60 60 -60t60 60q0 62 -60 61z" />
<glyph unicode="&#xe0f;" horiz-adv-x="1001" d="M760 -188v749q0 154 -199 154q-101 1 -157 -43q72 -22 128 -82q-120 -40 -120 -184v-248q0 -92 -50 -133t-122 -41t-116 44t-44 109q0 60 38 104.5t158 44.5v132q0 132 78 166q-66 52 -174 72q136 170 373 170q342 0 342 -273v-783l-185 -206l-124 127l-117 -127 l-103 118q-6 -47 -52 -80.5t-105 -33.5q-64 0 -117 42t-53 122t48 123t124 43q49 0 82 -19l6 55h129v-14q0 -43 -10 -86l-4 -22l63 -64l105 100l110 -112zM240 84q56 0 55 58q1 54 -55 54t-56 -54q0 -58 56 -58zM205 -207q-59 1 -59 -61q0 -60 59 -60t59 60q0 62 -59 61z " />
<glyph unicode="&#xe10;" horiz-adv-x="817" d="M375 176q-22 -22 -76 -22q-147 0 -147 155q0 62 44 101.5t103 39.5q129 0 160 -134l45 -200h45l29 248q0 51 -6.5 75t-33 45.5t-93.5 37.5t-163 16q-110 0 -200 -20q0 162 60.5 232.5t195.5 70.5q22 0 98 -6q78 -6 100 -6q54 0 67 10.5t13 56.5h134q0 -90 -29 -132 t-141 -42q-6 0 -119 6l-37 2q-84 4 -88 5q-108 0 -108 -78q53 8 110 8q174 0 275.5 -57.5t101.5 -169.5q-1 -26 -5 -58l-48 -360h-246zM297 360q-57 0 -57 -59t57 -59q59 0 59 59t-59 59zM303 -522l-111 98q-10 -41 -55 -75.5t-94 -34.5q-58 0 -100.5 41t-42.5 116 q0 78 47 117t102 39q37 -1 65 -13q8 62 9 74v68h129q0 -92 -12 -158l-8 -36q32 -32 71 -84l61 58l99 -75q16 -13 41 -13q30 0 30 28v44q-154 0 -153 130q0 45 32.5 89.5t104.5 44.5q64 0 106 -45t42 -129v-116q0 -158 -150 -158q-40 0 -66 16l-75 50zM518 -146 q-51 0 -51 -50q0 -52 51 -52q52 0 52 52q0 50 -52 50zM-12 -381q0 -57 55 -57q63 0 63 66q0 58 -55 58q-63 0 -63 -67z" />
<glyph unicode="&#xe11;" horiz-adv-x="1114" d="M463 662q0 12 -13.5 25t-25.5 13l-84 -59l-94 63q-58 0 -68 -48q72 0 107 -36t35 -92q0 -60 -38 -96t-100 -36t-105.5 44t-43.5 125q0 96 60.5 173.5t160.5 87.5l84 -66l92 66q33 0 95.5 -43t86.5 -101q0 -6 -36 -60q-45 -62 -56.5 -83t-11.5 -57v-136l-6 -72l248 545h86 q74 0 119 -52t45 -136v-631h-136v643q0 59 -38 59l-318 -702h-136v486q0 22 8.5 53t82.5 123zM182 578q-50 0 -49 -50q-1 -52 49 -51q50 -1 50 51q0 50 -50 50z" />
<glyph unicode="&#xe12;" horiz-adv-x="1284" d="M622 706l-136 -71l-136 71q-32 -2 -58 -34t-26 -86v-440l168 159q-102 24 -102 129q0 70 46 111t108 41q57 0 104 -37t47 -113q1 -70 -63 -135l-296 -301h-147v574q0 94 57.5 169t151.5 85l146 -70l145 70q102 -4 155.5 -72t53.5 -182v-281q56 0 116 -33.5t88 -71.5v631 h136v-819h-142q-8 43 -60 102.5t-98 69.5q8 -14 9 -51q0 -45 -38 -93t-116 -48q-59 0 -108 40t-49 115q0 62 31 106.5t95 51.5v293q0 104 -82 120zM484 502q-62 0 -62 -62q0 -64 62 -63q62 -1 61 63q1 62 -61 62zM733 78q55 0 55 57q0 55 -55 55t-55 -55q0 -57 55 -57z" />
<glyph unicode="&#xe13;" horiz-adv-x="1278" d="M1147 819v-463l-51 -36q60 -4 95.5 -53t35.5 -113q0 -72 -48.5 -119t-119.5 -47q-64 0 -117.5 36t-57.5 109q-14 -6 -58 -63.5t-50 -69.5h-135v561q-1 154 -199 154q-102 1 -158 -43q70 -20 130 -82q-68 -22 -103 -79t-35 -105v-111q121 0 159 -44.5t38 -104.5 q0 -58 -38.5 -106t-120.5 -48q-72 0 -122 41t-50 133v252q0 118 94 166q-64 50 -174 72q32 55 134.5 112.5t237.5 57.5q342 0 342 -273v-367q120 118 236 186v447h135zM1054 221q-64 1 -63 -63q-1 -66 63 -66q66 0 66 66q0 64 -66 63zM314 92q54 0 54 58q0 56 -54 55 q-56 1 -56 -55q0 -58 56 -58z" />
<glyph unicode="&#xe14;" horiz-adv-x="938" d="M424 340q-100 22 -100 133q0 66 43 107.5t110 41.5q64 0 107.5 -37.5t43.5 -109.5q0 -66 -63 -137l-295 -338h-147v545q0 131 99.5 205t252.5 74q180 0 268.5 -77t88.5 -202v-545h-136v540q0 174 -219 175q-90 0 -154.5 -43.5t-64.5 -131.5v-382zM475 538q-61 0 -61 -61 q0 -63 61 -63t61 63q0 61 -61 61z" />
<glyph unicode="&#xe15;" horiz-adv-x="938" d="M614 706l-137 -71l-135 71q-84 -16 -84 -120v-440l168 159q-102 22 -102 129q0 66 43 109t110 43q60 0 105.5 -37t45.5 -113q0 -70 -63 -135l-295 -301h-147v574q0 94 58.5 169t150.5 85l145 -70l145 70q98 -4 154 -70t56 -184v-574h-136v586q0 104 -82 120zM475 502 q-61 0 -61 -62q0 -64 61 -63q61 -1 61 63q0 62 -61 62z" />
<glyph unicode="&#xe16;" horiz-adv-x="899" d="M242 584q-66 52 -174 72q18 39 121 104.5t251 65.5q342 0 342 -273v-553h-135v561q-1 154 -199 154q-102 1 -157 -43q74 -24 129 -82q-60 -20 -99 -73t-39 -111v-111q80 0 118 -15.5t58.5 -52.5t20.5 -81q0 -56 -37.5 -105t-121.5 -49q-72 0 -122 41t-50 133v252 q0 119 94 166zM320 92q56 0 55 58q1 56 -55 55q-56 1 -56 -55q0 -58 56 -58z" />
<glyph unicode="&#xe17;" horiz-adv-x="989" d="M672 702l-283 -702h-135v520q-66 0 -106 11t-65 49t-25 90q0 56 38.5 105t120.5 49q66 0 119 -38t53 -137v-235l-12 -128l213 533h102q188 0 188 -188v-631h-134v643q0 59 -74 59zM217 723q-55 1 -55 -55q0 -58 55 -58t55 58q0 56 -55 55z" />
<glyph unicode="&#xe18;" horiz-adv-x="856" d="M215 465h-113v47q0 90 45 162t122 111t183 39q262 0 351 -156l-109 -62q-72 106 -229 106q-186 0 -209 -130h293q178 0 178 -189v-393h-577v116h65v349zM350 465v-349h242v273q0 41 -12 58.5t-58 17.5h-172z" />
<glyph unicode="&#xe19;" horiz-adv-x="989" d="M717 418v401h135v-469l-51 -36q43 -2 78 -45t35 -121q0 -72 -48 -119t-120 -47t-122 41t-50 135q-41 -20 -108.5 -85t-67.5 -73h-140v522q-80 0 -118 15.5t-58 52t-20 82.5q0 66 44 110t115 44q66 0 119 -39t53 -135v-492q75 70 275 168q50 24 49 90zM221 725 q-55 1 -55 -55q0 -58 55 -58t55 58q0 56 -55 55zM742 215q-64 1 -64 -63q0 -66 64 -66q66 0 65 66q1 64 -65 63z" />
<glyph unicode="&#xe1a;" horiz-adv-x="997" d="M880 819v-819h-692v116h66v404q-66 0 -106 11t-65 49t-25 90q0 56 38.5 105t120.5 49q66 0 119 -38t53 -137v-533h357v703h134zM217 723q-55 1 -55 -55q0 -58 55 -58t55 58q0 56 -55 55z" />
<glyph unicode="&#xe1b;" horiz-adv-x="997" d="M880 1278v-1278h-692v116h66v404q-66 0 -106 11t-65 49t-25 90q0 56 38.5 105t120.5 49q66 0 119 -38t53 -137v-533h357v1162h134zM217 723q-55 1 -55 -55q0 -58 55 -58t55 58q0 56 -55 55z" />
<glyph unicode="&#xe1c;" horiz-adv-x="901" d="M647 192v627h135v-819h-135l-197 262l-196 -262h-135v649q0 92 51 133.5t121 41.5q76 0 117.5 -45t41.5 -109q0 -59 -37.5 -104.5t-158.5 -45.5v-328l154 195h92zM291 723q-55 1 -55 -55q0 -58 55 -58t55 58q0 56 -55 55z" />
<glyph unicode="&#xe1d;" horiz-adv-x="899" d="M647 192v1086h135v-1278h-135l-197 262l-196 -262h-135v649q0 92 51 133.5t121 41.5q76 0 117.5 -45t41.5 -109q0 -59 -37.5 -104.5t-158.5 -45.5v-328l154 195h92zM291 723q-55 1 -55 -55q0 -58 55 -58t55 58q0 56 -55 55z" />
<glyph unicode="&#xe1e;" horiz-adv-x="1065" d="M803 0l-199 610l-198 -610h-152v520q-66 0 -106 11t-65 49t-25 90q0 56 38.5 105t120.5 49q66 0 119 -38t53 -137v-268l-8 -74l168 512h107l174 -512l-11 74v438h135v-819h-151zM217 723q-55 1 -55 -55q0 -58 55 -58t55 58q0 56 -55 55z" />
<glyph unicode="&#xe1f;" horiz-adv-x="1071" d="M803 0l-199 610l-198 -610h-152v520q-66 0 -106 11t-65 49t-25 90q0 56 38.5 105t120.5 49q66 0 119 -38t53 -137v-268l-8 -74l168 512h107l174 -512l-11 74v897h135v-1278h-151zM217 723q-55 1 -55 -55q0 -58 55 -58t55 58q0 56 -55 55z" />
<glyph unicode="&#xe20;" horiz-adv-x="981" d="M336 584q-64 50 -174 72q32 55 135 112.5t237 57.5q342 0 342 -273v-553h-134v561q0 154 -200 154q-102 1 -157 -43q74 -24 129 -82q-121 -38 -121 -184v-248q0 -92 -51 -133t-121 -41q-74 0 -116.5 44t-42.5 109q0 60 37.5 104.5t158.5 44.5v132q0 132 78 166zM221 84 q55 0 55 58q0 54 -55 54t-55 -54q0 -58 55 -58z" />
<glyph unicode="&#xe21;" horiz-adv-x="966" d="M700 0q-66 96 -149.5 164t-126.5 68v-99q0 -145 -150 -145q-176 0 -176 182q0 74 44 127t147 53v170q-119 0 -158 45t-39 105q0 66 43 110t117 44q70 0 121 -41t51 -134v-299q55 0 152.5 -63t142.5 -129v661h135v-819h-154zM252 723q-56 1 -56 -55q0 -58 56 -58 q55 0 55 58q0 56 -55 55zM221 180q0 -47 7.5 -64.5t29.5 -17.5q31 0 31 60v80q-64 0 -68 -58z" />
<glyph unicode="&#xe22;" horiz-adv-x="880" d="M209 645q-6 0 -6 -55q0 -144 172 -144h137v-98h-68q-76 0 -113.5 -36t-37.5 -91v-105h340v703h135v-819h-610v188q0 114 44 154.5t62 40.5q-64 0 -123 54.5t-59 158.5q0 108 78 170t176 62q90 0 137 -46t47 -110q0 -76 -50 -115t-110 -39q-62 0 -106.5 40t-44.5 87z M360 725q-56 1 -55 -55q-1 -58 55 -58t56 58q0 56 -56 55z" />
<glyph unicode="&#xe23;" horiz-adv-x="743" d="M559 563v-399q0 -92 -50 -133t-122 -41q-74 0 -116.5 44t-42.5 110q0 45 20 80.5t57 52t119 16.5v159h-366q0 80 9 128t48 110t109 101t178 39q112 0 204 -51t111 -159h-141q-42 94 -180 95q-94 0 -137.5 -49.5t-51.5 -102.5h352zM387 90q55 0 55 58q0 56 -55 55 q-55 1 -55 -55q0 -58 55 -58z" />
<glyph unicode="&#xe24;" horiz-adv-x="897" d="M242 584q-66 52 -174 72q26 45 127 107.5t245 62.5q342 0 342 -273v-848h-135v856q-1 154 -199 154q-102 1 -157 -43q74 -24 129 -82q-60 -20 -99 -73t-39 -111v-111q80 0 118 -15.5t58.5 -52.5t20.5 -81q0 -56 -37.5 -105t-121.5 -49q-72 0 -122 41t-50 133v252 q0 119 94 166zM320 92q56 0 55 58q1 56 -55 55q-56 1 -56 -55q0 -58 56 -58z" />
<glyph unicode="&#xe25;" horiz-adv-x="909" d="M309 284q70 0 111 -37.5t41 -109.5q0 -64 -42 -107.5t-116 -43.5q-159 0 -159 176q0 139 89 282.5t187 186.5q154 -125 234 -319v176q0 224 -236 224q-240 0 -240 -253h-129q0 152 85 258.5t290 106.5q114 0 195 -36t125 -104t44 -162v-522h-141q-16 74 -82.5 224.5 t-150.5 236.5q-14 0 -59.5 -71t-45.5 -106zM305 80q55 0 55 57q0 55 -55 55t-55 -55q0 -57 55 -57z" />
<glyph unicode="&#xe26;" horiz-adv-x="987" d="M336 584q-64 50 -174 72q32 53 135 111.5t237 58.5q342 0 342 -273v-848h-134v856q0 154 -200 154q-102 1 -157 -43q74 -24 129 -82q-121 -38 -121 -184v-248q0 -92 -51 -133t-121 -41q-74 0 -116.5 44t-42.5 109q0 60 37.5 104.5t158.5 44.5v132q0 132 78 166zM221 84 q55 0 55 58q0 54 -55 54t-55 -54q0 -58 55 -58z" />
<glyph unicode="&#xe27;" horiz-adv-x="764" d="M524 293v247q0 174 -174 175q-176 -1 -176 -173v-73h-125v65q0 125 77.5 207.5t225.5 82.5q308 0 308 -279v-381q0 -92 -50 -133t-122 -41q-78 0 -119 46t-41 108q0 45 20 80.5t58 52t118 16.5zM488 90q54 0 54 58q0 56 -54 55q-56 1 -56 -55q0 -58 56 -58z" />
<glyph unicode="&#xe28;" horiz-adv-x="917" d="M654 612q-40 -37 -78 -53q40 -26 40 -84q0 -84 -44 -125t-107 -41q-52 0 -88 27l-111 -336h-143v545q0 126 89 202.5t251 76.5q143 0 213 -46q45 54 45 138h143q0 -156 -104 -216q43 -66 43 -155v-545h-135v540q0 40 -14 72zM592 688q-58 27 -123 27q-88 0 -149.5 -42.5 t-61.5 -132.5v-165l-8 -86l62 174q34 96 64 112.5t116 44.5q58 20 100 68zM471 516q-61 0 -61 -62q0 -64 61 -63q61 -1 61 63q0 62 -61 62z" />
<glyph unicode="&#xe29;" horiz-adv-x="1011" d="M880 340v-340h-692v116h66v404q-66 0 -106 11t-65 49t-25 90q0 56 38.5 105t120.5 49q66 0 119 -38t53 -137v-533h357v183q-41 -8 -97 -8q-219 -1 -219 151q0 62 39 94t90 32q68 0 104.5 -36t36.5 -96q0 -26 -8 -43q34 1 54 11v415h134v-337q4 0 28 23t32 48l78 -90 q-29 -48 -79.5 -85.5t-58.5 -37.5zM217 723q-55 1 -55 -55q0 -58 55 -58t55 58q0 56 -55 55zM563 492q-51 0 -51 -54t51 -53q53 -1 53 53t-53 54z" />
<glyph unicode="&#xe2a;" horiz-adv-x="909" d="M633 786q35 44 35 126h149q0 -41 -21.5 -106.5t-62.5 -99.5q33 -35 46 -93t13 -91v-522h-140q-84 299 -234 461q-12 -8 -38 -41t-46 -77.5t-20 -58.5q70 0 110.5 -37.5t40.5 -109.5q0 -66 -42 -108.5t-116 -42.5q-159 0 -159 176q0 139 92 287.5t294 246.5 q-30 16 -112 16q-240 0 -240 -253h-129q0 176 99.5 270.5t285.5 94.5q136 0 195 -38zM658 312v176q0 82 -27 128l-9 15q-41 -37 -118 -80q36 -26 87 -108t67 -131zM309 80q55 0 55 57q0 55 -55 55t-55 -55q0 -57 55 -57z" />
<glyph unicode="&#xe2b;" horiz-adv-x="989" d="M733 463l-340 -463h-139v520q-66 0 -106 11t-65 49t-25 90q0 56 38.5 105t120.5 49q66 0 119 -38t53 -137v-463l273 359q-24 2 -51 37.5t-27 87.5q0 66 42 110t122 44q60 0 106.5 -39t46.5 -127q1 -70 -71 -116q30 -14 42 -45.5t12 -103.5v-393h-134v438zM744 729 q-56 0 -56 -55q0 -58 56 -58q54 0 54 58q0 55 -54 55zM217 723q-55 1 -55 -55q0 -58 55 -58t55 58q0 56 -55 55z" />
<glyph unicode="&#xe2c;" horiz-adv-x="1085" d="M950 717v-717h-152l-198 463l-198 -463h-152v520q-80 0 -118 16.5t-58.5 52t-20.5 81.5q0 66 43.5 110t116.5 44q64 0 118 -38t54 -137v-317l-8 -74l168 381h107l174 -381l-11 74v307q-170 0 -170 139q0 68 42.5 110t102.5 42q82 0 126 -60q42 30 90 105l80 -111 q-84 -118 -136 -147zM792 834q-54 0 -54 -56q0 -57 54 -57q56 0 56 57q0 56 -56 56zM213 723q-55 1 -55 -55q0 -58 55 -58t55 58q0 56 -55 55z" />
<glyph unicode="&#xe2d;" horiz-adv-x="923" d="M217 0v393q0 86 48.5 135.5t127.5 49.5q70 0 113 -42t43 -110q0 -66 -39.5 -108t-157.5 -42v-160h324v372q0 108 -68 166t-182 58q-156 0 -211 -79.5t-55 -171.5h-130q35 363 398 363q150 0 266.5 -74t116.5 -228v-522h-594zM391 479q-55 0 -55 -55q0 -58 55 -58t55 58 q0 55 -55 55z" />
<glyph unicode="&#xe2e;" horiz-adv-x="852" d="M588 598q-109 -56 -238 -56q-114 0 -199 37t-85 107q0 148 313 148q194 0 254 -68q59 53 84 127l107 -69q-37 -94 -109 -152q2 -4 6 -14t8 -34q4 -34 4 -69v-555h-610v316q0 94 53.5 139t122.5 45q74 0 114.5 -44t40.5 -108q0 -68 -39.5 -109t-156.5 -41v-82h340v420 q0 40 -10 62zM540 692q-64 37 -178 37q-146 0 -145 -39q-1 -41 139 -41q94 0 184 43zM297 402q-55 0 -55 -56q0 -57 55 -57t55 57q0 56 -55 56z" />
<glyph unicode="&#xe2f;" horiz-adv-x="850" d="M606 819h136v-819h-136v588q-22 -35 -104 -72t-178 -37t-173 44.5t-77 144.5q0 76 42 116t120 40q158 0 157 -152q-1 -51 -25 -78q96 0 164 66.5t74 158.5zM234 729q-62 1 -62 -61t62 -62t61 62q1 62 -61 61z" />
<glyph unicode="&#xe30;" horiz-adv-x="760" d="M576 786l106 -51q0 -59 -42 -126t-136 -100.5t-190 -33.5q-254 0 -254 168q0 72 45 108.5t106 36.5q80 0 113.5 -44t33.5 -101q0 -39 -14 -61q232 0 232 204zM209 702q-61 0 -61 -61t61 -61t61 61t-61 61zM576 336l106 -52q0 -106 -96 -183t-274 -77q-123 0 -187.5 43 t-64.5 125q0 74 45 110t106 36q80 0 113.5 -44t33.5 -102q0 -39 -14 -63q232 0 232 207zM209 252q-61 0 -61 -62t61 -61q61 -1 61 61t-61 62z" />
<glyph unicode="&#xe31;" horiz-adv-x="0" d="M223 1256q-29 -112 -151 -195q-120 -80 -281 -80q-151 0 -231 47q-82 47 -82 133q0 66 43 109t115 43q66 0 104 -43q39 -42 39 -102q0 -56 -31 -74q0 -6 68 -6q102 0 188 59q88 61 117 161zM-372 1224q-58 0 -58 -56q0 -58 58 -58q56 0 56 58q0 56 -56 56z" />
<glyph unicode="&#xe32;" horiz-adv-x="719" d="M137 568h-125q0 64 33 122t92 96t170 38q307 0 307 -279v-545h-135v540q0 174 -170 175q-70 0 -121 -35.5t-51 -111.5z" />
<glyph unicode="&#xe33;" horiz-adv-x="719" d="M-184 987q-45 0 -82.5 18.5t-63.5 57.5q-24 41 -24 94q0 37 12 69t35 53t55 34.5t68 13.5q76 0 120 -47q48 -49 48 -123q0 -67 -42 -119t-126 -51zM-184 1231q-74 0 -74 -74q0 -75 74 -75t74 75q0 74 -74 74zM14 568q0 94 72 176q72 80 223 80q307 0 307 -279v-545h-134 v540q0 174 -170 175q-78 0 -126 -39q-46 -38 -46 -108h-126z" />
<glyph unicode="&#xe34;" horiz-adv-x="0" d="M-98 942q-340 86 -623 86q-68 0 -133 -4q14 94 103 190t253 96q94 0 165 -37.5t124 -101t82 -138.5t29 -91zM-674 1120q41 2 70 2q144 0 320 -47q-90 129 -218 129q-61 0 -111.5 -24t-60.5 -60z" />
<glyph unicode="&#xe35;" horiz-adv-x="0" d="M-242 1196v137h136v-391q-291 86 -623 86q-35 0 -82 -2l-49 -2q0 76 94 181t266 105t258 -114zM-682 1120q24 2 78 2q135 0 311 -47q-10 31 -72.5 80t-144.5 49q-68 0 -116 -26t-56 -58z" />
<glyph unicode="&#xe36;" horiz-adv-x="0" d="M-328 1241q28 82 132 82q72 0 106 -41t34 -96q0 -96 -88 -119q30 -51 46 -125q-301 86 -623 86l-131 -4q12 112 101 197t215 85q102 0 208 -65zM-196 1250q-60 0 -60 -60q0 -62 60 -62t59 62q1 60 -59 60zM-674 1120q41 2 70 2q118 0 250 -30l10 -2l60 -15 q-6 22 -69 75.5t-149 53.5q-61 0 -111.5 -24t-60.5 -60z" />
<glyph unicode="&#xe37;" horiz-adv-x="0" d="M-406 1294v39h120v-100l56 -59v159h120v-391q-340 86 -623 86q-35 0 -82 -2l-49 -2q0 70 85 178t255 108q62 0 118 -16zM-686 1120q14 2 70 2h18q125 0 301 -47q-80 129 -219 129q-68 0 -115 -27t-55 -57z" />
<glyph unicode="&#xe38;" horiz-adv-x="0" d="M-232 -477v98q-178 -1 -178 139q0 55 36 102.5t116 47.5q162 0 162 -217v-170h-136zM-260 -180q-60 0 -60 -60t60 -59q57 -1 57 59t-57 60z" />
<glyph unicode="&#xe39;" horiz-adv-x="0" d="M-364 -264v-104h114v262h136v-371h-386v98h2h-22q-56 0 -88.5 15.5t-51 47.5t-18.5 76q0 150 152 150q82 0 122 -52t40 -122zM-528 -180q-60 0 -60 -60t60 -59q58 -1 57 59q1 60 -57 60z" />
<glyph unicode="&#xe3a;" horiz-adv-x="0" d="M-289 -209q0 43 29.5 73t71.5 30q43 0 72.5 -30t29.5 -73q0 -41 -30 -69.5t-72 -28.5q-41 0 -71 28.5t-30 69.5z" />
<glyph unicode="&#xe3f;" horiz-adv-x="895" d="M387 -146v146h-289v960h289v152h105v-152q150 -8 218 -79.5t68 -165.5q0 -138 -135 -203q181 -56 181 -234q0 -268 -332 -278v-146h-105zM387 557v291h-161v-291h161zM492 846v-289q160 9 160 143q0 70 -37 105t-123 41zM387 112v332h-161v-332h161zM492 442v-330 q200 6 200 166q0 158 -200 164z" />
<glyph unicode="&#xe40;" horiz-adv-x="506" d="M264 819v-524q80 0 118 -16.5t58.5 -52.5t20.5 -80q0 -66 -43 -110t-117 -44q-66 0 -119 38t-53 136v653h135zM301 92q55 0 55 58q0 56 -55 55q-55 1 -55 -55q0 -58 55 -58z" />
<glyph unicode="&#xe41;" horiz-adv-x="899" d="M266 819v-524q80 0 118 -15.5t58.5 -52.5t20.5 -81q0 -66 -43 -110t-117 -44q-72 0 -122 41t-50 133v653h135zM303 92q55 0 55 58q0 56 -55 55q-55 1 -55 -55q0 -58 55 -58zM660 819v-524q121 0 158.5 -44.5t37.5 -104.5q0 -58 -39 -106t-121 -48q-66 0 -119 38t-53 136 v653h136zM696 92q56 0 56 58q0 56 -56 55q-56 1 -55 -55q-1 -58 55 -58z" />
<glyph unicode="&#xe42;" horiz-adv-x="559" d="M324 1012v-717q80 0 117.5 -15.5t58 -52.5t20.5 -81q0 -66 -44 -110t-116 -44q-66 0 -119 38t-53 136v796l-266 128q0 125 90 197.5t218 72.5q148 0 220 -80t72 -215h-120q0 100 -51 146.5t-121 46.5q-126 0 -172 -111zM360 92q56 0 56 58q0 56 -56 55q-56 1 -55 -55 q-1 -58 55 -58z" />
<glyph unicode="&#xe43;" horiz-adv-x="651" d="M162 1254q53 -36 53 -124q0 -74 -39.5 -122t-103.5 -48q-68 0 -116 45t-48 129q0 224 246 224q264 0 264 -272v-791q120 0 158 -44.5t38 -104.5q0 -68 -44 -111t-116 -43t-122 41t-50 133v928q0 66 -9 95t-38.5 47t-72.5 18zM2 1130q0 -72 58 -71q64 -1 63 71 q1 78 -61 78q-60 0 -60 -78zM454 92q56 0 56 58q0 56 -56 55q-54 1 -54 -55q0 -58 54 -58z" />
<glyph unicode="&#xe44;" horiz-adv-x="612" d="M150 991h-166q2 17 2 63q0 242 -64 357h129q49 -95 49 -235q0 -18 -4 -64l127 246h152v-1063q80 0 117.5 -16.5t58.5 -52.5t21 -80q0 -66 -43 -110t-117 -44q-66 0 -119 38t-53 136v1012zM412 92q56 0 55 58q1 56 -55 55q-56 1 -56 -55q0 -58 56 -58z" />
<glyph unicode="&#xe45;" horiz-adv-x="715" d="M125 568h-125q0 131 87 193.5t208 62.5q307 0 307 -279v-840h-135v835q0 174 -170 175q-78 0 -125 -38.5t-47 -108.5z" />
<glyph unicode="&#xe46;" horiz-adv-x="1081" d="M430 662q166 0 166 -144q0 -80 -45 -115t-103 -35q-78 0 -117.5 57t-39.5 134q0 94 55.5 178t145.5 84q112 0 172 -90q62 93 130 93q140 0 140 -189v-737q0 -200 -127 -279l-95 86q86 59 86 193v720q0 68 -24 68q-18 0 -51 -25.5t-55 -60.5q-88 108 -158 108 q-60 0 -80 -46zM450 578q-58 0 -57 -60q-1 -59 57 -59q60 0 60 59q0 60 -60 60z" />
<glyph unicode="&#xe47;" horiz-adv-x="0" d="M-168 1489l123 -61q-55 -118 -233 -118q-176 0 -225.5 -5t-80 -32t-30.5 -95q0 -39 8 -72q38 58 88 94h90q0 -41 39 -79.5t75 -38.5q-26 30 -26 65q0 119 123 119q55 0 92 -34t37 -94q0 -55 -41 -106t-141 -51q-146 1 -220 107q-49 -35 -73 -105h-61q-110 1 -111 183 q-1 240 249 239h52q58 -2 66 -2q188 0 200 86zM-215 1194q-51 0 -51 -51t51 -51t51 51t-51 51z" />
<glyph unicode="&#xe48;" horiz-adv-x="0" d="M-256 1382v240h135v-240h-135z" />
<glyph unicode="&#xe49;" horiz-adv-x="0" d="M-293 1489q-60 0 -92.5 28.5t-32.5 76.5q0 53 34 82.5t89 29.5q62 0 92.5 -33t30.5 -86q0 -78 -64 -131q43 0 109.5 37t106.5 89t40 100l90 -46q-30 -131 -174.5 -201.5t-324.5 -70.5v70q16 0 51 14.5t45 40.5zM-297 1640q-47 0 -47 -44q0 -48 47 -48q45 0 45 48 q0 44 -45 44z" />
<glyph unicode="&#xe4a;" horiz-adv-x="0" d="M-372 1503q18 19 52 19q70 0 70 -72q0 -82 -82 -82q-47 0 -82.5 30t-35.5 99q0 80 40 111.5t76 31.5l70 -48l74 48q96 -10 96 -116q0 -43 -16 -78q51 4 90.5 64t39.5 124l70 -38q-30 -222 -303 -222q45 41 45 117q0 64 -30 80l-68 -39l-70 45q-16 0 -29.5 -17.5 t-13.5 -33.5q1 -11 7 -23zM-324 1480q-34 0 -34 -32q0 -35 34 -35q32 0 33 35q-1 32 -33 32z" />
<glyph unicode="&#xe4b;" horiz-adv-x="0" d="M-389 1460v92h129v86h135v-86h129v-92h-129v-86h-135v86h-129z" />
<glyph unicode="&#xe4c;" horiz-adv-x="0" d="M-114 1444q38 -22 38 -78t-35 -83t-77 -27q-53 0 -81 34.5t-28 75.5q1 98 115 127q106 26 131 46.5t25 74.5l92 -33q-6 -68 -60 -102.5t-120 -34.5zM-186 1411q-48 0 -48 -45q0 -47 48 -47q44 0 44 47q0 45 -44 45z" />
<glyph unicode="&#xe4d;" horiz-adv-x="0" d="M-240 934q-45 0 -82.5 18.5t-62.5 57t-25 94.5q0 51 22 89t59 59.5t89 21.5q86 0 127 -52t41 -118t-42 -118t-126 -52zM-240 1178q-74 0 -74 -74q0 -76 74 -76t74 76q0 74 -74 74z" />
<glyph unicode="&#xe4e;" horiz-adv-x="0" d="M-84 1024q-58 -47 -166 -47q-141 1 -141 103q0 49 46.5 98t154.5 49q-94 12 -94 86q0 43 65 77t155 34q64 0 99 -17l-51 -39q-24 10 -50 10q-22 0 -44 -2q-72 -20 -72 -78q0 -60 98 -59l-22 -47q-72 0 -121 -28t-49 -74q0 -58 67 -58q52 0 80 29z" />
<glyph unicode="&#xe4f;" horiz-adv-x="1030" d="M932 412q0 -116 -55.5 -209t-146.5 -148t-208 -55q-116 0 -207.5 55t-147 148t-55.5 209q0 170 120 291t290 121q104 0 194.5 -48.5t153 -143.5t62.5 -220zM874 412q0 148 -103 252t-249 104q-147 0 -250.5 -104t-103.5 -252t103.5 -251t250.5 -103q100 0 179 48t126 127 t47 179zM756 412q0 -96 -69 -165t-165 -69q-98 0 -167 69t-69 165q0 110 75 172.5t161 62.5q66 0 118 -31.5t84 -83.5t32 -120z" />
<glyph unicode="&#xe50;" horiz-adv-x="870" d="M774 286q0 -137 -90 -215.5t-246 -78.5q-152 0 -244 80t-92 214q0 127 94 211.5t242 84.5q162 0 249 -87.5t87 -208.5zM643 284q0 94 -61.5 139.5t-145.5 45.5q-94 0 -149 -50.5t-55 -138.5q0 -82 55 -129t149 -47q207 0 207 180z" />
<glyph unicode="&#xe51;" horiz-adv-x="893" d="M580 -106l-74 63q84 62 123 142.5t39 152.5q0 82 -55 149.5t-173 67.5q-64 0 -109 -22.5t-74 -67.5t-29 -103q0 -64 18 -92q16 108 129 109q68 0 109.5 -40.5t41.5 -104.5q0 -80 -51 -117t-127 -37q-122 0 -187 82t-65 192q0 98 45 167t122 106t185 37q158 0 254 -85 t96 -227q0 -122 -67 -225.5t-151 -146.5zM381 209q-59 1 -59 -61q0 -58 57 -58q59 0 59 62q0 58 -57 57z" />
<glyph unicode="&#xe52;" horiz-adv-x="954" d="M610 518q10 22 43 42t64 20q72 0 108.5 -47t36.5 -125v-408h-706v674q0 118 -105 145l111 86q129 -37 129 -237v-552h436v282q0 86 -43 86q-44 0 -76 -64q-36 64 -76 64q-62 0 -61 -101q31 13 76 13q41 0 70.5 -31t29.5 -85q0 -60 -38.5 -89t-88.5 -29q-158 0 -158 206 q0 94 42 153t112 59q57 0 94 -62zM528 328q-44 0 -44 -48q0 -46 44 -46q48 0 48 46q0 48 -48 48z" />
<glyph unicode="&#xe53;" horiz-adv-x="917" d="M260 176q18 88 121 88q66 0 101.5 -37t35.5 -98q0 -137 -158 -137q-125 0 -186.5 83t-61.5 222q0 116 55.5 200.5t172.5 84.5q122 0 142 -111q28 111 155 111q76 0 117.5 -51.5t41.5 -137.5v-393h-134v398q0 84 -48 84q-74 0 -82 -134h-102q0 134 -88 134 q-51 0 -74.5 -63t-23.5 -126t16 -117zM381 182q-51 0 -51 -51q0 -53 53 -53q51 0 51 51q0 53 -53 53z" />
<glyph unicode="&#xe54;" horiz-adv-x="942" d="M727 114h80v-114h-409q-138 0 -223 80t-85 215q0 131 93 205t253 74h129q109 0 171 79t62 215l124 -49q0 -143 -91 -249.5t-253 -106.5h-164q-80 0 -130 -52.5t-50 -134.5q0 -66 43 -114t104 -48h111q-30 6 -71.5 50.5t-41.5 101.5q0 56 35.5 99t97.5 43q53 0 98.5 -31 t45.5 -97q0 -98 -82 -120q58 -46 153 -46zM520 332q-57 0 -57 -58t57 -57q58 -1 58 57t-58 58z" />
<glyph unicode="&#xe55;" horiz-adv-x="942" d="M540 578q136 0 197 81t61 209l124 -49q0 -143 -91 -249.5t-253 -106.5h-164q-80 0 -130 -52.5t-50 -134.5q0 -66 42 -114t105 -48h111q-35 8 -74 49.5t-39 102.5q0 58 35.5 99t101.5 41q56 0 98 -29t42 -97q0 -45 -23 -78.5t-59 -41.5q47 -46 153 -46h80v-114h-409 q-121 0 -214.5 72t-93.5 221q0 211 209 264q-61 29 -61 105q0 64 45 108.5t119 44.5q88 0 127 -46.5t39 -110.5q0 -54 -28 -80zM404 733q-74 1 -74 -73t74 -74t73 74q1 74 -73 73zM520 332q-57 0 -57 -58t57 -57q58 -1 58 57t-58 58z" />
<glyph unicode="&#xe56;" horiz-adv-x="950" d="M217 410h-115q4 16 4 114q0 256 -86 295l101 80q68 -47 89.5 -126t21.5 -210l-2 -16q47 27 151 27h161q138 0 222 -79t84 -209q0 -104 -65.5 -195t-192.5 -91h-184q-252 0 -252 188q0 62 42 105t105 43q74 0 117 -33t43 -90q0 -73 -25 -99h125q74 0 112.5 54.5 t38.5 124.5q0 78 -59 124t-141 46h-160q-96 1 -135 -53zM309 246q-63 0 -63 -64t63 -63q63 -1 63 63t-63 64z" />
<glyph unicode="&#xe57;" horiz-adv-x="1126" d="M754 106q134 0 133 152v373q1 197 113 281l104 -88q-82 -52 -82 -206v-356q0 -118 -72 -190t-212 -72h-136v106q58 8 58 120v172q0 84 -50 84q-72 0 -80 -134h-102q0 134 -88 134q-49 0 -73.5 -62t-24.5 -127q0 -64 16 -117q18 88 121 88q66 0 101.5 -38t35.5 -97 q0 -70 -46 -106.5t-110 -36.5q-123 0 -186.5 88t-63.5 221q0 116 53.5 201.5t174.5 85.5q118 0 141 -111q18 111 158 111q76 0 116.5 -53.5t40.5 -135.5v-167q0 -92 -40 -120zM379 182q-51 0 -51 -51q0 -53 53 -53q51 0 51 51q0 53 -53 53z" />
<glyph unicode="&#xe58;" horiz-adv-x="1016" d="M434 108q-34 -51 -45 -116q-273 12 -273 284q0 144 87 221t247 77h130q136 0 207 67t71 252l110 -74q0 -166 -94 -261t-262 -95h-172q-98 0 -143 -54.5t-45 -132.5q0 -158 70 -157q72 139 110 163q6 -12 82 -91t127 -79q-43 45 -43 105q0 47 36 95t110 48q80 0 122 -52 t42 -112q0 -106 -70 -156t-168 -50q-55 0 -106.5 20t-129.5 98zM752 270q-64 0 -64 -63t64 -63t63 63q1 63 -63 63z" />
<glyph unicode="&#xe59;" horiz-adv-x="1057" d="M232 196q2 50 43 79.5t93 29.5q74 0 112 -44.5t38 -102.5q0 -59 -44 -109.5t-146 -50.5q-106 0 -177 71t-71 189q0 94 38 165t102 113t146 42q115 0 182.5 -58.5t75.5 -101.5q0 162 95 162q15 0 63 -15q48 -14 58 -14q58 0 57 209q0 80 -10 124l123 -65q4 -20 4 -49 q0 -142 -34 -236t-91 -94q-15 0 -61 12q-47 12 -62 13q-37 -1 -37 -99q0 -94 32.5 -173t131.5 -79q24 0 45 5v-119q-129 0 -195.5 40t-122.5 165q-66 143 -90 171t-64 58.5t-91 30.5q-70 0 -114 -47.5t-44 -131.5q1 -62 15 -90zM370 221q-56 0 -56 -57q0 -58 56 -58 q58 0 58 58q0 57 -58 57z" />
<glyph unicode="&#xe5a;" horiz-adv-x="997" d="M563 819h135v-819h-135v588q-22 -41 -106.5 -75t-176.5 -34q-102 0 -176 44.5t-74 144.5q0 76 42 116t120 40q84 0 120 -45t36 -109q0 -49 -22 -76q94 0 162.5 66.5t74.5 158.5zM190 729q-62 1 -61 -61q-1 -62 61 -62t62 62t-62 61zM798 819h118v-819h-118v819z" />
<glyph unicode="&#xe5b;" horiz-adv-x="1650" d="M1210 301q-102 -137 -124 -137t-109 137q-96 -137 -121 -137q-22 0 -102 118q-108 -282 -334 -282q-146 0 -244 94t-98 285q0 162 91 265.5t239 103.5q102 0 220 -64l-8 -90q-102 72 -214 72q-104 0 -171 -84t-67 -210q0 -120 61.5 -204t192.5 -84q90 0 155 58t163 268 q106 -154 120 -154q6 0 58 78q51 76 65 76q19 0 105 -154q102 154 124 154q4 0 70 -98q64 -98 117 -99q112 0 145 205h76q-41 -278 -217 -278q-117 0 -193 161z" />
<glyph unicode="&#x2000;" horiz-adv-x="853" />
<glyph unicode="&#x2001;" horiz-adv-x="1706" />
<glyph unicode="&#x2002;" horiz-adv-x="853" />
<glyph unicode="&#x2003;" horiz-adv-x="1706" />
<glyph unicode="&#x2004;" horiz-adv-x="568" />
<glyph unicode="&#x2005;" horiz-adv-x="426" />
<glyph unicode="&#x2006;" horiz-adv-x="284" />
<glyph unicode="&#x2007;" horiz-adv-x="284" />
<glyph unicode="&#x2008;" horiz-adv-x="213" />
<glyph unicode="&#x2009;" horiz-adv-x="341" />
<glyph unicode="&#x200a;" horiz-adv-x="94" />
<glyph unicode="&#x200b;" horiz-adv-x="0" />
<glyph unicode="&#x2010;" horiz-adv-x="446" d="M43 352v119h363v-119h-363z" />
<glyph unicode="&#x2011;" horiz-adv-x="446" d="M43 352v119h363v-119h-363z" />
<glyph unicode="&#x2012;" horiz-adv-x="446" d="M43 352v119h363v-119h-363z" />
<glyph unicode="&#x2013;" d="M0 299v97h746v-97h-746z" />
<glyph unicode="&#x2014;" horiz-adv-x="1341" d="M0 299v97h1342v-97h-1342z" />
<glyph unicode="&#x2018;" horiz-adv-x="299" d="M211 798v-136h-127v108q0 80 21 128t87 79l29 -45q-69 -30 -71 -134h61z" />
<glyph unicode="&#x2019;" horiz-adv-x="299" d="M82 834v137h125v-109q0 -80 -20.5 -128t-86.5 -78l-28 46q72 28 72 132h-62z" />
<glyph unicode="&#x201a;" horiz-adv-x="299" d="M82 137h127v-109q-1 -78 -21 -126q-20 -47 -88 -80l-28 47q72 28 72 131h-62v137z" />
<glyph unicode="&#x201c;" horiz-adv-x="446" d="M180 798v-136h-124v108q0 80 20 128t86 79l30 -45q-70 -30 -73 -134h61zM385 798v-136h-127v108q0 102 32 145t74 62l32 -45q-70 -30 -74 -134h63z" />
<glyph unicode="&#x201d;" horiz-adv-x="446" d="M58 834v137h126v-109q0 -80 -21 -128t-87 -78l-29 46q68 26 72 132h-61zM260 834v137h127v-109q0 -80 -21.5 -128t-87.5 -78l-28 46q68 26 72 132h-62z" />
<glyph unicode="&#x201e;" horiz-adv-x="446" d="M58 137h124v-109q0 -80 -20 -128q-18 -47 -86 -78l-29 47q72 28 72 131h-61v137zM260 137h127v-109q-1 -78 -21 -126q-20 -47 -88 -80l-28 47q72 28 72 131h-62v137z" />
<glyph unicode="&#x2020;" d="M309 568h-262v104h262v266h117v-266h264v-104h-264v-796h-117v796z" />
<glyph unicode="&#x2021;" d="M312 16h-265v105h265v475h-265v106h265v246h116v-246h264v-106h-264v-475h264v-105h-264v-244h-116v244z" />
<glyph unicode="&#x2022;" horiz-adv-x="469" d="M72 471q0 47 22 84t59 59.5t85 22.5q70 0 118 -49.5t48 -116.5q0 -47 -23 -85t-60 -60.5t-83 -22.5q-78 0 -122 53t-44 115z" />
<glyph unicode="&#x2026;" horiz-adv-x="1341" d="M156 0v135h135v-135h-135zM604 0v135h136v-135h-136zM1050 0v135h136v-135h-136z" />
<glyph unicode="&#x202f;" horiz-adv-x="341" />
<glyph unicode="&#x2030;" horiz-adv-x="1341" d="M604 977h84l-391 -1012h-86zM24 721q0 247 189 247q72 0 129 -52q58 -54 58 -193q0 -258 -187 -258q-74 0 -131 53q-58 57 -58 203zM121 715q0 -168 94 -168q88 0 88 170q0 172 -90 172q-92 0 -92 -174zM500 219q0 250 186 250q86 1 138 -59t52 -187q0 -258 -188 -258 q-84 -1 -135 61q-53 60 -53 193zM598 215q0 -170 92 -170q88 0 88 170q0 172 -90 172t-90 -172zM942 219q0 250 186 250q86 1 138 -59q54 -60 53 -187q-1 -258 -189 -258t-188 254zM1038 215q0 -170 94 -170q88 0 88 170q0 172 -90 172q-92 0 -92 -172z" />
<glyph unicode="&#x2039;" horiz-adv-x="446" d="M207 346l174 -299h-99l-198 303l198 295h99z" />
<glyph unicode="&#x203a;" horiz-adv-x="446" d="M84 645h96l201 -295l-201 -303h-96l172 299z" />
<glyph unicode="&#x2044;" horiz-adv-x="239" d="M346 1040h129l-579 -1081h-128z" />
<glyph unicode="&#x205f;" horiz-adv-x="426" />
<glyph unicode="&#x20ac;" horiz-adv-x="688" d="M686 948l-66 -143q-70 71 -141 71q-83 0 -113 -69q-10 -20 -15 -55.5t-9 -83.5h242l-42 -113h-204v-73h190l-42 -112h-144q2 -57 6 -95.5t12 -59.5q26 -88 109 -88q77 0 185 96v-178q-56 -30 -110 -45.5t-108 -15.5q-288 0 -301 386h-98l43 112h53l2 73h-98l43 113h60 q30 352 327 352q127 0 219 -72z" />
<glyph unicode="&#x2122;" horiz-adv-x="1341" d="M320 880h-172v80h436v-80h-174v-454h-90v454zM643 960h131l136 -426l130 426h128v-534h-80v448l-138 -448h-82l-143 454v-454h-82v534z" />
<glyph unicode="&#x2202;" horiz-adv-x="708" d="M652 502q2 40 4 72t2 59q0 62 -18 110.5t-48.5 82.5t-75.5 52.5t-98 18.5q-37 0 -67.5 -7.5t-56.5 -21.5t-47 -35t-40 -49h-33q26 55 55 95.5t62 66t70 38t79 12.5q30 -2 62 -10.5t61 -26t53.5 -45t43 -65.5t28.5 -89.5t8 -116.5q0 -123 -26.5 -235t-79.5 -210 q-124 -214 -308 -214q-55 0 -98.5 15t-74.5 45t-47.5 72t-16.5 97q0 62 18.5 121t50.5 109.5t73 89.5t83 61q38 20 79.5 30.5t82.5 10.5q29 0 54.5 -6.5t48 -15.5t43 -23t34.5 -29q10 -9 20 -25zM639 440q-14 38 -34.5 67t-47.5 50t-57.5 31t-63.5 10q-60 0 -122 -45 q-62 -43 -105 -151q-22 -54 -33.5 -108t-11.5 -110q0 -39 10 -69.5t27.5 -52t43 -33t54.5 -11.5q86 0 176 90q58 58 98 141t66 191z" />
<glyph unicode="&#x2206;" horiz-adv-x="876" d="M858 0h-840l438 971zM692 58l-278 675l-308 -675h586z" />
<glyph unicode="&#x220f;" horiz-adv-x="1179" d="M868 938h-556v-1108q0 -28 6 -50t19 -34t34.5 -18t52.5 -6h26v-25h-420v25h28q30 0 51.5 6t35 18t19.5 34t6 50v1030q0 58 -25 82t-87 24h-28v28h1119v-28h-25q-62 0 -87 -24t-25 -82v-1030q0 -28 6 -50t19 -34t35 -18t52 -6h25v-25h-420v25h25q31 0 52.5 6t34.5 18 t20 34t7 50v1108z" />
<glyph unicode="&#x2211;" horiz-adv-x="1022" d="M948 -303h-918v25l468 624l-468 620v28h894l18 -236h-26q-6 49 -20 82.5t-35 55.5t-51 32t-68 10h-519l393 -530l-440 -588h572q28 0 55 4t53 14q20 6 37 17.5t30 29t24 44t19 63.5l28 -6z" />
<glyph unicode="&#x221a;" horiz-adv-x="786" d="M733 1308h53l-218 -1357l-347 709l-139 -64l-22 45l208 107l285 -578z" />
<glyph unicode="&#x221e;" horiz-adv-x="1022" d="M456 467q50 109 105 151q29 20 68 32t88 12q111 0 191 -82q78 -80 77 -212q0 -64 -19.5 -116t-55.5 -94q-76 -84 -170 -84q-70 0 -130 53q-39 29 -106 147q-22 -43 -47 -73.5t-51.5 -51t-58 -30t-71.5 -9.5q-100 0 -170 74q-70 70 -69 186q-1 115 65 185q64 71 150 71 q64 0 106 -30q44 -33 98 -129zM524 326q26 -55 51 -91.5t52 -57.5t55 -28t62 -7q43 0 79.5 15t63.5 46t42 73t15 92q0 104 -62 170q-58 68 -134 68q-24 0 -45 -5t-39.5 -18t-35 -33t-30.5 -46q-10 -18 -29 -62t-45 -116zM436 414q-16 39 -35.5 66.5t-42 46t-49.5 27.5t-59 9 q-37 0 -68.5 -13.5t-55.5 -38.5t-37 -60t-13 -81q0 -47 12 -83.5t37 -63.5q49 -57 111 -57q68 0 118 62q16 18 37 64t45 122z" />
<glyph unicode="&#x222b;" horiz-adv-x="393" d="M152 1034q4 54 13 99t23 79q8 22 21.5 40t30 29t33 17t30.5 6q18 0 34.5 -6t28 -17t18.5 -24.5t7 -27.5q0 -16 -4 -29.5t-13.5 -22.5t-20.5 -14.5t-25 -5.5q-24 1 -54 25q-14 14 -28 14q-10 0 -19.5 -10t-9.5 -35q0 -14 2.5 -38.5l6.5 -64.5q12 -144 19 -259t7 -203 q0 -24 -3 -127t-9 -287q-6 -202 -64 -274q-36 -48 -92 -48q-39 0 -61.5 24t-22.5 62q0 14 5 27t13 21t20 12t26 4q28 0 46 -16q20 -24 38 -25q26 0 26 41q0 12 -2 34t-6 48l-9 109.5t-7 126.5q-4 88 -6 164t-2 144z" />
<glyph unicode="&#x2248;" horiz-adv-x="786" d="M768 727q-2 -45 -16 -81t-37 -60.5t-52.5 -37t-64.5 -12.5q-20 0 -38 2t-32 9l-66 25l-126 48q-54 22 -92.5 34t-63.5 12q-49 0 -82.5 -31t-46.5 -99h-31q0 45 14.5 81.5t37 59.5t52.5 36.5t60 15.5q14 0 31 -3t31 -7q36 -10 86 -28.5t116 -47.5q37 -16 63.5 -26.5 t47.5 -16.5q10 -2 21.5 -3t23.5 -1q27 0 49.5 8t39.5 24.5t29 41t16 57.5h30zM768 383q-2 -45 -16 -81t-37 -60.5t-52.5 -38t-64.5 -13.5q-32 0 -106 23l-156 63q-54 22 -92.5 34t-63.5 12q-24 0 -45 -7.5t-37 -23t-28 -39.5t-19 -60h-31q0 47 14.5 82t36 59.5t51.5 37 t60 14.5q30 0 64 -10q32 -10 83 -28.5t119 -47.5q35 -16 62.5 -25.5t48.5 -15.5q8 -4 19.5 -5t25.5 -1q27 0 49.5 8t39.5 24.5t29 41t16 57.5h30z" />
<glyph unicode="&#x2260;" horiz-adv-x="786" d="M16 572h422l148 374h57l-145 -374h272v-64h-299l-101 -260h400v-66h-424l-148 -366h-56l147 366h-273v66h298l102 260h-400v64z" />
<glyph unicode="&#x2264;" horiz-adv-x="786" d="M768 172l-752 320v57l752 319v-74l-664 -274l664 -276v-72zM16 -45h754v-63h-754v63z" />
<glyph unicode="&#x2265;" horiz-adv-x="786" d="M16 868l752 -319v-57l-752 -320v72l666 274l-666 276v74zM16 -45h754v-63h-754v63z" />
<glyph unicode="&#x25ca;" horiz-adv-x="708" d="M385 996l291 -500l-291 -496h-78l-274 496l274 500h78zM346 928l-238 -432l238 -430l252 430z" />
<glyph unicode="&#x25cc;" horiz-adv-x="1020" d="M710 104q0 -28 -14 -42.5t-44 -14.5q-31 0 -47.5 14.5t-16.5 42.5q0 35 16 49.5t48 14.5q30 0 44 -14.5t14 -49.5zM418 108q0 -30 -17 -45.5t-47 -15.5q-31 0 -47 14.5t-16 42.5q0 35 16.5 49.5t46.5 14.5t47 -14.5t17 -45.5zM293 733q0 -28 -16.5 -42.5t-46.5 -14.5 q-64 0 -64 57q0 35 15 50t49 15q30 0 46.5 -15t16.5 -50zM836 733q0 -57 -62 -57q-34 0 -50 14t-16 43q0 35 16 50t50 15q31 0 46.5 -15t15.5 -50zM710 817q0 -28 -14 -43.5t-44 -15.5q-35 0 -50.5 15t-15.5 44q0 35 15 49t51 14q30 0 44 -14t14 -49zM836 188q0 -62 -62 -61 q-30 0 -47 15.5t-17 45.5q0 32 17 48t47 16q62 0 62 -64zM418 817q0 -28 -17 -43.5t-47 -15.5q-31 0 -47 15t-16 44q0 35 16.5 49t46.5 14t47 -14t17 -49zM952 463q0 -31 -16 -46t-45 -15q-35 0 -50 15t-15 46q0 32 15 46.5t50 14.5q28 0 44.5 -14.5t16.5 -46.5zM209 316 q0 -31 -16.5 -46.5t-46.5 -15.5q-31 0 -47.5 15t-16.5 47q0 34 16 48.5t48 14.5q30 0 46.5 -14.5t16.5 -48.5zM293 188q0 -31 -16.5 -46t-46.5 -15q-64 -1 -64 61q0 64 64 64q30 0 46.5 -16t16.5 -48zM209 610q0 -33 -16.5 -48t-44.5 -15q-35 0 -50.5 15.5t-15.5 47.5t16 47 t48 15q30 0 46.5 -15t16.5 -47zM180 463q0 -61 -64 -61q-34 0 -49.5 15t-15.5 46q0 32 15.5 46.5t49.5 14.5q33 0 48.5 -14.5t15.5 -46.5zM565 850q0 -35 -15.5 -49.5t-49.5 -14.5q-28 0 -45 14.5t-17 49.5q0 30 17 46t45 16q35 0 50 -16t15 -46zM565 80q0 -35 -15.5 -49.5 t-49.5 -14.5q-28 0 -45 14.5t-17 49.5q0 30 17 46t45 16q35 0 50 -16t15 -46zM922 610q0 -33 -15.5 -48t-50.5 -15q-30 0 -47 15.5t-17 47.5t16 47t50 15q31 0 47.5 -15t16.5 -47zM922 316q0 -31 -15.5 -46.5t-50.5 -15.5q-30 0 -47 15t-17 47q0 34 17 48.5t47 14.5 q35 0 50.5 -14.5t15.5 -48.5z" />
<glyph unicode="&#xe000;" horiz-adv-x="695" d="M0 695h695v-695h-695v695z" />
<glyph unicode="&#xf700;" horiz-adv-x="809" d="M360 176q-22 -22 -76 -22q-148 0 -147 155q0 54 40.5 97.5t108.5 43.5q126 0 158 -134l46 -200h44l29 248q0 54 -8 78.5t-33.5 45t-91.5 35.5t-162 15q-110 0 -200 -20q0 160 61 231.5t195 71.5q22 0 98 -6q78 -6 100 -6q54 0 67 10.5t13 56.5h133q0 -90 -28.5 -132 t-141.5 -42q-7 0 -119 6l-120 7q-112 0 -113 -78q53 8 111 8q174 0 275 -57.5t101 -169.5q0 -30 -4 -58l-49 -360h-245zM282 360q-56 0 -56 -59t56 -59q60 0 60 59t-60 59z" />
<glyph unicode="&#xf701;" horiz-adv-x="0" d="M-328 942q-318 86 -622 86l-132 -4q0 68 91.5 177t263.5 109q98 0 170.5 -40.5t124 -104t78 -135.5t26.5 -88zM-903 1120q41 2 69 2q146 0 320 -47q-4 20 -67.5 74.5t-149.5 54.5q-70 0 -118 -27t-54 -57z" />
<glyph unicode="&#xf702;" horiz-adv-x="0" d="M-492 1196v137h136v-391q-334 86 -623 86q-35 0 -82 -2l-49 -2q0 76 94 181t264 105q112 0 178 -45t82 -69zM-932 1120q24 2 78 2q136 0 312 -47q-8 25 -71 77t-147 52q-70 0 -119 -28t-53 -56z" />
<glyph unicode="&#xf703;" horiz-adv-x="0" d="M-596 1241q0 31 40 56.5t91 25.5q76 0 108.5 -42t32.5 -95q0 -96 -88 -119q26 -49 46 -125q-299 86 -623 86q-51 0 -131 -4q0 68 58 148t128 107t129 27q111 0 209 -65zM-465 1250q-59 0 -59 -60q0 -62 59 -62t59 62q0 60 -59 60zM-942 1120q42 2 70 2q150 0 319 -47 q-2 16 -66.5 72.5t-150.5 56.5q-70 0 -118 -27t-54 -57z" />
<glyph unicode="&#xf704;" horiz-adv-x="0" d="M-652 1294v39h120v-100l57 -59v159h119v-391q-334 86 -623 86q-35 0 -82 -2l-49 -2q0 70 85 178t255 108q65 0 118 -16zM-932 1120q24 2 78 2q82 0 166 -15t146 -32q-86 129 -218 129q-70 0 -117 -26t-55 -58z" />
<glyph unicode="&#xf705;" horiz-adv-x="0" d="M-494 981v297h136v-297h-136z" />
<glyph unicode="&#xf706;" horiz-adv-x="0" d="M-628 1126q-144 0 -144 121q0 64 41 96.5t100 32.5q68 0 103.5 -39t35.5 -98q0 -87 -71 -149q135 24 215 106t80 152l104 -52q-34 -150 -199 -231.5t-377 -81.5v80q22 0 61 18.5t51 44.5zM-635 1300q-53 0 -53 -53t53 -53q51 0 51 53t-51 53z" />
<glyph unicode="&#xf707;" horiz-adv-x="0" d="M-666 1184l-90 59q-22 -4 -37.5 -26.5t-15.5 -42.5q0 -18 6 -27q27 25 70 25q92 0 92 -92q-1 -104 -109 -105q-74 0 -113.5 49t-39.5 119q0 68 43.5 123t107.5 57l88 -61l94 61q64 0 95 -42.5t31 -106.5q0 -56 -21 -101q35 0 101.5 67.5t66.5 174.5l92 -49 q-20 -133 -123.5 -209t-267.5 -76q60 53 60 147q0 76 -44 107zM-740 1118q-42 0 -42 -43t42 -43q44 0 44 43t-44 43z" />
<glyph unicode="&#xf708;" horiz-adv-x="0" d="M-735 1132v105h151v151h136v-151h151v-105h-151v-151h-136v151h-151z" />
<glyph unicode="&#xf709;" horiz-adv-x="0" d="M-432 1216q49 -26 49 -98q0 -64 -39.5 -103.5t-103.5 -39.5q-62 0 -101 39.5t-39 101.5q0 125 174 170l70 18q58 16 80 48t22 82l117 -42q-6 -82 -72.5 -129t-156.5 -47zM-524 1176q-60 0 -60 -60q0 -59 60 -59q58 0 57 59q1 60 -57 60z" />
<glyph unicode="&#xf70a;" horiz-adv-x="0" d="M-250 981v297h136v-297h-136z" />
<glyph unicode="&#xf70b;" horiz-adv-x="0" d="M-316 1126q-66 0 -104.5 32t-38.5 89q0 64 39.5 96.5t101.5 32.5q68 0 103 -37t35 -100q0 -87 -70 -149q50 0 126.5 43t122.5 100t46 115l105 -52q-35 -150 -200 -231.5t-376 -81.5v80q24 0 60 17t50 46zM-322 1300q-54 0 -53 -53q-1 -53 53 -53q52 0 52 53t-52 53z" />
<glyph unicode="&#xf70c;" horiz-adv-x="0" d="M-389 1184l-90 59q-23 -4 -38 -26.5t-15 -42.5q0 -18 6 -27q29 25 67 25q95 0 95 -92q0 -104 -109 -105q-74 0 -113.5 49t-39.5 119q0 68 44 123t107 57l88 -61l94 61q60 0 92.5 -39.5t32.5 -109.5q0 -56 -20 -101q35 0 101.5 67.5t66.5 174.5l92 -49q-20 -133 -124 -209 t-268 -76q60 55 60 147q0 76 -45 109zM-463 1118q-43 0 -43 -43t43 -43t43 43t-43 43z" />
<glyph unicode="&#xf70d;" horiz-adv-x="0" d="M-400 1132v105h152v151h136v-151h151v-105h-151v-151h-136v151h-152z" />
<glyph unicode="&#xf70e;" horiz-adv-x="0" d="M-217 1216q18 -4 33.5 -34.5t15.5 -63.5q0 -64 -40 -103.5t-104 -39.5q-61 0 -99.5 42t-38.5 99q0 125 174 170l69 18q58 16 80.5 48t22.5 82l116 -42q-6 -80 -72.5 -128t-156.5 -48zM-309 1176q-59 0 -59 -60q0 -59 59 -59q57 0 57 59q0 60 -57 60z" />
<glyph unicode="&#xf70f;" horiz-adv-x="1280" d="M645 0v561q-1 154 -199 154q-102 1 -157 -43q12 0 59.5 -29t69.5 -53q-60 -20 -99 -73t-39 -111v-111q80 0 118 -15.5t58.5 -52.5t20.5 -81q0 -66 -43.5 -110t-115.5 -44t-122 41t-50 133v252q0 118 94 166q-64 50 -174 72q0 22 108 96t264 74q342 0 342 -273v-437h246 v703h135v-819h-516zM318 92q54 0 54 58q0 56 -54 55q-56 1 -56 -55q0 -58 56 -58z" />
<glyph unicode="&#xf710;" horiz-adv-x="0" d="M28 1260q-16 -125 -142 -203t-300 -78q-144 0 -219 49t-75 133q0 72 44 113q43 41 117 41q65 0 103 -41q38 -38 38 -102q0 -46 -30 -76q12 -2 27.5 -3t33.5 -1q80 0 154 34q73 32 111 86q36 55 36 101zM-557 1227q-57 1 -57 -57t57 -58t57 58t-57 57z" />
<glyph unicode="&#xf711;" horiz-adv-x="0" d="M-542 934q-52 0 -90 21.5t-59 59t-21 89.5q0 51 21 89t59 59.5t90 21.5q76 0 121.5 -47t45.5 -123q0 -66 -41.5 -118t-125.5 -52zM-542 1178q-74 0 -74 -74q0 -76 74 -76t73 76q1 74 -73 74z" />
<glyph unicode="&#xf712;" horiz-adv-x="0" d="M-838 1106q40 60 88 94h90q0 -41 39 -79.5t76 -38.5q-8 8 -20 30q-7 14 -7 35q0 119 124 119q56 0 92 -34t36 -94q0 -55 -42 -106t-140 -51q-145 1 -219 107q-12 0 -40.5 -40t-32.5 -65h-62q-110 1 -110 183q0 240 254 239l106 -2q194 0 206 86l124 -61 q-56 -118 -234 -120h-196q-140 0 -140 -122q0 -43 8 -80zM-446 1194q-52 0 -52 -51t52 -51q50 0 50 51t-50 51z" />
<glyph unicode="&#xf713;" horiz-adv-x="0" d="M-502 1382v240h136v-240h-136z" />
<glyph unicode="&#xf714;" horiz-adv-x="0" d="M-473 1489q-68 0 -96.5 32.5t-28.5 72.5q0 53 34 82.5t89 29.5q123 0 123 -119q0 -78 -64 -131q45 0 110.5 37t105.5 89t40 100l90 -46q-31 -129 -174.5 -200.5t-325.5 -71.5v70q18 0 52.5 15.5t44.5 39.5zM-477 1640q-47 0 -47 -44q0 -48 47 -48q45 0 45 48q0 44 -45 44 z" />
<glyph unicode="&#xf715;" horiz-adv-x="0" d="M-572 1503q18 19 54 19q70 0 70 -72q0 -82 -82 -82q-45 0 -82 29t-37 100q0 80 43.5 111.5t73.5 31.5l69 -48l74 48q96 -10 96 -116q0 -43 -16 -78q43 0 87 58t44 130l70 -38q-32 -222 -304 -222q46 41 46 117q0 64 -32 80l-67 -39l-69 45q-18 0 -31 -18.5t-13 -32.5 q0 -5 6 -23zM-522 1480q-35 0 -35 -32q0 -35 35 -35q32 0 32 35q0 32 -32 32z" />
<glyph unicode="&#xf716;" horiz-adv-x="0" d="M-635 1460v92h129v86h136v-86h128v-92h-128v-86h-136v86h-129z" />
<glyph unicode="&#xf717;" horiz-adv-x="0" d="M-350 1468q8 -6 26 -32q10 -26 10 -44q0 -34 -14 -59t-39.5 -39t-58.5 -14q-45 0 -74.5 33t-29.5 79q0 96 112 126q106 26 131 46t25 74l88 -32q-4 -70 -60.5 -104t-115.5 -34zM-420 1436q-47 0 -47 -46t47 -46q45 0 45 46t-45 46z" />
<glyph unicode="&#xf718;" horiz-adv-x="0" d="M-242 -672q-178 0 -178 140q0 64 41 106q39 41 111 41q60 -1 98 -29q39 -29 51 -65q13 -37 13 -121v-148h-136v76zM-270 -473q-60 1 -60 -59t60 -60q58 0 57 60q1 60 -57 59z" />
<glyph unicode="&#xf719;" horiz-adv-x="0" d="M-250 -637v262h136v-371h-386v99h-36q-66 1 -103 37q-39 37 -39 102q0 150 152 150q82 0 122 -54q40 -52 40 -120v-105h114zM-528 -448q-60 0 -60 -60t60 -60q58 0 57 60q1 60 -57 60z" />
<glyph unicode="&#xf71a;" horiz-adv-x="0" d="M-307 -500q1 43 31 72q28 28 69 28q18 0 36.5 -6t33 -19t23 -32t8.5 -43q0 -42 -29 -72q-29 -28 -72 -28q-20 0 -38.5 8t-32 21.5t-21.5 32t-8 38.5z" />
<glyph unicode="&#xf71b;" horiz-adv-x="993" d="M742 561q0 154 -200 154q-102 1 -157 -43q74 -24 129 -82q-30 -10 -53 -16t-38 -19t-22.5 -32t-7.5 -56v-248q0 -92 -51 -133t-121 -41q-75 0 -117 43q-42 44 -42 110q0 60 36 105q38 45 160 45v115q0 32 5 51.5t14 32t25 21t34 16.5q-64 50 -174 72q24 47 129 108 q103 62 243 62q342 0 342 -273v-690l-184 -205l-258 139q-24 -143 -174 -143q-82 0 -127 49t-45 119q0 80 47 122q48 42 121 42q51 0 86 -19l6 55h129v-10q0 -35 -14 -98l195 -106l84 100v653zM221 146q55 0 55 57q0 55 -55 55t-55 -55q0 -57 55 -57zM254 -119 q-60 0 -60 -61q0 -60 60 -60t60 60q0 61 -60 61z" />
<glyph unicode="&#xf71c;" horiz-adv-x="1001" d="M760 561q0 154 -199 154q-101 1 -157 -43q72 -24 128 -82q-120 -40 -120 -184v-168q0 -92 -50 -134q-50 -40 -122 -40t-117 42q-43 45 -43 111q0 61 36 105q38 44 160 44v52q0 132 78 166q-66 52 -174 72q136 170 373 170q342 0 342 -273v-703l-185 -206l-124 126 l-117 -126l-103 118q-6 -48 -50 -82q-47 -32 -107 -32q-64 0 -117 40q-53 42 -53 124q0 80 47 122q49 44 125 44q49 0 82 -19l6 55h129v-14q0 -43 -10 -86l-4 -22l63 -64l105 100l110 -112l68 76v669zM240 164q56 0 55 57q1 55 -55 55t-56 -55q0 -57 56 -57zM205 -127 q-59 1 -59 -61q0 -60 59 -60t59 60q0 62 -59 61z" />
<glyph unicode="&#xf71d;" horiz-adv-x="1085" d="M950 0h-152l-198 463l-198 -463h-152v520q-80 0 -119 16t-57 52q-20 36 -21 82q-1 66 43 110q43 44 117 44q64 0 119 -40q53 -37 53 -135v-317l-8 -74l168 381h107l174 -381l-11 74v307q-170 0 -170 139q0 68 43 111q42 41 102 41q82 0 126 -60q44 30 90 105l80 -111 q-84 -117 -136 -147v-717zM792 834q-54 0 -54 -56q0 -57 54 -57q56 0 56 57q0 56 -56 56zM213 723q-55 1 -55 -55q0 -58 55 -58t55 58q0 56 -55 55z" />
<glyph unicode="&#xf8ff;" horiz-adv-x="1132" d="M586 844q12 0 37.5 6t62.5 18q37 10 68.5 17.5t56.5 7.5q43 0 82 -12.5t71 -34.5q18 -14 38 -32t38 -40q-58 -49 -82 -86q-46 -68 -46 -148q0 -88 48 -159q49 -72 113 -92q-12 -43 -34.5 -87t-51.5 -92q-94 -136 -186 -136q-39 0 -101 24q-33 8 -59.5 13t-48.5 5 q-46 0 -102 -20q-30 -12 -54 -18t-43 -6q-108 0 -215 182q-51 92 -77.5 181t-26.5 179q0 84 19 149t61 119q82 104 204 105q54 -1 128 -23q74 -20 100 -20zM805 1132q0 -47 -21.5 -99t-66.5 -97q-20 -20 -40.5 -33t-37.5 -21q-16 -2 -33.5 -5t-40.5 -5q0 53 13.5 99.5 t41 84.5t73 66t108.5 42q2 -10 3 -18t1 -14z" />
<glyph horiz-adv-x="0" />
<glyph horiz-adv-x="764" d="M692 450h-270v-274h-80v274h-272v78h272v273h80v-273h270v-78zM692 0h-622v80h622v-80z" />
<glyph d="M715 37q-70 -35 -110.5 -44t-122.5 -9q-156 0 -270 92t-150 264h-86l28 78h47q0 8 -1 22t-1 37v21q0 18 2 34h-75l28 76h60q26 158 145 258t275 100q90 0 134 -11t97 -39v-111h-11q-47 36 -94.5 56.5t-119.5 22.5q-108 -2 -203 -67t-131 -209h303l-27 -76h-290 q-2 -20 -2 -32v-21q0 -20 2 -34.5t4 -26.5h245l-29 -78h-204q39 -144 134.5 -207t197.5 -67q94 4 133 22t81 58h11v-109z" />
<glyph horiz-adv-x="0" d="M0 0h-614v1024h614v-1024z" />
<glyph horiz-adv-x="450" d="M33 -144v82q0 35 6 46.5t45 11.5h288q41 0 47.5 -11t6.5 -47v-82q0 -60 -26 -59q-12 -1 -25 49q-4 20 -17.5 42t-49.5 26t-74 4q-51 0 -82 -5t-44.5 -15t-25.5 -58q-12 -44 -26 -43q-22 -1 -23 59z" />
<glyph horiz-adv-x="0" d="M-252 -414q39 0 66.5 -27.5t27.5 -66.5t-27.5 -66.5t-66.5 -27.5t-66.5 27.5t-27.5 66.5t27.5 66.5t66.5 27.5z" />
<glyph horiz-adv-x="719" d="M-551 966q-45 0 -82 20t-61 58q-26 38 -27 92q0 37 13.5 69t36 54.5t53 34.5t67.5 12q76 0 123 -46q45 -48 45 -124q0 -66 -41 -116q-41 -54 -127 -54zM-551 1210q-71 0 -71 -74q0 -76 71 -75q76 -1 76 75q0 74 -76 74zM14 568q0 94 72 176q72 80 223 80q307 0 307 -279 v-545h-134v540q0 174 -170 175q-78 0 -126 -39q-46 -38 -46 -108h-126z" />
<glyph horiz-adv-x="0" d="M-328 1024q-58 -47 -166 -47q-142 1 -141 103q0 50 47 98q46 50 154 49q-94 12 -94 86q0 43 65 77q66 34 156 34q66 0 98 -17l-51 -39q-24 10 -49 10q-23 0 -45 -2q-72 -20 -72 -78q0 -60 98 -59l-22 -47q-72 0 -121 -28q-49 -26 -49 -74q0 -58 68 -58q52 0 80 29z" />
<glyph horiz-adv-x="1024" d="M129 0v950h768v-950h-768zM256 129h512v695h-512v-695z" />
</font>
</defs>
</svg>
